<svg version="1.1" xmlns="http://www.w3.org/2000/svg" xmlns:xlink="http://www.w3.org/1999/xlink" x="0px" y="0px"
	 viewBox="0 0 1220.82 157.8" style="enable-background:new 0 0 1220.82 157.8;" xml:space="preserve">
<g>
	<path fill="#FFFFFF" d="M30.33,48.56c0.09-0.19,0.21-0.66,0.37-1.4s0.33-1.54,0.52-2.4c0.18-0.86,0.36-1.66,0.53-2.4
		c0.17-0.74,0.3-1.21,0.39-1.4V40.6c0-0.09-0.01-0.21-0.03-0.39c-0.02-0.17-0.06-0.33-0.13-0.47c-0.06-0.14-0.15-0.24-0.26-0.31
		c-0.11-0.06-0.25-0.04-0.42,0.06L7.06,48.39l0.77,0.71L0,49.55c-0.02-0.37,0.05-0.78,0.21-1.26c0.16-0.47,0.42-0.83,0.79-1.06
		c2.47-0.79,5.06-1.53,7.78-2.21c2.72-0.68,5.42-1.41,8.12-2.21c2.7-0.79,5.32-1.69,7.88-2.69c2.56-1,4.92-2.22,7.09-3.66
		c0-0.19-0.01-0.51-0.03-0.95c-0.02-0.44-0.03-0.94-0.03-1.5c0-0.56,0.02-1.14,0.05-1.74c0.03-0.6,0.11-1.15,0.23-1.66
		c0.12-0.5,0.27-0.92,0.47-1.24s0.45-0.49,0.77-0.52c0.09,0,0.21,0.01,0.39,0.03c0.17,0.02,0.34,0.06,0.5,0.13s0.31,0.14,0.44,0.23
		c0.13,0.09,0.19,0.17,0.19,0.26l0.35,5.99c0.28,0,0.54-0.01,0.77-0.03c0.21-0.02,0.42-0.03,0.63-0.03c0.2,0,0.36-0.01,0.47-0.03
		c0.09,0,0.27-0.05,0.56-0.15s0.6-0.2,0.92-0.32c0.32-0.12,0.62-0.23,0.9-0.32c0.28-0.1,0.47-0.15,0.58-0.15l60.07-11.73
		c0.62-0.09,1.59-0.22,2.9-0.4c1.31-0.18,2.84-0.38,4.58-0.58c1.74-0.2,3.62-0.42,5.64-0.64c2.02-0.23,4.04-0.45,6.07-0.66
		c2.03-0.21,4-0.4,5.9-0.56s3.6-0.28,5.11-0.37l3.38-0.19l0.77,0.71c-2.69,1.1-5.49,1.89-8.43,2.38c-2.93,0.49-5.92,0.84-8.98,1.05
		c-3.05,0.2-6.13,0.34-9.25,0.42c-3.12,0.08-6.21,0.24-9.28,0.5c-3.07,0.26-6.09,0.68-9.06,1.27c-2.96,0.59-5.82,1.5-8.57,2.72
		L44.6,35.7l-8.86,2.77l-0.71,0.81c-0.15,0.73-0.4,1.79-0.74,3.19c-0.34,1.4-0.76,3.03-1.26,4.9c-0.49,1.87-1.05,3.92-1.66,6.14
		s-1.25,4.52-1.92,6.9c-0.67,2.37-1.34,4.76-2.03,7.17c-0.69,2.41-1.35,4.72-2,6.94s-1.26,4.3-1.84,6.24s-1.1,3.62-1.55,5.06
		c-0.45,1.44-0.83,2.57-1.13,3.4c-0.3,0.83-0.48,1.24-0.55,1.24c-0.21-3.54-0.06-7.07,0.47-10.59c0.53-3.51,1.28-6.99,2.26-10.43
		c0.98-3.44,2.11-6.84,3.38-10.2c1.28-3.36,2.57-6.68,3.88-9.94L30.33,48.56z M147.79,18.42c-0.64,0.39-1.4,0.66-2.26,0.82
		c-0.86,0.16-1.73,0.28-2.61,0.35c-0.88,0.08-1.75,0.13-2.59,0.16c-0.85,0.03-1.6,0.09-2.24,0.18v-1.51H147.79z"/>
	<path fill="#FFFFFF" d="M74.87,64.49c-0.18-0.46-0.42-0.83-0.71-1.1c-0.29-0.27-0.65-0.45-1.08-0.53c-0.43-0.09-0.96-0.08-1.58,0.03
		c-2.23,0.39-4.2,1.02-5.9,1.89c-1.7,0.87-3.18,1.91-4.45,3.13c-1.27,1.21-2.34,2.56-3.22,4.04c-0.88,1.48-1.61,3.03-2.19,4.64
		s-1.03,3.25-1.35,4.93s-0.56,3.32-0.71,4.93c-0.04,0.54-0.16,0.91-0.35,1.11s-0.42,0.28-0.68,0.24c-0.26-0.04-0.53-0.19-0.82-0.45
		s-0.58-0.58-0.85-0.98c-0.28-0.4-0.53-0.85-0.74-1.35c-0.21-0.5-0.37-1.03-0.45-1.56c-0.04-0.17-0.08-0.33-0.1-0.48
		c-0.02-0.15-0.04-0.28-0.06-0.39c-0.02-0.13-0.04-0.26-0.06-0.39L78.6,7.98c0,1.83-0.2,3.82-0.6,5.99
		c-0.4,2.17-0.92,4.43-1.58,6.78c-0.66,2.35-1.41,4.75-2.27,7.2c-0.86,2.45-1.75,4.87-2.67,7.27c-0.92,2.4-1.85,4.72-2.79,6.96
		c-0.93,2.25-1.8,4.34-2.61,6.28c-0.81,1.94-1.51,3.7-2.13,5.27c-0.61,1.57-1.07,2.86-1.37,3.87l-1.42,4.9
		c0.92-1.14,1.75-2.13,2.47-2.96c0.72-0.84,1.47-1.55,2.24-2.14c0.77-0.59,1.64-1.07,2.61-1.45c0.97-0.38,2.16-0.69,3.58-0.95
		c1.05-0.19,2.01-0.15,2.87,0.13c0.86,0.28,1.63,0.71,2.3,1.31c0.68,0.59,1.28,1.3,1.8,2.13c0.53,0.83,0.98,1.69,1.35,2.59
		c0.38,0.9,0.69,1.8,0.93,2.71c0.25,0.9,0.44,1.72,0.56,2.45c0.19,1.05,0.28,2.29,0.27,3.71c-0.01,1.42-0.12,2.9-0.34,4.43
		c-0.21,1.54-0.54,3.07-0.98,4.59c-0.44,1.53-1.01,2.92-1.71,4.17c-0.7,1.26-1.53,2.32-2.5,3.19s-2.08,1.41-3.35,1.63
		c0.58-1.83,1.07-3.44,1.47-4.85c0.4-1.41,0.71-2.7,0.95-3.87c0.24-1.17,0.39-2.26,0.47-3.25c0.08-1,0.09-2,0.05-3.01
		c-0.04-1.01-0.15-2.07-0.31-3.17c-0.16-1.11-0.36-2.35-0.6-3.72C75.2,65.51,75.06,64.95,74.87,64.49z M118.56-0.01v1.13
		c0.11-0.06,0.18-0.14,0.23-0.23c0.04-0.09,0.09-0.18,0.15-0.27c0.05-0.1,0.11-0.2,0.18-0.31c0.06-0.11,0.17-0.21,0.32-0.32H118.56z
		 M129.29,2.08c0.09,0,0.13-0.03,0.13-0.1s-0.04-0.1-0.13-0.1c-0.09,0-0.13,0.03-0.13,0.1S129.2,2.08,129.29,2.08z M130.16,4.13
		c0,0.1,0.03,0.15,0.1,0.15c0.09,0,0.13-0.05,0.13-0.15s-0.04-0.15-0.13-0.15C130.19,3.99,130.16,4.03,130.16,4.13z"/>
	<path fill="#FFFFFF" d="M86.87,84.13c0.34-0.49,0.9-0.96,1.66-1.4c0.76-0.44,1.63-0.85,2.59-1.22c0.97-0.38,2-0.74,3.09-1.08
		c1.1-0.34,2.15-0.67,3.16-0.98c1.01-0.31,1.94-0.6,2.8-0.87c0.86-0.27,1.54-0.53,2.03-0.79c1.01-2.73,2.07-5.12,3.19-7.17
		c1.12-2.05,2.29-3.84,3.51-5.37c1.22-1.53,2.51-2.81,3.87-3.87c1.35-1.05,2.77-1.95,4.25-2.71c1.48-0.75,3.03-1.39,4.66-1.92
		c1.62-0.53,3.32-1,5.11-1.43c0.17-0.04,0.5-0.06,1-0.06c0.49,0,1.03,0.01,1.6,0.02c0.57,0.01,1.1,0.02,1.6,0.03
		c0.49,0.01,0.84,0.02,1.03,0.02c0.56,0.19,0.95,0.54,1.18,1.03c0.23,0.49,0.36,1.02,0.4,1.58c0.04,0.56,0.04,1.09-0.02,1.6
		c-0.05,0.5-0.08,0.85-0.08,1.05c0,1.5-0.39,2.81-1.16,3.93c-0.77,1.12-1.78,2.12-3.01,3.01c-1.24,0.89-2.61,1.71-4.12,2.45
		s-3.01,1.47-4.5,2.19c-1.48,0.72-2.86,1.48-4.12,2.27c-1.27,0.79-2.28,1.69-3.03,2.67l3,1.51c0.13,0,0.53,0.04,1.19,0.13
		c0.67,0.09,1.48,0.19,2.43,0.32c0.96,0.13,2.01,0.27,3.16,0.42c1.15,0.15,2.27,0.29,3.35,0.42c1.08,0.13,2.08,0.24,3,0.32
		c0.91,0.09,1.62,0.13,2.11,0.13c3.16,0,6.26-0.13,9.3-0.4c3.04-0.27,6.06-0.56,9.07-0.89c3.01-0.32,6.03-0.62,9.07-0.89
		c3.04-0.27,6.14-0.4,9.3-0.4h6.74c-4.17,1.25-8.41,2.34-12.73,3.27s-8.56,1.72-12.73,2.35c-4.17,0.63-8.21,1.11-12.12,1.42
		c-3.91,0.31-7.54,0.47-10.89,0.47c-1.87,0-3.69-0.08-5.46-0.24s-3.52-0.33-5.25-0.52c-1.73-0.18-3.44-0.35-5.12-0.52
		c-1.69-0.16-3.37-0.24-5.04-0.24c-0.99,0-1.96,0.1-2.9,0.31c-0.95,0.2-1.87,0.46-2.79,0.76c-0.91,0.3-1.82,0.63-2.71,0.98
		c-0.89,0.35-1.79,0.68-2.71,0.98c-0.91,0.3-1.84,0.55-2.79,0.76c-0.95,0.2-1.91,0.31-2.9,0.31c-0.56,0-1.03-0.14-1.42-0.42
		s-0.68-0.61-0.87-1s-0.29-0.79-0.29-1.22C86.55,84.8,86.66,84.43,86.87,84.13z M126.8,60.58c-0.99,0-2.1,0.12-3.34,0.37
		c-1.24,0.25-2.49,0.6-3.75,1.05c-1.27,0.45-2.5,1.01-3.71,1.68c-1.2,0.67-2.28,1.41-3.22,2.24c-0.95,0.83-1.7,1.74-2.27,2.72
		c-0.57,0.99-0.85,2.04-0.85,3.16v1.51c0.62-0.26,1.48-0.61,2.56-1.06c1.08-0.45,2.27-0.98,3.54-1.58c1.28-0.6,2.57-1.28,3.87-2.03
		c1.3-0.75,2.48-1.56,3.54-2.42c1.06-0.86,1.93-1.76,2.61-2.71C126.46,62.56,126.8,61.59,126.8,60.58z M181.23,77.78h-3l1.48-1.48
		L181.23,77.78z M190.16,75.56c0.17,0,0.3,0.08,0.39,0.23c0.09,0.15,0.13,0.32,0.13,0.52s-0.04,0.37-0.13,0.52
		c-0.09,0.15-0.21,0.23-0.39,0.23c-0.19,0-0.33-0.08-0.42-0.23c-0.09-0.15-0.13-0.32-0.13-0.52s0.04-0.37,0.13-0.52
		C189.82,75.64,189.96,75.56,190.16,75.56z"/>
	<path fill="#FFFFFF" d="M158.3,98.44c4.17-1.53,7.94-2.88,11.33-4.08s6.45-2.33,9.18-3.42c2.74-1.08,5.2-2.18,7.38-3.29
		s4.16-2.35,5.95-3.72c1.78-1.37,3.41-2.95,4.88-4.74c1.47-1.78,2.86-3.89,4.17-6.32c1.31-2.43,2.58-5.24,3.82-8.44
		c1.24-3.2,2.51-6.92,3.82-11.15c-0.99-0.32-2.21-0.5-3.67-0.53c-1.46-0.03-2.98,0.04-4.56,0.23c-1.58,0.18-3.13,0.45-4.66,0.81
		c-1.53,0.35-2.87,0.77-4.03,1.24l0.81,1.22l-2.45,1.71c-0.52,0.37-1.02,0.52-1.5,0.47c-0.48-0.05-0.93-0.24-1.35-0.56
		s-0.8-0.74-1.14-1.24c-0.34-0.5-0.63-1.03-0.85-1.58s-0.39-1.08-0.48-1.6s-0.11-0.95-0.05-1.29c0.02-0.13,0.05-0.28,0.08-0.45
		c0.03-0.17,0.1-0.33,0.19-0.48c0.1-0.15,0.23-0.27,0.39-0.37s0.37-0.12,0.63-0.08l24.49-1.39l5.19-16.66
		c1.18,0.39,2.05,0.93,2.61,1.64c0.56,0.71,0.9,1.53,1.02,2.45c0.12,0.92,0.08,1.91-0.13,2.95c-0.2,1.04-0.48,2.08-0.82,3.13
		c-0.34,1.04-0.71,2.05-1.11,3.01c-0.4,0.97-0.71,1.83-0.95,2.58c2.08,0.21,3.94,0.38,5.56,0.5c1.62,0.12,3.11,0.23,4.46,0.32
		s2.64,0.19,3.85,0.29c1.21,0.1,2.47,0.21,3.75,0.35c1.29,0.14,2.68,0.32,4.17,0.55c1.49,0.23,3.2,0.51,5.11,0.85
		c0.52,0.09,1.14,0.21,1.87,0.39c0.73,0.17,1.49,0.39,2.27,0.66c0.78,0.27,1.56,0.59,2.32,0.97c0.76,0.38,1.42,0.81,1.98,1.31
		c0.56,0.49,0.98,1.06,1.27,1.69c0.29,0.63,0.37,1.35,0.24,2.14c-0.21,1.16-0.62,2.2-1.21,3.11c-0.59,0.91-1.31,1.74-2.14,2.47
		c-0.84,0.73-1.76,1.38-2.76,1.95c-1,0.57-2.01,1.09-3.05,1.56c-3.46,1.27-6.88,2.7-10.26,4.3c-3.38,1.6-6.77,3.19-10.17,4.77
		c-3.4,1.58-6.82,3.05-10.28,4.42c-3.46,1.36-6.98,2.45-10.57,3.27c-0.17,0.52-0.39,1.24-0.64,2.16c-0.26,0.92-0.58,1.84-0.97,2.76
		c-0.39,0.91-0.85,1.72-1.39,2.42c-0.54,0.7-1.15,1.07-1.84,1.11c-0.28-0.49-0.5-1.04-0.66-1.63c-0.16-0.59-0.29-1.19-0.37-1.8
		c-0.09-0.61-0.14-1.22-0.16-1.84c-0.02-0.61-0.01-1.2,0.03-1.76c-1.38,0.19-2.85,0.6-4.43,1.21s-3.22,1.34-4.91,2.19
		c-1.7,0.85-3.44,1.77-5.22,2.77c-1.78,1-3.58,1.99-5.38,2.98c-1.8,0.99-3.61,1.93-5.41,2.82c-1.8,0.89-3.57,1.64-5.29,2.26
		c-1.72,0.61-3.38,1.05-4.98,1.32c-1.6,0.27-3.12,0.27-4.56,0.02c0.11-0.52,0.31-1,0.61-1.47C157.64,99.41,157.96,98.94,158.3,98.44
		z M214.73,54c-0.34,1.57-0.81,3.12-1.39,4.66c-0.58,1.54-1.2,3.07-1.87,4.59c-0.67,1.53-1.32,3.05-1.97,4.58
		c-0.64,1.53-1.2,3.04-1.68,4.54c-0.04,0.17-0.16,0.47-0.34,0.89c-0.18,0.42-0.4,0.89-0.64,1.42c-0.25,0.53-0.52,1.08-0.81,1.68
		c-0.29,0.59-0.56,1.16-0.82,1.69c-0.26,0.54-0.48,1.01-0.68,1.42c-0.19,0.41-0.31,0.7-0.35,0.87c3.18-1.16,6.01-2.2,8.49-3.11
		c2.48-0.91,4.71-1.74,6.67-2.48s3.74-1.43,5.32-2.06c1.58-0.63,3.06-1.25,4.45-1.84c1.39-0.59,2.73-1.19,4.03-1.79
		c1.3-0.6,2.66-1.26,4.08-1.98c1.42-0.72,2.95-1.51,4.59-2.37c1.64-0.86,3.51-1.85,5.59-2.96c0.15-0.11,0.36-0.26,0.63-0.47
		c0.27-0.2,0.54-0.44,0.82-0.69c0.28-0.26,0.53-0.52,0.76-0.79c0.23-0.27,0.37-0.53,0.44-0.79c-0.06-0.73-0.34-1.36-0.82-1.89
		c-0.48-0.53-1.09-0.97-1.82-1.34c-0.73-0.37-1.54-0.67-2.42-0.92c-0.88-0.25-1.73-0.45-2.55-0.6c-0.82-0.15-1.57-0.26-2.26-0.34
		c-0.69-0.08-1.2-0.15-1.55-0.21c-1.83-0.32-3.74-0.63-5.75-0.93c-2.01-0.3-4.04-0.49-6.09-0.56c-2.05-0.08-4.1,0.01-6.14,0.26
		C218.62,52.72,216.64,53.23,214.73,54z"/>
	<path fill="#FFFFFF" d="M279.63,85c-0.3-0.15-0.76-0.24-1.37-0.26c-0.61-0.02-1.31,0.01-2.08,0.08c-0.77,0.08-1.6,0.17-2.47,0.29
		c-0.87,0.12-1.71,0.23-2.53,0.32c-0.82,0.1-1.57,0.17-2.26,0.23c-0.69,0.05-1.25,0.05-1.68-0.02c-0.77-0.13-1.5-0.29-2.18-0.5
		c-0.68-0.2-1.25-0.51-1.71-0.92c-0.46-0.41-0.79-0.92-1-1.55c-0.2-0.62-0.23-1.42-0.08-2.38l0.32-1.93
		c0.52-0.56,1.39-1.14,2.61-1.76s2.6-1.24,4.14-1.87c1.54-0.63,3.13-1.27,4.79-1.92c1.65-0.64,3.17-1.28,4.56-1.9
		c1.39-0.62,2.54-1.23,3.46-1.82c0.92-0.59,1.43-1.15,1.51-1.69c0.17-1.05,0.11-2-0.19-2.85c-0.3-0.85-0.75-1.61-1.34-2.27
		c-0.59-0.67-1.31-1.25-2.14-1.76c-0.84-0.5-1.7-0.93-2.59-1.29c-0.89-0.35-1.79-0.64-2.69-0.87s-1.72-0.4-2.45-0.53
		c-1.27-0.19-2.36-0.32-3.27-0.39c-0.91-0.06-1.75-0.05-2.5,0.05c-0.75,0.1-1.45,0.28-2.09,0.55c-0.64,0.27-1.31,0.64-2,1.11
		c-0.69,0.47-1.45,1.05-2.27,1.72c-0.83,0.68-1.8,1.47-2.92,2.37c0.21,0.69,0.28,1.35,0.19,1.98c-0.09,0.63-0.29,1.21-0.61,1.72
		s-0.75,0.97-1.27,1.35c-0.53,0.39-1.13,0.69-1.82,0.9c-0.75-0.28-1.28-0.67-1.58-1.16c-0.3-0.49-0.47-1.03-0.5-1.6
		c-0.03-0.57,0.02-1.15,0.15-1.74c0.13-0.59,0.24-1.13,0.32-1.63c0.21-1.35,0.72-2.58,1.51-3.67c0.79-1.1,1.78-2.06,2.95-2.88
		c1.17-0.83,2.48-1.53,3.92-2.09c1.44-0.57,2.9-1,4.38-1.31c1.48-0.3,2.93-0.48,4.35-0.55s2.71,0,3.87,0.19
		c2.41,0.39,4.48,0.9,6.22,1.53c1.74,0.63,3.21,1.42,4.42,2.35c1.2,0.93,2.18,2.03,2.93,3.29c0.75,1.26,1.35,2.69,1.8,4.29
		c0.45,1.6,0.79,3.4,1.02,5.4s0.42,4.2,0.6,6.61c-0.04,0.32,0.04,0.64,0.24,0.95c0.2,0.31,0.47,0.48,0.79,0.5
		c2.66,0.11,4.87,0.21,6.61,0.31s3.21,0.19,4.42,0.27c1.2,0.09,2.22,0.17,3.06,0.24c0.84,0.08,1.67,0.12,2.5,0.15
		c0.83,0.02,1.74,0.02,2.74,0c1-0.02,2.27-0.08,3.8-0.16c1.54-0.09,3.43-0.21,5.69-0.39c2.26-0.17,5.05-0.39,8.38-0.64
		c0.15-0.02,0.37-0.01,0.66,0.03c0.29,0.04,0.59,0.09,0.9,0.15c0.31,0.05,0.61,0.11,0.9,0.18c0.29,0.06,0.52,0.11,0.69,0.13
		c-3.12,0.56-5.94,1.02-8.46,1.39c-2.53,0.37-4.83,0.69-6.93,0.97c-2.09,0.28-4,0.54-5.72,0.77c-1.72,0.24-3.34,0.5-4.87,0.81
		c-1.53,0.3-2.98,0.65-4.35,1.05c-1.38,0.4-2.77,0.9-4.17,1.5c-1.41,0.6-2.85,1.33-4.33,2.19c-1.48,0.86-3.09,1.9-4.83,3.13
		l-4.96-0.39c-0.62-0.11-0.98-0.2-1.08-0.29c-0.1-0.09-0.09-0.19,0.03-0.31c0.12-0.12,0.28-0.27,0.48-0.45
		c0.2-0.18,0.29-0.42,0.27-0.71c-0.02-0.29-0.24-0.64-0.64-1.06C281.47,86.12,280.72,85.6,279.63,85z M279.56,77.17
		c-0.47-0.06-1.05-0.08-1.74-0.05c-0.69,0.03-1.4,0.11-2.14,0.24s-1.47,0.3-2.19,0.5c-0.72,0.2-1.34,0.42-1.85,0.66l1.87,0.32
		c0.62,0.11,1.19,0.19,1.71,0.24c0.52,0.05,1.04,0.08,1.56,0.08c0.53,0,1.09-0.04,1.69-0.13c0.6-0.09,1.32-0.23,2.16-0.42
		c0.06-0.3-0.02-0.61-0.24-0.92C280.16,77.39,279.88,77.22,279.56,77.17z"/>
	<path fill="#FFFFFF" d="M310.88,76.14c0.11-0.43,0.21-0.85,0.32-1.27s0.24-0.82,0.4-1.19c0.16-0.38,0.36-0.73,0.6-1.05
		s0.54-0.6,0.9-0.84l3.74-18.21c0.04-0.3,0.18-0.52,0.4-0.64c0.22-0.13,0.47-0.2,0.72-0.21c0.26-0.01,0.51,0.01,0.76,0.05
		c0.25,0.04,0.42,0.1,0.53,0.16c0.77,0.15,1.35,0.46,1.72,0.92c0.38,0.46,0.61,1.01,0.69,1.64c0.09,0.63,0.07,1.33-0.05,2.09
		c-0.12,0.76-0.27,1.52-0.47,2.27c-0.19,0.75-0.4,1.47-0.61,2.14s-0.37,1.25-0.45,1.72c0.77,0.15,1.69,0.09,2.76-0.18
		c1.06-0.27,2.2-0.67,3.4-1.21c1.2-0.54,2.43-1.17,3.67-1.9c1.25-0.73,2.43-1.47,3.54-2.22c1.12-0.75,2.13-1.48,3.03-2.19
		s1.61-1.31,2.13-1.8c3.09-1.22,5.99-2.33,8.7-3.32c2.71-0.99,5.28-1.89,7.72-2.69s4.8-1.53,7.07-2.16
		c2.28-0.63,4.54-1.21,6.78-1.74c2.25-0.53,4.52-1,6.82-1.43c2.3-0.43,4.7-0.84,7.2-1.22c2.5-0.39,5.14-0.76,7.93-1.11
		c2.78-0.35,5.78-0.71,9.01-1.08l1.19,0.55c-1.33,0.06-3.13,0.26-5.4,0.58s-4.86,0.77-7.78,1.34c-2.92,0.57-6.09,1.26-9.51,2.08
		c-3.42,0.82-6.94,1.75-10.57,2.8c-3.63,1.05-7.29,2.22-10.97,3.5c-3.69,1.28-7.25,2.66-10.7,4.16c-3.45,1.49-6.71,3.09-9.78,4.79
		c-3.07,1.7-5.81,3.5-8.22,5.41c-2.41,1.91-4.4,3.92-5.98,6.01c-1.58,2.09-2.61,4.28-3.08,6.56c-0.06,0.43-0.03,0.91,0.11,1.43
		c0.14,0.53,0.3,1.05,0.48,1.56s0.34,1,0.48,1.45c0.14,0.45,0.17,0.81,0.08,1.06c-0.24,1.46-0.75,2.53-1.53,3.21
		s-1.9,0.87-3.33,0.56c-1.29-0.26-2.29-0.75-3-1.48c-0.71-0.73-1.21-1.59-1.5-2.58c-0.29-0.99-0.41-2.04-0.36-3.14
		C310.56,78.21,310.69,77.15,310.88,76.14z M428.38,37.37c0.32,0.04,0.73,0.1,1.22,0.16s0.88,0.12,1.16,0.16
		c-2.64,0-5.34,0.04-8.11,0.13c-2.76,0.09-5.43,0.22-8.01,0.4c-2.58,0.18-4.98,0.42-7.22,0.73c-2.23,0.3-4.15,0.66-5.74,1.06
		l-0.23-1.06c2.6-0.49,5.09-0.9,7.46-1.22s4.66-0.55,6.87-0.69c2.2-0.14,4.34-0.18,6.43-0.13
		C424.31,36.96,426.36,37.11,428.38,37.37z M436.72,37.34c-0.32,0.19-0.72,0.27-1.19,0.23c-0.47-0.04-0.85-0.24-1.13-0.58
		c-0.13-0.17-0.05-0.27,0.24-0.31c0.29-0.03,0.62-0.03,0.98,0.02c0.37,0.04,0.68,0.12,0.95,0.24
		C436.85,37.06,436.9,37.19,436.72,37.34z M440.33,36.6c-0.02,0.13-0.09,0.22-0.21,0.27c-0.12,0.05-0.25,0.08-0.4,0.06
		c-0.15-0.01-0.28-0.06-0.39-0.15c-0.11-0.09-0.15-0.19-0.13-0.32c0.02-0.15,0.1-0.25,0.23-0.31c0.13-0.05,0.26-0.08,0.4-0.06
		c0.14,0.01,0.26,0.06,0.37,0.16S440.35,36.47,440.33,36.6z M446.17,37.34c-0.17,0.13-0.42,0.21-0.76,0.24s-0.68,0.02-1.03-0.03
		c-0.35-0.05-0.69-0.13-1-0.24c-0.31-0.11-0.53-0.24-0.66-0.39c-0.11-0.11-0.08-0.18,0.1-0.23c0.17-0.04,0.4-0.06,0.69-0.06
		c0.29,0,0.61,0.02,0.97,0.06c0.35,0.04,0.68,0.1,0.97,0.18c0.29,0.08,0.51,0.15,0.66,0.23C446.25,37.17,446.27,37.25,446.17,37.34z
		 M451.06,36.24c0.13,0,0.23,0.07,0.29,0.21c0.06,0.14,0.09,0.28,0.06,0.42c-0.02,0.14-0.07,0.27-0.15,0.39
		c-0.08,0.12-0.19,0.16-0.34,0.11c-0.15-0.02-0.26-0.1-0.32-0.24c-0.06-0.14-0.09-0.28-0.08-0.42c0.01-0.14,0.06-0.26,0.14-0.37
		C450.76,36.23,450.89,36.2,451.06,36.24z"/>
	<path fill="#FFFFFF" d="M357.08,79.01c-0.79,0.3-1.61,0.74-2.43,1.31c-0.83,0.57-1.63,1.2-2.42,1.9c-0.78,0.7-1.55,1.43-2.29,2.21
		c-0.74,0.77-1.42,1.51-2.05,2.21c-0.62,0.7-1.18,1.33-1.68,1.9c-0.49,0.57-0.89,1-1.19,1.31h-1.8c-0.6,0-1.1-0.04-1.48-0.13
		c-0.39-0.09-0.69-0.24-0.92-0.47c-0.22-0.23-0.38-0.53-0.47-0.92s-0.13-0.88-0.13-1.48V85c1.12-2.69,2.33-5.55,3.64-8.59
		c1.31-3.04,2.67-6.14,4.09-9.31c1.42-3.17,2.86-6.34,4.32-9.51c1.46-3.17,2.9-6.22,4.32-9.17c1.42-2.94,2.78-5.71,4.09-8.3
		c1.31-2.59,2.51-4.89,3.61-6.91c0.11-0.41,0.35-0.97,0.74-1.69c0.39-0.72,0.86-1.54,1.43-2.45c0.57-0.91,1.19-1.87,1.85-2.87
		s1.32-1.99,1.95-2.96c0.63-0.98,1.22-1.89,1.76-2.74c0.54-0.85,0.97-1.57,1.29-2.18c0.06,0.37,0.08,0.87,0.03,1.5
		c-0.04,0.63-0.13,1.35-0.27,2.14c-0.14,0.79-0.32,1.63-0.53,2.5s-0.45,1.71-0.69,2.51c-0.25,0.81-0.5,1.55-0.76,2.22
		s-0.52,1.21-0.77,1.6l-18.05,37.32v1.22c1.7,0,3.34-0.27,4.93-0.81c1.59-0.54,3.15-1.2,4.67-2c1.53-0.79,3.03-1.66,4.53-2.61
		c1.49-0.95,3-1.82,4.53-2.61c1.53-0.79,3.08-1.46,4.67-2c1.59-0.54,3.23-0.81,4.93-0.81c0,1.29-0.23,2.38-0.69,3.27
		c-0.46,0.89-1.08,1.66-1.84,2.3s-1.63,1.19-2.61,1.64c-0.98,0.45-1.97,0.87-2.98,1.24c-1.01,0.38-2,0.75-2.98,1.11
		c-0.98,0.37-1.85,0.79-2.61,1.29c-0.76,0.49-1.38,1.07-1.84,1.74c-0.46,0.67-0.69,1.49-0.69,2.48v0.58
		c1.96,1.14,4.23,2.22,6.83,3.24c2.6,1.02,5.37,1.99,8.31,2.92c2.94,0.92,5.98,1.8,9.1,2.63c3.12,0.83,6.2,1.61,9.22,2.35
		c3.02,0.74,5.9,1.44,8.65,2.09s5.21,1.27,7.4,1.85c2.18,0.58,4,1.12,5.45,1.61c1.45,0.49,2.39,0.96,2.82,1.39l1.19,1.19h-0.64
		c-3.72,0-7.44-0.35-11.17-1.06s-7.44-1.6-11.15-2.67c-3.71-1.07-7.39-2.23-11.05-3.48c-3.66-1.25-7.28-2.41-10.86-3.48
		c-3.58-1.07-7.09-1.97-10.55-2.67s-6.84-1.06-10.15-1.06H357.08z M354.83,69.66c-0.86,0-1.55,0.17-2.08,0.52
		c-0.53,0.34-0.79,0.95-0.79,1.8v1.19c0.28-0.3,0.59-0.6,0.93-0.89s0.66-0.58,0.93-0.87s0.52-0.58,0.71-0.87
		S354.83,69.96,354.83,69.66z"/>
	<path fill="#FFFFFF" d="M423.23,99.99c0.47-0.34,1.22-0.89,2.26-1.63s2.26-1.63,3.69-2.67c1.43-1.04,3.01-2.2,4.74-3.46
		c1.73-1.27,3.53-2.61,5.4-4.03s3.75-2.88,5.66-4.4c1.9-1.51,3.74-3.02,5.51-4.51c1.77-1.49,3.43-2.96,4.98-4.42
		s2.89-2.82,4.03-4.11s2.04-2.48,2.71-3.58s1-2.03,1-2.8c0-0.45-0.14-0.82-0.44-1.1c-0.29-0.28-0.67-0.49-1.13-0.63
		c-0.46-0.14-0.97-0.23-1.52-0.27c-0.55-0.04-1.08-0.06-1.61-0.06s-1,0.02-1.43,0.05s-0.74,0.05-0.93,0.05
		c-2.26,0-4.49,0.12-6.7,0.37c-2.21,0.25-4.42,0.52-6.62,0.81c-2.2,0.29-4.41,0.56-6.62,0.81c-2.21,0.25-4.45,0.37-6.7,0.37h-4.71
		c-0.39-0.09-0.85-0.25-1.39-0.5c-0.54-0.25-1.05-0.54-1.55-0.89c-0.49-0.34-0.91-0.73-1.26-1.16c-0.34-0.43-0.52-0.89-0.52-1.39
		c0-0.54,0.49-1.26,1.48-2.16s2.33-1.92,4.03-3.05s3.69-2.34,5.98-3.64c2.29-1.3,4.74-2.63,7.35-4c2.61-1.36,5.31-2.73,8.11-4.09
		c2.79-1.36,5.55-2.67,8.27-3.92c2.72-1.25,5.33-2.41,7.85-3.5c2.51-1.08,4.79-2.02,6.82-2.82c2.03-0.79,3.75-1.42,5.17-1.89
		c1.42-0.46,2.41-0.69,2.96-0.69c0.3,0,0.55,0.01,0.76,0.03c0.2,0.02,0.36,0.08,0.48,0.18s0.2,0.25,0.26,0.47
		c0.05,0.21,0.08,0.52,0.08,0.9c0,0.19-0.08,0.37-0.24,0.53c-0.16,0.16-0.34,0.24-0.53,0.24c-3.2,0.52-6.42,1.27-9.67,2.27
		s-6.48,2.16-9.7,3.5c-3.22,1.33-6.41,2.81-9.55,4.45c-3.15,1.63-6.22,3.35-9.22,5.16c-3,1.8-5.9,3.66-8.72,5.56
		s-5.49,3.8-8.02,5.69c0.19,0.39,0.49,0.69,0.9,0.9c0.41,0.21,0.85,0.37,1.34,0.47c0.48,0.1,0.98,0.16,1.5,0.18
		c0.52,0.02,0.97,0.03,1.35,0.03c2.45,0,4.92-0.12,7.41-0.37c2.49-0.25,4.98-0.52,7.48-0.81s4.98-0.56,7.48-0.81
		c2.49-0.25,4.96-0.37,7.41-0.37c0.99,0,1.93,0.04,2.82,0.13c0.89,0.09,1.68,0.29,2.37,0.61s1.24,0.79,1.64,1.42
		c0.41,0.62,0.61,1.47,0.61,2.55c0,1.76-0.39,3.34-1.16,4.74c-0.77,1.4-1.96,2.69-3.54,3.87L427.9,99.22
		c-0.58,0.77-1.26,1.42-2.05,1.95c-0.79,0.53-1.66,0.79-2.63,0.79V99.99z M473.37,38.53c0,0.19-0.03,0.39-0.1,0.58
		s-0.29,0.39-0.68,0.58l0.77-1.55V38.53z"/>
	<path fill="#FFFFFF" d="M477.43,78.85c0.06-0.77,0.29-1.82,0.68-3.13c0.39-1.31,0.89-2.74,1.5-4.3c0.61-1.56,1.32-3.16,2.13-4.82
		c0.81-1.65,1.64-3.22,2.51-4.71c0.87-1.48,1.76-2.8,2.66-3.96s1.77-2.02,2.61-2.58c0.13,0.02,0.31,0.12,0.53,0.31
		c0.23,0.18,0.44,0.4,0.64,0.64c0.2,0.25,0.38,0.49,0.53,0.74c0.15,0.25,0.23,0.44,0.23,0.56l-0.03,0.55l-0.03,0.52l-6.35,16.47
		c-0.02,0.32-0.04,0.61-0.06,0.87c-0.02,0.24-0.04,0.47-0.05,0.69c-0.01,0.23-0.02,0.4-0.02,0.53c-0.06,0.77-0.11,1.5-0.13,2.18
		s0.05,1.27,0.21,1.77c0.16,0.5,0.47,0.91,0.93,1.22c0.46,0.31,1.14,0.5,2.05,0.56c3.07,0.21,5.7,0.38,7.9,0.5
		c2.19,0.12,4.1,0.2,5.74,0.24c1.63,0.04,3.07,0.04,4.32-0.02c1.25-0.05,2.47-0.16,3.66-0.31c1.19-0.15,2.44-0.34,3.75-0.58
		c1.31-0.24,2.85-0.53,4.61-0.87c1.76-0.34,3.83-0.74,6.2-1.19s5.23-0.96,8.56-1.51c-2.54,0.28-4.89,0.7-7.07,1.26
		c-2.18,0.56-4.34,1.17-6.48,1.82c-2.14,0.66-4.32,1.31-6.56,1.95s-4.67,1.2-7.3,1.66c-2.63,0.46-5.53,0.79-8.7,0.98
		c-3.17,0.19-6.75,0.16-10.75-0.1c-1.03-0.06-2.07-0.29-3.11-0.69c-1.04-0.4-1.97-0.93-2.77-1.61c-0.81-0.68-1.45-1.49-1.93-2.45
		C477.54,81.1,477.34,80.03,477.43,78.85z M491.35,38.47c0.06-0.79,0.28-1.55,0.64-2.27c0.37-0.72,0.96-1.32,1.77-1.79
		c0.26,0.11,0.64,0.2,1.16,0.27c0.52,0.08,1.08,0.16,1.69,0.26c0.61,0.1,1.24,0.22,1.89,0.37c0.64,0.15,1.22,0.34,1.74,0.58
		c0.52,0.24,0.93,0.54,1.24,0.9c0.31,0.37,0.46,0.81,0.43,1.32c-0.13,0.3-0.26,0.58-0.39,0.84c-0.11,0.24-0.23,0.46-0.37,0.68
		c-0.14,0.21-0.27,0.39-0.4,0.52c-0.11,0.17-0.3,0.4-0.56,0.68c-0.27,0.28-0.58,0.59-0.94,0.93c-0.35,0.34-0.74,0.69-1.14,1.05
		s-0.8,0.69-1.18,1c-0.38,0.31-0.72,0.58-1.05,0.81s-0.57,0.37-0.74,0.44c-0.37-0.41-0.77-0.86-1.22-1.35
		c-0.45-0.49-0.88-1.02-1.27-1.56c-0.4-0.55-0.73-1.13-0.98-1.74S491.31,39.13,491.35,38.47z"/>
	<path fill="#FFFFFF" d="M512.8,81.49c0-0.64,0-1.22,0.02-1.72c0.01-0.5,0.06-1,0.15-1.48s0.21-0.98,0.39-1.5s0.42-1.1,0.74-1.74
		c0.15-0.15,0.5-0.55,1.06-1.19s1.26-1.43,2.11-2.37s1.81-1.98,2.88-3.13c1.07-1.15,2.21-2.31,3.42-3.48
		c1.2-1.17,2.45-2.31,3.74-3.42c1.29-1.11,2.55-2.09,3.79-2.95c1.23-0.86,2.43-1.55,3.59-2.06s2.22-0.77,3.19-0.77
		c0.32,0,0.64,0.07,0.97,0.21c0.32,0.14,0.64,0.29,0.97,0.45s0.64,0.31,0.97,0.44s0.64,0.19,0.97,0.19c1.03,0,2.06-0.37,3.09-1.11
		s2.05-1.74,3.06-3s2-2.7,2.96-4.33c0.97-1.63,1.9-3.34,2.8-5.12c0.9-1.78,1.76-3.58,2.56-5.4c0.8-1.82,1.55-3.53,2.24-5.14
		s1.31-3.05,1.85-4.32c0.55-1.27,1.02-2.26,1.4-2.98c0.39-0.72,0.68-1.09,0.89-1.11c0.2-0.02,0.29,0.42,0.27,1.32
		c-0.02,1.25-0.22,2.69-0.6,4.33c-0.38,1.64-0.87,3.41-1.48,5.29c-0.61,1.88-1.32,3.82-2.11,5.83c-0.79,2.01-1.61,3.99-2.45,5.93
		c-0.84,1.94-1.67,3.81-2.48,5.61c-0.82,1.79-1.57,3.42-2.26,4.87s-1.27,2.68-1.76,3.69c-0.48,1.01-0.8,1.71-0.95,2.09
		c-0.49,0.82-0.9,1.53-1.22,2.14s-0.58,1.2-0.77,1.76c-0.19,0.56-0.33,1.14-0.42,1.76s-0.13,1.32-0.13,2.11
		c0,1.46,0.23,2.62,0.68,3.46c0.45,0.85,1.08,1.49,1.89,1.93c0.8,0.44,1.76,0.73,2.85,0.85s2.29,0.19,3.58,0.19
		c5.03,0,10-0.41,14.91-1.24c4.91-0.83,9.79-1.86,14.65-3.11c4.86-1.25,9.71-2.59,14.55-4.04c4.84-1.45,9.72-2.8,14.61-4.04
		c4.9-1.25,9.83-2.28,14.81-3.11c4.97-0.83,10.04-1.24,15.2-1.24c-1.68,0.09-3.48,0.26-5.4,0.53c-1.92,0.27-3.9,0.6-5.93,1
		c-2.03,0.4-4.08,0.83-6.15,1.31c-2.07,0.47-4.08,0.96-6.03,1.47c-1.94,0.5-3.8,1-5.57,1.5c-1.77,0.49-3.38,0.96-4.82,1.39
		c-1.44,0.43-2.67,0.81-3.71,1.14c-1.03,0.33-1.78,0.58-2.26,0.73c-0.97,0.32-2.21,0.77-3.72,1.35c-1.52,0.58-3.22,1.23-5.11,1.95
		c-1.89,0.72-3.94,1.49-6.16,2.32c-2.21,0.83-4.51,1.64-6.88,2.45s-4.79,1.57-7.23,2.3c-2.45,0.73-4.86,1.38-7.23,1.95
		c-2.38,0.57-4.68,1.02-6.91,1.35c-2.23,0.33-4.32,0.5-6.25,0.5c-1.83,0-3.41-0.15-4.75-0.44c-1.34-0.29-2.51-0.72-3.5-1.29
		c-0.99-0.57-1.83-1.28-2.51-2.14c-0.69-0.86-1.27-1.86-1.76-3.01c-0.48-1.15-0.9-2.44-1.26-3.87c-0.36-1.43-0.69-3-1.02-4.72
		c-0.75,0.75-1.67,1.72-2.74,2.9c-1.07,1.18-2.26,2.44-3.54,3.79c-1.29,1.34-2.65,2.69-4.09,4.03c-1.44,1.34-2.89,2.56-4.35,3.64
		c-1.46,1.08-2.91,1.97-4.33,2.66c-1.43,0.69-2.79,1.03-4.08,1.03c-0.82,0-1.47-0.15-1.97-0.44s-0.89-0.68-1.18-1.16
		c-0.29-0.48-0.48-1.04-0.58-1.66C512.85,82.77,512.8,82.14,512.8,81.49z M537.23,60.83c-0.75,0-1.73,0.3-2.93,0.89
		c-1.2,0.59-2.5,1.36-3.88,2.32c-1.38,0.96-2.78,2.04-4.17,3.25c-1.4,1.21-2.66,2.44-3.8,3.69c-1.14,1.25-2.06,2.45-2.77,3.61
		s-1.06,2.17-1.06,3.03c1.07,0,2.28-0.31,3.61-0.93c1.33-0.62,2.7-1.43,4.11-2.42c1.41-0.99,2.79-2.1,4.16-3.34
		c1.36-1.24,2.61-2.48,3.72-3.72c1.12-1.25,2.06-2.43,2.84-3.56s1.27-2.07,1.48-2.82H537.23z M647.8,60.83h-1.29v-1.29L647.8,60.83z
		 M654.25,59.54c-0.32,0.64-0.67,1.02-1.05,1.13c-0.38,0.11-0.89,0.16-1.53,0.16h-1.29c0.32-0.64,0.67-1.02,1.05-1.13
		c0.38-0.11,0.89-0.16,1.53-0.16H654.25z"/>
	<path fill="#FFFFFF" d="M554.79,84.13c0.34-0.49,0.9-0.96,1.66-1.4c0.76-0.44,1.63-0.85,2.59-1.22c0.97-0.38,2-0.74,3.09-1.08
		c1.1-0.34,2.15-0.67,3.16-0.98c1.01-0.31,1.94-0.6,2.8-0.87c0.86-0.27,1.54-0.53,2.03-0.79c1.01-2.73,2.07-5.12,3.19-7.17
		c1.12-2.05,2.29-3.84,3.51-5.37c1.22-1.53,2.51-2.81,3.87-3.87c1.35-1.05,2.77-1.95,4.25-2.71c1.48-0.75,3.03-1.39,4.66-1.92
		c1.62-0.53,3.33-1,5.11-1.43c0.17-0.04,0.5-0.06,1-0.06s1.03,0.01,1.6,0.02c0.57,0.01,1.1,0.02,1.59,0.03
		c0.49,0.01,0.84,0.02,1.03,0.02c0.56,0.19,0.95,0.54,1.18,1.03c0.22,0.49,0.36,1.02,0.4,1.58c0.04,0.56,0.04,1.09-0.02,1.6
		c-0.05,0.5-0.08,0.85-0.08,1.05c0,1.5-0.39,2.81-1.16,3.93c-0.77,1.12-1.78,2.12-3.01,3.01c-1.24,0.89-2.61,1.71-4.12,2.45
		c-1.52,0.74-3.01,1.47-4.5,2.19c-1.48,0.72-2.86,1.48-4.12,2.27c-1.27,0.79-2.28,1.69-3.03,2.67l3,1.51c0.13,0,0.53,0.04,1.19,0.13
		c0.67,0.09,1.48,0.19,2.43,0.32c0.96,0.13,2.01,0.27,3.16,0.42c1.15,0.15,2.27,0.29,3.35,0.42c1.08,0.13,2.08,0.24,3,0.32
		c0.91,0.09,1.62,0.13,2.11,0.13c3.16,0,6.26-0.13,9.3-0.4c3.04-0.27,6.06-0.56,9.07-0.89s6.03-0.62,9.07-0.89
		c3.04-0.27,6.14-0.4,9.3-0.4h6.74c-4.17,1.25-8.41,2.34-12.73,3.27s-8.56,1.72-12.73,2.35c-4.17,0.63-8.21,1.11-12.12,1.42
		c-3.91,0.31-7.54,0.47-10.89,0.47c-1.87,0-3.69-0.08-5.46-0.24c-1.77-0.16-3.52-0.33-5.25-0.52c-1.73-0.18-3.44-0.35-5.12-0.52
		c-1.69-0.16-3.37-0.24-5.04-0.24c-0.99,0-1.96,0.1-2.9,0.31c-0.95,0.2-1.88,0.46-2.79,0.76c-0.91,0.3-1.82,0.63-2.71,0.98
		s-1.79,0.68-2.71,0.98c-0.91,0.3-1.84,0.55-2.79,0.76s-1.91,0.31-2.9,0.31c-0.56,0-1.03-0.14-1.42-0.42s-0.68-0.61-0.87-1
		s-0.29-0.79-0.29-1.22C554.46,84.8,554.57,84.43,554.79,84.13z M594.72,60.58c-0.99,0-2.1,0.12-3.33,0.37
		c-1.24,0.25-2.49,0.6-3.75,1.05s-2.5,1.01-3.71,1.68c-1.2,0.67-2.28,1.41-3.22,2.24c-0.95,0.83-1.7,1.74-2.27,2.72
		c-0.57,0.99-0.85,2.04-0.85,3.16v1.51c0.62-0.26,1.48-0.61,2.56-1.06s2.27-0.98,3.54-1.58c1.28-0.6,2.57-1.28,3.87-2.03
		c1.3-0.75,2.48-1.56,3.54-2.42c1.06-0.86,1.93-1.76,2.61-2.71C594.38,62.56,594.72,61.59,594.72,60.58z M649.15,77.78h-3l1.48-1.48
		L649.15,77.78z M658.07,75.56c0.17,0,0.3,0.08,0.39,0.23c0.09,0.15,0.13,0.32,0.13,0.52s-0.04,0.37-0.13,0.52
		c-0.09,0.15-0.21,0.23-0.39,0.23c-0.19,0-0.33-0.08-0.42-0.23c-0.09-0.15-0.13-0.32-0.13-0.52s0.04-0.37,0.13-0.52
		C657.74,75.64,657.88,75.56,658.07,75.56z"/>
	<path fill="#FFFFFF" d="M656.74,82.55c-0.58-1.95-0.78-3.9-0.6-5.85c0.18-1.94,0.66-3.82,1.42-5.62s1.77-3.52,3.01-5.14
		c1.25-1.62,2.65-3.09,4.21-4.42s3.23-2.47,5.01-3.45c1.78-0.98,3.6-1.73,5.45-2.27c1.48-0.41,2.85-0.71,4.11-0.9
		c1.26-0.19,2.47-0.16,3.63,0.1s2.31,0.8,3.46,1.63c1.15,0.83,2.35,2.06,3.59,3.69l0.42,1.48c0.54,1.83,0.6,3.65,0.19,5.48
		c-0.41,1.83-1.13,3.59-2.16,5.3s-2.3,3.33-3.82,4.87c-1.52,1.54-3.13,2.92-4.83,4.16c-1.71,1.24-3.43,2.3-5.17,3.19
		c-1.74,0.89-3.35,1.54-4.83,1.95c-1.1,0.32-2.32,0.56-3.66,0.71c-1.34,0.15-2.64,0.11-3.9-0.13c-1.26-0.24-2.39-0.73-3.4-1.47
		S657.15,84.02,656.74,82.55z M661.73,77.91c0.21,0.75,0.54,1.28,0.98,1.6c0.44,0.31,0.94,0.48,1.5,0.52s1.14-0.02,1.74-0.16
		c0.6-0.14,1.18-0.29,1.74-0.47c1.65-0.47,3.14-1.05,4.46-1.72c1.32-0.68,2.52-1.49,3.59-2.45c1.07-0.96,2.04-2.06,2.9-3.3
		c0.86-1.25,1.65-2.66,2.38-4.25c-0.82-0.75-1.7-1.3-2.66-1.64c-0.96-0.34-1.94-0.55-2.95-0.61s-2.03-0.02-3.05,0.15
		s-1.99,0.37-2.92,0.63c-1.1,0.32-2.19,0.88-3.27,1.66c-1.08,0.78-2.02,1.71-2.8,2.77c-0.79,1.06-1.35,2.23-1.69,3.5
		C661.36,75.38,661.37,76.65,661.73,77.91z"/>
	<path fill="#FFFFFF" d="M714.83,69.89c0.06-0.28,0.22-0.73,0.47-1.35c0.25-0.62,0.52-1.32,0.82-2.08c0.3-0.76,0.59-1.56,0.87-2.4
		s0.49-1.61,0.63-2.32c0.14-0.71,0.17-1.31,0.1-1.8c-0.08-0.49-0.33-0.78-0.76-0.87l-0.42-0.1c-0.24,0.06-0.58,0.13-1.03,0.21
		c-0.45,0.08-0.92,0.15-1.4,0.21c-0.48,0.06-0.92,0.13-1.32,0.21c-0.4,0.08-0.66,0.16-0.79,0.24c-0.52,0.11-1.25,0.28-2.19,0.52
		c-0.95,0.24-2.04,0.52-3.27,0.84c-1.24,0.32-2.57,0.67-4.01,1.05c-1.44,0.38-2.89,0.76-4.37,1.14s-2.93,0.78-4.37,1.18
		c-1.44,0.4-2.78,0.77-4.01,1.11c-1.24,0.34-2.34,0.65-3.3,0.92c-0.97,0.27-1.71,0.49-2.22,0.66c-0.13,0.06-0.28,0.16-0.47,0.27
		c-0.18,0.12-0.37,0.24-0.56,0.37s-0.38,0.26-0.55,0.39s-0.31,0.23-0.42,0.29l-1.19,1.51c-0.58,0-1.05-0.08-1.42-0.24
		s-0.64-0.37-0.84-0.63s-0.31-0.55-0.35-0.87s-0.03-0.63,0.03-0.93c0.04-0.11,0.09-0.24,0.15-0.39c0.05-0.15,0.12-0.29,0.21-0.42
		c0.09-0.15,0.18-0.3,0.29-0.45l38.8-9.47c-0.06-1.87-0.07-3.5-0.02-4.9c0.05-1.4,0.15-2.71,0.29-3.93
		c0.14-1.22,0.33-2.45,0.56-3.69c0.24-1.24,0.52-2.65,0.84-4.24c0.56-2.66,1.27-5.17,2.14-7.51c0.87-2.34,1.92-4.47,3.14-6.4
		c1.22-1.92,2.64-3.6,4.25-5.04c1.61-1.44,3.43-2.57,5.45-3.4c2.02-0.83,4.25-1.32,6.7-1.48s5.15,0.06,8.09,0.66
		c0.21,0.04,0.54,0.11,0.97,0.19c0.43,0.09,0.88,0.18,1.35,0.27s0.92,0.19,1.35,0.29s0.75,0.16,0.97,0.18
		c1.16,0.69,1.88,1.57,2.16,2.64c0.28,1.07,0.28,2.25,0,3.51c-0.84-0.17-1.57-0.48-2.21-0.93c-0.63-0.45-1.26-0.93-1.89-1.45
		s-1.28-1-1.98-1.47c-0.7-0.46-1.52-0.8-2.47-1.02c-2.66-0.56-5.09-0.69-7.27-0.4c-2.18,0.29-4.15,0.9-5.9,1.82
		c-1.75,0.92-3.3,2.13-4.64,3.61s-2.52,3.14-3.53,4.96c-1.01,1.83-1.86,3.79-2.56,5.88c-0.7,2.09-1.26,4.23-1.69,6.4
		c-0.49,2.36-0.85,4.62-1.06,6.78s-0.21,4.37,0,6.62l0.81,0.13c0.43,0.09,1.19,0.03,2.29-0.18c1.1-0.2,2.37-0.49,3.82-0.87
		c1.45-0.38,3-0.79,4.66-1.24s3.25-0.87,4.8-1.26s2.96-0.7,4.24-0.95c1.28-0.25,2.26-0.35,2.95-0.31c0.77-0.26,1.55-0.52,2.32-0.79
		c0.77-0.27,1.67-0.55,2.69-0.85c1.02-0.3,2.21-0.63,3.58-1c1.36-0.37,3.02-0.77,4.98-1.22s4.26-0.96,6.93-1.53
		c2.66-0.57,5.79-1.2,9.39-1.9c3.6-0.7,7.72-1.48,12.38-2.34c4.65-0.86,9.95-1.82,15.9-2.87l23.82-2.26l-23.82,3.51
		c-4.64,0.92-8.9,1.77-12.78,2.53c-3.88,0.76-7.49,1.48-10.84,2.16s-6.52,1.33-9.49,1.97c-2.98,0.63-5.89,1.28-8.73,1.93
		c-2.85,0.66-5.69,1.35-8.54,2.09s-5.83,1.55-8.94,2.43c-3.12,0.88-6.43,1.85-9.94,2.92c-3.51,1.06-7.34,2.26-11.49,3.59
		c-0.47,0.15-0.76,0.34-0.87,0.56s-0.2,0.55-0.29,0.98c-0.32,1.48-0.7,3-1.14,4.54s-0.84,3.18-1.21,4.9
		c-0.34,1.68-0.95,3.76-1.82,6.25c-0.87,2.49-1.94,5.25-3.22,8.28s-2.73,6.25-4.37,9.65c-1.63,3.4-3.39,6.85-5.27,10.34
		c-1.88,3.49-3.86,6.96-5.93,10.39c-2.07,3.44-4.18,6.7-6.33,9.78c-2.15,3.08-4.32,5.92-6.51,8.51c-2.19,2.59-4.34,4.79-6.45,6.59
		s-4.14,3.15-6.11,4.03c-1.97,0.88-3.81,1.14-5.53,0.77c0.09-0.41,0.57-1.26,1.45-2.55s2.05-2.91,3.5-4.87
		c1.45-1.96,3.13-4.19,5.04-6.7s3.95-5.2,6.11-8.07c2.16-2.87,4.39-5.87,6.69-9.01c2.3-3.14,4.56-6.3,6.78-9.47
		c2.22-3.18,4.36-6.34,6.4-9.47c2.04-3.14,3.88-6.14,5.51-9.02s3.01-5.59,4.14-8.12C713.66,74.12,714.43,71.87,714.83,69.89z
		 M833.07,33.6c-0.11,0.3-0.26,0.52-0.47,0.64c-0.21,0.13-0.42,0.2-0.66,0.23c-0.24,0.02-0.48,0.02-0.74-0.02s-0.49-0.06-0.71-0.08
		c-0.24,0.02-0.53,0.02-0.87-0.02s-0.62-0.05-0.84-0.05c0.11,0,0.33-0.04,0.66-0.11c0.33-0.08,0.69-0.16,1.08-0.26
		s0.75-0.19,1.1-0.27c0.34-0.09,0.57-0.13,0.68-0.13h0.32L833.07,33.6z M845.93,32.15c-1.48,0.62-3.06,1.04-4.74,1.24
		c-1.68,0.2-3.38,0.29-5.12,0.24l-1.26-0.06c0.73-0.41,1.52-0.71,2.37-0.92c0.85-0.2,1.71-0.35,2.59-0.44
		c0.88-0.09,1.77-0.13,2.67-0.13s1.78,0.01,2.64,0.03L845.93,32.15z"/>
	<path fill="#FFFFFF" d="M784.27,56.68c-0.73,0-1.61,0.19-2.64,0.56c-1.03,0.38-2.15,0.88-3.35,1.5c-1.2,0.62-2.47,1.33-3.8,2.11
		c-1.33,0.78-2.66,1.58-4,2.38s-2.64,1.6-3.92,2.37c-1.28,0.77-2.47,1.46-3.58,2.05c-1.11,0.59-2.11,1.05-3,1.39
		c-0.89,0.33-1.62,0.47-2.17,0.4c-0.49-0.13-0.88-0.31-1.14-0.55c-0.27-0.24-0.46-0.5-0.58-0.81c-0.12-0.3-0.19-0.63-0.21-1
		c-0.02-0.37-0.03-0.73-0.03-1.1c0-0.49,0.01-0.85,0.03-1.08s0.09-0.4,0.21-0.52c0.12-0.12,0.31-0.23,0.58-0.32s0.65-0.27,1.14-0.53
		c0.56-0.19,1.34-0.47,2.35-0.84c1.01-0.37,2.17-0.79,3.48-1.27s2.72-1.01,4.24-1.58c1.51-0.57,3.06-1.14,4.62-1.72
		s3.11-1.15,4.62-1.72c1.52-0.57,2.93-1.1,4.24-1.58s2.47-0.91,3.48-1.27c1.01-0.37,1.79-0.64,2.35-0.84
		c0.45-0.26,0.83-0.83,1.14-1.72c0.31-0.89,0.6-1.92,0.85-3.09c0.26-1.17,0.52-2.4,0.79-3.69c0.27-1.29,0.6-2.48,0.98-3.56
		c0.39-1.08,0.85-1.98,1.4-2.69c0.55-0.71,1.23-1.06,2.05-1.06c0.41,0,0.63,0.35,0.68,1.06s-0.03,1.6-0.21,2.66
		c-0.18,1.06-0.43,2.22-0.74,3.46c-0.31,1.25-0.62,2.42-0.93,3.51c-0.31,1.1-0.59,2.02-0.82,2.77c-0.24,0.75-0.35,1.17-0.35,1.26
		c7.43-1.8,15-3.56,22.7-5.27c7.7-1.71,15.47-3.36,23.3-4.95c7.83-1.59,15.69-3.1,23.57-4.53c7.88-1.43,15.74-2.77,23.56-4.01
		c7.82-1.25,15.57-2.39,23.24-3.43c7.67-1.04,15.2-1.96,22.59-2.76h0.48c-2.73,0.45-5.89,0.93-9.49,1.43
		c-3.6,0.5-7.54,1.05-11.83,1.64c-4.29,0.59-8.87,1.24-13.76,1.95c-4.89,0.71-9.99,1.5-15.31,2.37c-5.32,0.87-10.81,1.84-16.48,2.9
		s-11.44,2.23-17.31,3.5c-3.76,0.73-7.23,1.42-10.41,2.08c-3.18,0.66-6.19,1.29-9.02,1.92c-2.84,0.62-5.56,1.26-8.17,1.9
		c-2.61,0.64-5.23,1.33-7.85,2.06c-2.62,0.73-5.31,1.53-8.06,2.4s-5.67,1.83-8.77,2.88c-0.24,0.13-0.59,0.29-1.05,0.48
		c-0.46,0.19-0.94,0.41-1.42,0.64c-0.48,0.24-0.92,0.48-1.32,0.74s-0.66,0.52-0.79,0.77c-0.06,0.24-0.19,0.78-0.37,1.63
		c-0.18,0.85-0.42,1.89-0.71,3.13c-0.29,1.24-0.63,2.63-1.03,4.19c-0.4,1.56-0.84,3.17-1.32,4.83c-0.48,1.67-1.01,3.34-1.58,5.03
		c-0.57,1.69-1.18,3.29-1.82,4.82c-0.64,1.53-1.32,2.91-2.03,4.16c-0.71,1.25-1.44,2.27-2.19,3.06c0-1.4,0.17-2.94,0.5-4.62
		c0.33-1.69,0.76-3.44,1.27-5.25c0.52-1.82,1.06-3.67,1.64-5.56c0.58-1.89,1.13-3.73,1.64-5.53c0.52-1.79,0.94-3.51,1.27-5.14
		c0.33-1.63,0.5-3.1,0.5-4.42H784.27z M762.35,67.7c0.13,0,0.22,0.05,0.27,0.15c0.05,0.1,0.08,0.21,0.08,0.34s-0.03,0.24-0.08,0.34
		c-0.05,0.1-0.14,0.15-0.27,0.15s-0.23-0.05-0.29-0.15s-0.1-0.21-0.1-0.34s0.03-0.24,0.1-0.34S762.22,67.7,762.35,67.7z"/>
	<path fill="#FFFFFF" d="M829.52,64.49c-0.18-0.46-0.42-0.83-0.71-1.1c-0.29-0.27-0.65-0.45-1.08-0.53c-0.43-0.09-0.96-0.08-1.58,0.03
		c-2.23,0.39-4.2,1.02-5.9,1.89s-3.18,1.91-4.45,3.13c-1.27,1.21-2.34,2.56-3.22,4.04s-1.61,3.03-2.19,4.64s-1.03,3.25-1.35,4.93
		s-0.56,3.32-0.71,4.93c-0.04,0.54-0.16,0.91-0.35,1.11s-0.42,0.28-0.68,0.24c-0.26-0.04-0.53-0.19-0.82-0.45
		c-0.29-0.26-0.58-0.58-0.85-0.98c-0.28-0.4-0.53-0.85-0.74-1.35c-0.21-0.5-0.37-1.03-0.45-1.56c-0.04-0.17-0.08-0.33-0.1-0.48
		c-0.02-0.15-0.04-0.28-0.06-0.39c-0.02-0.13-0.04-0.26-0.06-0.39l29.04-74.22c0,1.83-0.2,3.82-0.6,5.99
		c-0.4,2.17-0.92,4.43-1.58,6.78s-1.41,4.75-2.27,7.2s-1.75,4.87-2.67,7.27c-0.92,2.4-1.85,4.72-2.79,6.96
		c-0.93,2.25-1.8,4.34-2.61,6.28c-0.81,1.94-1.52,3.7-2.13,5.27c-0.61,1.57-1.07,2.86-1.37,3.87l-1.42,4.9
		c0.92-1.14,1.75-2.13,2.47-2.96c0.72-0.84,1.47-1.55,2.24-2.14c0.77-0.59,1.64-1.07,2.61-1.45c0.97-0.38,2.16-0.69,3.58-0.95
		c1.05-0.19,2.01-0.15,2.87,0.13c0.86,0.28,1.63,0.71,2.3,1.31c0.68,0.59,1.28,1.3,1.8,2.13c0.53,0.83,0.98,1.69,1.35,2.59
		c0.38,0.9,0.69,1.8,0.93,2.71s0.44,1.72,0.56,2.45c0.19,1.05,0.28,2.29,0.27,3.71s-0.12,2.9-0.34,4.43
		c-0.21,1.54-0.54,3.07-0.98,4.59c-0.44,1.53-1.01,2.92-1.71,4.17s-1.53,2.32-2.5,3.19s-2.08,1.41-3.35,1.63
		c0.58-1.83,1.07-3.44,1.47-4.85c0.4-1.41,0.71-2.7,0.95-3.87c0.24-1.17,0.39-2.26,0.47-3.25s0.09-2,0.05-3.01
		c-0.04-1.01-0.14-2.07-0.31-3.17c-0.16-1.11-0.36-2.35-0.6-3.72C829.85,65.51,829.7,64.95,829.52,64.49z M873.2-0.01v1.13
		c0.11-0.06,0.18-0.14,0.23-0.23c0.04-0.09,0.09-0.18,0.15-0.27c0.05-0.1,0.11-0.2,0.18-0.31c0.06-0.11,0.17-0.21,0.32-0.32H873.2z
		 M883.94,2.08c0.09,0,0.13-0.03,0.13-0.1s-0.04-0.1-0.13-0.1s-0.13,0.03-0.13,0.1S883.85,2.08,883.94,2.08z M884.81,4.13
		c0,0.1,0.03,0.15,0.1,0.15c0.09,0,0.13-0.05,0.13-0.15s-0.04-0.15-0.13-0.15C884.84,3.99,884.81,4.03,884.81,4.13z"/>
	<path fill="#FFFFFF" d="M841.52,84.13c0.34-0.49,0.9-0.96,1.66-1.4c0.76-0.44,1.63-0.85,2.59-1.22c0.97-0.38,2-0.74,3.09-1.08
		c1.1-0.34,2.15-0.67,3.16-0.98c1.01-0.31,1.94-0.6,2.8-0.87c0.86-0.27,1.54-0.53,2.03-0.79c1.01-2.73,2.07-5.12,3.19-7.17
		c1.12-2.05,2.29-3.84,3.51-5.37c1.22-1.53,2.51-2.81,3.87-3.87c1.35-1.05,2.77-1.95,4.25-2.71c1.48-0.75,3.03-1.39,4.66-1.92
		c1.62-0.53,3.33-1,5.11-1.43c0.17-0.04,0.5-0.06,1-0.06s1.03,0.01,1.6,0.02c0.57,0.01,1.1,0.02,1.59,0.03
		c0.49,0.01,0.84,0.02,1.03,0.02c0.56,0.19,0.95,0.54,1.18,1.03c0.22,0.49,0.36,1.02,0.4,1.58c0.04,0.56,0.04,1.09-0.02,1.6
		c-0.05,0.5-0.08,0.85-0.08,1.05c0,1.5-0.39,2.81-1.16,3.93c-0.77,1.12-1.78,2.12-3.01,3.01c-1.24,0.89-2.61,1.71-4.12,2.45
		c-1.52,0.74-3.01,1.47-4.5,2.19c-1.48,0.72-2.86,1.48-4.12,2.27c-1.27,0.79-2.28,1.69-3.03,2.67l3,1.51c0.13,0,0.53,0.04,1.19,0.13
		c0.67,0.09,1.48,0.19,2.43,0.32c0.96,0.13,2.01,0.27,3.16,0.42c1.15,0.15,2.27,0.29,3.35,0.42c1.08,0.13,2.08,0.24,3,0.32
		c0.91,0.09,1.62,0.13,2.11,0.13c3.16,0,6.26-0.13,9.3-0.4c3.04-0.27,6.06-0.56,9.07-0.89s6.03-0.62,9.07-0.89
		c3.04-0.27,6.14-0.4,9.3-0.4h6.74c-4.17,1.25-8.41,2.34-12.73,3.27s-8.56,1.72-12.73,2.35c-4.17,0.63-8.21,1.11-12.12,1.42
		c-3.91,0.31-7.54,0.47-10.89,0.47c-1.87,0-3.69-0.08-5.46-0.24c-1.77-0.16-3.52-0.33-5.25-0.52c-1.73-0.18-3.44-0.35-5.12-0.52
		c-1.69-0.16-3.37-0.24-5.04-0.24c-0.99,0-1.96,0.1-2.9,0.31c-0.95,0.2-1.88,0.46-2.79,0.76c-0.91,0.3-1.82,0.63-2.71,0.98
		s-1.79,0.68-2.71,0.98c-0.91,0.3-1.84,0.55-2.79,0.76s-1.91,0.31-2.9,0.31c-0.56,0-1.03-0.14-1.42-0.42s-0.68-0.61-0.87-1
		s-0.29-0.79-0.29-1.22C841.19,84.8,841.3,84.43,841.52,84.13z M881.45,60.58c-0.99,0-2.1,0.12-3.33,0.37
		c-1.24,0.25-2.49,0.6-3.75,1.05s-2.5,1.01-3.71,1.68c-1.2,0.67-2.28,1.41-3.22,2.24c-0.95,0.83-1.7,1.74-2.27,2.72
		c-0.57,0.99-0.85,2.04-0.85,3.16v1.51c0.62-0.26,1.48-0.61,2.56-1.06s2.27-0.98,3.54-1.58c1.28-0.6,2.57-1.28,3.87-2.03
		c1.3-0.75,2.48-1.56,3.54-2.42c1.06-0.86,1.93-1.76,2.61-2.71C881.11,62.56,881.45,61.59,881.45,60.58z M935.88,77.78h-3l1.48-1.48
		L935.88,77.78z M944.8,75.56c0.17,0,0.3,0.08,0.39,0.23c0.09,0.15,0.13,0.32,0.13,0.52s-0.04,0.37-0.13,0.52
		c-0.09,0.15-0.21,0.23-0.39,0.23c-0.19,0-0.33-0.08-0.42-0.23c-0.09-0.15-0.13-0.32-0.13-0.52s0.04-0.37,0.13-0.52
		C944.47,75.64,944.61,75.56,944.8,75.56z"/>
	<path fill="#FFFFFF" d="M976.02,104.6c-0.32-1.98-0.32-3.87,0-5.69c0.32-1.82,0.81-3.59,1.45-5.32c0.64-1.73,1.37-3.44,2.18-5.12
		c0.8-1.69,1.54-3.38,2.19-5.09c0.65-1.71,1.14-3.45,1.47-5.22s0.32-3.61,0-5.53l-0.03-0.39c-1.7,0.84-3.39,1.79-5.08,2.87
		c-1.69,1.07-3.39,2.16-5.11,3.27c-1.72,1.11-3.46,2.19-5.22,3.25s-3.57,2.01-5.41,2.84c-1.85,0.83-3.75,1.49-5.72,2
		c-1.96,0.5-4,0.76-6.11,0.76c-0.88,0-1.7-0.08-2.45-0.24s-1.42-0.44-2-0.84c-0.58-0.4-1.07-0.92-1.47-1.58
		c-0.4-0.66-0.67-1.48-0.82-2.47c-0.21-1.33-0.02-2.77,0.6-4.32c0.61-1.55,1.52-3.14,2.71-4.79c1.19-1.64,2.59-3.3,4.21-4.96
		c1.61-1.66,3.3-3.29,5.08-4.87c1.77-1.58,3.56-3.08,5.35-4.51c1.79-1.43,3.46-2.72,5.01-3.87c1.55-1.15,2.89-2.13,4.03-2.93
		s1.96-1.38,2.45-1.72c0.15-0.3,0.29-0.52,0.43-0.64s0.29-0.23,0.45-0.31c0.16-0.08,0.34-0.15,0.53-0.23
		c0.19-0.08,0.42-0.21,0.68-0.4c0.3-0.19,0.74-0.49,1.3-0.9c0.57-0.41,1.21-0.87,1.92-1.39s1.44-1.06,2.21-1.64s1.49-1.13,2.18-1.64
		s1.29-0.98,1.8-1.4s0.89-0.73,1.13-0.92h1.58c1.22-0.99,2.52-1.95,3.88-2.88s2.8-1.77,4.3-2.51s3.07-1.34,4.71-1.79
		s3.34-0.68,5.12-0.68c0.6,0,1.18,0.08,1.72,0.23c0.55,0.15,1.04,0.39,1.48,0.71s0.82,0.73,1.13,1.22c0.31,0.49,0.53,1.08,0.66,1.77
		c0.06,0.39,0.09,0.91,0.08,1.58c-0.01,0.67-0.06,1.38-0.16,2.14c-0.1,0.76-0.23,1.53-0.4,2.3s-0.38,1.48-0.63,2.11
		c-0.25,0.63-0.54,1.15-0.87,1.55c-0.33,0.4-0.69,0.6-1.08,0.6h-0.74c0.11-0.49,0.27-1.15,0.48-1.98c0.21-0.83,0.42-1.69,0.61-2.58
		c0.19-0.89,0.35-1.75,0.48-2.56c0.13-0.82,0.15-1.47,0.06-1.97c-0.09-0.49-0.25-0.92-0.5-1.27c-0.25-0.35-0.54-0.64-0.87-0.87
		s-0.69-0.39-1.08-0.48s-0.77-0.15-1.16-0.15c-1.53,0-3.17,0.27-4.95,0.82c-1.77,0.55-3.6,1.28-5.48,2.21
		c-1.88,0.92-3.78,1.98-5.71,3.17s-3.81,2.44-5.66,3.75c-1.85,1.31-3.62,2.63-5.32,3.95s-3.25,2.57-4.67,3.74
		c-1.42,1.17-2.67,2.21-3.75,3.13c-1.08,0.91-1.93,1.62-2.53,2.11c-0.9,1.38-1.98,2.68-3.24,3.92c-1.26,1.24-2.58,2.45-3.96,3.66
		c-1.38,1.2-2.79,2.41-4.21,3.63c-1.42,1.21-2.73,2.5-3.95,3.85c-1.21,1.35-2.27,2.8-3.16,4.33c-0.89,1.54-1.51,3.23-1.85,5.08
		c0.04,0.3,0.21,0.51,0.52,0.63c0.3,0.12,0.64,0.19,1.02,0.21c0.38,0.02,0.72,0.02,1.05-0.02s0.54-0.05,0.64-0.05
		c2.11,0,4.32-0.23,6.65-0.68s4.66-1.08,6.99-1.9c2.33-0.82,4.62-1.79,6.86-2.92s4.34-2.36,6.29-3.71c1.94-1.34,3.68-2.77,5.22-4.29
		c1.54-1.51,2.77-3.07,3.69-4.66h0.39c0.49,0,0.93,0.09,1.3,0.27c0.38,0.18,0.7,0.42,0.97,0.71s0.48,0.63,0.64,1.02
		c0.16,0.39,0.27,0.77,0.34,1.16c0.28,1.63,0.29,3.5,0.05,5.59s-0.66,4.3-1.24,6.62s-1.27,4.69-2.08,7.12
		c-0.81,2.43-1.63,4.8-2.48,7.11c-0.85,2.31-1.67,4.51-2.45,6.61s-1.43,3.96-1.95,5.59c0.02,0.11-0.03,0.21-0.14,0.31
		c-0.12,0.1-0.26,0.18-0.42,0.26c-0.16,0.08-0.33,0.13-0.5,0.18c-0.17,0.04-0.3,0.06-0.39,0.06c-0.19,0-0.39-0.08-0.58-0.24
		s-0.31-0.35-0.35-0.56c-0.04-0.34-0.1-0.68-0.16-1c-0.04-0.26-0.09-0.52-0.13-0.77S976.02,104.7,976.02,104.6z M1003.28,52.71
		c0.17,0,0.26,0.12,0.26,0.35c0,0.24-0.09,0.35-0.26,0.35s-0.26-0.12-0.26-0.35C1003.02,52.83,1003.11,52.71,1003.28,52.71z"/>
	<path fill="#FFFFFF" d="M1013.13,76.14c0.11-0.43,0.21-0.85,0.32-1.27s0.24-0.82,0.4-1.19c0.16-0.38,0.36-0.73,0.6-1.05
		s0.54-0.6,0.9-0.84l3.74-18.21c0.04-0.3,0.18-0.52,0.4-0.64c0.22-0.13,0.47-0.2,0.72-0.21c0.26-0.01,0.51,0.01,0.76,0.05
		c0.25,0.04,0.42,0.1,0.53,0.16c0.77,0.15,1.35,0.46,1.72,0.92c0.38,0.46,0.61,1.01,0.69,1.64c0.09,0.63,0.07,1.33-0.05,2.09
		c-0.12,0.76-0.27,1.52-0.47,2.27c-0.19,0.75-0.4,1.47-0.61,2.14s-0.37,1.25-0.45,1.72c0.77,0.15,1.69,0.09,2.76-0.18
		c1.06-0.27,2.2-0.67,3.4-1.21c1.2-0.54,2.43-1.17,3.67-1.9c1.25-0.73,2.43-1.47,3.54-2.22c1.12-0.75,2.13-1.48,3.03-2.19
		s1.61-1.31,2.13-1.8c3.09-1.22,5.99-2.33,8.7-3.32c2.71-0.99,5.28-1.89,7.72-2.69s4.8-1.53,7.07-2.16
		c2.28-0.63,4.54-1.21,6.78-1.74c2.25-0.53,4.52-1,6.82-1.43c2.3-0.43,4.7-0.84,7.2-1.22c2.5-0.39,5.14-0.76,7.93-1.11
		c2.78-0.35,5.78-0.71,9.01-1.08l1.19,0.55c-1.33,0.06-3.13,0.26-5.4,0.58s-4.86,0.77-7.78,1.34c-2.92,0.57-6.09,1.26-9.51,2.08
		c-3.42,0.82-6.94,1.75-10.57,2.8c-3.63,1.05-7.29,2.22-10.97,3.5c-3.69,1.28-7.25,2.66-10.7,4.16c-3.45,1.49-6.71,3.09-9.78,4.79
		c-3.07,1.7-5.81,3.5-8.22,5.41c-2.41,1.91-4.4,3.92-5.98,6.01c-1.58,2.09-2.61,4.28-3.08,6.56c-0.06,0.43-0.03,0.91,0.11,1.43
		c0.14,0.53,0.3,1.05,0.48,1.56s0.34,1,0.48,1.45c0.14,0.45,0.17,0.81,0.08,1.06c-0.24,1.46-0.75,2.53-1.53,3.21
		s-1.9,0.87-3.33,0.56c-1.29-0.26-2.29-0.75-3-1.48c-0.71-0.73-1.21-1.59-1.5-2.58c-0.29-0.99-0.41-2.04-0.36-3.14
		C1012.81,78.21,1012.94,77.15,1013.13,76.14z M1130.63,37.37c0.32,0.04,0.73,0.1,1.22,0.16s0.88,0.12,1.16,0.16
		c-2.64,0-5.34,0.04-8.11,0.13c-2.76,0.09-5.43,0.22-8.01,0.4c-2.58,0.18-4.98,0.42-7.22,0.73c-2.23,0.3-4.15,0.66-5.74,1.06
		l-0.23-1.06c2.6-0.49,5.09-0.9,7.46-1.22s4.66-0.55,6.87-0.69c2.2-0.14,4.34-0.18,6.43-0.13
		C1126.56,36.96,1128.61,37.11,1130.63,37.37z M1138.98,37.34c-0.32,0.19-0.72,0.27-1.19,0.23c-0.47-0.04-0.85-0.24-1.13-0.58
		c-0.13-0.17-0.05-0.27,0.24-0.31c0.29-0.03,0.62-0.03,0.98,0.02c0.37,0.04,0.68,0.12,0.95,0.24
		C1139.1,37.06,1139.15,37.19,1138.98,37.34z M1142.59,36.6c-0.02,0.13-0.09,0.22-0.21,0.27c-0.12,0.05-0.25,0.08-0.4,0.06
		c-0.15-0.01-0.28-0.06-0.39-0.15c-0.11-0.09-0.15-0.19-0.13-0.32c0.02-0.15,0.1-0.25,0.23-0.31c0.13-0.05,0.26-0.08,0.4-0.06
		c0.14,0.01,0.26,0.06,0.37,0.16S1142.61,36.47,1142.59,36.6z M1148.42,37.34c-0.17,0.13-0.42,0.21-0.76,0.24s-0.68,0.02-1.03-0.03
		c-0.35-0.05-0.69-0.13-1-0.24c-0.31-0.11-0.53-0.24-0.66-0.39c-0.11-0.11-0.08-0.18,0.1-0.23c0.17-0.04,0.4-0.06,0.69-0.06
		c0.29,0,0.61,0.02,0.97,0.06c0.35,0.04,0.68,0.1,0.97,0.18c0.29,0.08,0.51,0.15,0.66,0.23
		C1148.51,37.17,1148.53,37.25,1148.42,37.34z M1153.32,36.24c0.13,0,0.23,0.07,0.29,0.21c0.06,0.14,0.09,0.28,0.06,0.42
		c-0.02,0.14-0.07,0.27-0.15,0.39c-0.08,0.12-0.19,0.16-0.34,0.11c-0.15-0.02-0.26-0.1-0.32-0.24c-0.06-0.14-0.09-0.28-0.08-0.42
		c0.01-0.14,0.06-0.26,0.14-0.37C1153.02,36.23,1153.15,36.2,1153.32,36.24z"/>
	<path fill="#FFFFFF" d="M1044,78.85c0.06-0.77,0.29-1.82,0.68-3.13c0.39-1.31,0.89-2.74,1.5-4.3c0.61-1.56,1.32-3.16,2.13-4.82
		c0.81-1.65,1.64-3.22,2.51-4.71c0.87-1.48,1.76-2.8,2.66-3.96s1.77-2.02,2.61-2.58c0.13,0.02,0.31,0.12,0.53,0.31
		c0.23,0.18,0.44,0.4,0.64,0.64c0.2,0.25,0.38,0.49,0.53,0.74c0.15,0.25,0.23,0.44,0.23,0.56l-0.03,0.55l-0.03,0.52l-6.35,16.47
		c-0.02,0.32-0.04,0.61-0.06,0.87c-0.02,0.24-0.04,0.47-0.05,0.69c-0.01,0.23-0.02,0.4-0.02,0.53c-0.06,0.77-0.11,1.5-0.13,2.18
		s0.05,1.27,0.21,1.77c0.16,0.5,0.47,0.91,0.93,1.22c0.46,0.31,1.14,0.5,2.05,0.56c3.07,0.21,5.7,0.38,7.9,0.5
		c2.19,0.12,4.1,0.2,5.74,0.24c1.63,0.04,3.07,0.04,4.32-0.02c1.25-0.05,2.47-0.16,3.66-0.31c1.19-0.15,2.44-0.34,3.75-0.58
		c1.31-0.24,2.85-0.53,4.61-0.87c1.76-0.34,3.83-0.74,6.2-1.19s5.23-0.96,8.56-1.51c-2.54,0.28-4.89,0.7-7.07,1.26
		c-2.18,0.56-4.34,1.17-6.48,1.82c-2.14,0.66-4.32,1.31-6.56,1.95s-4.67,1.2-7.3,1.66c-2.63,0.46-5.53,0.79-8.7,0.98
		c-3.17,0.19-6.75,0.16-10.75-0.1c-1.03-0.06-2.07-0.29-3.11-0.69c-1.04-0.4-1.97-0.93-2.77-1.61c-0.81-0.68-1.45-1.49-1.93-2.45
		C1044.11,81.1,1043.91,80.03,1044,78.85z M1057.92,38.47c0.06-0.79,0.28-1.55,0.64-2.27c0.37-0.72,0.96-1.32,1.77-1.79
		c0.26,0.11,0.64,0.2,1.16,0.27c0.52,0.08,1.08,0.16,1.69,0.26c0.61,0.1,1.24,0.22,1.89,0.37c0.64,0.15,1.22,0.34,1.74,0.58
		c0.52,0.24,0.93,0.54,1.24,0.9c0.31,0.37,0.46,0.81,0.43,1.32c-0.13,0.3-0.26,0.58-0.39,0.84c-0.11,0.24-0.23,0.46-0.37,0.68
		c-0.14,0.21-0.27,0.39-0.4,0.52c-0.11,0.17-0.3,0.4-0.56,0.68c-0.27,0.28-0.58,0.59-0.94,0.93c-0.35,0.34-0.74,0.69-1.14,1.05
		s-0.8,0.69-1.18,1c-0.38,0.31-0.72,0.58-1.05,0.81s-0.57,0.37-0.74,0.44c-0.37-0.41-0.77-0.86-1.22-1.35
		c-0.45-0.49-0.88-1.02-1.27-1.56c-0.4-0.55-0.73-1.13-0.98-1.74S1057.88,39.13,1057.92,38.47z"/>
	<path fill="#FFFFFF" d="M1079.37,81.49c0-0.64,0-1.22,0.02-1.72c0.01-0.5,0.06-1,0.15-1.48s0.21-0.98,0.39-1.5s0.42-1.1,0.74-1.74
		c0.15-0.15,0.5-0.55,1.06-1.19s1.26-1.43,2.11-2.37s1.81-1.98,2.88-3.13c1.07-1.15,2.21-2.31,3.42-3.48
		c1.2-1.17,2.45-2.31,3.74-3.42c1.29-1.11,2.55-2.09,3.79-2.95c1.23-0.86,2.43-1.55,3.59-2.06s2.22-0.77,3.19-0.77
		c0.32,0,0.64,0.07,0.97,0.21c0.32,0.14,0.64,0.29,0.97,0.45s0.64,0.31,0.97,0.44s0.64,0.19,0.97,0.19c1.03,0,2.06-0.37,3.09-1.11
		s2.05-1.74,3.06-3s2-2.7,2.96-4.33c0.97-1.63,1.9-3.34,2.8-5.12c0.9-1.78,1.76-3.58,2.56-5.4c0.8-1.82,1.55-3.53,2.24-5.14
		s1.31-3.05,1.85-4.32c0.55-1.27,1.02-2.26,1.4-2.98c0.39-0.72,0.68-1.09,0.89-1.11c0.2-0.02,0.29,0.42,0.27,1.32
		c-0.02,1.25-0.22,2.69-0.6,4.33c-0.38,1.64-0.87,3.41-1.48,5.29c-0.61,1.88-1.32,3.82-2.11,5.83c-0.79,2.01-1.61,3.99-2.45,5.93
		c-0.84,1.94-1.67,3.81-2.48,5.61c-0.82,1.79-1.57,3.42-2.26,4.87s-1.27,2.68-1.76,3.69c-0.48,1.01-0.8,1.71-0.95,2.09
		c-0.49,0.82-0.9,1.53-1.22,2.14s-0.58,1.2-0.77,1.76c-0.19,0.56-0.33,1.14-0.42,1.76s-0.13,1.32-0.13,2.11
		c0,1.46,0.23,2.62,0.68,3.46c0.45,0.85,1.08,1.49,1.89,1.93c0.8,0.44,1.76,0.73,2.85,0.85s2.29,0.19,3.58,0.19
		c5.03,0,10-0.41,14.91-1.24c4.91-0.83,9.79-1.86,14.65-3.11c4.86-1.25,9.71-2.59,14.55-4.04c4.84-1.45,9.72-2.8,14.61-4.04
		c4.9-1.25,9.83-2.28,14.81-3.11c4.97-0.83,10.04-1.24,15.2-1.24c-1.68,0.09-3.48,0.26-5.4,0.53c-1.92,0.27-3.9,0.6-5.93,1
		c-2.03,0.4-4.08,0.83-6.15,1.31c-2.07,0.47-4.08,0.96-6.03,1.47c-1.94,0.5-3.8,1-5.57,1.5c-1.77,0.49-3.38,0.96-4.82,1.39
		c-1.44,0.43-2.67,0.81-3.71,1.14c-1.03,0.33-1.78,0.58-2.26,0.73c-0.97,0.32-2.21,0.77-3.72,1.35c-1.52,0.58-3.22,1.23-5.11,1.95
		c-1.89,0.72-3.94,1.49-6.16,2.32c-2.21,0.83-4.51,1.64-6.88,2.45s-4.79,1.57-7.23,2.3c-2.45,0.73-4.86,1.38-7.23,1.95
		c-2.38,0.57-4.68,1.02-6.91,1.35c-2.23,0.33-4.32,0.5-6.25,0.5c-1.83,0-3.41-0.15-4.75-0.44c-1.34-0.29-2.51-0.72-3.5-1.29
		c-0.99-0.57-1.83-1.28-2.51-2.14c-0.69-0.86-1.27-1.86-1.76-3.01c-0.48-1.15-0.9-2.44-1.26-3.87c-0.36-1.43-0.69-3-1.02-4.72
		c-0.75,0.75-1.67,1.72-2.74,2.9c-1.07,1.18-2.26,2.44-3.54,3.79c-1.29,1.34-2.65,2.69-4.09,4.03c-1.44,1.34-2.89,2.56-4.35,3.64
		c-1.46,1.08-2.91,1.97-4.33,2.66c-1.43,0.69-2.79,1.03-4.08,1.03c-0.82,0-1.47-0.15-1.97-0.44s-0.89-0.68-1.18-1.16
		c-0.29-0.48-0.48-1.04-0.58-1.66C1079.42,82.77,1079.37,82.14,1079.37,81.49z M1103.8,60.83c-0.75,0-1.73,0.3-2.93,0.89
		c-1.2,0.59-2.5,1.36-3.88,2.32c-1.38,0.96-2.78,2.04-4.17,3.25c-1.4,1.21-2.66,2.44-3.8,3.69c-1.14,1.25-2.06,2.45-2.77,3.61
		s-1.06,2.17-1.06,3.03c1.07,0,2.28-0.31,3.61-0.93c1.33-0.62,2.7-1.43,4.11-2.42c1.41-0.99,2.79-2.1,4.16-3.34
		c1.36-1.24,2.61-2.48,3.72-3.72c1.12-1.25,2.06-2.43,2.84-3.56s1.27-2.07,1.48-2.82H1103.8z M1214.37,60.83h-1.29v-1.29
		L1214.37,60.83z M1220.82,59.54c-0.32,0.64-0.67,1.02-1.05,1.13c-0.38,0.11-0.89,0.16-1.53,0.16h-1.29
		c0.32-0.64,0.67-1.02,1.05-1.13c0.38-0.11,0.89-0.16,1.53-0.16H1220.82z"/>
</g>
</svg>
