<svg xmlns="http://www.w3.org/2000/svg" viewBox="0 0 154.4 358.3"><path d="M44.9.6h1l3.5.6 5.4.1c.1 0 .3 2.1.7 6.4v.8l.1 4.3-.1 2.9.1 2.9-.1 2.8.5 3-.5 2.8.3 2.8c0 1.2-.2 3.3-.5 6.3l-.2 5c0 .2-.6.4-1.7.6-.3.2-1.5.4-3.6.4-1.5-.4-3-.5-4.6-.5-.8 0-1.8-.1-3.3-.4v-.1c.2-1.7.4-2.8.4-3.2V38c0-1.2.1-2.9.2-4.9l-.1-2.8c0-1.2.1-3.1.3-5.7-.3-1.8-.4-2.9-.4-3.2V19c-.2 0-.5.7-.9 2.1-.9 2.2-1.6 4.3-2.1 6.4-.4 2.1-.8 3.8-1.2 5L36.5 36c-.6 1.9-1.1 3.3-1.5 4.1-.4.9-.7 1.4-.8 1.4-2 .2-4.1.4-6.1.5-2.1-.3-3.1-.5-3.1-.6-.6-1.8-1.3-3.7-2.1-5.7-.4-1.9-.8-3.1-1.2-3.7-.8-1.4-1.2-2.4-1.3-3.2-.3-.8-.7-2.5-1.3-5.1-.9-3.3-1.5-5-1.5-5-.2.1-.3.4-.3 1l-.1 1.8.3 2.8c0 1.5-.1 3.4-.4 5.7.1 2.1.3 4 .5 5.7l-.1 3c.5 1.7.7 2.6.7 2.8l-2.7.5-2.6-.2c-2.5.3-4.3.5-5.3.5l-2.4-1.1c-.2-1.1-.3-3.2-.3-6.1v-1.7c0-.5-.1-1.6-.4-3.3l.4-2.9-.4-2.9.1-2.8-.2-2.9.3-9.2.4-2.3-.4-2.9c.5-2 .8-3 .9-3C8.5.8 11.3.6 14.2.6l2.9.5 3.1-.4c1.8.5 2.8.8 2.8.9.9 1.9 1.3 3 1.3 3.5.3 1.3.6 2.2.9 2.7.6 1.1.9 2 .9 2.7.2 1.5.4 2.3.6 2.5.8 1.6 1.2 2.7 1.2 3.2.2 1.1.6 1.9 1 2.5.6 1.1 1 2 1.1 2.8l.4 1.2h.1c1.1-2.5 1.9-5 2.5-7.4l1-3.4c.3-1.9.8-3.8 1.5-5.8.7-1.6 1.1-3 1.1-4.2l.1-.7c3.8-.4 6.6-.6 8.2-.6zM88.3.6c1.9.4 2.9.7 2.9.8l2.5 5.3c.5 1.9.9 3.3 1.4 4.1.4.7.9 2.2 1.6 4.2 1.1 2 2.1 4 2.9 6.1l2.8 7.3c.4 1.8 1 3.3 1.7 4.7.2.3.5 1.5 1 3.4 1 1.8 1.5 3.1 1.5 4l.3 1.4c-1.3.3-3.1.5-5.5.5l-.1.1-9.3-.7c-.1-.2-.4-1.3-.9-3.4L90 35.7l-2.6.5-2.6-.2-5.2.3-2.5-.6c-.6 2.3-1.1 4.3-1.8 6.1l-.1.1c-2.4.2-5.2.3-8.4.3H63.4l-2.9-.6v-.1c.9-2.3 2-5.4 3.4-9.4 1.1-2.4 1.9-4.7 2.4-6.8.8-1.6 1.7-3.7 2.7-6.4.4-.9 1-2.5 1.7-4.7L73.4 9l1.8-5.4 1.5-2.4c2.5-.3 4.4-.5 5.7-.5l2.9.2 3-.3zm-4.7 14.9c-.6 1.4-1.2 2.9-1.6 4.5-.8 1.8-1.2 2.9-1.2 3.2l-.3 2.2h.1l2.8.1 3.5-.2c-.6-1.4-1-2.8-1.2-4.1 0-.4-.5-1.7-1.4-4l-.7-1.7zM144.4.6c2 0 3.4.2 4.1.5.6.1.9.3.9.5.2 2 .3 4 .3 5.9v2.6c.2 1.5.3 4.6.5 9.1v1l-.2 4.9V30l.1.1v.1c-.4 1.7-.5 4-.5 6.8v1.4c-.2 2.2-.3 3.4-.4 3.4-1.9.3-3.6.5-5.1.5l-.5-.1H142c-1.6 0-3.7-.2-6.4-.6-.7-1.6-1.4-2.8-2.3-3.8-.4-.4-1-1.6-1.7-3.5-1.8-2.9-3.2-5.3-4.3-7.3-1-1.4-1.9-2.9-2.7-4.3l-.2-.1v.1l.1 2.5-.3 2.8c.4 4.3.6 7 .6 8.2l-.4 2.8.6 2.7c-1.6.5-3.3.8-5.2.8l-5.4-.1c-1.5-.4-2.3-.6-2.4-.7-.2-2-.4-3.9-.6-5.6l.1-2.9.1-.1-.1-.2v-1.4l.2-4 .1-.1-.1-.2v-2.1c0-.4-.1-1.5-.4-3.4l.3-9.1c.2 0 .3-3.1.4-9.4 0 0 .1-.5.1-1.6l5.3-.6 6 .4 2.1.4c.9 1.6 2 3.2 3.3 4.9 1.6 3.5 2.5 5.5 2.8 5.8 1.3 1.6 2.8 4 4.4 7.2.6 1.7 1 2.5 1.1 2.5.1-.1.3-1 .5-2.7v-.4l-.4-2.9v-2.5l-.1-3.4.1-2.7v-.4l-.4-5.7c0-.1.8-.3 2.4-.8l2.6.2 2.6-.3zM37.2 70.6c1.5 0 3.3.3 5.4.9l.1.1v.1c0 1.8.2 3.5.5 5.2-.2 1.8-.4 3.8-.4 6.1v1.9l.4 3.2-.2 2.7.1 2.8c-.4 1.7-.5 2.7-.5 2.9v2.3l.1.4-1.8 6c-.9 1.3-2.2 2.9-3.8 4.7l-2.1 1.8c-1.7.5-4.6 1.2-8.7 1.9l-3.8.1h-1c-2 0-4.5-.4-7.4-1.2-1.9-.7-3.1-1.3-3.4-1.7-.9-.5-1.7-1.1-2.4-1.9-1-1-1.6-1.7-1.6-2.2-1.5-3.1-2.2-5.1-2.2-6L4.1 99 4 95.9l.1-2.1-.4-3.1L4 88l-.5-2.8L4 77h.1v-.1l-.4-2.8c.3-1.5.5-2.4.6-2.5 2.6-.6 4.4-.8 5.5-.8 3.2 0 5.9.2 8.2.7v5.1l-.3 3.7.5 5.7-.1.6v1.8c0 .4-.1 1.5-.4 3.5.3 3.3.5 5.4.5 6.1 1.4 1.7 2.2 2.5 2.2 2.5l3 .2c2.2-.2 3.3-.3 3.3-.4l1.9-2.3.1-4.1v-1.8c0-.6.1-1.6.4-3.1v-.2l-.4-8.6.2-3-.3-2.8c.2-1.9.4-2.9.5-2.9 1.5-.4 2.3-.6 2.5-.6H34l3.2-.3zM81.6 70.6l2.7.2 2.8-.2 5.5.5 2.8-.4 2.7.6.6 2.7-.7 8.1c0 .2 0 .3-.1.3l-2.7.1c-2.2-.3-4.2-.5-5.9-.5-1.7 0-3.7.2-6 .5l.1 3.4.2-.1h2.6l5.4.1 3.6-.1h1.9l.1.1v.1c0 1.7.2 4 .5 6.8l.1 1.1c-.4 1.8-.6 2.7-.8 2.7l-.4.1h-1.2c-1.7 0-3 0-3.8-.1l-2.8.3c-1.9 0-3.8-.1-5.8-.4v3.8h.1c2.1 0 3.9.1 5.5.4l2.7-.1 2.7.2 5.3-.5c.1 1 .2 2.1.2 3.4v1.8c0 .4.1 1.5.4 3.4-.4 1.8-.7 2.7-.8 2.8l-2.7.6-8.5-.2-3.7.1h-1.4l-3.7.2c-4.4-.2-6.6-.3-6.6-.5-1.5-.3-2.2-.5-2.2-.6-.2-2.5-.3-4.7-.3-6.7v-.1c0-2.2.1-4.7.4-7.4l-.3-2.8.1-2.8-.2-3c.3-4.4.5-7.1.5-8.1l-.3-3.4c0-2.3.2-4.3.5-5.8l2.4-.4 2.5.1h.5c1.8-.1 3.6-.2 5.5-.3zM137.1 70.6c1.8.4 2.7.7 2.7.8v2.4l-.2 4.2v1.8l-.1.1.1.1c0 1.9.1 3.8.4 5.7l-.2 2.8.1 2.5.1.3c-.3 2.7-.5 4.6-.5 5.8l.3 2.8 2.7.2 2.7-.1 2.7.4 5.4-.7.5 3.1-.2 3 .2 2.9c-.4 1.9-.7 2.8-.8 2.8l-.4.1c-1.2 0-2.9.1-5 .4l-5.3.3-2.7-.4c-2.1.2-3.9.3-5.4.3-1 0-3-.2-6-.6l-2.1-.1-.1-.2.1-2.6-.5-2.9.5-2.8c0-4.7-.1-8.6-.2-11.6l.1-4.8v-.2c0-1.5-.1-3.7-.2-6.6 0-2 .1-3.9.4-5.6l-.1-2.7c0-.1 1.1-.2 3.2-.4l2.3-.4 2.8.2 2.7-.3zM44.9 174.6h1l3.5.6 5.4.1c.1 0 .3 2.1.7 6.4v.8l.1 4.3-.1 2.9.1 2.9-.1 2.8.5 3-.5 2.8.3 2.8c0 1.2-.2 3.3-.5 6.3l-.2 5c0 .2-.6.4-1.7.6-.3.2-1.5.4-3.6.4-1.5-.4-3-.5-4.6-.5-.8 0-1.8-.1-3.3-.4v-.1c.2-1.7.4-2.8.4-3.2v-.1c0-1.2.1-2.9.2-4.9l-.1-2.8c0-1.2.1-3.1.3-5.7-.3-1.8-.4-2.9-.4-3.2V193c-.2 0-.5.7-.9 2.1-.9 2.2-1.6 4.3-2.1 6.4-.4 2.1-.8 3.8-1.2 5l-1.6 3.5c-.6 1.9-1.1 3.3-1.5 4.1-.4.9-.7 1.4-.8 1.4-2 .2-4.1.4-6.1.5-2.1-.3-3.1-.5-3.1-.6-.6-1.8-1.3-3.7-2.1-5.7-.4-1.9-.8-3.1-1.2-3.7-.8-1.4-1.2-2.4-1.3-3.2-.3-.8-.7-2.5-1.3-5.1-.9-3.3-1.5-5-1.5-5-.2.1-.3.4-.3 1l-.1 1.8.3 2.8c0 1.5-.1 3.4-.4 5.7.1 2.1.3 4 .5 5.7l-.1 3c.5 1.7.7 2.6.7 2.8l-2.7.5-2.6-.2c-2.5.3-4.3.5-5.3.5l-2.4-1.1c-.2-1.2-.4-3.2-.4-6.2v-1.7c0-.5-.1-1.6-.4-3.3l.4-2.9-.4-2.9.1-2.8-.2-2.9.3-9.2.4-2.3-.4-2.9c.5-2 .8-3 .9-3 2.9-.4 5.7-.6 8.6-.6l2.9.5 3.1-.4c1.9.5 2.8.8 2.8.9.9 1.9 1.3 3 1.3 3.5.3 1.3.6 2.2.9 2.7.6 1.1.9 2 .9 2.7.2 1.5.4 2.3.6 2.5.8 1.6 1.2 2.7 1.2 3.2.2 1.1.6 1.9 1 2.5.6 1.1 1 2 1.1 2.8l.4 1.2h.1c1.1-2.5 1.9-5 2.5-7.4l1-3.4c.3-1.9.8-3.8 1.5-5.8.7-1.6 1.1-3 1.1-4.2l.1-.7c3.9-.3 6.7-.5 8.3-.5zM93.9 174.6c1.9.4 2.9.7 2.9.8l2.5 5.3c.5 1.9.9 3.3 1.4 4.1.4.7.9 2.2 1.6 4.2 1.1 2 2.1 4 2.9 6.1l2.8 7.3c.4 1.8 1 3.3 1.7 4.7.2.3.5 1.5 1 3.4 1 1.8 1.5 3.1 1.5 4l.3 1.4c-1.3.3-3.1.5-5.5.5l-.1.1-9.1-.5c-.1-.2-.4-1.3-.9-3.4l-1.1-2.7-2.6.5-2.6-.2-5.2.3-2.5-.6c-.6 2.3-1.1 4.3-1.8 6.1l-.1.1c-2.4.2-5.2.3-8.4.3H69.2l-2.9-.6v-.1c.9-2.3 2-5.4 3.4-9.4 1.1-2.4 1.9-4.7 2.4-6.8.8-1.6 1.7-3.7 2.7-6.4.4-.9 1-2.5 1.7-4.7l2.7-5.2 1.8-5.4 1.5-2.4c2.5-.3 4.4-.5 5.7-.5l2.9.2 2.8-.5zm-4.6 14.9c-.7 1.4-1.2 2.9-1.7 4.5-.8 1.8-1.2 2.9-1.2 3.2l-.3 2.2h.1l2.8.1 3.5-.2c-.6-1.4-1-2.8-1.2-4.1 0-.4-.5-1.7-1.4-4l-.6-1.7zM144.9 174.6l3.1.4 2.4-.1c1.9.3 2.9.5 2.9.5l.2 2.4-.1 5.4c-.1 2.4-.2 3.6-.4 3.6l-2.3-.4-3.3.2h-2.8l-1.5.1c.4 2.4.5 4.4.5 5.8l-.2 2.9c.1 3.6.2 6.6.3 9.1v1.2c0 1.1-.2 2.5-.6 4.1l.2 2.9-.3 2.9c-1.8.2-3.5.4-5.2.8-1.8-.3-2.9-.4-3.4-.4h-1.9c-1.8-.2-2.7-.4-2.7-.5v-1.2c0-1.2-.1-2.7-.3-4.5l.2-2.9-.2-2.9.3-2.9-.6-2.9.2-2.9-.1-2.9c.1-2.3.2-4.2.4-5.7l-7.4-.4-2.3.2v-.1l-.8-2.6c.1-2.2.2-4.1.2-5.7.3-1.9.5-2.9.6-2.9l2.6-.6 5.4.2.1.1h.1l2.8-.2 2.8.2 11.1-.3zM37.2 244.6c1.5 0 3.3.3 5.4.9l.1.1v.1c0 1.8.2 3.5.5 5.2-.2 1.8-.4 3.8-.4 6.1v1.9l.4 3.2-.2 2.7.1 2.8c-.4 1.7-.5 2.7-.5 2.9v2.3l.1.4-1.8 6c-.9 1.3-2.2 2.9-3.8 4.7l-2.1 1.8c-1.7.5-4.6 1.2-8.7 1.9l-3.8.1h-1c-2 0-4.5-.4-7.4-1.2-1.9-.7-3.1-1.3-3.4-1.7-.9-.5-1.7-1.1-2.4-1.9-1-1-1.6-1.7-1.6-2.2-1.5-3.1-2.2-5.1-2.2-6l-.4-1.7-.1-3.1.1-2.1-.4-3.1.3-2.7-.5-2.8.5-8.2.1-.1v-.1l-.4-2.8c.3-1.5.5-2.4.6-2.5 2.6-.5 4.4-.8 5.5-.8 3.2 0 5.9.2 8.2.7v5.1l-.3 3.7.5 5.7-.1.6v1.8c0 .4-.1 1.5-.4 3.5.3 3.3.5 5.4.5 6.1 1.4 1.7 2.2 2.5 2.2 2.5l3 .2c2.2-.2 3.3-.3 3.3-.4l1.9-2.3.1-4.1V266c0-.6.1-1.6.4-3.1v-.2l-.4-8.6.2-3-.3-2.8c.2-1.9.4-2.9.5-2.9 1.5-.4 2.3-.6 2.5-.6H34l3.2-.2zM73.5 244.6c2.2.1 4.1.3 5.8.5l.1-.1 2.8-.2 3 .2 2.9-.4c1.8.4 2.8.6 2.8.6l.7 2.3-.3 3.1v1.8c-.3 1.9-.5 2.8-.8 2.8-.6 1.3-1.1 2.1-1.5 2.4-1.6 1.7-3.4 3.7-5.4 6.3-.5.8-1.8 2.3-4 4.7-.3.4-1.4 1.5-3.3 3.3l-1.5 1.8v.1l2.8.4 2.7-.4c1.8.1 3.6.3 5.5.5 1.9-.4 3.7-.5 5.4-.5.4 2.4.6 4.4.8 5.9l-.8 5.6c-2.4.5-4.3.7-5.8.7h-1.9l-5.1-.2h-.5l-3.2.2-2.8-.4c-2.1.3-4 .5-5.6.5l-3.4-.2h-2c-1.7-.3-2.6-.5-2.6-.6-.2-1.7-.6-3.5-.9-5.7.2-2.2.4-4.1.6-6 1.1-1.3 3-3.6 5.7-6.7 1.7-1.6 2.8-2.7 3.1-3.4.4-.5 1.2-1.6 2.4-3.4.9-1.1 1.8-2.1 2.7-2.9l1-.9-2.7-.5c-4.5.1-7.4.3-8.8.5-1.8-.1-2.7-.2-2.7-.3l-.5-2.5c.1-1.6.2-3.7.2-6.3l-.1-1.9c.2-.1 1.7-.3 4.6-.6 0 0 .5-.1 1.4-.2 1.9 0 3.8.1 5.8.3l3.4-.2zM129.1 243.4h2.1c2.3.4 3.9.7 4.8.8 1 0 2.2.3 3.7.8.4 0 1.2.5 2.4 1.5 2.2 1.5 3.4 2.3 3.6 2.7 1.4 1.4 2.4 2.7 3 3.8.2.2.8 1.6 1.8 4.1.6 1.3.9 2 .9 2.2v2.4l.4 6.6c-.4 2.3-.8 4.4-1.3 6.2-.9 2-1.6 3.2-2.1 3.8-.2.6-1 1.4-2.4 2.7l-3.2 2.8c-1.7.6-3.5 1.5-5.4 2.5-1.8.5-3 .7-3.7.7H129c-.5 0-1.6.2-3.5.5-2.1-.4-5.2-1.1-9.1-2.2l-5.1-3.7c-1.4-1.5-2.1-2.4-2.1-2.5-1.8-3.4-2.7-5.1-2.7-5.3l-.9-5.8.2-3-.1-3.2.1-2.7c.9-2.4 1.4-3.7 1.4-3.9.3-1.5.6-2.3.9-2.5.9-1.5 1.5-2.3 1.9-2.4 1-.6 2.1-1.6 3.4-2.9.4-.6.9-.9 1.6-1.2 1-.6 2.2-1.1 3.7-1.5l4.1-1.1h2.1l4.2-.2zm-.5 13.1l-2.8-.2c-1.5.9-2.4 1.5-2.6 1.7-1.1 1.5-1.7 2.4-1.7 2.7-.5 1.1-.8 1.8-.8 2.2l-.1 2.4c.1 2.2.2 3.3.4 3.3.5 1.5.9 2.4 1.2 2.8.7 1.2 1.3 1.8 1.7 1.8 1.3.6 2 .9 2.4.9l2.4.2c2.2-.1 3.3-.3 3.3-.5 1.5-.5 2.2-.8 2.2-1 1-1.6 1.5-2.5 1.5-2.7.5-1.3.9-2.9 1.3-5-.2-2.1-.4-3.4-.7-4-.3-1.1-.7-1.8-1.1-2.2-.8-1-1.5-1.6-2-1.8l-1.7-.9-2.9.3zM32 314.6l10.1.3 2.1.2c-.2 2-.4 3-.5 3.1-1 1.7-1.5 2.8-1.5 3.2-.3 1.8-1.1 4.5-2.5 8.3-.5.9-1.1 2.5-1.7 4.7-.9 1.7-1.4 2.8-1.4 3.2-.3 1.8-.5 2.7-.8 2.7-.9 1.6-1.4 2.7-1.4 3.2-.8 3-1.5 4.9-2.1 5.7-.4.5-.8 1.7-1.2 3.7-.9 1.8-1.5 2.7-1.7 2.7l-2.6.6-3.1-.1-3 .2c-2.4 0-4.1-.2-5.1-.5-.7-.1-1-.3-1-.5-1.5-3.4-2.5-6.1-3.1-8.1-.8-1.4-1.8-4.1-3-8-.7-1.4-1.5-3.1-2.2-5.3-.9-3.7-1.7-6.4-2.5-8.1-.6-1.6-1.1-3.4-1.7-5.5-.6-1.5-1.2-3.1-1.7-5l.2-.1c1.8-.2 3.8-.3 5.8-.3l1.4.1H9l3.8-.2c1.9.3 2.9.5 2.9.6l1.7 5.5c.2 2 .4 3.2.6 3.7 1.1 2.5 1.9 5.3 2.4 8.4.2 1.4.5 2.6.9 3.7.8 2.4 1.3 3.6 1.4 3.7 1.7-6.5 2.6-10.1 2.6-11.1.7-1.8 1.1-2.8 1.1-3 .2-2 .3-3.3.5-3.7 1.5-4.6 2.2-7 2.2-7.1l2.9-.9zM77.1 314.6c4.1.1 6.2.2 6.2.4 1.5.3 2.2.5 2.2.6l.1 3.2-.3 7.1v.7l.2 3.2c-.2 2-.2 3.7-.2 5 0 2.3.1 6.1.4 11.3v.8l-.4 3 .3 2.9c-.2 1.9-.3 2.8-.4 2.8-1.7.4-2.6.7-2.8.7h-2l-3.4.2c-1.9 0-3.6-.3-5.1-.8l-.4-2.9.3-2.9c-.1-2.1-.3-4-.5-5.7l.3-2.9-.1-2.9.1-2.8-.1-2.9.2-5.7-.2-2.9v-.7c0-2.6.2-5.3.5-8 2.6-.6 4.3-.8 5.1-.8zM134.8 313.4h5.5c2.5.2 4.1.5 4.7.6 1.2.3 2.2.6 3 1.1 2.7 1.3 4.1 2 4.1 2.2l1.7 2v.2c-.9 1.4-2 2.9-3.3 4.4-1.4 1.1-2.5 2.3-3.4 3.5l-1.9 2.4h-.1c-.8-1.5-1.3-2.3-1.4-2.3-1.2-.4-2.1-.6-2.7-.7-1.5 0-3.3.1-5.5.4l-2.4 1-1.8 2-.9 2.5.1 2.9-.1 2.7c.9 1.5 1.8 3.1 2.9 4.7 1.8.7 2.8 1 3 1 2 .2 3.7.3 5 .5 1.5-.9 2.4-1.5 2.5-1.7l1.4-1.9c1.8 1.7 2.8 2.8 3.1 3.5.2.4 1.2 1.5 2.9 3.3 1 1.2 1.9 2.4 2.8 3.6-1.1 1.5-1.8 2.3-2.1 2.7-1.7 1.2-2.6 1.8-2.9 1.8-1.4.6-3.1 1.1-5.3 1.6h-1.9l-3.8.1-.1.1h-.1l-3-.3-2.6.1h-.3c-1.7-.4-2.8-.7-3.3-1l-5.3-2.6c-1.5-1.2-2.3-1.9-2.5-2.2-1.1-1.3-1.9-2.6-2.5-3.7l-2.1-3.5c-.4-1.8-.6-3.2-.6-4.4 0-.8-.1-2.3-.4-4.4 0-2.9.4-6 1.2-9.3.7-1.7 1.6-3.2 2.5-4.7.1-.2.9-1.1 2.5-2.7 1.5-1.3 2.4-2 2.7-2.1 1-.4 2.6-1.2 4.8-2.2 3.7-.8 5.7-1.2 5.9-1.2z"/></svg>
