<?xml version="1.0" standalone="no"?>
<!DOCTYPE svg PUBLIC "-//W3C//DTD SVG 20010904//EN"
 "http://www.w3.org/TR/2001/REC-SVG-20010904/DTD/svg10.dtd">
<svg version="1.0" xmlns="http://www.w3.org/2000/svg"
 width="460.000000pt" height="460.000000pt" viewBox="0 0 460.000000 460.000000"
 preserveAspectRatio="xMidYMid meet">
<metadata>
Created by potrace 1.11, written by Peter Selinger 2001-2013
</metadata>
<g transform="translate(0.000000,460.000000) scale(0.100000,-0.100000)"
fill="#000000" stroke="none">
<path d="M463 3713 c-40 -4 -43 -7 -51 -41 -17 -70 -21 -639 -7 -890 7 -112 7
-113 36 -128 25 -12 53 -14 167 -7 l137 8 -3 25 c-3 27 -14 206 -15 255 -1 17
0 95 2 175 2 140 3 144 17 105 8 -22 26 -87 40 -145 15 -58 34 -121 44 -140
10 -19 34 -84 54 -145 20 -60 44 -116 53 -122 20 -15 179 -18 216 -4 17 7 31
25 43 58 9 26 32 84 49 128 18 44 38 105 45 135 12 57 68 238 79 255 11 19 16
-147 10 -359 -4 -128 -2 -213 3 -217 17 -11 261 -20 293 -11 l30 8 7 100 c15
200 10 797 -8 912 l-5 32 -68 0 c-38 0 -93 5 -122 10 -32 7 -100 8 -166 4
l-112 -7 -6 -31 c-4 -17 -17 -67 -31 -111 -13 -44 -37 -130 -53 -190 -16 -61
-40 -137 -52 -170 l-22 -60 -13 40 c-8 22 -19 48 -25 59 -13 23 -56 147 -70
201 -9 36 -24 84 -66 203 -8 23 -24 47 -34 53 -20 10 -319 20 -396 12z"/>
<path d="M2566 3710 c-138 -7 -140 -7 -163 -36 -12 -16 -32 -60 -44 -99 -11
-38 -38 -102 -58 -141 -21 -39 -44 -88 -51 -110 -7 -21 -31 -82 -52 -134 -22
-52 -53 -131 -69 -175 -15 -44 -51 -143 -78 -219 -28 -77 -48 -142 -46 -144
14 -15 119 -22 237 -16 155 8 140 -1 171 107 l13 49 169 0 169 1 12 -29 c7
-16 19 -49 26 -74 l13 -45 110 -7 c142 -8 255 0 262 19 6 16 3 27 -47 163 -17
47 -42 117 -55 156 -28 83 -101 261 -174 424 -28 63 -51 122 -51 130 0 8 -17
49 -37 92 -37 79 -40 82 -103 92 -8 2 -78 0 -154 -4z m85 -549 c11 -40 17 -76
14 -79 -3 -3 -38 -6 -78 -6 l-72 -1 3 35 c1 19 14 64 28 100 14 36 30 78 36
93 l11 29 19 -49 c10 -26 28 -81 39 -122z"/>
<path d="M3423 3712 c-41 -6 -48 -28 -48 -151 0 -64 3 -124 7 -133 6 -16 22
-18 110 -18 161 0 143 48 146 -378 1 -237 6 -370 13 -377 15 -15 315 -13 330
2 10 10 13 103 13 378 l1 366 23 6 c12 3 69 4 126 1 l104 -3 6 65 c7 81 8 178
0 207 -4 15 -17 23 -42 28 -36 7 -746 13 -789 7z"/>
<path d="M3520 1930 c-164 -12 -240 -40 -333 -126 -32 -30 -61 -54 -65 -54
-14 0 -47 -64 -74 -145 -24 -71 -28 -95 -28 -210 0 -168 11 -233 56 -319 43
-84 77 -122 163 -184 54 -38 81 -50 178 -73 64 -16 120 -26 126 -22 5 3 71 9
146 13 132 7 139 9 221 48 111 53 204 140 248 232 45 94 58 189 46 341 -9 116
-13 129 -52 209 -23 47 -57 102 -76 122 -35 37 -123 105 -162 126 -21 11 -250
53 -275 50 -8 0 -61 -4 -119 -8z m198 -344 c91 -47 128 -155 97 -278 -35 -136
-74 -168 -199 -168 -104 1 -146 22 -181 94 -23 47 -27 69 -27 135 0 96 31 166
89 206 32 21 49 25 116 25 48 0 88 -5 105 -14z"/>
<path d="M1143 1901 c-53 -4 -98 -12 -105 -19 -9 -9 -13 -93 -14 -346 -1 -330
-1 -334 -23 -362 -29 -38 -43 -42 -122 -43 -62 -1 -67 1 -99 34 l-34 35 -1
342 0 342 -45 9 c-51 9 -266 4 -292 -8 -10 -4 -20 -16 -24 -28 -3 -11 -6 -166
-6 -344 1 -293 3 -330 21 -397 53 -193 128 -270 304 -311 135 -32 408 -6 495
47 18 11 57 50 86 87 62 76 92 158 103 280 8 84 10 436 4 574 l-4 87 -36 9
c-60 15 -111 18 -208 12z"/>
<path d="M1915 1905 c-5 -2 -36 -6 -68 -10 l-59 -7 4 -134 c2 -105 6 -137 18
-144 8 -5 81 -6 166 -3 196 8 201 6 142 -55 -24 -26 -62 -72 -83 -102 -21 -30
-64 -82 -95 -115 -31 -33 -80 -89 -110 -123 l-53 -64 -1 -111 c-1 -148 7 -185
42 -194 45 -13 773 -8 804 5 24 10 27 17 33 86 4 42 3 106 -1 143 l-9 68 -207
0 c-113 0 -209 3 -212 6 -3 3 31 43 75 90 45 46 107 116 137 154 31 39 81 99
112 135 87 100 94 117 95 242 0 58 -4 110 -8 115 -5 4 -81 9 -170 10 -89 1
-247 3 -352 6 -104 3 -194 4 -200 2z"/>
</g>
</svg>
