<svg enable-background="new 0 0 362.62 388.52" viewBox="0 0 362.62 388.52" xmlns="http://www.w3.org/2000/svg"><path d="m156.58 239-88.3 64.75c-10.59 7.06-18.84 11.77-29.43 11.77-21.19 0-38.85-18.83-38.85-40.03 0-17.66 14.13-30.61 27.08-36.49l103.6-44.74-103.6-45.91c-14.13-5.89-27.08-18.84-27.08-36.5 0-21.19 18.84-38.85 40.03-38.85 10.6 0 17.66 3.53 28.25 11.77l88.3 64.75-11.77-104.78c-3.53-24.72 12.95-44.74 36.5-44.74s40.03 18.84 36.5 43.56l-11.77 105.96 88.3-64.75c10.59-8.24 18.83-11.77 29.43-11.77 21.19 0 38.85 17.66 38.85 38.85 0 18.84-12.95 30.61-27.08 36.5l-103.61 45.91 103.61 44.74c14.13 5.88 27.08 18.83 27.08 37.67 0 21.19-18.84 38.85-40.03 38.85-9.42 0-17.66-4.71-28.26-11.77l-88.3-64.75 11.77 104.78c3.53 24.72-12.95 44.74-36.5 44.74-23.54 0-40.03-18.84-36.5-43.56z" fill="#f68a1f"/></svg>