<svg xmlns="http://www.w3.org/2000/svg" id="Ebene_1" xmlns:xlink="http://www.w3.org/1999/xlink" viewBox="0 10 260 68" aria-labelledby="title"><title id="title">Smashing Magazine Logo</title><style>.st0{display:none;}.st1{display:inline;}.st2{display:none;clip-path:url(#SVGID_3_);}.st3{clip-path:url(#SVGID_6_);}.st4{fill:url(#SVGID_7_);}.st5{fill:url(#SVGID_8_);}.st6{clip-path:url(#SVGID_11_);}.st7{fill:url(#SVGID_12_);}.st8{fill:url(#SVGID_13_);}.st9{fill:url(#SVGID_14_);}.st10{fill:url(#SVGID_15_);}.st11{fill:url(#SVGID_16_);}.st12{fill:url(#SVGID_17_);}.st13{fill:url(#SVGID_18_);}.st14{fill:url(#SVGID_19_);}.st15{fill:url(#SVGID_20_);}.st16{fill:url(#SVGID_21_);}.st17{fill:url(#SVGID_22_);}.st18{fill:url(#SVGID_23_);}.st19{fill:url(#SVGID_24_);}.st20{fill:url(#SVGID_25_);}.st21{fill:url(#SVGID_26_);}.st22{clip-path:url(#SVGID_31_);}.st23{clip-path:url(#SVGID_32_);}.st24{fill:url(#SVGID_33_);}.st25{fill:url(#SVGID_34_);}.st26{fill:url(#SVGID_35_);}.st27{fill:url(#SVGID_36_);}.st28{fill:url(#SVGID_37_);}.st29{fill:url(#SVGID_38_);}.st30{fill:url(#SVGID_39_);}.st31{fill:url(#SMASHING_2_);}.st32{fill:#E43A2C;}.st33{fill:#E85C32;}.st34{opacity:0.65;clip-path:url(#SVGID_41_);fill:url(#SVGID_42_);}.st35{opacity:0.3;clip-path:url(#SVGID_41_);fill:url(#SVGID_43_);}.st36{fill:#FFFFFF;}.st37{fill:#999999;}</style><g><g id="SMASHING_SCHRIFTZUG"><g id="Backup_Verlauf_Smashing" class="st0"><g class="st1"><g><defs><path id="SVGID_1_" d="M82.182 40.99c0 .86.155 1.585.467 2.183.3.6.71 1.09 1.21 1.472.52.356 1.13.63 1.83.824.69.16 1.41.25 2.15.25.5 0 1.04-.04 1.61-.11.57-.1 1.11-.27 1.61-.5.5-.24.92-.57 1.25-.97.33-.43.5-.97.5-1.62 0-.69-.23-1.26-.68-1.69-.43-.43-1.01-.79-1.72-1.08-.72-.29-1.53-.54-2.44-.76-.91-.21-1.83-.45-2.76-.72-.96-.24-1.89-.53-2.8-.86-.91-.36-1.72-.82-2.44-1.37-.72-.55-1.31-1.23-1.76-2.05-.44-.84-.65-1.84-.65-3.01 0-1.31.27-2.45.82-3.41.57-.98 1.31-1.79 2.22-2.44.91-.65 1.94-1.12 3.08-1.44 1.15-.32 2.29-.47 3.44-.47 1.34 0 2.62.15 3.83.47 1.24.28 2.34.76 3.3 1.43.96.67 1.71 1.53 2.26 2.58.57 1.03.86 2.28.86 3.76h-5.44c-.05-.77-.22-1.4-.5-1.9-.26-.51-.62-.9-1.08-1.19-.46-.29-.98-.49-1.58-.61-.58-.12-1.21-.18-1.9-.18-.46 0-.91.05-1.36.14-.46.1-.88.27-1.26.51-.36.24-.66.54-.9.89-.24.36-.36.81-.36 1.36 0 .503.09.913.29 1.22.19.31.56.6 1.11.86.57.263 1.35.53 2.33.79l3.9 1.003c.48.1 1.13.276 1.97.54.86.24 1.703.636 2.54 1.19.83.55 1.55 1.29 2.15 2.22.62.91.93 2.08.93 3.514 0 1.17-.23 2.26-.68 3.26-.454 1.003-1.136 1.874-2.04 2.613-.887.72-1.997 1.28-3.336 1.69-1.315.404-2.84.605-4.587.605-1.41 0-2.79-.18-4.12-.54-1.32-.34-2.49-.87-3.517-1.61-1-.748-1.8-1.69-2.4-2.838-.6-1.15-.88-2.51-.86-4.09h5.45zm53.63-1.4h6.63l-3.223-9.394-3.41 9.394zm.54-15.703h5.77l9.568 25.594h-5.843l-1.934-5.69h-9.57l-2.008 5.7h-10.813V31.35l-6.342 18.13h-4.338l-6.272-17.957-.072 17.958H99.23V23.89h7.92l5.985 17.603 5.736-17.602h7.92v25.29l9.56-25.28zM155.37 40.99c0 .86.155 1.585.467 2.183.31.6.716 1.09 1.218 1.472.527.356 1.137.63 1.83.824.69.16 1.408.25 2.15.25.502 0 1.04-.04 1.612-.11.575-.1 1.11-.27 1.613-.5.5-.24.92-.57 1.255-.97.334-.43.5-.97.5-1.62 0-.69-.226-1.26-.68-1.69-.43-.43-1.003-.79-1.72-1.08-.717-.29-1.53-.54-2.437-.76-.91-.21-1.828-.45-2.76-.72-.955-.24-1.887-.53-2.795-.86-.908-.36-1.72-.82-2.44-1.37-.714-.55-1.3-1.23-1.754-2.05-.44-.84-.65-1.84-.65-3.01 0-1.31.27-2.45.82-3.41.57-.98 1.31-1.79 2.22-2.44.91-.65 1.93-1.12 3.08-1.44 1.15-.32 2.29-.47 3.44-.47 1.34 0 2.62.15 3.83.47 1.24.28 2.34.76 3.3 1.43.95.67 1.71 1.53 2.25 2.58.57 1.03.86 2.28.86 3.76h-5.45c-.05-.77-.22-1.4-.51-1.9-.26-.51-.62-.9-1.07-1.19-.46-.29-.98-.49-1.58-.61-.57-.12-1.21-.18-1.9-.18-.45 0-.91.05-1.36.14-.46.1-.88.27-1.26.51-.36.24-.66.54-.9.89-.24.36-.36.81-.36 1.36 0 .503.09.913.28 1.22.19.31.56.6 1.11.86.57.263 1.35.53 2.33.79l3.9 1.003c.48.1 1.13.276 1.97.54.86.24 1.71.636 2.54 1.19.83.55 1.55 1.29 2.15 2.22.62.91.93 2.08.93 3.514 0 1.17-.23 2.26-.68 3.26-.45 1.003-1.13 1.874-2.04 2.613-.89.72-2 1.28-3.33 1.69-1.32.404-2.85.605-4.59.605-1.41 0-2.79-.18-4.12-.54-1.32-.34-2.49-.87-3.52-1.61-1.01-.748-1.81-1.69-2.4-2.838-.6-1.15-.89-2.51-.86-4.09h5.44zm17.05-17.103h5.625v9.823h10.36v-9.823h5.625V49.48h-5.626V38.44h-10.36v11.04h-5.624V23.888zm24.18 0h5.627V49.48H196.6V23.888zm8.197 0h5.593l10.678 17.174.07-17.17h5.272v25.59h-5.627l-10.646-17.13-.07 17.14h-5.27v-25.6z"/></defs><linearGradient id="SVGID_2_" x1="93.205" x2="213.999" y1="72.132" y2="2.391" gradientUnits="userSpaceOnUse"><stop offset="0" stop-color="#E43A2C"/><stop offset=".5" stop-color="#ED8037"/><stop offset=".606" stop-color="#EC7A36"/><stop offset=".745" stop-color="#EA6A34"/><stop offset=".901" stop-color="#E74F2F"/><stop offset="1" stop-color="#E43A2C"/></linearGradient><use fill="url(#SVGID_2_)" xlink:href="#SVGID_1_" overflow="visible"/><clipPath id="SVGID_3_"><use xlink:href="#SVGID_1_" overflow="visible"/></clipPath><g class="st2"><g class="st1"><defs><path id="SVGID_4_" d="M230.16 29.884l7.608 13.73L114.29 112.06l-7.606-13.728L230.16 29.884z"/></defs><linearGradient id="SVGID_5_" x1="110.984" x2="233.469" y1="106.331" y2="35.614" gradientUnits="userSpaceOnUse"><stop offset="0" stop-color="#E43A2C"/><stop offset=".5" stop-color="#ED8037"/><stop offset=".606" stop-color="#EC7A36"/><stop offset=".745" stop-color="#EA6A34"/><stop offset=".901" stop-color="#E74F2F"/><stop offset="1" stop-color="#E43A2C"/></linearGradient><use fill="url(#SVGID_5_)" xlink:href="#SVGID_4_" overflow="visible"/><clipPath id="SVGID_6_"><use xlink:href="#SVGID_4_" overflow="visible"/></clipPath><g class="st3"><linearGradient id="SVGID_7_" x1="109.118" x2="231.482" y1="102.886" y2="32.24" gradientUnits="userSpaceOnUse"><stop offset="0" stop-color="#E43A2C"/><stop offset=".5" stop-color="#ED8037"/><stop offset=".606" stop-color="#EC7A36"/><stop offset=".745" stop-color="#EA6A34"/><stop offset=".901" stop-color="#E74F2F"/><stop offset="1" stop-color="#E43A2C"/></linearGradient><path d="M230.135 29.908l3.804 6.863-123.48 68.45-3.8-6.86 123.47-68.45z" class="st4"/><linearGradient id="SVGID_8_" x1="112.923" x2="235.286" y1="109.749" y2="39.103" gradientUnits="userSpaceOnUse"><stop offset="0" stop-color="#E43A2C"/><stop offset=".5" stop-color="#ED8037"/><stop offset=".606" stop-color="#EC7A36"/><stop offset=".745" stop-color="#EA6A34"/><stop offset=".901" stop-color="#E74F2F"/><stop offset="1" stop-color="#E43A2C"/></linearGradient><path d="M233.94 36.77l3.803 6.865L114.27 112.08l-3.806-6.863L233.94 36.77z" class="st5"/></g></g><g class="st1"><defs><path id="SVGID_9_" d="M192.813-37.498l37.706 68.035-123.48 68.448-37.7-68.032 123.47-68.45z"/></defs><linearGradient id="SVGID_10_" x1="88.217" x2="211.642" y1="66.375" y2="-4.885" gradientUnits="userSpaceOnUse"><stop offset="0" stop-color="#E43A2C"/><stop offset=".5" stop-color="#ED8037"/><stop offset=".606" stop-color="#EC7A36"/><stop offset=".745" stop-color="#EA6A34"/><stop offset=".901" stop-color="#E74F2F"/><stop offset="1" stop-color="#E43A2C"/></linearGradient><use fill="url(#SVGID_10_)" xlink:href="#SVGID_9_" overflow="visible"/><clipPath id="SVGID_11_"><use xlink:href="#SVGID_9_" overflow="visible"/></clipPath><g class="st6"><linearGradient id="SVGID_12_" x1="72.211" x2="194.605" y1="36.334" y2="-34.331" gradientUnits="userSpaceOnUse"><stop offset="0" stop-color="#E43A2C"/><stop offset=".5" stop-color="#ED8037"/><stop offset=".606" stop-color="#EC7A36"/><stop offset=".745" stop-color="#EA6A34"/><stop offset=".901" stop-color="#E74F2F"/><stop offset="1" stop-color="#E43A2C"/></linearGradient><path d="M192.79-37.475l4.71 8.504L74.028 39.48l-4.712-8.506 123.474-68.45z" class="st7"/><linearGradient id="SVGID_13_" x1="76.925" x2="199.317" y1="44.839" y2="-25.824" gradientUnits="userSpaceOnUse"><stop offset="0" stop-color="#E43A2C"/><stop offset=".5" stop-color="#ED8037"/><stop offset=".606" stop-color="#EC7A36"/><stop offset=".745" stop-color="#EA6A34"/><stop offset=".901" stop-color="#E74F2F"/><stop offset="1" stop-color="#E43A2C"/></linearGradient><path d="M197.5-28.97l4.716 8.502L78.742 47.986l-4.714-8.505L197.5-28.97z" class="st8"/><linearGradient id="SVGID_14_" x1="81.64" x2="204.033" y1="53.342" y2="-17.321" gradientUnits="userSpaceOnUse"><stop offset="0" stop-color="#E43A2C"/><stop offset=".5" stop-color="#ED8037"/><stop offset=".606" stop-color="#EC7A36"/><stop offset=".745" stop-color="#EA6A34"/><stop offset=".901" stop-color="#E74F2F"/><stop offset="1" stop-color="#E43A2C"/></linearGradient><path d="M202.216-20.468l4.713 8.504L83.45 56.488l-4.714-8.502L202.21-20.468z" class="st9"/><linearGradient id="SVGID_15_" x1="86.353" x2="208.745" y1="61.846" y2="-8.818" gradientUnits="userSpaceOnUse"><stop offset="0" stop-color="#E43A2C"/><stop offset=".5" stop-color="#ED8037"/><stop offset=".606" stop-color="#EC7A36"/><stop offset=".745" stop-color="#EA6A34"/><stop offset=".901" stop-color="#E74F2F"/><stop offset="1" stop-color="#E43A2C"/></linearGradient><path d="M206.93-11.964l4.712 8.505L88.17 64.99l-4.714-8.502L206.93-11.964z" class="st10"/><linearGradient id="SVGID_16_" x1="91.067" x2="213.458" y1="70.349" y2="-.314" gradientUnits="userSpaceOnUse"><stop offset="0" stop-color="#E43A2C"/><stop offset=".5" stop-color="#ED8037"/><stop offset=".606" stop-color="#EC7A36"/><stop offset=".745" stop-color="#EA6A34"/><stop offset=".901" stop-color="#E74F2F"/><stop offset="1" stop-color="#E43A2C"/></linearGradient><path d="M211.642-3.46l4.715 8.503L92.884 73.496 88.17 64.99 211.64-3.46z" class="st11"/><linearGradient id="SVGID_17_" x1="95.779" x2="218.174" y1="78.854" y2="8.19" gradientUnits="userSpaceOnUse"><stop offset="0" stop-color="#E43A2C"/><stop offset=".5" stop-color="#ED8037"/><stop offset=".606" stop-color="#EC7A36"/><stop offset=".745" stop-color="#EA6A34"/><stop offset=".901" stop-color="#E74F2F"/><stop offset="1" stop-color="#E43A2C"/></linearGradient><path d="M216.357 5.043l4.71 8.505L97.597 82l-4.712-8.504L216.357 5.043z" class="st12"/><linearGradient id="SVGID_18_" x1="100.494" x2="222.885" y1="87.358" y2="16.695" gradientUnits="userSpaceOnUse"><stop offset="0" stop-color="#E43A2C"/><stop offset=".5" stop-color="#ED8037"/><stop offset=".606" stop-color="#EC7A36"/><stop offset=".745" stop-color="#EA6A34"/><stop offset=".901" stop-color="#E74F2F"/><stop offset="1" stop-color="#E43A2C"/></linearGradient><path d="M221.068 13.548l4.715 8.504-123.473 68.45-4.714-8.5 123.472-68.454z" class="st13"/><linearGradient id="SVGID_19_" x1="105.207" x2="227.6" y1="95.862" y2="25.198" gradientUnits="userSpaceOnUse"><stop offset="0" stop-color="#E43A2C"/><stop offset=".5" stop-color="#ED8037"/><stop offset=".606" stop-color="#EC7A36"/><stop offset=".745" stop-color="#EA6A34"/><stop offset=".901" stop-color="#E74F2F"/><stop offset="1" stop-color="#E43A2C"/></linearGradient><path d="M225.783 22.052l4.713 8.506-123.473 68.45-4.713-8.506 123.473-68.45z" class="st14"/></g></g></g></g><linearGradient id="SVGID_20_" x1="76.499" x2="98.231" y1="43.196" y2="30.65" gradientUnits="userSpaceOnUse"><stop offset="0" stop-color="#E43A2C"/><stop offset=".5" stop-color="#ED8037"/><stop offset=".606" stop-color="#EC7A36"/><stop offset=".745" stop-color="#EA6A34"/><stop offset=".901" stop-color="#E74F2F"/><stop offset="1" stop-color="#E43A2C"/></linearGradient><path d="M82.182 40.99c0 .86.155 1.585.467 2.183.3.6.71 1.09 1.21 1.472.52.356 1.13.63 1.83.824.69.16 1.41.25 2.15.25.5 0 1.04-.04 1.61-.11.57-.1 1.11-.27 1.61-.5.5-.24.92-.57 1.25-.97.33-.43.5-.97.5-1.62 0-.69-.23-1.26-.68-1.69-.43-.43-1.01-.79-1.72-1.08-.72-.29-1.53-.54-2.44-.76-.91-.21-1.83-.45-2.76-.72-.96-.24-1.89-.53-2.8-.86-.91-.36-1.72-.82-2.44-1.37-.72-.55-1.31-1.23-1.76-2.05-.44-.84-.65-1.84-.65-3.01 0-1.31.27-2.45.82-3.41.57-.98 1.31-1.79 2.22-2.44.91-.65 1.94-1.12 3.08-1.44 1.15-.32 2.29-.47 3.44-.47 1.34 0 2.62.15 3.83.47 1.24.28 2.34.76 3.3 1.43.96.67 1.71 1.53 2.26 2.58.57 1.03.86 2.28.86 3.76h-5.44c-.05-.77-.22-1.4-.5-1.9-.26-.51-.62-.9-1.08-1.19-.46-.29-.98-.49-1.58-.61-.58-.12-1.21-.18-1.9-.18-.46 0-.91.05-1.36.14-.46.1-.88.27-1.26.51-.36.24-.66.54-.9.89-.24.36-.36.81-.36 1.36 0 .503.09.913.29 1.22.19.31.56.6 1.11.86.57.263 1.35.53 2.33.79l3.9 1.003c.48.1 1.13.276 1.97.54.86.24 1.703.636 2.54 1.19.83.55 1.55 1.29 2.15 2.22.62.91.93 2.08.93 3.514 0 1.17-.23 2.26-.68 3.26-.454 1.003-1.136 1.874-2.04 2.613-.887.72-1.997 1.28-3.336 1.69-1.315.404-2.84.605-4.587.605-1.41 0-2.79-.18-4.12-.54-1.32-.34-2.49-.87-3.517-1.61-1-.748-1.8-1.69-2.4-2.838-.6-1.15-.88-2.51-.86-4.09h5.45z" class="st15"/><linearGradient id="SVGID_21_" x1="135.033" x2="141.655" y1="38.24" y2="34.416" gradientUnits="userSpaceOnUse"><stop offset="0" stop-color="#E43A2C"/><stop offset=".5" stop-color="#ED8037"/><stop offset=".606" stop-color="#EC7A36"/><stop offset=".745" stop-color="#EA6A34"/><stop offset=".901" stop-color="#E74F2F"/><stop offset="1" stop-color="#E43A2C"/></linearGradient><path d="M135.812 39.59h6.63l-3.224-9.394z" class="st16"/><linearGradient id="SVGID_22_" x1="100.246" x2="143.497" y1="51.241" y2="26.27" gradientUnits="userSpaceOnUse"><stop offset="0" stop-color="#E43A2C"/><stop offset=".5" stop-color="#ED8037"/><stop offset=".606" stop-color="#EC7A36"/><stop offset=".745" stop-color="#EA6A34"/><stop offset=".901" stop-color="#E74F2F"/><stop offset="1" stop-color="#E43A2C"/></linearGradient><path d="M136.35 23.887h5.77l9.57 25.594h-5.843l-1.934-5.69h-9.57l-2.008 5.7h-10.813V31.35l-6.342 18.13h-4.338l-6.272-17.957-.072 17.958h-5.27V23.89h7.92l5.987 17.603 5.736-17.602h7.92v25.28z" class="st17"/><linearGradient id="SVGID_23_" x1="149.689" x2="171.421" y1="43.196" y2="30.649" gradientUnits="userSpaceOnUse"><stop offset="0" stop-color="#E43A2C"/><stop offset=".5" stop-color="#ED8037"/><stop offset=".606" stop-color="#EC7A36"/><stop offset=".745" stop-color="#EA6A34"/><stop offset=".901" stop-color="#E74F2F"/><stop offset="1" stop-color="#E43A2C"/></linearGradient><path d="M155.37 40.99c0 .86.155 1.585.467 2.183.31.6.716 1.09 1.218 1.472.527.356 1.137.63 1.83.824.69.16 1.408.25 2.15.25.502 0 1.04-.04 1.612-.11.575-.1 1.11-.27 1.613-.5.5-.24.92-.57 1.255-.97.334-.43.5-.97.5-1.62 0-.69-.226-1.26-.68-1.69-.43-.43-1.003-.79-1.72-1.08-.717-.29-1.53-.54-2.437-.76-.91-.21-1.828-.45-2.76-.72-.955-.24-1.887-.53-2.795-.86-.908-.36-1.72-.82-2.44-1.37-.714-.55-1.3-1.23-1.754-2.05-.44-.84-.65-1.84-.65-3.01 0-1.31.27-2.45.82-3.41.57-.98 1.31-1.79 2.22-2.44.91-.65 1.93-1.12 3.08-1.44 1.15-.32 2.29-.47 3.44-.47 1.34 0 2.62.15 3.83.47 1.24.28 2.34.76 3.3 1.43.95.67 1.71 1.53 2.25 2.58.57 1.03.86 2.28.86 3.76h-5.45c-.05-.77-.22-1.4-.51-1.9-.26-.51-.62-.9-1.07-1.19-.46-.29-.98-.49-1.58-.61-.57-.12-1.21-.18-1.9-.18-.45 0-.91.05-1.36.14-.46.1-.88.27-1.26.51-.36.24-.66.54-.9.89-.24.36-.36.81-.36 1.36 0 .503.09.913.28 1.22.19.31.56.6 1.11.86.57.263 1.35.53 2.33.79l3.9 1.003c.48.1 1.13.276 1.97.54.86.24 1.71.636 2.54 1.19.83.55 1.55 1.29 2.15 2.22.62.91.93 2.08.93 3.514 0 1.17-.23 2.26-.68 3.26-.45 1.003-1.13 1.874-2.04 2.613-.89.72-2 1.28-3.33 1.69-1.32.404-2.85.605-4.59.605-1.41 0-2.79-.18-4.12-.54-1.32-.34-2.49-.87-3.52-1.61-1.01-.748-1.81-1.69-2.4-2.838-.6-1.15-.89-2.51-.86-4.09h5.44z" class="st18"/><linearGradient id="SVGID_24_" x1="169.58" x2="196.87" y1="44.562" y2="28.806" gradientUnits="userSpaceOnUse"><stop offset="0" stop-color="#E43A2C"/><stop offset=".5" stop-color="#ED8037"/><stop offset=".606" stop-color="#EC7A36"/><stop offset=".745" stop-color="#EA6A34"/><stop offset=".901" stop-color="#E74F2F"/><stop offset="1" stop-color="#E43A2C"/></linearGradient><path d="M172.42 23.887h5.625v9.822h10.36v-9.83h5.625v25.6h-5.626V38.44h-10.36v11.04h-5.624z" class="st19"/><linearGradient id="SVGID_25_" x1="191.762" x2="207.065" y1="41.101" y2="32.266" gradientUnits="userSpaceOnUse"><stop offset="0" stop-color="#E43A2C"/><stop offset=".5" stop-color="#ED8037"/><stop offset=".606" stop-color="#EC7A36"/><stop offset=".745" stop-color="#EA6A34"/><stop offset=".901" stop-color="#E74F2F"/><stop offset="1" stop-color="#E43A2C"/></linearGradient><path d="M196.6 23.887h5.627V49.48H196.6z" class="st20"/><linearGradient id="SVGID_26_" x1="201.958" x2="229.249" y1="44.562" y2="28.805" gradientUnits="userSpaceOnUse"><stop offset="0" stop-color="#E43A2C"/><stop offset=".5" stop-color="#ED8037"/><stop offset=".606" stop-color="#EC7A36"/><stop offset=".745" stop-color="#EA6A34"/><stop offset=".901" stop-color="#E74F2F"/><stop offset="1" stop-color="#E43A2C"/></linearGradient><path d="M204.797 23.887h5.593l10.678 17.174.07-17.17h5.27v25.59h-5.626l-10.646-17.13-.07 17.14h-5.27z" class="st21"/></g></g><g id="Backup_Verlauf_G" class="st0"><g class="st1"><defs><path id="SVGID_27_" d="M244.58 60.736l-22.194-24.653 20.047-18.054 22.195 24.65-20.048 18.05z"/></defs><defs><path id="SVGID_28_" d="M228.32 37.084c0-7.244 5.873-13.12 13.112-13.12 5.03 0 9.396 2.833 11.6 6.99l-4.82 1.566c-1.47-2.175-3.958-3.606-6.78-3.606-4.51 0-8.164 3.655-8.164 8.17 0 4.51 3.655 8.168 8.165 8.168 2.508 0 4.75-1.127 6.246-2.906l-2.87.472-3.48-3.482 7.49-1.226 7.5-1.227-1.23 7.496-1.23 7.49-3.49-3.48.34-2.06c-2.38 2.38-5.67 3.86-9.3 3.86-7.24 0-13.12-5.88-13.12-13.12z"/></defs><linearGradient id="SVGID_29_" x1="229.095" x2="257.916" y1="47.703" y2="31.063" gradientUnits="userSpaceOnUse"><stop offset="0" stop-color="#E43A2C"/><stop offset=".5" stop-color="#ED8037"/><stop offset=".606" stop-color="#EC7A36"/><stop offset=".745" stop-color="#EA6A34"/><stop offset=".901" stop-color="#E74F2F"/><stop offset="1" stop-color="#E43A2C"/></linearGradient><use fill="url(#SVGID_29_)" xlink:href="#SVGID_27_" overflow="visible"/><linearGradient id="SVGID_30_" x1="231.55" x2="254.27" y1="46.199" y2="33.082" gradientUnits="userSpaceOnUse"><stop offset="0" stop-color="#E43A2C"/><stop offset=".5" stop-color="#ED8037"/><stop offset=".606" stop-color="#EC7A36"/><stop offset=".745" stop-color="#EA6A34"/><stop offset=".901" stop-color="#E74F2F"/><stop offset="1" stop-color="#E43A2C"/></linearGradient><use fill="url(#SVGID_30_)" xlink:href="#SVGID_28_" overflow="visible"/><clipPath id="SVGID_31_"><use xlink:href="#SVGID_27_" overflow="visible"/></clipPath><clipPath id="SVGID_32_" class="st22"><use xlink:href="#SVGID_28_" overflow="visible"/></clipPath><g class="st23"><linearGradient id="SVGID_33_" x1="241.176" x2="264.88" y1="56.787" y2="43.102" gradientUnits="userSpaceOnUse"><stop offset="0" stop-color="#E43A2C"/><stop offset=".5" stop-color="#ED8037"/><stop offset=".606" stop-color="#EC7A36"/><stop offset=".745" stop-color="#EA6A34"/><stop offset=".901" stop-color="#E74F2F"/><stop offset="1" stop-color="#E43A2C"/></linearGradient><path d="M244.59 60.73l-3.17-3.522 20.046-18.05 3.17 3.524-20.046 18.05z" class="st24"/><linearGradient id="SVGID_34_" x1="238.004" x2="261.709" y1="53.265" y2="39.579" gradientUnits="userSpaceOnUse"><stop offset="0" stop-color="#E43A2C"/><stop offset=".5" stop-color="#ED8037"/><stop offset=".606" stop-color="#EC7A36"/><stop offset=".745" stop-color="#EA6A34"/><stop offset=".901" stop-color="#E74F2F"/><stop offset="1" stop-color="#E43A2C"/></linearGradient><path d="M241.42 57.208l-3.172-3.52 20.047-18.053 3.17 3.523-20.046 18.05z" class="st25"/><linearGradient id="SVGID_35_" x1="234.834" x2="258.538" y1="49.742" y2="36.057" gradientUnits="userSpaceOnUse"><stop offset="0" stop-color="#E43A2C"/><stop offset=".5" stop-color="#ED8037"/><stop offset=".606" stop-color="#EC7A36"/><stop offset=".745" stop-color="#EA6A34"/><stop offset=".901" stop-color="#E74F2F"/><stop offset="1" stop-color="#E43A2C"/></linearGradient><path d="M238.248 53.688l-3.17-3.524 20.044-18.05 3.173 3.52-20.047 18.054z" class="st26"/><linearGradient id="SVGID_36_" x1="231.662" x2="255.365" y1="46.219" y2="32.534" gradientUnits="userSpaceOnUse"><stop offset="0" stop-color="#E43A2C"/><stop offset=".5" stop-color="#ED8037"/><stop offset=".606" stop-color="#EC7A36"/><stop offset=".745" stop-color="#EA6A34"/><stop offset=".901" stop-color="#E74F2F"/><stop offset="1" stop-color="#E43A2C"/></linearGradient><path d="M235.077 50.164l-3.17-3.522L251.95 28.59l3.172 3.523-20.045 18.05z" class="st27"/><linearGradient id="SVGID_37_" x1="228.491" x2="252.196" y1="42.699" y2="29.013" gradientUnits="userSpaceOnUse"><stop offset="0" stop-color="#E43A2C"/><stop offset=".5" stop-color="#ED8037"/><stop offset=".606" stop-color="#EC7A36"/><stop offset=".745" stop-color="#EA6A34"/><stop offset=".901" stop-color="#E74F2F"/><stop offset="1" stop-color="#E43A2C"/></linearGradient><path d="M231.906 46.642l-3.17-3.52 20.046-18.054 3.17 3.52-20.046 18.054z" class="st28"/><linearGradient id="SVGID_38_" x1="225.32" x2="249.026" y1="39.176" y2="25.49" gradientUnits="userSpaceOnUse"><stop offset="0" stop-color="#E43A2C"/><stop offset=".5" stop-color="#ED8037"/><stop offset=".606" stop-color="#EC7A36"/><stop offset=".745" stop-color="#EA6A34"/><stop offset=".901" stop-color="#E74F2F"/><stop offset="1" stop-color="#E43A2C"/></linearGradient><path d="M228.735 43.122l-3.17-3.52 20.046-18.058 3.18 3.524-20.04 18.054z" class="st29"/><linearGradient id="SVGID_39_" x1="222.151" x2="245.856" y1="35.655" y2="21.969" gradientUnits="userSpaceOnUse"><stop offset="0" stop-color="#E43A2C"/><stop offset=".5" stop-color="#ED8037"/><stop offset=".606" stop-color="#EC7A36"/><stop offset=".745" stop-color="#EA6A34"/><stop offset=".901" stop-color="#E74F2F"/><stop offset="1" stop-color="#E43A2C"/></linearGradient><path d="M225.566 39.602l-3.17-3.525 20.044-18.055 3.17 3.522-20.044 18.058z" class="st30"/></g></g></g><linearGradient id="SMASHING_2_" x1="97.155" x2="234.863" y1="78.973" y2="-.533" gradientUnits="userSpaceOnUse"><stop offset="0" stop-color="#E43A2C"/><stop offset=".5" stop-color="#ED8037"/><stop offset=".606" stop-color="#EC7A36"/><stop offset=".745" stop-color="#EA6A34"/><stop offset=".901" stop-color="#E74F2F"/><stop offset="1" stop-color="#E43A2C"/></linearGradient><path id="SMASHING_1_" d="M228.32 37.084c0-7.244 5.873-13.12 13.112-13.12 5.03 0 9.396 2.833 11.6 6.99l-4.82 1.566c-1.47-2.175-3.958-3.606-6.78-3.606-4.51 0-8.164 3.655-8.164 8.17 0 4.51 3.655 8.168 8.165 8.168 2.508 0 4.75-1.127 6.246-2.906l-2.87.472-3.48-3.482 7.49-1.226 7.5-1.227-1.23 7.496-1.23 7.49-3.49-3.48.34-2.06c-2.38 2.38-5.67 3.86-9.3 3.86-7.24 0-13.12-5.88-13.12-13.12zM76.732 40.99c-.024 1.578.262 2.937.86 4.084.597 1.148 1.4 2.09 2.403 2.833 1.028.74 2.197 1.275 3.51 1.61 1.34.36 2.713.54 4.123.54 1.743 0 3.272-.202 4.585-.607 1.34-.41 2.45-.97 3.334-1.688.906-.74 1.587-1.61 2.04-2.615.454-1.002.68-2.093.684-3.26 0-1.436-.31-2.604-.93-3.517-.59-.93-1.31-1.67-2.15-2.218-.83-.552-1.68-.946-2.54-1.186-.83-.265-1.49-.443-1.97-.538l-3.91-1.003c-.98-.263-1.75-.528-2.33-.79-.55-.263-.92-.55-1.11-.86-.19-.307-.28-.717-.28-1.22 0-.548.12-1.003.36-1.362.24-.356.54-.655.9-.896.39-.238.8-.408 1.26-.503.45-.095.91-.144 1.36-.144.7 0 1.33.062 1.9.183.6.117 1.13.32 1.58.608.46.29.82.68 1.08 1.19.29.5.46 1.14.51 1.9h5.45c0-1.48-.28-2.73-.86-3.76-.55-1.05-1.3-1.91-2.26-2.58-.95-.67-2.05-1.15-3.29-1.43-1.21-.31-2.49-.46-3.83-.46-1.15 0-2.29.16-3.44.47-1.15.31-2.17.79-3.08 1.44-.91.65-1.65 1.46-2.22 2.44-.55.96-.82 2.09-.82 3.41 0 1.18.21 2.18.65 3.01.45.82 1.04 1.5 1.76 2.05.72.55 1.53 1.01 2.44 1.36.908.34 1.84.62 2.79.86.93.27 1.858.51 2.76.72.91.22 1.72.47 2.44.76.72.29 1.29.65 1.72 1.08.457.43.68 1 .68 1.69 0 .65-.164 1.19-.5 1.62-.333.41-.752.73-1.252.97-.505.24-1.04.41-1.615.5-.575.07-1.11.11-1.61.11-.74 0-1.46-.09-2.15-.25-.7-.2-1.31-.47-1.83-.83-.51-.38-.91-.87-1.22-1.47-.31-.6-.47-1.32-.47-2.18h-5.45zm62.485-10.794l3.223 9.394h-6.63l3.408-9.394zM126.79 49.17V23.888h-7.92l-5.735 17.603-5.985-17.6h-7.92v25.59h5.268l.072-17.95 6.272 17.96h4.338l6.342-18.13v18.13h10.813l2.008-5.69h9.57l1.934 5.7h5.843l-9.57-25.59h-5.77l-9.56 25.29zm23.133-8.18c-.023 1.578.264 2.937.86 4.084.6 1.148 1.398 2.09 2.4 2.833 1.03.74 2.2 1.275 3.515 1.61 1.338.36 2.712.54 4.12.54 1.745 0 3.276-.202 4.59-.607 1.338-.41 2.448-.97 3.332-1.688.91-.74 1.59-1.61 2.044-2.615.453-1.002.68-2.093.68-3.26 0-1.436-.31-2.604-.93-3.517-.598-.93-1.315-1.67-2.152-2.218-.836-.552-1.685-.946-2.545-1.186-.836-.265-1.492-.443-1.97-.538l-3.907-1.003c-.98-.263-1.756-.528-2.33-.79-.55-.263-.92-.55-1.11-.86-.192-.307-.287-.717-.287-1.22 0-.548.12-1.003.36-1.362.238-.356.536-.655.895-.896.383-.238.8-.408 1.254-.503.453-.095.908-.144 1.362-.144.694 0 1.327.062 1.9.183.597.117 1.123.32 1.578.608.452.29.812.68 1.074 1.19.287.5.455 1.14.504 1.9h5.448c0-1.48-.29-2.73-.86-3.76-.55-1.05-1.302-1.91-2.258-2.58-.957-.67-2.055-1.15-3.3-1.43-1.217-.31-2.496-.46-3.834-.46-1.147 0-2.292.16-3.44.47-1.148.31-2.176.79-3.083 1.44-.908.65-1.65 1.46-2.222 2.44-.55.96-.82 2.09-.82 3.41 0 1.18.22 2.18.65 3.01.46.82 1.04 1.5 1.76 2.05.72.55 1.53 1.01 2.44 1.36.91.34 1.84.62 2.8.86.93.27 1.85.51 2.76.72.91.22 1.72.47 2.44.76.72.29 1.29.65 1.72 1.08.45.43.68 1 .68 1.69 0 .65-.17 1.19-.5 1.62-.33.41-.75.73-1.25.97s-1.04.41-1.61.5c-.57.07-1.11.11-1.61.11-.74 0-1.46-.09-2.15-.25-.69-.2-1.3-.47-1.83-.83-.5-.38-.91-.87-1.22-1.47-.31-.6-.46-1.32-.46-2.18h-5.45zm22.497 8.49h5.625V38.44h10.36v11.04h5.625V23.888h-5.626v9.823h-10.36v-9.82h-5.624v25.59zm24.18 0h5.627V23.888H196.6V49.48zm8.197 0h5.268l.07-17.132 10.647 17.133h5.627V23.89h-5.28l-.07 17.174-10.67-17.174h-5.6v25.59z" class="st31"/></g><g id="S"><g id="Kasten"><path d="M67.01 61.073L57 17.8c-.824-3.51-4.317-5.7-7.833-4.89l-7.286 1.68c.84.13 1.67.287 2.49.47l4.08-.94c3.51-.81 7.01 1.38 7.83 4.89l3.69 15.985c-1.49 3.032-4.49 8.132-9.01 11.21 1.08.877 2.01 1.8 2.78 2.77 2.4 3.062 3.6 6.766 3.61 11.11 0 4.23-1.16 7.803-3.46 10.723l8.25-1.905c3.53-.81 5.72-4.318 4.9-7.83zM13.82 73.515l5.176-11.568c4.345 3.45 9.253 5.172 14.717 5.172 5.67 0 8.485-2.02 8.497-6.05 0-2.37-.858-4.31-2.557-5.82-1.708-1.52-5.024-3.3-9.958-5.36-2.933-1.22-5.452-2.58-7.585-4.06-5.89 1.63-10.93 5.66-14.196 9.56L2.382 31.45c-.804-3.51 1.375-7.02 4.9-7.824l9.494-2.193c.372-.465.78-.912 1.218-1.335l-12.09 2.788c-3.522.814-5.708 4.317-4.9 7.83l10.01 43.274c.812 3.508 4.313 5.703 7.83 4.896l4.96-1.146c-.128-.032-.263-.06-.387-.094-2.48-.66-5.675-2.03-9.597-4.13z" class="st32"/><path d="M13.598 31.18c0-3.87 1.06-7.116 3.178-9.747L7.28 23.626c-4.44 1.012-5.75 4.1-4.898 7.824l5.533 23.956c3.266-3.9 8.305-7.926 14.196-9.56C16.45 41.9 13.6 37.02 13.6 31.18zm35.992-1.45c-3.172-2.715-7.602-4.075-13.262-4.075-5.076 0-7.62 2.018-7.62 6.05 0 1.59.845 3.02 2.506 4.304 1.667 1.27 5.228 3 10.69 5.17 3.734 1.46 6.734 3.13 9.04 5.02 4.523-3.08 7.53-8.18 9.016-11.21L56.27 19c-.763-3.293-3.398-5.91-7.824-4.89l-4.073.94c3.242.724 6.38 1.844 9.41 3.384L49.59 29.73z" class="st33"/></g><g id="Blendeneffekt"><defs><path id="SVGID_40_" d="M1.7 31.08c-.8-3.45 1.35-6.888 4.794-7.68l42.464-9.8c3.447-.796 6.886 1.355 7.682 4.8l9.818 42.473c.793 3.446-1.354 6.885-4.8 7.678l-42.464 9.8c-3.446.8-6.885-1.35-7.68-4.8L1.7 31.08z"/></defs><clipPath id="SVGID_41_"><use xlink:href="#SVGID_40_" overflow="visible"/></clipPath><radialGradient id="SVGID_42_" cx="22.3" cy="119.199" r="34.25" gradientTransform="translate(3.972 -106.27) scale(1.1702)" gradientUnits="userSpaceOnUse"><stop offset="0" stop-color="#FFF"/><stop offset=".106" stop-color="#FEFAF9" stop-opacity=".894"/><stop offset=".245" stop-color="#FDECE9" stop-opacity=".755"/><stop offset=".402" stop-color="#F9D5CE" stop-opacity=".598"/><stop offset=".572" stop-color="#F5B6A8" stop-opacity=".428"/><stop offset=".754" stop-color="#F08D77" stop-opacity=".246"/><stop offset=".941" stop-color="#E95C3D" stop-opacity=".059"/><stop offset="1" stop-color="#E74B29" stop-opacity="0"/></radialGradient><path d="M70.147 33.218c0 22.136-17.944 40.08-40.08 40.08-22.135 0-40.078-17.944-40.078-40.08 0-22.14 17.94-40.08 40.07-40.08s40.08 17.94 40.08 40.08z" class="st34"/><radialGradient id="SVGID_43_" cx="22.3" cy="119.199" r="34.25" gradientTransform="translate(3.972 -106.27) scale(1.1702)" gradientUnits="userSpaceOnUse"><stop offset="0" stop-color="#F9BC3A"/><stop offset=".158" stop-color="#F8B639" stop-opacity=".843"/><stop offset=".364" stop-color="#F5A637" stop-opacity=".636"/><stop offset=".597" stop-color="#F18B33" stop-opacity=".403"/><stop offset=".848" stop-color="#EB652D" stop-opacity=".152"/><stop offset="1" stop-color="#E74B29" stop-opacity="0"/></radialGradient><path d="M70.147 33.218c0 22.136-17.944 40.08-40.08 40.08-22.135 0-40.078-17.944-40.078-40.08 0-22.14 17.94-40.08 40.07-40.08s40.08 17.94 40.08 40.08z" class="st35"/></g><g id="ausgespartes_S"><path d="M16.776 21.433l27.597-6.374c-.823-.19-1.652-.34-2.49-.47l-23.89 5.5c-.437.42-.845.87-1.217 1.33zM53.72 48.976c-.765-.972-1.7-1.894-2.775-2.77-3.88 2.64-8.875 3.79-14.99.85-4.832-2.316-9.563-2.393-13.845-1.21 2.133 1.485 4.65 2.844 7.585 4.06 4.935 2.055 8.25 3.838 9.958 5.353 1.7 1.51 2.557 3.44 2.557 5.81-.013 4.03-2.828 6.04-8.497 6.04-5.464 0-10.372-1.73-14.717-5.18L13.82 73.51c3.922 2.1 7.118 3.47 9.597 4.134.124.033.258.062.387.094l30.055-6.934c2.3-2.92 3.46-6.493 3.46-10.724-.01-4.343-1.21-8.047-3.61-11.108z" class="st36"/><path d="M13.598 31.18c0 5.838 2.848 10.72 8.512 14.666 4.282-1.183 9.013-1.107 13.844 1.21 6.116 2.94 11.11 1.79 14.99-.85-2.306-1.89-5.307-3.566-9.04-5.026-5.46-2.165-9.022-3.892-10.69-5.17-1.66-1.285-2.507-2.714-2.507-4.305 0-4.03 2.545-6.05 7.62-6.05 5.66 0 10.09 1.36 13.262 4.077l4.19-11.288c-3.03-1.54-6.17-2.66-9.41-3.383l-27.6 6.38c-2.12 2.63-3.18 5.88-3.18 9.75z" class="st36"/></g></g><g><path d="M82.427 56.233l5.073 13.18 5.052-13.18h2.054v15.032H93.21v-12.99h-.04l-5.013 12.99h-1.314l-5.033-12.99h-.04v12.99h-1.397V56.233h2.054zm25.283 0l5.75 15.032h-1.5l-1.786-4.674H103.5l-1.766 4.68h-1.48l5.896-15.03h1.56zm1.992 9.137l-2.834-7.706-2.937 7.706h5.78zm20.95 5.895l-.185-2.737h-.04c-.248.533-.553.993-.915 1.38-.363.385-.764.7-1.202.947-.44.246-.907.424-1.407.537-.5.112-1.017.168-1.55.168-1.15 0-2.16-.214-3.03-.642-.87-.428-1.59-1-2.166-1.716-.576-.716-1.006-1.544-1.294-2.484-.288-.94-.432-1.93-.432-2.97 0-1.037.15-2.028.44-2.968s.72-1.772 1.3-2.495c.58-.723 1.3-1.3 2.17-1.727.87-.427 1.88-.642 3.03-.642.77 0 1.49.105 2.18.316.69.21 1.3.525 1.83.947.53.42.99.94 1.36 1.55.37.62.63 1.34.76 2.17h-1.4c-.04-.44-.18-.88-.42-1.32-.24-.45-.56-.85-.96-1.21-.41-.37-.89-.67-1.45-.9-.56-.23-1.19-.35-1.89-.35-.97 0-1.81.19-2.5.57-.7.38-1.27.88-1.71 1.5-.44.62-.77 1.33-.99 2.11-.21.78-.32 1.59-.32 2.42 0 .81.11 1.61.32 2.41.21.79.54 1.5.99 2.12.45.62 1.02 1.12 1.72 1.5.7.38 1.53.56 2.51.56.81 0 1.53-.14 2.17-.41.64-.28 1.17-.66 1.61-1.15.44-.49.77-1.08.99-1.75.22-.68.32-1.41.31-2.21h-4.99v-1.2h6.22v7.64h-1.01zm13.884-15.032l5.75 15.032h-1.5L147 66.59h-6.675l-1.766 4.675h-1.48l5.89-15.032h1.56zm1.992 9.137l-2.834-7.706-2.937 7.706h5.77zm19.265-9.137v1.262l-9.653 12.55H166v1.22h-11.42v-1.263l9.653-12.548h-8.997v-1.22h10.557zm7.785 0v15.032h-1.396V56.233h1.396zm8.932 0l8.545 12.716h.04V56.23h1.398v15.032h-1.56l-8.545-12.717h-.04v12.717h-1.397v-15.03h1.56zm27.38 0v1.22h-8.73v5.433h8.176v1.22h-8.175v5.94H210v1.22h-10.23V56.233h10.124z" class="st37"/></g></g></svg>