<svg enable-background="new 0 0 737.6 681" viewBox="0 0 737.6 681" width="737" height="681" xmlns="http://www.w3.org/2000/svg"><g fill="#d72b2b"><path d="m393.4 211.2-14.8-10.7 126.8-92.1-74.2 228.1h-18.3l59.4-182.6z"/><path d="m455.1 286.4 5.6-17.4 126.8 92.1h-239.9l-5.7-17.4h192.1z"/><path d="m402.6 368.3h18.3l-48.4 148.9-74.1-228.1 14.8-10.7 59.3 182.6z"/><path d="m308.5 343.7 5.7 17.4h-156.7l194.1-141 14.8 10.7-155.4 112.9z"/><path d="m302.8 246.6-14.8 10.8-48.4-149 194.1 141-5.7 17.4-155.3-112.9z"/></g><path d="m144.8 291.5c0-73.2 34.6-138.4 88.3-180l-6.6-21.1c-62.1 45.2-102.6 118.4-102.6 201.2 0 26.7 4.2 52.5 12 76.6l17.7-13.2c-5.7-20.3-8.8-41.5-8.8-63.5zm227.7-248.6c-54.6 0-105 17.6-146 47.4l18 12.8c36.5-24.8 80.5-39.3 128-39.3 47.4 0 91.5 14.5 127.9 39.3l18-12.7-6.6 21.1c53.8 41.7 88.4 106.8 88.4 180.1 0 22-3.1 43.3-9 63.4l17.7 13.2c7.8-24.1 12-49.9 12-76.6.2-137.4-111.1-248.7-248.4-248.7zm7.1 476.2-7.1 20.9c110.5 0 204.2-72.1 236.5-171.9l-22.1.3c-30.7 85.8-111.6 147.8-207.3 150.7zm-221.5-150.7-22.1-.3c32.3 99.8 126 171.9 236.5 171.9l-7.1-20.9c-95.7-3-176.5-64.9-207.3-150.7z"/><path d="m170.1 9h1.8c.2 0 .4.1.5.4.2.3.3.6.4.9.1.4.2.8.3 1.3v1.8c0 1.5-.5 2.8-1.6 3.9s-2.4 1.6-4.1 1.6c-.1-.1-.2-.2-.3-.3-.3-.2-.5-.3-.7-.3-.3 0-.6 0-.9.1s-.6.2-.7.4c-.3.3-.6.7-.9 1.5-.3.7-.6 1.4-.9 2.2s-.5 1.5-.8 2.2c-.2.7-.4 1.1-.4 1.4l-.3 1.7c-.3.7-.5 1.4-.8 2s-.5 1.2-.7 1.8-.4 1.3-.5 2-.2 1.5-.2 2.5c-.2.3-.4.9-.6 1.9-.2.9-.5 1.9-.7 3-.2 1-.4 2-.5 2.8-.1.9-.2 1.4-.2 1.5v1.3c0 .2 0 .6-.1 1.1s-.1 1-.2 1.5-.1 1-.2 1.5-.1.8-.1.9c-.1.5-.2.9-.2 1.3v1c0 .4.1.6.2.9 0 .1 0 .4-.1.7-.1.4-.1.7-.1 1.1s0 .7.1 1 .3.4.7.4c.6 0 1.2-.2 1.7-.6.6-.4 1.1-.8 1.6-1.4.5-.5.9-1 1.3-1.4s.6-.6.8-.6c.3 0 .5.1.8.4.2.3.4.6.4.9-.4.5-.8 1-1.1 1.5-.3.4-.6.9-.8 1.4s-.3.9-.3 1.4c-.2.5-.4 1-.8 1.4-.4.5-.7 1-1.2 1.5-.4.5-.9 1.1-1.3 1.6-.4.6-.8 1.1-1.1 1.7 0 .1-.1.3-.3.5s-.4.4-.7.6-.5.3-.8.5-.5.3-.6.3c-1 .7-1.9 1.3-2.6 1.6-.7.4-1.1.3-1.1-.2-.4.2-.7.2-.9-.2-.2-.3-.3-.8-.4-1.5s-.1-1.4 0-2.2c0-.8.1-1.6.1-2.3s0-1.3 0-1.8-.2-.7-.4-.7c-.4 0-.8.2-1.4.7s-1.1 1-1.7 1.7c-.4.4-.9.9-1.4 1.5-.5.7-1.1 1.3-1.6 1.9-.6.6-1.1 1.2-1.6 1.7s-.9.7-1.2.7c-.4 0-.9-.1-1.3-.4-.4-.2-.8-.5-1.2-.9-.3-.4-.6-.8-.8-1.2-.2-.5-.3-.9-.3-1.4v-1.1-3c0-.1 0-.5.1-1s.2-1.1.3-1.7c.1-.7.3-1.5.5-2.3 0-.2 0-.4.1-.7s.1-.6.2-.9.3-.6.4-1v-.5c.1-.4.2-.9.3-1.3s.2-.7.2-1.1.1-.6.1-.7c.3-.7.5-1.3.6-1.8.1-.6.4-1.2.8-1.8.1-1 .5-1.8 1-2.5s1.2-1.3 1.9-1.9 1.5-1.1 2.3-1.6 1.5-1.1 2.1-1.7c.3 0 .5 0 .7-.1.4-.1.8-.3 1.1-.7.8-.1 1.4-.2 1.9-.3s.8-.2 1.1-.4.5-.5.6-.8.2-.8.2-1.4l.5-1.8.6-4 .5-2.6c0-.1 0-.4.1-.9s.2-1 .3-1.5.3-1 .4-1.5.2-.7.3-.8c.1-.2.1-.4.1-.5s0-.3 0-.6c0-.2.1-.4.2-.8s.3-.7.5-1.2c.2-.4.4-.9.6-1.3s.4-.8.6-1.2c.4-.6.9-1.2 1.5-2 .5-.7 1.1-1.5 1.7-2.1.6-.7 1.2-1.2 1.8-1.7s1.3-.8 1.9-1h.5c.7 0 1.1-.1 1.2-.3.2-.2.4-.3.6-.3zm-19.3 33.8c-.9 0-1.7.3-2.6.9-.8.6-1.6 1.3-2.2 2.1s-1.2 1.7-1.6 2.6-.6 1.6-.6 2.3c0 .2-.1.6-.2 1.4s-.1 1.5-.1 2.3c.1.8.3 1.4.7 1.9s1.1.7 2.1.4c.8-.2 1.6-.8 2.4-1.6.8-.9 1.4-1.9 2-3.1.5-1.2 1-2.4 1.3-3.7s.4-2.5.4-3.6c0-.4-.1-.7-.2-.9s-.3-.4-.5-.6c-.2-.3-.5-.4-.9-.4z"/><path d="m172.5 35.1c.7 0 1.4.3 1.8.8.5.6.7 1.1.7 1.7l-.6 1.8c.3.3.4.6.5 1.1 0 .2.1.5.1.7 0 .9-.1 1.7-.3 2.4s-.3 1.6-.3 2.5v.5c0 .2 0 .5-.1.8 0 .3-.1.6-.2.8-.1.3-.2.6-.3 1v.7c0 .5-.1.9-.2 1.2-.2.3-.3.7-.5 1.2-.1.4-.2.7-.4 1.1s-.3.8-.3 1.3c0 .2 0 .4.1.7s.2.6.4.9.4.5.6.7.5.3.8.3c.4 0 .7-.1 1-.3s.5-.5.7-.7.5-.4.7-.6.5-.2.8-.2h1.3c.3 0 .4.1.5.4 0 .3.1.6.1.9 0 .1-.2.4-.6.8s-.8.8-1.3 1.3-1 .9-1.5 1.3-.8.7-1 .8c-.1.3-.4.8-.9 1.6-.4.7-.9 1.5-1.5 2.3-.5.8-1.1 1.5-1.7 2-.6.6-1.1.9-1.6.9-.3 0-.6-.1-1-.3s-.7-.5-1-.8-.6-.7-.8-1c-.2-.4-.3-.7-.3-1.1v-1.1c0-.4 0-.7-.1-.9 0-.3-.2-.4-.5-.4v-1.3l.5-1.8v-3.1c0-.7.1-1.2.3-1.6s.3-.9.3-1.5v-.6c0-.3.1-.7.3-1.3s.4-1.2.6-1.8c.2-.7.4-1.3.6-1.9s.3-1.2.3-1.7c0-.4-.1-.7-.4-1.2-.3-.4-.8-.6-1.4-.6-.3 0-.5.1-.7.3s-.8.3-1.7.3c-.1 0-.2-.2-.3-.3-.2-.3-.3-.6-.3-1v-1.1c0-.4.4-1 1.2-1.7.8-.8 1.6-1.5 2.6-2.3s1.9-1.5 2.9-2c1.3-.6 1.8-.9 2.1-.9zm.2-15.6c.2 0 .4 0 .7-.1s.6-.1.9-.2.6-.1.9-.2.5-.1.6-.1c.6.2 1 .6 1.2 1.1s.4 1.1.8 1.6c0 .4 0 .7.1 1.1s.1.7.1 1-.1.6-.3 1-.3.8-.3 1.4c-.1.3-.2.7-.4 1.1s-.4.8-.6 1.2-.5.7-.9.9c-.3.2-.7.3-1.2.2-.6 0-1.3-.2-2-.6s-1.3-1-1.6-1.6c-.3-.3-.4-.7-.3-1.2s.1-1 .1-1.4c0-1.2.2-2.2.6-2.9.6-.7 1-1.5 1.6-2.3z"/><path d="m190.5 43c.2.7.4 1.4.6 1.9s.4 1 .5 1.5c.2.5.3.9.4 1.5.1.5.2 1.1.2 1.8l.4 2.9c0 .7 0 1.2.1 1.5s.1.6.2.9c.1.2.2.6.3 1s.3.7.4.7c.2 0 .4-.2.7-.7.2-.4.4-.7.7-.8.3-.3.6-.6 1.1-.9.5-.4.7-.8.7-1.3 0-.6.2-1.1.7-1.7.5-.5.7-1 .7-1.3 0-.6 0-1.2-.1-1.6-.1-.5-.1-1.1-.1-2 0-.3-.1-.6-.3-.9-.2-.4-.4-.7-.7-1s-.5-.7-.7-1c-.2-.4-.3-.7-.3-.9 0-.6.1-1 .2-1.2s.3-.4.4-.6c.2-.2.4-.3.6-.6.2-.2.4-.6.6-1.3.2-.9.6-1.6 1.2-2.1s1.3-1.1 2.1-1.7c.7.3 1.1.6 1.2.9.2.3.4.6.6 1 .7.8 1.1 1.5 1.3 2.1s.3 1.3.3 2.1v2.6c0 .2 0 .4.1.5s.1.5.1 1.1c0 .8-.1 1.6-.3 2.3s-.6 1.5-1.1 2.4c0 .3 0 .4-.1.5s-.1.2-.2.2-.1.1-.2.2-.1.3-.1.5c-.3.3-.5.6-.7.9-.2.2-.3.5-.4.7-.1.3-.2.5-.2.7 0 .1-.1.3-.3.5s-.4.5-.6.8-.4.6-.6.9-.3.6-.3.9c-.5.6-.9 1.1-1.3 1.5s-.7.8-1.1 1.2-.7.8-1.1 1.2-.8.9-1.3 1.5c-.6.7-1.1 1.5-1.6 2.3-.4.8-.8 1.5-1.3 2.1-.4.6-.9 1.2-1.5 1.6s-1.3.6-2.2.6c-.3 0-.6 0-.8-.1s-.3-.4-.3-1l.5-3.1c-.3-.6-.4-1-.5-1.4 0-.4-.1-.7-.1-1 0-.9 0-1.7.1-2.4s.1-1.4.1-2 0-1.1-.1-1.5-.2-.9-.3-1.3-.2-.8-.3-1.1c-.1-.4-.1-.8-.1-1.3 0-.1-.1-.5-.3-1.2s-.5-1.4-.7-2.2-.5-1.6-.7-2.3-.3-1.2-.3-1.4c0-.6-.3-1-1-1.4-.7-.3-1.3-.5-1.9-.5-.4 0-.6 0-.8.1s-.3.2-.5.3-.4.2-.6.3-.6.1-1.2.1c-.3 0-.5-.1-.7-.3-.1-.1-.2-.3-.3-.4 0-.6.2-1.1.6-1.7s.8-.9 1.2-.9c.6-.6 1.2-1.1 1.8-1.7.6-.5 1.3-1 2-1.3.1-.2.4-.4.7-.8s.7-.7 1.1-1 .8-.6 1.3-.9c.4-.3.8-.4 1.2-.4.6 0 1 .2 1.3.6s.4.9.5 1.4.1 1.1.1 1.6 0 .9.1 1.2z"/><path d="m654.9 379.9c.7 0 1.3.3 1.8.9s.8 1.2.8 1.8c0 .5-.4.9-1.1 1.2s-1.5.6-2.4.9-1.7.6-2.6.8c-.9.3-1.4.6-1.7.9-.4.4-.7.8-.9 1.4-.2.5-.3 1-.3 1.6 0 .5.1 1 .3 1.5s.4.9.7 1.3c.3.6.7 1.3 1.1 1.9.4.7.8 1.5 1.2 2.3.4.9.6 1.9.9 3s.4 2.3.4 3.7c0 1.2-.4 2.4-1.2 3.6s-1.8 2.3-3 3.2c-1 .5-1.7 1-2.2 1.3s-1 .6-1.4.8-.8.3-1.2.4-.8.1-1.4.1h-2.4c-.2 0-.5 0-.9.1-.4 0-.7.1-1.1.2s-.9.2-1.4.3h-.4-1.5c-1.2 0-1.8-.6-1.8-1.8 0-.3.2-.8.6-1.5s.9-1.3 1.5-1.9 1.2-1.2 1.9-1.6 1.2-.7 1.7-.7c.1 0 .4.1.7.3s.7.4 1.1.6.9.4 1.4.6 1.1.3 1.8.3c.4 0 .8-.1 1.2-.4s.7-.6 1-1 .5-.8.6-1.2.2-.8.2-1.1c0-.7-.3-1.7-.9-2.7-.6-1.1-1.2-2.2-1.9-3.3s-1.3-2.2-1.9-3.2-.9-1.8-.9-2.5v-.7c.2-.7.4-1.5.8-2.3s.7-1.5 1.2-2.2c.4-.7.9-1.2 1.5-1.7.5-.5 1.1-.8 1.7-1 .3-.2.6-.5 1-.9.3-.4.6-.8.9-1.1.4-.4.7-.7 1-1s.6-.5.9-.6c.4-.3.9-.5 1.7-.5.7 0 1.3-.1 1.7-.1z"/><path d="m667.5 374.2c.1 0 .4.1.7.2.3.2.7.4 1 .6s.6.5.9.8.4.6.4.9c-.4 1-.8 1.9-1.1 2.7-.3.7-.6 1.5-.9 2.2s-.6 1.3-.7 1.7c-.1.2-.4.5-.7 1.1-.4.6-.7 1.1-1.1 1.8-.4.6-.7 1.3-1 1.9s-.4 1.1-.4 1.3l.6.9c.4 0 1.1-.4 2-1.3s1.9-1.8 2.9-2.9 2-2 3-2.9 1.8-1.3 2.4-1.3c.7 0 1.2.3 1.5 1 .4.7.6 1.4.8 2.3.2.8.3 1.6.4 2.4 0 .7.1 1.2.1 1.3 0 .3-.1.8-.3 1.6s-.3 1.5-.4 2.1c-.2.1-.3.3-.3.4s0 .3.1.4c0 .1.1.2.2.3 0 .5-.2 1.2-.6 2.1-.3.9-.7 1.8-1.1 2.7s-.8 1.7-1.1 2.4c-.4.7-.6 1.2-.7 1.3-.5.7-1 1.4-1.6 2-.5.6-1.1 1.1-1.7 1.7s-1.4 1.1-2.2 1.7c-.9.6-1.6 1.3-2.2 2.2-.7.6-1.4 1.1-2.1 1.6-.7.4-1.4.9-2 1.4s-1.1 1.1-1.5 1.7-.5 1.4-.3 2.4v1.3c0 .6-.1 1.1-.2 1.6-.1.4-.2.9-.3 1.3-.1.5-.2 1-.3 1.6s-.1 1.3-.1 2.3c0 .8-.1 1.4-.2 1.8s-.2.8-.3 1.1-.2.5-.3.7-.2.4-.2.7v1.4s0 1.4-.1 2.3v1.5c0 .9.2 1.5.7 1.6.5.2 1 .2 1.7.2h1.3c.7 0 1.2.3 1.7.9s.7 1.2.7 1.9c0 .3-.2.5-.5.8s-.8.5-1.3.9c-.7 0-1.3.2-2 .6s-1.5.5-2.4.5h-2.6c-.9.2-1.9.4-2.8.4-1 .1-1.9.2-2.8.5-.5 0-.8 0-1.1 0-.2 0-.5.1-.7.2s-.4.2-.6.3-.5.1-.8.1-.5-.2-.8-.4c-.2-.2-.4-.5-.6-.8s-.3-.6-.4-.8c-.1-.3-.1-.5-.1-.6 0-.5.2-.9.5-1.2.3-.2.6-.4 1-.5s.8-.2 1.2-.2h1.1l.6-.3c.2-.1.5-.2.7-.3s.4-.2.5-.4c.2-.2.2-.4.2-.7.1-.3.3-.7.4-1.3s.3-1 .4-1.5.3-.9.4-1.4c.1-.4.2-.7.2-.8v-.6c0-.2.1-.6.2-1.4.1-.7.3-1.5.5-2.3.2-.9.4-2 .7-3.1.1-.3.2-.5.3-.7s.2-.4.3-.6.1-.4.1-.5c0-.3 0-.8.1-1.6.1-.7.1-1.9.1-3.6l.7-1.8.7-4.2.2-1.8c0-.1.1-.3.2-.6s.3-.6.5-1 .3-.7.5-1.1c.1-.4.2-.8.2-1.1 0-.6.1-1.2.1-1.7s.1-1 .1-1.5.1-1 .1-1.5c.1-.6.3-1.2.5-1.8.1-.5.3-1 .4-1.5s.3-.9.5-1.2l.1-3.7c0-.8-.4-1.3-1.3-1.3-.4 0-.7.2-1 .5s-.7.6-1.2 1c-1 1-1.7 1.5-2.2 1.5-.2 0-.4-.1-.4-.2s-.1-.1-.1-.2 0-.2 0-.3c0-.9.3-1.7.9-2.4s1.1-1.5 1.7-2.3c.7-1.2 1.5-2.4 2.4-3.6.9-1.1 1.9-2.3 2.8-3.5 1-1.2 1.9-2.4 2.7-3.6.9-1.2 1.6-2.5 2.1-3.9l.6-.3c.4-.4.7-.5 1.1-.5zm2.4 17.4c-.4 0-.8.2-1.3.5s-1 .7-1.5 1.1-.9.8-1.3 1.2-.5.6-.5.8c-.6 1.3-1.1 2.4-1.5 3.5-.4 1-.8 2.1-1.3 3.3v1.8c0 .4.1.7.2 1.2.2.4.7.7 1.6.8.3 0 .6-.2 1.2-.5.5-.4 1-.8 1.5-1.3.6-.5 1.2-1.1 1.8-1.8.4-.2.7-.5 1-.8s.7-.7 1.1-1c.3-.6.4-1 .5-1.2 0-.2.1-.6.1-1.2 0-.1 0-.3-.1-.5 0-.2-.1-.4-.1-.6-.1-.2-.2-.5-.2-.7v-1.3c0-.1 0-.4 0-.7s0-.7-.1-1c0-.3-.1-.6-.3-.9s-.5-.6-.8-.7z"/><path d="m698.7 379.9c.9 0 1.6.3 2 .8s.6 1.3.6 2.2c0 .2-.1.6-.2 1.2s-.3 1.3-.5 2-.4 1.5-.6 2.2-.4 1.3-.5 1.8c0 .4 0 .7-.1 1.1s-.2.9-.5 1.5c-.4.3-.5.7-.5 1.3s0 1 0 1.3l-.2 3.5v2.6.7c0 .3.1.7.1 1 .1.3.2.6.4.9.2.2.4.4.7.4l.9-1.5c.3-.2.6-.5.9-.8.4-.3.7-.6 1.1-1s.8-.7 1.2-1.1c.3 0 .5.1.7.3s.3.5.3.7l-.3.5c-.2.4-.4.6-.5.8-.3.9-.7 1.6-1.2 2.3-.5.6-1 1.3-1.6 1.8-.6.6-1.2 1.2-1.7 1.8-.6.6-1.2 1.3-1.7 2.1l-1.5 2c0 .4-.1.8-.4 1.2-.2.4-.5.7-.9 1-.3.2-.7.4-1.1.3-.4 0-.7-.3-.9-.8-.3-.8-.4-1.6-.4-2.3s.1-1.5.2-2.2.3-1.4.4-2.1.2-1.3.2-1.9v-2.5-1.3c0-.2-.2-.4-.5-.5-.2 0-.3-.1-.5-.1s-.5.4-1 1.2-1.1 1.7-1.8 2.6c-.7 1-1.4 2-2.1 3s-1.3 1.7-1.7 2.2c-.1.2-.3.4-.6.8s-.6.7-.9 1-.7.6-1.1.8-.7.4-1.1.4c-.6 0-1.1-.2-1.5-.7-.4-.4-.7-1-.9-1.6s-.4-1.2-.5-1.8-.2-1-.2-1.3l-.2-4.8.9-7.7c0-.1.1-.4.2-.9s.3-1 .5-1.6.5-1.1.8-1.7c.3-.5.6-1 .9-1.4 1.3-1.2 2.5-2.6 3.7-4.4.6-.8 1.1-1.4 1.7-1.7.5-.4 1.1-.6 1.6-.8s1.1-.4 1.6-.5 1.1-.3 1.8-.7c.3 0 .6-.1 1-.4s.8-.6 1.2-.8h1.8 1.1zm-8.4 7.3c-.8.7-1.5 1.4-2.2 2.3s-1.3 1.7-1.8 2.6-.9 1.7-1.3 2.5-.5 1.4-.5 1.8c0 .2 0 .6-.1 1.2 0 .6 0 1.2.1 1.8s.3 1.2.5 1.7.7.8 1.3.8 1.2-.5 2-1.5 1.5-2.2 2.2-3.4c.7-1.3 1.3-2.5 1.7-3.6.5-1.1.7-1.8.7-2s0-.6.1-1.3c0-.7 0-1.3-.1-2-.1-.6-.4-1.1-.7-1.4s-1.1-.1-1.9.5z"/><path d="m714.2 381.2c.5 0 .9.2 1.1.5.3.3.5.6.7 1 .1.3.2.7.1 1.3 0 .5-.1 1.1-.2 1.6s-.2 1-.3 1.5-.2.8-.2 1l.2 1.1.7 1.3c.2 0 .5-.3 1-.8s1.1-1.1 1.8-1.9c.7-.7 1.4-1.6 2.1-2.4.7-.9 1.5-1.7 2.2-2.4s1.3-1.4 1.9-1.9 1-.8 1.3-.8c.4 0 .6.2.9.7.2.4.5.9.7 1.4.2.6.4 1.2.6 2 0 .6 0 1.5-.1 2.6s-.3 2.3-.6 3.6-.6 2.6-.9 4c-.3 1.3-.6 2.6-.9 3.7s-.5 2.1-.7 2.8-.3 1.1-.3 1.2c0 .2 0 .4-.1.6 0 .2-.1.5-.1.7s.1.4.2.5.3.2.7.2c.3-.2.5-.4.8-.5.2-.2.5-.4.7-.5.3-.2.5-.4.9-.6.7-.5 1.4-.9 2.1-1.4.6-.4 1-.6 1.2-.6.3 0 .5.1.9.4.3.3.5.6.5.8 0 .1-.1.3-.4.7s-.6.8-1 1.3c-.4.4-.8.8-1.2 1.2s-.7.5-.9.5c0 .4-.1.7-.4 1-.2.3-.5.5-.8.5-.7.7-1.3 1.5-1.8 2.2s-1 1.4-1.5 1.9-1 1.1-1.6 1.4c-.6.4-1.3.5-2.2.5-.3 0-.6-.1-1-.3-.3-.2-.6-.5-.9-.8s-.5-.7-.6-1.1c-.2-.4-.2-.7-.2-1l-.2-2.4c.3-1.2.6-2.5 1-3.8.4-1.4.8-2.6 1.2-3.8.4-1 .6-2 .9-2.9.2-.9.4-1.8.5-2.6v-.7c-.2-1.2-.6-1.8-1.3-1.8-1.1 0-1.9.2-2.5.7s-1.1 1.1-1.5 1.8-.7 1.5-1 2.3-.6 1.6-1 2.4c-.2.3-.4.5-.4.8-.1.2-.1.5 0 .9-.1.5-.2 1.1-.3 1.6s-.3 1-.4 1.5c-.5 1.4-.9 2.8-1.4 4.2-.4 1.4-.8 2.7-1.2 3.9.2.4.2.6-.1.6-.3.1-.6.1-.8.1-.3 0-.6 0-1.1 0s-1-.1-1.4-.2-.9-.3-1.3-.6-.6-.6-.6-1.1c-.1-.7 0-1.5.3-2.3s.6-1.6.9-2.3.6-1.3 1-1.8c.3-.5.5-.9.5-1.1v-1.1-1.3l-.3-1.1c0-.3.1-.6.3-1s.4-.8.6-1.3c.2-.4.4-.8.6-1.2s.3-.6.3-.8v-.9l-.2-2.6c0-.3 0-.5-.1-.8s-.3-.4-.6-.4-.6.1-.9.2-.7.3-1 .4c-.3.2-.6.3-.9.4s-.5.2-.7.2h-.5c-.3-.2-.4-.5-.2-1s.2-.9.2-1.2c1.1-1.5 2.2-2.9 3.2-4.1s2.3-2.2 3.7-3.1c.3-.2.7-.4 1.3-.7 0-.6.5-.7 1-.7z"/><path d="m17.5 390.1h1.2c.4 0 .7.1 1.1.2.3.1.6.3.8.5s.3.6.3 1c0 .3-.3.8-.9 1.5s-1.3 1.5-2 2.4-1.4 1.7-2 2.5-.9 1.4-.9 1.9c0 .4.1.6.3.8s.4.3.7.4.5.1.8.1h.6 2.2c.1-.1.2-.2.4-.3.4-.3.6-.4.9-.4.7 0 1.1.3 1.4.8s.4 1.1.4 1.8v.5 1.3c0 .5-.3.9-.8 1.1-.5.3-1.1.5-1.7.6s-1.3.2-1.8.3c-.6 0-1 .1-1.1.1-.7 0-1 0-1.1-.1s-.3-.1-.5-.1h-1.3c-.3 0-.6.1-1.1.4s-.7.6-.7.9c0 .5 0 .9-.1 1.3 0 .4-.1.7-.1 1s-.1.6-.1.9c-.1.3-.3.5-.4.7-.2.4-.3.8-.3 1.1v.7c0 .7-.1 1.6-.3 2.4-.2.9-.4 1.4-.6 1.6s-.4.4-.5.6-.2.7-.2 1.6v1.3c0 .3 0 .6.1 1s.2.7.5 1c.2.3.5.6.8.8s.7.3 1.2.3c.6 0 1.1-.2 1.5-.5.2-.1.4-.3.5-.5.4 0 .6.1.8.3s.4.4.6.6c.2.3.3.6.5.9 0 .4-.1.8-.4 1.4s-.6 1.1-1 1.7-.8 1-1.3 1.5c-.4.4-.8.6-1.1.6s-.6.3-.9.8-.4.9-.4 1.1c-.1 0-.4 0-.7.1-.4.1-.7.2-1.1.3s-.9.2-1.3.3c-.6 0-1 0-1.4-.1-.3-.1-.5-.3-.5-.6-.1-.1-.3-.4-.6-1s-.5-1.2-.8-1.8-.5-1.3-.7-1.9-.3-1.1-.3-1.4v-3.1c0-.2.1-.6.2-1.2s.2-1.3.4-2.1.3-1.5.4-2.3.2-1.4.2-1.9v-1.1c.4-1 .7-1.9 1-2.7.2-.7.4-1.4.7-1.9.2-.6.3-.9.3-1v-2c0-.6-.2-.9-.5-1.1s-.6-.4-.9-.7c-.3-.2-.5-.5-.5-.9 0-.3.1-.5.3-.8s.4-.6.7-.9.6-.6.9-1c.3-.3.5-.6.7-1 .3-.7.6-1.1.9-1.2.3-.2.6-.4 1-.6.6-.7 1.2-1.2 1.8-1.6.7-.4 1.3-1.1 1.8-2 .4-.6.6-1.2.8-1.8s.6-1.1 1.2-1.5c.6-.2 1.1-.5 1.5-1-.2-.7.2-.9.5-.9z"/><path d="m38.9 399.4c.9 0 1.6.3 2 .8s.6 1.3.6 2.2c0 .2-.1.6-.2 1.2s-.3 1.3-.5 2-.4 1.5-.6 2.2-.4 1.3-.5 1.8c0 .4 0 .7-.1 1.1 0 .4-.2.9-.5 1.5-.4.3-.5.7-.5 1.3s0 1 0 1.3l-.2 3.5v2.6.7c0 .3.1.7.1 1s.2.6.4.9c.2.2.4.4.7.4l.9-1.5c.3-.2.6-.5.9-.8.4-.3.7-.6 1.1-1s.8-.7 1.2-1.1c.3 0 .5.1.7.3s.3.5.3.7l-.3.5c-.2.4-.4.6-.5.8-.3.9-.7 1.6-1.2 2.3-.5.6-1 1.3-1.6 1.8-.6.6-1.2 1.2-1.7 1.8-.6.6-1.2 1.3-1.7 2.1l-1.5 2c0 .4-.1.8-.4 1.2-.2.4-.5.7-.9 1-.3.2-.7.4-1.1.3-.4 0-.7-.3-.9-.8-.3-.8-.4-1.6-.4-2.3s.1-1.5.2-2.2.3-1.4.4-2.1.2-1.3.2-1.9v-2.4-1.3c0-.2-.2-.4-.5-.5-.2 0-.3-.1-.5-.1s-.5.4-1 1.2-1.1 1.7-1.8 2.6c-.7 1-1.4 2-2.1 3s-1.3 1.7-1.7 2.2c-.1.2-.3.4-.6.8-.3.3-.6.7-.9 1s-.7.6-1.1.8-.7.4-1.1.4c-.6 0-1.1-.2-1.5-.7-.4-.4-.7-1-.9-1.6s-.4-1.2-.5-1.8-.2-1-.2-1.3l-.2-4.8.9-7.7c0-.1.1-.4.2-.9s.3-1 .5-1.6.5-1.1.8-1.7c.3-.5.6-1 .9-1.4 1.3-1.2 2.5-2.6 3.7-4.4.6-.8 1.1-1.4 1.7-1.7.5-.4 1.1-.6 1.6-.8s1.1-.4 1.6-.5 1.1-.3 1.8-.7c.3 0 .6-.1 1-.4s.8-.6 1.2-.8h1.8 1.1zm-8.4 7.3c-.8.7-1.5 1.4-2.2 2.3s-1.3 1.7-1.8 2.6-.9 1.7-1.3 2.5c-.3.8-.5 1.4-.5 1.8 0 .2 0 .6-.1 1.2 0 .6 0 1.2.1 1.8s.3 1.2.5 1.7.7.8 1.3.8 1.2-.5 2-1.5 1.5-2.2 2.2-3.4c.7-1.3 1.3-2.5 1.7-3.6.5-1.1.7-1.8.7-2s0-.6.1-1.3c0-.7 0-1.3-.1-2-.1-.6-.4-1.1-.7-1.4-.5-.2-1.1-.1-1.9.5z"/><path d="m59 373h1.8c.4 0 .7.1 1 .3s.7.3 1 .3l1.8-.5h1.1c.3 0 .6.1 1 .3s.7.5 1.1.8c.3.3.6.6.8 1 .2.3.3.6.3.9 0 .7-.1 1.4-.3 2.1s-.5 1.5-.9 2.2-1 1.4-1.7 1.9c-.7.6-1.6 1-2.6 1.3h-.5-.7c-.5 0-1 .1-1.6.4s-1.2.6-1.7 1-1 .9-1.3 1.4c-.4.5-.5 1-.5 1.4-.4.3-.6.8-.7 1.5s-.3 1.3-.6 1.8c-.4.4-.6.9-.6 1.6-.1.7-.1 1.2-.1 1.6l-.7 2.4c0 .6-.1 1.2-.4 1.8s-.6 1.3-.9 2-.6 1.5-.9 2.3-.4 1.7-.4 2.7v1.3c0 .2.1.4.3.5.1 0 .2.1.3.1.3 0 .6-.3.9-.8s.7-1.1 1.2-1.8 1.1-1.3 1.8-1.8 1.6-.8 2.7-.8l1.5-.5c1 0 1.8.3 2.3.9s.8 1.4.8 2.4v.5l-.5 1.3c.1.4.2.7.3 1.1.1.3.2.6.2 1 0 .3.1.6.1.9 0 .5-.1.8-.2.9-.1.2-.2.4-.2.6-.1.2-.1.3-.1.4 0 .2 0 .3.1.4 0 .1.1.3.1.4 0 .2.1.4 0 .7 0 .3-.1.6-.2 1.1v2c0 .1-.1.4-.4.8-.2.4-.5.9-.8 1.4s-.6 1.1-1 1.7-.6 1.2-.8 1.8l-.7 2.9c-.8 1.1-1.5 2.2-2.2 3.1-.6.8-1.2 1.6-1.7 2.3-.6.7-.9 1.2-1.2 1.4-.5.3-.9.6-1.1.9-.3.3-.5.5-.8.7s-.6.3-1 .4-1 .1-1.8.1l-1.8.5c-.4 0-.6-.1-.7-.3s-.2-.5-.3-.8c0-.3-.1-.7-.1-1.1s-.2-.8-.3-1.1c0-.2-.1-.5-.2-.7s-.2-.5-.3-.8c-.3-.4-.6-.7-.9-1s-.4-.7-.4-1.2c0-.4.1-.8.3-1.4.1-.3.3-.6.4-1v-2l.6-6.1v-1.3l1.3-6.2v-1.8-.5c0-.4.1-1.1.4-2.2.2-1.1.4-2.5.4-4v-1.8l1.8-7.5v-.5c0-.3.1-.8.2-1.5s.2-1.4.4-2.1c.2-.8.4-1.7.6-2.6l.5-1.8c.1-.7.3-1.2.6-1.7s.7-1.2 1.3-2.1zm-3.7 35.4c-.6 0-1.2.5-1.9 1.4-.6.9-1.2 2-1.7 3.2s-1 2.3-1.3 3.5c-.4 1.1-.5 1.9-.5 2.2v2.6c0 .4 0 .8.1 1.2.1.3.2.6.3.8s.2.4.5.4h.8c.6-.2 1.3-.6 2-1.2s1.4-1.2 2-1.9 1.1-1.4 1.6-2.2c.4-.7.6-1.4.6-2v-1.7-1.5l-.3-1.3.3-1.1c-.2-1.6-.9-2.4-2.5-2.4z"/><path d="m88.1 373.5c1.3 0 2.1.4 2.4 1.2s.5 1.7.5 2.7v1.3c0 .6-.2 1.3-.6 2s-.9 1.4-1.5 1.9c-.6.6-1.2 1.1-1.8 1.5s-1.2.6-1.6.6c-.6 0-1.1-.1-1.5-.3s-.8-.3-1.1-.3c-.9 0-1.9.3-2.9.9s-1.6 1.5-1.9 2.8c-.4.7-.5 1.2-.5 1.7s-.1 1-.2 1.6c-.4.9-.8 2.1-1.2 3.6s-.6 2.8-.6 4.1c0 .1 0 .4-.1.7s-.1.6-.2 1-.2.8-.3 1.3v2l-.9 5.3c.1.6.1 1.3 0 2.1s-.3 1.7-.5 2.8-.4 2.2-.7 3.4c-.2 1.2-.4 2.5-.5 3.9 0 .3.1.7.2 1.3s.3.9.6.9c.4 0 .8-.1 1.3-.4s.9-.6 1.4-1c.4-.4.9-.8 1.4-1.3.5-.4.9-.8 1.3-1.2.8-.8 1.7-1.6 2.6-2.3s1.7-1 2.6-1l.2.7c0 .5-.1 1-.4 1.7-.3.6-.6 1.3-1 1.9s-.8 1.3-1.3 1.8c-.5.6-.9 1-1.4 1.3-.9.6-1.6 1.4-2.1 2.2-.6.9-1.3 1.8-2.2 2.7-.3.7-.8 1.2-1.4 1.6s-1.3.8-1.9 1.2c-.7.3-1.5.6-2.4 1s-1.7.6-2.4.6c-.5 0-.8-.1-1-.2-.2-.2-.3-.4-.4-.7 0-.3 0-.7 0-1.2.1-.5.1-1.1.1-1.8v-4.1c0-.6.1-1.2.4-1.8.2-.6.4-1.2.4-1.8v-1.3c0 .4 0 .2.1-.5s.2-1.7.3-3 .2-2.9.3-4.8c.1-1.8.1-3.8.1-5.8 0-.3.1-.6.4-1.2.2-.5.4-.9.4-1.2v-2.4c.3-1.3.5-2.5.6-3.8.1-1.2.3-2.4.4-3.6s.3-2.4.5-3.6.6-2.4 1.1-3.7c.4-1.2.9-2.3 1.7-3.4s1.5-2.3 2.1-3.6c.3-.6.6-1.1 1-1.6s.8-.9 1.4-1.2c.6-1 1.5-1.8 2.5-2.4 1.1-.6 2.1-.9 3.1-.9h5.1z"/><path d="m97.8 400c.9 0 1.7.2 2.3.5s1.2.8 1.6 1.4.7 1.2.9 2c.2.7.2 1.5.2 2.4 0 1.2-.4 2.1-1.3 2.9-.9.7-1.8 1.4-2.7 1.9-.8.6-1.7 1.1-2.7 1.5-.9.4-1.8.9-2.6 1.5-.8.5-1.5 1.1-2 1.8-.6.7-.8 1.6-.9 2.7v2.8c-.1.7.1 1.5.5 2.2s.9 1.1 1.5 1.1c0 0 .2 0 .5-.2s.6-.4 1-.6.7-.5 1.1-.8.6-.5.8-.6c.7-.3 1.2-.6 1.6-.8s.6-.3.8-.2c.3 0 .6 0 .8.1s.3.4.3 1c-.1 1-.5 1.9-1.3 2.8-.7.9-1.6 1.7-2.4 2.5-.9.8-1.7 1.4-2.6 2-.8.6-1.4 1-1.6 1.3-.7.7-1.4 1-2.1 1.1-.6 0-1.3.1-1.9.1-.4 0-.8-.2-1.2-.5s-.8-.7-1.1-1.1-.6-.8-.8-1.3c-.2-.4-.2-.8-.2-1.1v-1.1c0-.3-.1-.6-.3-1-.1-.2-.2-.3-.3-.5l.2-1.3v-1.1c0-.2 0-.6.1-1.4s.2-1.6.3-2.5.3-1.8.4-2.6.2-1.4.2-1.6c.2-.1.3-.3.3-.4s0-.3-.1-.4c0-.1-.1-.3-.1-.5s.1-.4.3-.7c0-.5.1-1.1.3-1.6.1-.3.3-.6.4-.9l.9-2.2c.1-1 .5-2 1.4-3 .8-1 1.8-2 2.9-2.8s2.3-1.5 3.5-2c1.2-.7 2.2-.9 3.1-.8zm-3 4.9c-.2 0-.4.2-.7.5-.2.3-.4.7-.7 1.1-.2.5-.4 1-.7 1.5 0 .2-.1.5-.2.8s-.2.6-.2.8 0 .4.1.6.3.2.5.2.5 0 1-.1c.4-.1.9-.3 1.4-.6s.9-.6 1.3-1 .6-.8.6-1.2v-1.1c0-.2-.1-.4-.2-.6s-.3-.3-.5-.4-.4-.2-.7-.3z"/><path d="m184.9 609.9h1.2c.6 0 1.3.2 2.3.7.9.4 1.9.7 2.9.7l3.1-1h4.3 2.1c.8 0 1.4.4 1.7 1.1.1.3.2.7.2 1.1 0 1.6-.2 2.6-.7 3.3-.4.6-1 1-1.7 1.2s-1.4.3-2.2.3-1.5.2-2.2.5-1.3.9-1.7 1.7c-.4.9-.7 2.2-.7 4.1 0 .6.1 1.5.4 2.8s.4 2.2.4 2.8v3.1c0 1.5.5 2.8 1.4 3.9 1 1.1 2.2 1.7 3.8 1.7.6 0 1.1-.1 1.6-.3.3-.1.5-.2.7-.3l4 .7h3.3 1.9c.6 0 1.2 0 1.8.1 1.2.1 2 .5 2.6 1.1.4 0 .7-.1.9-.2.3-.1.5-.2.6-.2.3-.1.6-.3.9-.6.3-.2.5-.3.7-.3h4.3c.4-.4.8-.8 1.2-1.4s.6-1.1.6-1.7v-1.6-7.2l-1.2-5.5v-1.9c0-.7-.3-1.3-.8-1.6s-1.1-.6-1.7-.8-1.1-.5-1.7-.9c-.5-.4-.8-1.2-.8-2.3 0-.9.4-1.7 1.3-2.5s1.9-1.2 3-1.2c1 .4 2 .7 3 1 .9.2 1.9.4 2.9.6 1.1.2 2.2.3 3.3.3h1.2 3.1c.7 0 1.6.1 2.6.3s1.8.5 2.6.9 1.4 1 2 1.7.8 1.6.8 2.7l-.6 1.2-2.6.6h-3c-.5 0-1.2.5-1.9 1.4-.8 1-1.2 1.8-1.2 2.6v7.4 4.3c0 .4.1 1.3.3 2.4.2 1.2.3 2 .3 2.6 0 .3-.1.6-.3 1s-.4.7-.6 1.1c-.4 1-.6 1.7-.6 2.1v3.1 3.1c0 1.1.1 2.2.3 3.2s.3 2 .3 3c0 .6-.1 1.2-.3 1.9s-.3 1.5-.3 2.4c0 .5 0 .9-.1 1.2s-.1.6-.2.9v.9c0 .3.1.8.3 1.3.2.8.9 1.5 1.9 2.1 1.1.6 2.2 1.1 3.4 1.5s2.3.9 3.3 1.3 1.4 1 1.4 1.6c0 .5-.2.9-.5 1.3s-.7.6-1.1.9-1 .6-1.6.9h-6.1-3.1-2.6l-5.2-1.2-3.1 1.2c-.2 0-.6 0-1-.1-.4 0-.9-.1-1.3-.2s-.8-.3-1.2-.6c-.3-.3-.5-.7-.5-1.3 0-.8.4-1.5 1.1-2s1.6-1.1 2.4-1.8c.9-.7 1.7-1.5 2.4-2.5s1.1-2.4 1.1-4.2v-3.1-3.1-3.2-3.1c0-.5-.2-1.2-.6-1.9-.4-.8-.9-1.2-1.5-1.2h-3.1-4c-.5 0-1.3-.2-2.2-.6-1-.4-1.7-.6-2.1-.6h-2.2-3.1-3-2.2c-1.6 0-2.8.3-3.8 1s-1.4 1.8-1.4 3.3v7.1c-.4 1.3-.7 2-.8 2.3s-.1.6-.1 1.1.1 1.1.4 1.7.4 1.4.4 2.3c-.4 1.1-.3 2 .4 2.7s1.6 1.4 2.6 2l3 1.8c1 .6 1.4 1.3 1.4 2.1 0 .2-.2.5-.5.7-.3.3-.7.5-1.2.6-.4.1-.9.3-1.3.4s-.8.2-1 .2c-.4 0-.9-.1-1.5-.3s-1.3-.4-2.1-.7-1.6-.5-2.5-.7-1.7-.3-2.6-.3c-.4.2-.7.4-1.1.6-.4.1-.7.3-1.1.3-.3.1-.6.1-.9.1h-1.2-3.1-1.9c-1 0-2.1-.3-3.1-.8s-1.5-1.4-1.5-2.7c0-1 .1-1.9.4-2.9s.9-1.4 2.1-1.4l2.1-.6c.6 0 1.3-.4 2-1.2s1.1-1.4 1.1-1.9v-4.3-3.1c0-.6-.2-1.6-.6-3s-.6-2.9-.6-4.4v-5.2c0-.2.1-.6.2-1.2s.3-1.2.4-1.9c.2-.7.3-1.3.4-1.9s.2-1 .2-1.2l-1.2-5.2c0-.6.2-1.4.6-2.3.2-.5.4-1.1.7-1.7v-7.4c0-.5-.4-.9-1.3-1.2s-1.8-.5-2.9-.7-2-.4-2.9-.6-1.3-.4-1.3-.6c0-1.4.4-2.6 1.3-3.7.9-1 1.8-1.6 2.7-1.6l5.5-.3z"/><path d="m318.2 607.5c.2 0 .5.3.7.8.3.6.5 1.2.7 1.9s.4 1.5.6 2.2c.1.7.2 1.3.2 1.6v8c0 .3 0 .9-.1 1.7 0 .8-.1 1.6-.3 2.5s-.5 1.6-.9 2.3-1 1-1.8 1c-1.3 0-2.2-.3-2.7-.8-.6-.6-1-1.3-1.2-2.1-.3-.8-.5-1.8-.6-2.8s-.4-1.9-.8-2.8c-.4-.8-.9-1.6-1.7-2.1-.8-.6-1.9-.8-3.5-.8h-6.1c-.4 0-.8 0-1.2.1s-.9.2-1.2.3c-.4.1-.9.3-1.3.4-1.6 0-2.8.5-3.6 1.5-.9 1-1.3 2.2-1.3 3.7v5.3c0 .6 0 1.1-.1 1.6 0 .5.2.9.6 1.4l-.6 4.3v18c0 1.5.1 2.7.3 3.6s.5 1.7.9 2.3.8 1.1 1.2 1.5.8.8 1.2 1.2c1.1.4 2.1.7 3 1.1.9.3 2 .5 3.2.5 2.2.4 3.9 1.1 5 2.1s1.7 2 1.8 3.1-.3 2.1-1.2 3-2.2 1.5-4 1.7c-.7 0-1.3-.1-1.9-.3s-1.2-.4-1.8-.6c-.7-.1-1.4-.1-2.2-.1s-1.6 0-2.5-.1c-.9 0-1.7-.1-2.4-.3-.8-.1-1.5-.4-2.1-.8h-.7-9.9c-.4 0-1.4.2-2.7.6-1.4.4-2.9.6-4.6.6-1.2 0-2.3 0-3.2-.1-.8-.1-1.6-.1-2.5-.2-.9 0-1.4-.1-1.7-.1-.4 0-.7.1-.9.4s-1 .4-2.2.4c-.1-.1-.3-.2-.4-.4-.1-.1-.3-.3-.3-.5-.1-.2-.1-.5-.1-.8.3-.8.7-1.6 1.1-2.4.4-.7.8-1.4 1.3-2.1s1-1.4 1.6-2c1-.4 2-.7 2.9-1 .7-.3 1.5-.6 2.2-.8s1.2-.3 1.4-.3l5.3-1.2c.5 0 .9-.4 1.2-1.1s.5-1.5.7-2.3c.1-1 .2-2.1.2-3.4v-11.8c0-.3.1-.8.4-1.6l.4-.9v-14.2c0-.6.1-1.2.2-1.8s.2-1.1.2-1.7c0-.2-.1-.6-.3-1s-.5-.9-.9-1.3-.8-.8-1.3-1.2c-.5-.3-1-.5-1.5-.5h-12.3c-1.6 0-2.8.3-3.6.8-.9.6-1.5 1.3-1.9 2.1-.4.9-.8 1.8-1 2.8s-.5 1.9-.8 2.8-.8 1.6-1.4 2.1c-.6.6-1.5.8-2.7.8-1.1 0-1.9-.4-2.4-1.3-.5-.8-.7-1.8-.7-2.7 0-.3 0-.8.1-1.4s.2-1.3.3-1.9c.1-.7.2-1.3.3-1.9s.2-1 .2-1.2l1.3-5.3c0-.2.1-.7.2-1.5s.3-1.6.6-2.5.6-1.7.9-2.3c.4-.7.8-1 1.3-1 1 0 1.7.2 2.3.6s1.2.8 1.8 1.2c.4.4.9.7 1.4.9s1.1.3 1.9.3c.4 0 1.1-.1 2-.3s1.6-.3 2-.3h2.2c.2.1.5.2.8.3.3 0 .6.1 1 .2s.8.1 1.2.1h16.6l3-.6 3.1.6c1.6 0 3.2-.1 4.8-.3 1.7-.2 3.2-.3 4.7-.3h5.3c1.3 0 2.5-.2 3.6-.6 1-.4 1.9-.8 2.7-1.2s1.4-.8 1.9-1.2c.5 0 .9-.2 1.1-.2z"/><path d="m403.7 607.5c2.5 0 4.2.7 5 2.1s1.2 2.9 1.2 4.4c0 .2-.2.6-.5 1s-.7.9-1.2 1.3-1 .8-1.4 1.2c-.5.3-.9.5-1.2.5h-1.9c-.5 0-1 0-1.3.1-1 .1-1.6.4-2 .8-1.1 0-1.9.2-2.5.7s-1 1.1-1.3 1.8-.5 1.6-.5 2.4c0 .9-.1 1.7-.1 2.4v7.4 8c0 .8.1 1.4.3 1.9.2.4.4.9.6 1.2.4.4.6.9.6 1.3s.1.9.1 1.4l-.3 3.7c0 1 .1 2.1.4 3.1s.4 1.7.4 2.2l1.3 3.1v3.1c0 1.3.6 2.3 1.9 2.8s2.7.9 4.2 1.3c1.5.3 2.9.7 4.2 1.1s1.9 1.2 1.9 2.3c0 2.2-1 3.3-3.1 3.3h-4c-.5 0-1.1 0-1.7.1-.6 0-1.2.2-1.8.6l-9.2-.7h-3.1-2.1c-.2 0-.7 0-1.6.1-.8.1-1.7.1-2.6.2s-1.8.1-2.6.2-1.3.1-1.6.1c-1.1 0-1.9-.1-2.4-.2s-.7-.7-.7-1.7.3-2.2.8-3.4 1.6-1.8 3.2-1.8h2.1 4.3c.5 0 .9-.2 1.3-.5s.6-.7.7-1.2.2-1 .2-1.4c0-.5.1-.9.1-1.2 0-1-.2-2.1-.6-3.4s-.6-2.3-.6-2.8v-4-3.3-3.1c0-.3-.1-.8-.2-1.5s-.3-1.4-.5-2.1-.5-1.3-.7-1.8c-.3-.5-.5-.8-.8-.8-.1 0-.5.3-.9.9-.5.6-1 1.4-1.7 2.4-.6 1-1.3 2.1-2.1 3.3s-1.5 2.4-2.2 3.6-1.4 2.3-1.9 3.2c-.6 1-1 1.7-1.3 2.2-.6.4-1.1 1-1.5 1.8-.4.7-.8 1.5-1.1 2.3s-.6 1.6-.8 2.3c-.2.8-.4 1.4-.7 1.9-.6 1-1.2 1.9-1.7 2.7-.6.8-1 1.4-1.4 1.9-.6 1.3-1 2-1.2 2.2s-.6.3-1.2.3c-.9 0-1.5-.3-1.7-.9-.3-.6-.7-1.4-1.4-2.6l-.9-6.8c-.5-1.3-1.1-2.7-1.8-4.1s-1.3-2.8-1.8-4.3c-.6-1.4-1-2.9-1.4-4.3s-.6-2.7-.6-4v-.8c0-.3-.1-.8-.3-1.5s-.5-1.4-.8-2.1-.6-1.3-1-1.8-.7-.8-1-.8c-.2 0-.5.3-.9 1s-.7 1.4-1.1 2.3c-.3.9-.6 1.8-.8 2.7s-.3 1.6-.3 2.1v5.5 2.1c-.3 1.9-.6 3.7-.9 5.2-.2 1.3-.4 2.6-.6 3.9s-.3 2-.3 2.3c0 2.1.4 3.5 1.1 4.2s1.6 1.2 2.4 1.4c.9.2 1.7.4 2.4.7.7.2 1.1.9 1.1 2 0 .8-.2 1.4-.5 1.8s-.7.7-1.2.9c-.4.2-.9.3-1.3.3s-.8.1-1 .1h-4.3l-10.5-1.9h-2.1-1.9c-.2.1-.5.3-.8.3-.4.2-.9.3-1.4.3h-2.1c-.2 0-.6 0-1-.1s-.9-.2-1.3-.4-.8-.4-1.2-.6c-.3-.2-.5-.5-.5-.8 0-.7.3-1.4.8-1.9.6-.6 1.2-1 1.9-1.4s1.4-.6 2.1-.8c.7-.1 1.1-.2 1.3-.2h2.2c.2 0 .7 0 1.3-.1.7-.1 1.4-.2 2.1-.3.8-.1 1.7-.3 2.8-.4.5-.5 1-1.4 1.6-2.7.5-1.3 1-2.6 1.3-4 .4-1.4.7-2.6.9-3.8.3-1.1.4-1.9.4-2.2v-4-1.2c.2-.2.4-.6.6-1.1.1-.5.3-1 .3-1.5.1-.6.1-1.2.1-1.8v-5c0-.3.1-.7.2-1.3s.2-1.2.4-1.8c.2-.7.4-1.4.7-2.1v-3.1c.1-.4.3-.9.4-1.3s.3-.8.3-1.2c.1-.4.1-.9.1-1.4v-2.4c0-.2-.1-.7-.3-1.5s-.5-1.6-.8-2.4c-.3-1-.6-2-1-3.2-.4-.5-.9-1-1.6-1.4s-1.3-.9-1.9-1.3c-.4-.4-1-.7-1.6-1.1-.6-.3-1.1-.8-1.5-1.5v-1.2c0-.4.2-.8.6-1s.8-.4 1.3-.6c.5-.1 1.1-.2 1.9-.2h2.8c.7 0 1.3-.1 1.6-.2s.6-.3.7-.4c.1-.2.3-.3.3-.4.1-.1.2-.2.4-.2h5.2 2.1l3.1 1.2c.7 1.9 1.5 4.3 2.4 7 .8 2.8 1.7 5.7 2.6 8.8s1.8 6.2 2.6 9.3 1.7 5.8 2.4 8.3c.8 2.4 1.5 4.4 2.1 5.9s1.1 2.3 1.4 2.3c.1-.4.3-.7.6-1 .1-.3.4-.6.6-.9.3-.3.5-.6.7-.8 1.1-3.8 2.6-7.7 4.5-11.8s3.6-8 5.1-11.7c0-1.6.5-2.9 1.4-4.1.9-1.1 1.9-2.5 2.9-4.1.2-.5.4-1.2.4-2.1.1-.8.2-1.7.4-2.6.2-.8.5-1.6.9-2.4.4-.7 1.2-1.3 2.2-1.6h4.3l1.6.9c1 0 2-.1 2.9-.3s1.7-.4 2.6-.6c1.2 0 2.1-.4 3-.7z"/><path d="m426.3 609.9h1.2c.6 0 1.3.2 2.3.7.9.4 1.9.7 2.9.7l3.1-1h4.3 2.1c.8 0 1.4.4 1.7 1.1.1.3.2.7.2 1.1 0 1.6-.2 2.6-.7 3.3-.4.6-1 1-1.7 1.2s-1.4.3-2.2.3-1.5.2-2.2.5-1.3.9-1.7 1.7c-.4.9-.7 2.2-.7 4.1 0 .6.1 1.5.4 2.8s.4 2.2.4 2.8v3.1c0 1.5.5 2.8 1.4 3.9 1 1.1 2.2 1.7 3.8 1.7.6 0 1.1-.1 1.6-.3.3-.1.5-.2.7-.3l4 .7h3.3 1.9c.6 0 1.2 0 1.8.1 1.2.1 2 .5 2.6 1.1.4 0 .7-.1.9-.2.3-.1.5-.2.6-.2.3-.1.6-.3.9-.6.3-.2.5-.3.7-.3h4.3c.4-.4.8-.8 1.2-1.4s.6-1.1.6-1.7v-1.6-7.2l-1.2-5.5v-1.9c0-.7-.3-1.3-.8-1.6s-1.1-.6-1.7-.8-1.1-.5-1.7-.9c-.5-.4-.8-1.2-.8-2.3 0-.9.4-1.7 1.3-2.5s1.9-1.2 3-1.2c1 .4 2 .7 3 1 .9.2 1.9.4 2.9.6 1.1.2 2.2.3 3.3.3h1.2 3.1c.7 0 1.6.1 2.6.3s1.8.5 2.6.9 1.4 1 2 1.7.8 1.6.8 2.7l-.6 1.2-2.6.6h-3c-.5 0-1.2.5-1.9 1.4-.8 1-1.2 1.8-1.2 2.6v7.4 4.3c0 .4.1 1.3.3 2.4.2 1.2.3 2 .3 2.6 0 .3-.1.6-.3 1s-.4.7-.6 1.1c-.4 1-.6 1.7-.6 2.1v3.1 3.1c0 1.1.1 2.2.3 3.2s.3 2 .3 3c0 .6-.1 1.2-.3 1.9s-.3 1.5-.3 2.4c0 .5 0 .9-.1 1.2s-.1.6-.2.9v.9c0 .3.1.8.3 1.3.2.8.9 1.5 1.9 2.1 1.1.6 2.2 1.1 3.4 1.5s2.3.9 3.3 1.3 1.4 1 1.4 1.6c0 .5-.2.9-.5 1.3s-.7.6-1.1.9-1 .6-1.6.9h-6.1-3.1-3.1l-5.2-1.2-3.1 1.2c-.2 0-.6 0-1-.1-.4 0-.9-.1-1.3-.2s-.8-.3-1.2-.6c-.3-.3-.5-.7-.5-1.3 0-.8.4-1.5 1.1-2s1.6-1.1 2.4-1.8 1.7-1.5 2.4-2.5 1.1-2.4 1.1-4.2v-3.1-3.1-3.2-3.1c0-.5-.2-1.2-.6-1.9-.4-.8-.9-1.2-1.5-1.2h-2.5-4c-.5 0-1.3-.2-2.2-.6-1-.4-1.7-.6-2.1-.6h-2.2-3.1-3-2.2c-1.6 0-2.8.3-3.8 1s-1.4 1.8-1.4 3.3v7.1c-.4 1.3-.7 2-.8 2.3s-.1.6-.1 1.1.1 1.1.4 1.7.4 1.4.4 2.3c-.4 1.1-.3 2 .4 2.7s1.6 1.4 2.6 2 2 1.2 3 1.8 1.4 1.3 1.4 2.1c0 .2-.2.5-.5.7-.3.3-.7.5-1.2.6-.4.1-.9.3-1.3.4s-.8.2-1 .2c-.4 0-.9-.1-1.5-.3s-1.3-.4-2.1-.7-1.6-.5-2.5-.7-1.7-.3-2.6-.3c-.4.2-.7.4-1.1.6-.4.1-.7.3-1.1.3-.3.1-.6.1-.9.1h-1.2-3.1-1.9c-1 0-2.1-.3-3.1-.8s-1.5-1.4-1.5-2.7c0-1 .1-1.9.4-2.9s.9-1.4 2.1-1.4l2.1-.6c.6 0 1.3-.4 2-1.2s1.1-1.4 1.1-1.9v-4.3-3.1c0-.6-.2-1.6-.6-3s-.6-2.9-.6-4.4v-5.2c0-.2.1-.6.2-1.2s.3-1.2.4-1.9c.2-.7.3-1.3.4-1.9s.2-1 .2-1.2l-1.2-5.2c0-.6.2-1.4.6-2.3.2-.5.4-1.1.7-1.7v-7.4c0-.5-.4-.9-1.3-1.2s-1.8-.5-2.9-.7-2-.4-2.9-.6-1.3-.4-1.3-.6c0-1.4.4-2.6 1.3-3.7.8-1 1.8-1.6 2.7-1.6l5.5-.3z"/><path d="m514.8 619.6c1.6 0 2.9.3 3.9.8 1.1.6 1.9 1.3 2.6 2.3s1.1 2.1 1.4 3.3c.3 1.3.4 2.6.3 4 0 2-.7 3.6-2.2 4.8s-3 2.3-4.6 3.2c-1.4 1-2.9 1.8-4.5 2.6-1.6.7-3.1 1.6-4.4 2.4-1.4.9-2.5 1.9-3.4 3.1s-1.4 2.7-1.5 4.6v4.7c-.1 1.3.1 2.5.8 3.7s1.5 1.8 2.6 1.8c.1.1.4 0 .9-.3s1.1-.6 1.7-1.1c.6-.4 1.3-.8 1.9-1.3.6-.4 1.1-.8 1.4-1 1.1-.5 2-.9 2.6-1.3.6-.3 1.1-.4 1.4-.3.5 0 1 .1 1.3.2.4.1.6.7.6 1.7-.1 1.6-.9 3.2-2.1 4.7-1.3 1.5-2.6 2.9-4.1 4.2s-2.9 2.4-4.3 3.4-2.3 1.7-2.8 2.1c-1.3 1.1-2.4 1.7-3.5 1.8s-2.2.1-3.3.1c-.7-.1-1.4-.4-2.1-.9s-1.3-1.1-1.9-1.8-1-1.4-1.3-2.2c-.3-.7-.4-1.4-.3-1.9v-1.9c0-.5-.1-1.1-.4-1.7-.1-.3-.3-.6-.4-.8l.3-2.2v-1.8c0-.3.1-1.1.2-2.4s.3-2.7.6-4.2c.2-1.5.4-3 .6-4.3.2-1.4.3-2.3.4-2.7.3-.2.4-.4.4-.7s0-.4-.1-.7c-.1-.2-.1-.5-.1-.8s.1-.7.4-1.2c0-.9.2-1.8.6-2.8.2-.5.4-1 .7-1.6l1.6-3.7c.1-1.6.9-3.3 2.3-5s3.1-3.3 4.9-4.7c1.9-1.4 3.8-2.5 5.8-3.4 2-.6 3.7-1 5.1-.8zm-5 8.3c-.4 0-.7.3-1.1.8-.4.6-.7 1.2-1.1 1.8-.4.8-.7 1.7-1.1 2.6-.1.4-.2.8-.3 1.3s-.3.9-.3 1.3c-.1.4 0 .7.1 1s.4.4.9.4c.4.1.9 0 1.7-.2.7-.2 1.5-.6 2.3-1s1.5-1 2.1-1.6 1-1.3 1.1-2.1v-1.9c0-.4-.1-.7-.3-1s-.5-.5-.8-.7-.7-.4-1.1-.6z"/><path d="m563 575.1c2.1 0 3.5.7 4.1 2s.8 2.8.8 4.6v2.1c0 1-.3 2.1-1 3.3s-1.5 2.3-2.4 3.3c-1 1-2 1.9-3.1 2.6s-2 1.1-2.7 1.1c-1 0-1.8-.1-2.4-.4-.7-.3-1.3-.4-1.9-.4-1.6 0-3.2.5-4.8 1.4-1.7 1-2.7 2.5-3.2 4.7-.6 1.1-.9 2.1-.8 2.9 0 .9-.1 1.7-.4 2.6-.7 1.6-1.4 3.6-2.1 6-.7 2.5-1.1 4.8-1.1 6.9 0 .2-.1.6-.2 1.1s-.2 1.1-.4 1.7c-.1.7-.3 1.4-.4 2.1v3.4l-1.6 9c.1 1 .1 2.2-.1 3.6s-.5 2.9-.8 4.7c-.4 1.8-.7 3.7-1.1 5.8s-.6 4.3-.8 6.5c0 .4.1 1.2.3 2.2s.5 1.5 1.1 1.5c.7 0 1.4-.2 2.2-.7.8-.4 1.5-1 2.3-1.7.7-.7 1.5-1.4 2.3-2.1s1.5-1.4 2.2-2c1.4-1.4 2.8-2.7 4.3-3.8s2.9-1.7 4.3-1.7l.7.9c0 .8-.2 1.8-.7 2.8-.4 1.1-1 2.2-1.7 3.3s-1.4 2.1-2.2 3.1-1.6 1.7-2.3 2.2c-1.5 1-2.7 2.3-3.6 3.8s-2.2 3-3.7 4.6c-.5 1.1-1.3 2-2.4 2.7s-2.1 1.4-3.2 1.9c-1.1.4-2.5 1-4.1 1.7s-2.9 1.1-4.1 1.1c-.8 0-1.4-.1-1.7-.4s-.5-.6-.6-1.2c-.1-.5-.1-1.2.1-2 .1-.8.2-1.8.2-3v-7.1c0-1 .2-2.1.6-3.1s.6-2 .6-3v-2.2c0 .6.1.3.2-.8s.3-2.8.6-5.1c.2-2.3.4-4.9.6-8 .1-3.1.2-6.4.2-9.8 0-.4.2-1.1.6-1.9.4-.9.6-1.5.6-2.1v-4c.4-2.1.8-4.3 1-6.3.2-2.1.4-4.1.7-6.1.2-2 .5-4 .9-6s1-4.1 1.8-6.2c.6-2 1.6-3.9 2.9-5.8 1.3-1.8 2.5-3.8 3.6-6 .5-1 1.1-1.8 1.7-2.7.6-.8 1.4-1.5 2.4-2 1-1.7 2.5-3.1 4.3-4.1s3.6-1.5 5.3-1.5z"/><path d="m596.3 575.1c2.1 0 3.5.7 4.1 2s.8 2.8.8 4.6v2.1c0 1-.3 2.1-1 3.3s-1.5 2.3-2.4 3.3c-1 1-2 1.9-3.1 2.6s-2 1.1-2.7 1.1c-1 0-1.8-.1-2.4-.4-.7-.3-1.3-.4-1.9-.4-1.6 0-3.2.5-4.8 1.4-1.7 1-2.7 2.5-3.2 4.7-.6 1.1-.9 2.1-.8 2.9 0 .9-.1 1.7-.4 2.6-.7 1.6-1.4 3.6-2.1 6-.7 2.5-1.1 4.8-1.1 6.9 0 .2-.1.6-.2 1.1s-.2 1.1-.4 1.7c-.1.7-.3 1.4-.4 2.1v3.4l-1.6 9c.1 1 .1 2.2-.1 3.6s-.5 2.9-.8 4.7c-.4 1.8-.7 3.7-1.1 5.8s-.6 4.3-.8 6.5c0 .4.1 1.2.3 2.2s.5 1.5 1.1 1.5c.7 0 1.4-.2 2.2-.7.8-.4 1.5-1 2.3-1.7.7-.7 1.5-1.4 2.3-2.1s1.5-1.4 2.2-2c1.4-1.4 2.8-2.7 4.3-3.8s2.9-1.7 4.3-1.7l.7.9c0 .8-.2 1.8-.7 2.8-.4 1.1-1 2.2-1.7 3.3s-1.4 2.1-2.2 3.1-1.6 1.7-2.3 2.2c-1.5 1-2.7 2.3-3.6 3.8s-2.2 3-3.7 4.6c-.5 1.1-1.3 2-2.4 2.7s-2.1 1.4-3.2 1.9c-1.1.4-2.5 1-4.1 1.7s-2.9 1.1-4.1 1.1c-.8 0-1.4-.1-1.7-.4s-.5-.6-.6-1.2c-.1-.5-.1-1.2.1-2 .1-.8.2-1.8.2-3v-7.1c0-1 .2-2.1.6-3.1s.6-2 .6-3v-2.2c0 .6.1.3.2-.8s.3-2.8.6-5.1c.2-2.3.4-4.9.6-8 .1-3.1.2-6.4.2-9.8 0-.4.2-1.1.6-1.9.4-.9.6-1.5.6-2.1v-4c.4-2.1.8-4.3 1-6.3.2-2.1.4-4.1.7-6.1.2-2 .5-4 .9-6s1-4.1 1.8-6.2c.6-2 1.6-3.9 2.9-5.8 1.3-1.8 2.5-3.8 3.6-6 .5-1 1.1-1.8 1.7-2.7.6-.8 1.4-1.5 2.4-2 1-1.7 2.5-3.1 4.3-4.1s3.6-1.5 5.3-1.5z"/><path d="m551.9 33.3c.5-.1.8 0 1 .2s.5.5 1.1.7c.5.3.9.6 1.3.9.4.4.5.8.5 1.3 0 .2-.1.5-.1.7-.1.6 0 1.1.1 1.6 0 .4-.1.9-.2 1.4-.2.6-.2 1-.1 1.4.1.2.2.4.4.5.1.1.3.3.4.4.2.1.3.1.4 0 .4-.1.9-.5 1.4-1.3.5-.7 1-1.6 1.5-2.5s1-1.8 1.5-2.7.9-1.5 1.3-1.8l2-.5c.3-.1.6-.1.9-.1s.6.1.8.1c.8.5 1.4 1.2 1.6 2 .2.9.4 1.5.5 2 0 .6-.2 1.4-.6 2.4-.5 1-1 1.8-1.7 2.5-.3.2-.6.3-.9.4s-.5.2-.8.3c-.2 0-.4 0-.5 0s-.3-.1-.4-.2c-.2-.1-.4-.1-.6-.2-.2 0-.4 0-.7 0-.6 0-1.1.2-1.6.7-.5.4-1 .9-1.5 1.4-.7.9-1.3 2-1.7 3.1-.4 1.2-.6 2.3-.6 3.3-.3.3-.7.7-1.1 1.2s-.7 1-1 1.6-.4 1.3-.4 1.9c0 .7-.1 1.3-.4 1.9v1.8c0 .7-.1 1.4-.2 2.1s-.3 1.5-.4 2.1c-.2.7-.4 1.3-.6 1.8-.3.2-.7.4-1.1.6s-.9.3-1.4.4-1.1.2-1.7.3c-.2 0-.5-.2-.9-.5-.2-.2-.3-.4-.5-.5l-.9-1.8c0-.3 0-.8.1-1.6.1-.7.3-1.5.5-2.3s.3-1.5.5-2.1.2-1 .2-1.1c1-1.5 1.6-3 1.9-4.6s.6-3.2 1-4.8l-.5-4.4c-.2-.6-.5-.9-.8-.9s-.7 0-1 .1c-.7.1-1.2.3-1.5.6-.3.2-.6.5-.8.8s-.5.5-.7.8c-.3.2-.7.4-1.4.5-.4 0-.6-.2-.7-.7-.1-.4-.2-.8-.3-1.2s0-.8.2-1.2.5-.7.9-1.1c.4-.3.8-.7 1.3-1s.9-.7 1.3-1c.5-.6 1-1.2 1.4-1.9s.8-1.3 1.2-1.9.8-1.1 1.4-1.5c.2-.1.9-.3 1.7-.4z"/><path d="m577.6 33.7c.6 0 1.4 0 2.3.1.9 0 1.7.2 2.3.5.7 0 1.1.3 1.3.8s.5 1.1.8 1.8c.2.2.4.4.6.7s.5.6.7 1c.2.3.4.7.5 1 .1.4.2.7.2.9l-.5 5.9c0 1.2-.3 2.6-.8 4.1s-1.3 2.8-2.3 4c-.4.4-.6.7-.8 1.2-.2.4-.3.8-.5 1.3-.2.4-.3.9-.5 1.4s-.5.9-.8 1.4c-.3.3-.6.7-.9 1.1s-.7.9-1.1 1.4-.8.9-1.2 1.3-.8.6-1.3.8c-.7.4-1.2.7-1.6.9-.4.3-.8.5-1.2.7s-.7.3-1.1.4-.8.1-1.2.1c-.7 0-1.3-.2-1.8-.5-.6-.3-1.1-.7-1.5-1.2s-.8-1.1-1-1.7c-.3-.6-.4-1.3-.4-1.9v-4.4c0-.3-.1-.5-.3-.7s-.3-.8-.3-1.8c0-1.3.3-2.8.9-4.6.7-1.8 1.4-3.6 2.3-5.3s1.8-3.3 2.7-4.6 1.6-2.2 2.1-2.5.9-.6 1.2-1 .6-.7 1-1c.3-.3.6-.6 1-.8.3-.7.7-.8 1.2-.8zm.3 7.5c-.7 0-1.4.3-2.1.9s-1.4 1.3-2 2c-.6.8-1.2 1.5-1.6 2.3-.5.8-.8 1.3-1 1.7l-.7 2.5c-.2.6-.3 1.2-.4 1.8s-.2.9-.2 1.1v1.3c.2.1.3.4.5.8s.3.8.5 1.2.4.7.7 1.1c.3.3.6.5 1.1.5.9-.4 1.7-.8 2.4-1.2.6-.4 1.2-.7 1.8-1.1s1-.8 1.2-1.2c.3-.6.6-1.3.9-2.2.3-.8.6-1.6 1-2.4-.1-.4 0-.7.3-1.1s.4-.7.4-1v-1.8c0-.2-.1-.6-.2-1.2-.1-.5-.3-1.1-.5-1.7s-.5-1.1-.9-1.6c-.3-.5-.7-.7-1.2-.7z"/><path d="m610.4 7.2c1.3 0 2.1.4 2.4 1.2s.5 1.7.5 2.7v1.3c0 .6-.2 1.3-.6 2s-.9 1.4-1.5 1.9c-.6.6-1.2 1.1-1.8 1.5s-1.2.6-1.6.6c-.6 0-1.1-.1-1.5-.3s-.8-.3-1.1-.3c-.9 0-1.9.3-2.9.9s-1.6 1.5-1.9 2.8c-.4.7-.5 1.2-.5 1.7s-.1 1-.2 1.6c-.4.9-.8 2.1-1.2 3.6s-.6 2.8-.6 4.1c0 .1 0 .4-.1.7s-.1.6-.2 1-.2.8-.3 1.3v2l-.9 5.3c.1.6.1 1.3 0 2.1s-.3 1.7-.5 2.8-.4 2.2-.7 3.4c-.2 1.2-.4 2.5-.5 3.9 0 .3.1.7.2 1.3s.3.9.6.9c.4 0 .8-.1 1.3-.4s.9-.6 1.4-1c.4-.4.9-.8 1.4-1.3.5-.4.9-.8 1.3-1.2.8-.8 1.7-1.6 2.6-2.3s1.7-1 2.6-1l.4.5c0 .5-.1 1-.4 1.7-.3.6-.6 1.3-1 1.9-.4.7-.8 1.3-1.3 1.8-.5.6-.9 1-1.4 1.3-.9.6-1.6 1.4-2.1 2.2-.6.9-1.3 1.8-2.2 2.7-.3.7-.8 1.2-1.4 1.6s-1.3.8-1.9 1.2c-.7.3-1.5.6-2.4 1s-1.7.6-2.4.6c-.5 0-.8-.1-1-.2-.2-.2-.3-.4-.4-.7 0-.3 0-.7 0-1.2.1-.5.1-1.1.1-1.8v-4.2c0-.6.1-1.2.4-1.8.2-.6.4-1.2.4-1.8v-1.3c0 .4 0 .2.1-.5s.2-1.7.3-3 .2-2.9.3-4.8c.1-1.8.1-3.8.1-5.8 0-.3.1-.6.4-1.2.2-.5.4-.9.4-1.2v-2c.3-1.3.5-2.5.6-3.8.1-1.2.3-2.4.4-3.6s.3-2.4.5-3.6.6-2.4 1.1-3.7c.4-1.2.9-2.3 1.7-3.4s1.5-2.3 2.1-3.6c.3-.6.6-1.1 1-1.6s.8-.9 1.4-1.2c.6-1 1.5-1.8 2.5-2.4 1.1-.6 2.1-.9 3.1-.9z"/><path d="m620.1 33.7c.9 0 1.7.2 2.3.5s1.2.8 1.6 1.4.7 1.2.9 2c.2.7.2 1.5.2 2.4 0 1.2-.4 2.1-1.3 2.9-.9.7-1.8 1.4-2.7 1.9-.8.6-1.7 1.1-2.7 1.5-.9.4-1.8.9-2.6 1.5-.8.5-1.5 1.1-2 1.8-.6.7-.8 1.6-.9 2.7v2.7c-.1.7.1 1.5.5 2.2s.9 1.1 1.5 1.1c0 0 .2 0 .5-.2s.6-.4 1-.6.7-.5 1.1-.8.6-.5.8-.6c.7-.3 1.2-.6 1.6-.8s.6-.3.8-.2c.3 0 .6 0 .8.1s.3.4.3 1c-.1 1-.5 1.9-1.3 2.8-.7.9-1.6 1.7-2.4 2.5-.9.8-1.7 1.4-2.6 2-.8.6-1.4 1-1.7 1.3-.7.7-1.4 1-2.1 1.1-.6 0-1.3.1-1.9.1-.4 0-.8-.2-1.2-.5s-.8-.7-1.1-1.1-.6-.8-.8-1.3c-.2-.4-.2-.8-.2-1.1v-1.1c0-.3-.1-.6-.3-1-.1-.2-.2-.3-.3-.5l.2-1.3v-1.1c0-.2 0-.6.1-1.4s.2-1.6.3-2.5.3-1.8.4-2.6.2-1.4.2-1.6c.2-.1.3-.3.3-.4s0-.3-.1-.4c0-.1-.1-.3-.1-.5s.1-.4.3-.7c0-.5.1-1.1.3-1.6.1-.3.3-.6.4-.9l.9-2.2c.1-1 .5-2 1.4-3 .8-1 1.8-2 2.9-2.8s2.3-1.5 3.5-2c1.4-.6 2.4-.8 3.2-.7zm-3 4.9c-.2 0-.4.2-.7.5-.2.3-.4.7-.7 1.1-.2.5-.4 1-.7 1.5 0 .2-.1.5-.2.8s-.2.6-.2.8 0 .4.1.6.3.2.5.2.5 0 1-.1c.4-.1.9-.3 1.4-.6s.9-.6 1.3-1 .6-.8.6-1.2v-1.1c0-.2-.1-.4-.2-.6s-.3-.3-.5-.4-.4-.2-.7-.3z"/></svg>