<?xml version="1.0" standalone="no"?>
<!DOCTYPE svg PUBLIC "-//W3C//DTD SVG 20010904//EN"
 "http://www.w3.org/TR/2001/REC-SVG-20010904/DTD/svg10.dtd">
<svg version="1.0" xmlns="http://www.w3.org/2000/svg"
 width="1216.000000pt" height="1216.000000pt" viewBox="0 0 1216.000000 1216.000000"
 preserveAspectRatio="xMidYMid meet">
<metadata>
Created by potrace 1.11, written by Peter Selinger 2001-2013
</metadata>
<g transform="translate(0.000000,1216.000000) scale(0.100000,-0.100000)"
fill="#000000" stroke="none">
<path d="M697 10574 c-1 -1 -45 -5 -97 -8 -52 -4 -108 -8 -125 -10 -16 -2 -63
-7 -104 -11 -70 -6 -121 -19 -121 -29 0 -3 -13 -56 -29 -118 -16 -62 -28 -124
-26 -138 2 -14 6 -41 10 -60 3 -19 7 -55 9 -80 3 -25 6 -50 7 -55 2 -9 -4 -51
-17 -120 -2 -11 -6 -31 -9 -45 -13 -71 -23 -744 -15 -975 1 -33 1 -109 0 -170
0 -60 1 -119 3 -130 17 -74 27 -195 18 -210 -3 -5 -6 -21 -6 -35 -1 -14 -5
-54 -10 -90 -5 -36 -8 -67 -8 -70 1 -3 4 -25 7 -50 9 -64 16 -102 22 -112 3
-4 0 -8 -6 -8 -7 0 -8 -5 -3 -12 4 -7 9 -85 10 -173 2 -144 10 -360 13 -360 1
0 3 -25 5 -55 7 -84 12 -111 21 -120 5 -4 48 -26 95 -48 71 -33 94 -39 140
-36 61 3 172 12 239 20 25 3 61 7 80 9 19 1 37 4 40 5 3 1 10 1 15 0 14 -3
176 -13 200 -12 33 1 96 11 160 25 72 16 70 2 19 192 -3 11 -7 106 -9 210 -2
105 -6 206 -8 225 -21 145 -27 351 -13 450 16 106 20 306 10 385 -10 73 -10
324 0 350 6 18 7 18 20 -1 7 -10 23 -55 35 -99 12 -44 26 -91 31 -105 4 -14
13 -45 20 -70 7 -25 16 -56 21 -70 5 -14 11 -36 13 -50 3 -14 10 -45 17 -70 6
-25 13 -54 15 -65 11 -43 13 -50 14 -50 1 0 3 -9 4 -20 6 -39 67 -260 83 -295
8 -19 39 -84 68 -145 31 -64 65 -154 80 -215 24 -94 44 -151 118 -340 12 -30
23 -63 24 -74 2 -10 10 -33 17 -50 8 -17 17 -41 21 -53 6 -22 21 -30 70 -39
14 -2 37 -6 53 -9 64 -13 111 -17 172 -15 85 3 175 8 175 10 0 1 20 3 45 5
112 7 206 16 222 21 15 4 77 115 84 149 1 6 10 28 20 50 10 22 18 42 19 45 1
3 4 12 7 20 3 8 18 51 32 95 29 86 28 84 79 195 65 141 79 172 83 189 4 17 23
90 28 106 15 51 25 95 29 120 3 17 10 53 17 80 6 28 14 61 16 75 3 14 7 32 10
40 3 8 8 24 10 36 2 11 13 50 25 85 11 35 22 71 24 80 2 9 26 77 54 152 28 74
51 138 51 142 0 4 6 21 14 38 7 18 19 47 26 65 7 18 15 30 19 27 3 -4 6 -61 7
-128 1 -114 6 -169 21 -242 3 -16 5 -66 3 -110 -1 -44 -3 -106 -3 -137 -1 -32
-4 -58 -7 -58 -3 0 -6 -127 -6 -282 0 -320 -7 -568 -14 -568 -3 0 -5 -16 -4
-35 1 -19 -3 -61 -7 -92 -5 -32 -11 -74 -14 -94 l-5 -37 48 -7 c26 -4 58 -9
72 -12 14 -2 60 -5 103 -7 43 -2 81 -7 84 -10 3 -3 13 -1 23 4 10 5 20 7 23 4
3 -3 30 -8 59 -9 72 -5 134 -13 192 -25 65 -13 270 -1 301 18 5 3 16 7 25 9 8
1 27 4 42 7 14 2 39 10 55 18 32 15 30 5 36 199 2 75 7 141 11 147 3 6 2 13
-4 17 -6 4 -8 11 -4 16 3 6 7 31 9 57 7 87 16 187 20 217 5 38 18 255 17 275
-1 8 -5 42 -10 76 -9 66 -8 194 2 234 14 55 25 141 20 162 -5 30 -21 122 -29
173 -4 22 -6 65 -5 95 5 114 1 920 -4 1025 -6 125 -10 157 -20 173 -4 7 -2 12
4 12 6 0 8 4 5 10 -6 9 -9 38 -20 165 -2 22 -4 40 -5 40 0 0 -3 24 -6 54 -2
29 -6 57 -9 61 -4 6 -87 10 -220 9 -27 0 -54 0 -60 0 -5 1 -48 3 -95 6 -86 4
-118 8 -180 20 -19 4 -46 8 -60 10 -14 3 -36 7 -50 10 -39 9 -306 4 -455 -9
-64 -5 -261 -19 -299 -20 -34 -2 -41 -17 -49 -97 -7 -62 -24 -147 -34 -163 -4
-5 -8 -21 -9 -35 -2 -13 -7 -27 -11 -30 -12 -8 -78 -209 -102 -307 -10 -44
-21 -86 -24 -94 -3 -8 -8 -34 -11 -58 -3 -24 -11 -62 -17 -85 -7 -23 -14 -46
-15 -52 -1 -5 -15 -50 -29 -100 -15 -49 -28 -97 -30 -105 -18 -91 -128 -426
-168 -510 -21 -45 -23 -52 -26 -70 -5 -38 -40 34 -54 110 -7 35 -36 105 -70
170 -58 107 -68 132 -83 198 -19 82 -57 188 -95 262 -15 30 -30 67 -34 83 -10
51 -13 72 -25 147 -11 74 -16 88 -70 205 -27 59 -51 126 -56 154 -2 8 -6 26
-10 40 -4 14 -8 33 -8 41 -1 8 -5 21 -9 28 -5 6 -6 12 -3 12 3 0 -4 21 -15 48
-32 72 -42 97 -44 102 -10 33 -42 80 -59 84 -29 7 -28 7 -56 18 -14 5 -33 12
-42 14 -10 2 -28 7 -40 11 -33 9 -103 9 -183 -1 -119 -15 -146 -14 -234 4 -61
13 -126 18 -229 17 -78 -1 -144 -2 -145 -3z"/>
<path d="M7255 10560 c-101 -21 -125 -23 -195 -21 -280 7 -392 2 -580 -24 -14
-1 -34 -3 -45 -4 -33 -2 -131 -174 -177 -310 -46 -139 -45 -133 -48 -146 -27
-89 -71 -195 -121 -291 -120 -228 -148 -287 -180 -373 -17 -47 -32 -90 -33
-96 -4 -14 -10 -31 -84 -220 -37 -93 -67 -172 -68 -175 0 -3 -6 -17 -12 -32
-7 -16 -17 -40 -24 -55 -6 -16 -12 -30 -13 -33 -7 -21 -20 -46 -27 -50 -4 -3
-9 -15 -11 -25 -2 -11 -9 -31 -17 -45 -8 -14 -15 -27 -16 -30 0 -3 -4 -13 -7
-22 -23 -60 -24 -63 -32 -102 -3 -16 -12 -44 -20 -62 -8 -19 -12 -34 -10 -34
7 0 -87 -249 -130 -345 -22 -49 -50 -129 -47 -137 1 -5 -3 -8 -10 -8 -6 0 -9
-3 -5 -6 3 -3 -6 -36 -20 -72 -13 -37 -40 -110 -58 -162 -18 -52 -45 -126 -60
-165 -15 -38 -28 -74 -30 -80 -1 -5 -6 -19 -10 -30 -30 -75 -45 -118 -42 -122
5 -4 39 -11 84 -17 18 -3 38 -8 44 -12 24 -14 89 -17 389 -17 380 1 644 13
660 30 17 18 116 345 136 446 7 37 20 41 76 24 63 -19 133 -31 168 -30 14 0
77 4 140 8 112 7 243 8 405 4 80 -2 123 3 181 19 65 20 73 14 110 -77 19 -47
34 -91 34 -98 0 -7 5 -13 10 -13 6 0 10 -10 10 -22 0 -12 4 -35 9 -52 5 -17
15 -51 22 -76 33 -127 38 -138 67 -138 29 1 263 -11 347 -17 110 -8 311 -18
330 -17 11 1 64 3 118 6 115 5 277 20 285 26 4 4 21 7 43 9 17 1 19 6 14 34
-16 83 -19 104 -19 125 -1 12 -5 22 -9 22 -4 0 -7 6 -5 13 3 18 -10 52 -62
162 -27 55 -60 147 -75 205 -15 58 -43 138 -62 179 -19 41 -37 84 -39 95 -2
12 -8 22 -14 24 -5 2 -10 9 -10 16 0 7 -8 39 -18 72 -11 32 -27 86 -36 119 -9
33 -21 69 -26 80 -13 27 -100 253 -100 259 0 2 -7 21 -16 42 -9 22 -16 41 -16
44 0 3 -4 11 -10 18 -6 6 -8 12 -5 12 3 0 0 12 -8 27 -8 15 -12 30 -9 35 3 4
0 8 -5 8 -6 0 -11 5 -11 11 0 33 -174 419 -192 427 -5 2 -8 12 -8 23 0 10 -4
19 -10 19 -5 0 -10 9 -10 20 0 11 -4 20 -10 20 -5 0 -10 5 -10 10 0 6 -8 29
-18 53 -11 23 -24 60 -31 82 -7 22 -16 49 -21 60 -5 11 -17 45 -28 75 -11 30
-33 80 -49 110 -15 30 -34 75 -42 100 -8 25 -20 63 -26 85 -7 22 -18 60 -25
84 -6 23 -32 86 -57 140 -26 53 -46 99 -45 104 1 4 -2 7 -8 7 -6 0 -9 3 -7 8
1 4 -20 53 -47 109 -47 98 -69 123 -113 127 -10 2 -29 5 -43 9 -80 22 -145 27
-195 17z m-279 -1222 c4 -18 7 -36 6 -40 -1 -5 3 -8 8 -8 6 0 9 -3 8 -7 -1 -5
4 -21 10 -36 7 -16 12 -34 12 -41 0 -7 3 -16 8 -20 4 -4 7 -11 8 -14 0 -4 6
-20 13 -37 23 -52 71 -206 77 -243 6 -38 9 -49 24 -107 13 -48 15 -54 24 -80
5 -11 14 -37 22 -59 8 -21 13 -40 10 -43 -12 -12 -340 -22 -441 -13 -60 5 -60
5 -56 35 2 17 5 42 5 58 1 15 3 27 6 27 3 0 6 19 7 41 2 38 19 93 64 194 19
44 79 211 84 235 7 33 78 190 85 190 5 0 12 -15 16 -32z"/>
<path d="M9550 10558 c-14 -5 -36 -11 -50 -13 -14 -2 -25 -4 -25 -5 0 -1 -11
-3 -24 -6 -35 -6 -48 -20 -55 -57 -3 -18 -9 -43 -12 -57 -21 -95 -41 -603 -25
-624 5 -6 14 -36 22 -66 7 -30 16 -59 21 -65 4 -5 8 -17 8 -26 0 -16 8 -17 63
-12 82 8 165 8 322 0 72 -4 177 -10 235 -13 164 -9 155 -7 153 -29 -6 -65 -16
-188 -18 -236 -1 -31 -5 -60 -8 -66 -3 -5 -2 -15 3 -23 5 -8 5 -21 1 -29 -9
-20 -8 -192 2 -208 4 -6 3 -14 -3 -18 -6 -3 -7 -14 -2 -23 8 -18 7 -48 -3
-172 -8 -99 -6 -185 5 -185 1 0 3 -11 5 -25 1 -14 9 -51 18 -82 8 -31 14 -58
12 -60 -7 -8 -18 -173 -17 -253 1 -96 1 -292 0 -440 -1 -49 2 -128 6 -175 5
-47 9 -128 10 -180 2 -98 9 -125 31 -116 7 2 16 2 19 -2 4 -3 14 -7 24 -7 9
-1 42 -6 72 -10 30 -4 109 -9 175 -11 66 -2 138 -5 160 -8 79 -10 120 -16 142
-20 12 -3 37 -1 55 4 61 17 162 32 303 46 33 3 63 9 68 13 4 4 10 32 13 62 3
30 7 72 10 94 6 54 1 262 -7 285 -1 3 -1 8 0 12 3 23 12 75 16 88 29 104 34
264 20 640 -8 200 -9 373 -4 675 2 152 -4 242 -26 401 l-7 51 63 2 c35 2 138
4 229 6 91 2 198 6 238 9 42 4 100 2 135 -5 101 -18 134 -20 135 -6 0 6 3 23
6 37 14 65 26 657 15 797 -3 51 -7 63 -21 64 -10 1 -21 2 -25 3 -5 2 -30 6
-58 11 -27 4 -59 10 -70 12 -11 3 -87 7 -170 8 -82 2 -170 6 -195 10 -54 9
-503 12 -577 4 -29 -3 -53 -1 -53 4 0 4 -5 5 -11 1 -20 -12 -395 -18 -504 -8
-70 6 -108 6 -262 -1 -68 -3 -114 -1 -118 5 -4 7 -13 7 -24 0 -10 -5 -21 -7
-24 -3 -11 10 -391 12 -417 1z"/>
<path d="M10077 5073 c-2 -1 -66 -4 -144 -6 -77 -3 -145 -7 -150 -10 -5 -3
-15 -2 -23 3 -7 4 -24 4 -36 0 -14 -6 -26 -5 -29 0 -3 5 -11 7 -18 5 -7 -2
-28 -6 -47 -9 -19 -3 -78 -17 -130 -31 -52 -14 -102 -28 -110 -30 -8 -2 -15
-4 -15 -5 0 -1 -7 -3 -15 -5 -148 -30 -389 -138 -450 -200 -111 -114 -195
-189 -270 -240 -36 -24 -72 -54 -80 -65 -8 -12 -22 -30 -31 -40 -8 -10 -24
-35 -34 -54 -11 -20 -23 -36 -27 -36 -5 0 -8 -6 -8 -14 0 -7 -6 -19 -14 -25
-8 -7 -18 -27 -22 -44 -3 -18 -9 -36 -12 -42 -4 -5 -8 -20 -10 -33 -1 -12 -16
-62 -32 -110 -17 -48 -32 -94 -34 -102 -3 -8 -17 -44 -32 -80 l-27 -65 -4
-305 c-2 -168 -5 -336 -6 -375 -1 -38 1 -88 5 -110 3 -22 13 -89 22 -150 19
-121 19 -122 36 -213 12 -69 28 -112 42 -112 4 0 8 -7 8 -16 0 -18 30 -75 45
-86 7 -5 7 -8 0 -8 -7 0 -7 -3 0 -8 6 -4 28 -43 50 -87 22 -44 43 -81 48 -83
4 -2 7 -10 7 -17 0 -13 83 -130 114 -160 7 -7 23 -26 37 -42 13 -15 45 -44 72
-62 26 -19 47 -39 47 -44 0 -6 3 -8 6 -4 5 5 179 -118 212 -150 7 -7 17 -13
21 -13 4 0 16 -8 27 -18 18 -17 87 -54 109 -58 47 -10 66 -15 110 -28 28 -8
64 -18 80 -21 39 -8 60 -13 60 -15 0 -1 7 -3 15 -5 8 -2 35 -8 60 -14 25 -7
56 -14 70 -16 14 -3 43 -9 65 -14 149 -36 187 -43 200 -38 8 4 17 2 20 -2 3
-5 21 -5 40 -1 19 4 35 6 35 3 0 -3 6 0 13 6 8 6 16 8 19 6 3 -3 27 -1 54 6
27 6 162 12 304 14 140 1 255 3 255 4 0 2 13 4 28 6 99 13 266 66 275 87 2 4
8 8 13 8 6 0 56 22 112 50 56 27 129 60 163 72 36 13 84 43 115 70 30 26 65
56 79 68 156 131 280 258 325 332 21 35 41 65 44 68 4 3 17 28 31 55 14 28 28
52 33 53 4 2 7 8 7 13 0 6 11 34 24 62 22 46 34 86 52 165 2 12 14 61 25 108
11 48 18 92 15 99 -2 7 -1 16 4 21 5 5 11 25 13 44 2 20 6 41 10 47 7 11 2
216 -9 368 -8 123 -14 199 -15 210 -1 10 0 124 1 175 0 31 -15 78 -52 160 -17
36 -47 109 -69 162 -68 170 -101 233 -183 338 -101 131 -189 218 -288 285 -40
27 -76 54 -80 60 -4 5 -8 6 -8 2 0 -4 -12 4 -27 18 -15 14 -31 25 -36 25 -4 0
-19 10 -32 23 -39 36 -54 47 -63 47 -5 0 -15 7 -22 15 -22 26 -242 87 -365
100 -80 8 -119 13 -153 20 -136 28 -226 38 -335 39 -70 1 -129 1 -130 -1z m-2
-1036 c61 0 144 3 185 7 74 7 76 7 150 -31 98 -51 141 -85 219 -178 50 -60
105 -202 117 -304 3 -25 7 -57 9 -71 15 -96 14 -115 -9 -227 -14 -65 -34 -147
-45 -182 -12 -35 -21 -67 -21 -71 0 -12 -48 -111 -73 -151 -12 -19 -33 -54
-46 -76 -17 -30 -36 -45 -75 -62 -28 -11 -56 -21 -61 -21 -6 0 -27 -9 -48 -20
-47 -25 -120 -35 -262 -35 -129 0 -227 10 -255 25 -11 6 -20 9 -20 6 0 -2 -27
9 -60 25 -33 16 -64 29 -69 29 -14 0 -81 66 -81 79 0 6 -3 11 -8 11 -4 0 -12
8 -17 18 -31 58 -77 156 -101 215 -26 66 -30 90 -38 222 -2 33 -5 65 -6 70 -1
6 -2 12 -1 15 1 3 4 53 6 111 3 99 7 114 45 205 42 97 120 224 163 264 30 29
154 110 167 110 5 0 10 4 10 9 0 13 28 18 75 13 22 -3 90 -5 150 -5z"/>
<path d="M2827 4984 c-6 -6 -154 -14 -362 -19 -216 -5 -321 -35 -332 -95 -11
-64 -15 -117 -14 -190 2 -109 1 -460 0 -480 -1 -8 2 -71 5 -140 4 -69 8 -174
11 -235 3 -60 7 -152 11 -203 3 -63 0 -123 -10 -185 -9 -51 -16 -104 -16 -117
1 -14 -2 -137 -5 -274 -4 -206 -8 -252 -20 -265 -22 -23 -61 -69 -98 -118 -40
-53 -49 -56 -202 -70 -90 -8 -121 -8 -250 0 l-89 6 -41 44 c-147 159 -143 149
-149 369 0 32 -3 58 -6 58 -13 0 -18 265 -7 335 3 22 9 63 12 90 7 62 7 354 1
415 -3 25 -8 74 -11 110 -3 36 -7 90 -10 120 -7 70 -7 60 1 170 4 52 8 112 8
132 1 21 3 38 6 38 4 0 5 351 1 421 -1 19 -85 37 -256 55 -154 16 -530 19
-530 4 0 0 -16 -3 -35 -5 -33 -3 -61 -8 -120 -19 -14 -3 -41 -8 -60 -10 -82
-13 -94 -20 -107 -65 -30 -104 -35 -243 -11 -286 6 -12 4 -109 -6 -250 -8
-114 -14 -209 -21 -345 -3 -52 -7 -116 -9 -142 -3 -26 0 -50 5 -54 5 -3 7 -9
5 -13 -3 -4 -1 -25 4 -47 23 -105 25 -136 14 -214 -8 -59 -8 -181 1 -250 5
-36 9 -144 10 -240 2 -240 6 -332 15 -350 5 -8 10 -28 13 -45 3 -16 7 -37 10
-45 3 -8 8 -33 11 -55 8 -63 45 -161 156 -410 12 -27 27 -61 33 -74 20 -42
179 -195 257 -249 69 -48 226 -132 253 -136 7 -1 18 -5 24 -9 7 -5 21 -10 30
-12 10 -2 54 -13 98 -25 44 -11 94 -23 110 -25 17 -3 53 -10 80 -15 96 -18
111 -20 205 -26 87 -6 208 -8 220 -4 3 0 70 3 150 5 126 4 195 9 195 15 0 2
18 5 75 14 19 3 49 9 65 12 17 4 41 7 55 8 14 1 27 4 30 7 3 4 23 9 45 12 22
3 47 8 55 11 8 3 26 8 40 10 14 3 54 12 90 21 36 9 70 18 75 19 88 22 123 46
245 166 59 58 152 164 178 202 9 13 21 28 27 34 16 17 110 146 111 153 0 8 37
131 69 231 58 186 66 215 66 229 -3 64 -1 253 3 281 2 19 10 58 17 85 6 28 13
146 15 265 2 118 5 229 7 245 2 17 0 50 -4 75 -18 116 -23 187 -23 335 -1 162
5 270 28 478 2 14 -3 62 -10 108 -13 80 -23 186 -28 291 -3 53 -6 58 -33 63
-10 2 -19 4 -20 5 -2 2 -6 3 -10 4 -5 1 -30 7 -58 14 -27 6 -63 14 -80 17 -29
6 -45 8 -140 19 -25 3 -50 8 -54 11 -5 2 -11 2 -14 -1z"/>
<path d="M4905 4982 c-3 -3 -21 -7 -40 -9 -55 -5 -110 -11 -110 -13 0 -1 -27
-3 -60 -5 -33 -2 -73 -6 -90 -9 -16 -3 -48 -8 -70 -12 -22 -3 -42 -8 -44 -10
-2 -2 -5 -120 -6 -261 -1 -142 -3 -258 -4 -258 -2 0 -3 -31 -3 -70 -1 -65 4
-112 18 -175 3 -14 8 -38 11 -55 6 -34 17 -44 53 -46 14 -1 41 -3 60 -5 54 -5
172 -5 196 0 36 8 203 18 345 21 76 2 141 5 146 7 4 2 42 3 83 2 68 -2 116 -9
220 -32 l34 -8 -20 -19 c-12 -11 -50 -47 -85 -81 -104 -99 -213 -231 -276
-334 -12 -20 -31 -47 -42 -60 -27 -32 -30 -36 -71 -95 -19 -28 -40 -56 -46
-62 -7 -7 -14 -16 -16 -20 -1 -5 -18 -20 -36 -35 -19 -16 -32 -28 -29 -28 2 0
-16 -20 -41 -45 -24 -25 -49 -45 -53 -45 -5 0 -9 -3 -9 -7 0 -5 -16 -26 -36
-48 -19 -22 -48 -55 -62 -74 -15 -18 -38 -45 -52 -61 -51 -56 -78 -88 -185
-215 -60 -71 -112 -132 -116 -135 -8 -6 -16 -53 -24 -145 -3 -33 -7 -76 -10
-95 -21 -195 -25 -281 -14 -329 4 -20 10 -54 13 -76 3 -22 8 -51 11 -65 4 -22
11 -67 19 -125 12 -75 18 -110 22 -116 3 -6 58 -21 89 -24 6 -1 24 -4 40 -8
42 -10 124 -19 160 -17 48 3 83 2 205 -6 165 -10 306 -6 425 11 138 20 185 22
240 10 58 -12 101 -16 190 -14 96 1 362 0 715 -2 118 -1 240 1 270 5 30 4 76
9 103 11 26 2 51 6 55 9 8 4 86 18 110 19 17 0 28 28 36 92 4 28 9 68 12 90 2
22 7 53 11 70 3 16 7 47 9 70 2 22 6 51 9 65 7 32 7 105 0 150 -3 19 -7 57
-10 84 -3 27 -7 56 -9 65 -3 9 -8 43 -12 76 -9 76 -12 99 -14 103 -4 4 -7 21
-9 41 -1 18 -9 19 -83 17 -46 -1 -89 -5 -95 -9 -8 -5 -13 -3 -13 3 0 6 -4 9
-8 6 -5 -3 -30 -7 -58 -11 -27 -3 -69 -9 -94 -13 -56 -9 -132 -8 -230 2 -218
22 -302 26 -321 15 -11 -5 -19 -6 -19 -1 0 5 -28 3 -62 -5 -68 -16 -140 -13
-298 11 -14 2 -27 4 -28 5 -11 3 100 128 246 276 92 94 196 204 232 244 36 41
70 79 76 85 9 9 120 148 157 196 7 8 28 35 47 60 19 25 38 50 43 55 4 6 17 22
30 36 12 14 42 49 67 79 25 29 50 58 55 64 6 6 51 56 100 111 50 55 95 105
102 110 6 6 38 57 71 115 53 92 62 117 76 200 8 52 15 134 15 183 0 48 2 91 5
95 2 4 7 48 10 96 3 49 8 91 11 94 3 3 1 10 -3 16 -5 6 -19 46 -32 88 -23 76
-31 85 -77 94 -30 5 -71 14 -108 22 -41 9 -100 8 -165 -3 -60 -9 -300 -13
-305 -5 -4 6 -78 4 -205 -6 -47 -3 -98 -6 -115 -6 -39 0 -160 10 -160 12 0 10
-324 16 -520 9 -44 -1 -116 1 -160 5 -100 10 -382 16 -390 8z"/>
</g>
</svg>
