<svg id="hashtag_a11yto_logo" class="branding-logo" xmlns="http://www.w3.org/2000/svg" viewBox="0 0 451.3 175.2" xml:space="preserve" aria-labelledby="logo" role="img">
  <title id="logo">#a11yto logo</title>
  <path id="askew_rectangle" transform="rotate(-4.02 225.636 87.583) scale(.99996)" d="M4.5 15.3h442.2v144.5H4.5z"></path>
  <g id="hashtag_a11yto">
    <path style="fill:#fff" d="M30.6 98.1v-9h9.5l1.8-12.4h-8.3v-9h9.5l2.8-19.8h9.7l-2.8 19.8h9.7l2.7-19.8h9.7l-2.7 19.8h7.4v9h-8.7l-1.7 12.4h7.4v9h-8.7l-2.7 19.8h-9.7l2.7-19.8h-9.6l-2.8 19.8h-9.7l2.8-19.8h-8.3zm19.2-9h9.7l1.7-12.4h-9.6l-1.8 12.4zM85.4 82.1c.2-3.3 1-6.1 2.5-8.3 1.5-2.2 3.3-4 5.6-5.3 2.3-1.3 4.8-2.3 7.6-2.9 2.8-.6 5.7-.9 8.5-.9 2.6 0 5.2.2 7.9.6 2.7.4 5.1 1.1 7.3 2.1 2.2 1.1 4 2.5 5.4 4.4 1.4 1.9 2.1 4.4 2.1 7.6v26.9c0 2.3.1 4.6.4 6.7.3 2.1.7 3.7 1.4 4.8h-14.4c-.3-.8-.5-1.6-.7-2.5-.2-.8-.3-1.7-.3-2.5-2.3 2.3-4.9 4-8 4.9-3.1.9-6.2 1.4-9.4 1.4-2.5 0-4.8-.3-6.9-.9-2.1-.6-4-1.5-5.6-2.8-1.6-1.3-2.8-2.9-3.8-4.8-.9-1.9-1.3-4.2-1.3-6.9 0-2.9.5-5.4 1.5-7.2 1-1.9 2.4-3.4 4-4.5s3.5-2 5.6-2.6c2.1-.6 4.2-1 6.4-1.3 2.1-.3 4.2-.6 6.3-.8 2.1-.2 3.9-.5 5.5-.9s2.9-1 3.8-1.8c.9-.8 1.4-1.9 1.3-3.4 0-1.5-.2-2.8-.8-3.6s-1.2-1.6-2-2.1-1.8-.8-2.9-1c-1.1-.2-2.3-.2-3.5-.2-2.8 0-5 .6-6.6 1.8-1.6 1.2-2.5 3.2-2.8 6H85.4zm32.8 10.5c-.6.5-1.3.9-2.2 1.2-.9.3-1.9.5-2.9.8-1 .2-2.1.4-3.2.5-1.1.1-2.3.3-3.4.5s-2.1.5-3.1.8c-1 .3-1.9.8-2.7 1.4-.8.6-1.4 1.3-1.9 2.1-.5.9-.7 2-.7 3.3 0 1.3.2 2.3.7 3.2.5.9 1.1 1.5 1.9 2s1.7.9 2.8 1.1c1.1.2 2.2.3 3.3.3 2.8 0 5-.5 6.5-1.4 1.5-.9 2.7-2 3.4-3.4.7-1.3 1.2-2.6 1.3-3.9.2-1.3.2-2.4.2-3.2v-5.3zM157.8 117.9V72.5h-17.6V61.8c2.5.1 4.9-.1 7.2-.5s4.4-1.2 6.2-2.3c1.8-1.1 3.4-2.5 4.6-4.3 1.3-1.8 2.1-4 2.5-6.7H172v70h-14.2zM202.7 117.9V72.5h-17.6V61.8c2.5.1 4.9-.1 7.2-.5s4.4-1.2 6.2-2.3c1.8-1.1 3.4-2.5 4.6-4.3 1.3-1.8 2.1-4 2.5-6.7h11.3v70h-14.2zM251.6 133.3c-2.7 1.8-6.5 2.7-11.4 2.7-1.5 0-2.9-.1-4.4-.1-1.4-.1-2.9-.2-4.4-.4v-11.7c1.3.1 2.7.3 4.1.4 1.4.1 2.8.2 4.2.1 1.9-.2 3.2-.9 4.2-2.2.9-1.3 1.3-2.7 1.3-4.2 0-1.1-.2-2.2-.6-3.2l-18.1-48.5h15.1l11.7 35.4h.2l11.3-35.4h14.7L258 124.3c-1.6 4.2-3.7 7.2-6.4 9zM290.6 59.7V46.5h58.5v13.2h-21.4v58.2H312V59.7h-21.4zM353.8 67.6c1.6-4.6 3.9-8.5 6.9-12 3-3.4 6.7-6.1 11.1-8 4.4-1.9 9.3-2.9 14.8-2.9s10.5 1 14.8 2.9c4.3 1.9 8 4.6 11 8 3 3.4 5.3 7.4 6.9 12 1.6 4.6 2.4 9.5 2.4 14.9 0 5.2-.8 10-2.4 14.5s-3.9 8.4-6.9 11.8c-3 3.3-6.7 6-11 7.9s-9.3 2.9-14.8 2.9-10.4-1-14.8-2.9-8.1-4.5-11.1-7.9c-3-3.3-5.3-7.2-6.9-11.8s-2.4-9.4-2.4-14.5c0-5.4.8-10.3 2.4-14.9zm14.3 23.6c.7 2.8 1.8 5.4 3.4 7.6 1.5 2.3 3.5 4.1 6 5.5 2.5 1.4 5.5 2 9 2s6.5-.7 9-2c2.5-1.4 4.5-3.2 6-5.5s2.6-4.8 3.3-7.6c.7-2.8 1-5.8 1-8.8 0-3.1-.3-6.2-1-9.1-.7-2.9-1.8-5.5-3.3-7.9-1.5-2.3-3.5-4.1-6-5.5-2.5-1.4-5.5-2-9-2s-6.5.7-9 2c-2.5 1.4-4.5 3.2-6 5.5s-2.7 4.9-3.4 7.9c-.7 2.9-1 6-1 9.1 0 3.1.3 6 1 8.8z"></path>
  </g>
</svg>