<?xml version="1.0" encoding="utf-8"?>
<!-- Generator: Adobe Illustrator 17.1.0, SVG Export Plug-In . SVG Version: 6.00 Build 0)  -->
<!DOCTYPE svg PUBLIC "-//W3C//DTD SVG 1.1//EN" "http://www.w3.org/Graphics/SVG/1.1/DTD/svg11.dtd">
<svg version="1.1" id="logo" xmlns="http://www.w3.org/2000/svg" xmlns:xlink="http://www.w3.org/1999/xlink" x="0px" y="0px"
	 viewBox="0 0 283.5 50.5" style="enable-background:new 0 0 283.5 50.5;" xml:space="preserve">
<g>
	<g>
		<path style="fill:#FFFFFF;" d="M1.8,25.7c0-0.4-0.2-0.6-0.7-0.6H0v-4.7h9.6v6.7c1.3-0.4,2.6-0.7,3.9-0.7c3.6,0,6.7,2.3,6.7,8.5
			c0,6.9-4.1,9.6-10,9.6c-3,0-6.1-0.6-8.3-1.1V25.7z M10.8,32.3c-0.4,0-0.9,0.1-1.3,0.3v5.8c0.2,0,0.5,0.1,0.7,0.1
			c1.6,0,2-0.7,2-3.4C12.2,33,12,32.3,10.8,32.3z"/>
		<path style="fill:#FFFFFF;" d="M21.2,35.5c0-6.4,4-9.1,9.4-9.1c6.1,0,8.1,3.6,8.1,8v2.4h-9.3c0.1,1.5,0.6,2.5,2.6,2.5
			c0.9,0,2.1-0.1,2.6-1.4h3.9v5.3c-2.5,0.9-5.7,1.3-7.8,1.3C24.9,44.5,21.2,41.5,21.2,35.5z M31.7,32.8v-0.2c0-0.8-0.4-1.2-1.1-1.2
			c-1,0-1.4,0.9-1.4,1.5H31.7z"/>
		<path style="fill:#FFFFFF;" d="M52.3,50.5h-8.1v-2.4l3.5-4h-3l-3.8-12.5c-0.1-0.2-0.2-0.2-0.4-0.2H39v-4.7h11v4.7h-1.2l1.2,5.7
			h0.5l1.6-5.7h-1.2v-4.7H60v4.7h-1.2c-0.4,0-0.5,0.2-0.6,0.6L52.3,50.5z"/>
		<path style="fill:#FFFFFF;" d="M69.7,26.4c6,0,9.4,3.3,9.4,9c0,5.8-3.4,9-9.4,9c-6,0-9.4-3.2-9.4-9C60.3,29.6,63.7,26.4,69.7,26.4
			z M69.7,39c1.3,0,1.5-1.1,1.5-3.5c0-2.5-0.2-3.5-1.5-3.5c-1.3,0-1.5,1.1-1.5,3.5C68.2,37.9,68.4,39,69.7,39z"/>
		<path style="fill:#FFFFFF;" d="M81.2,32.2c0-0.5-0.1-0.8-0.7-0.8h-1.1v-4.7h9V28h0.2c1.3-1,3.3-1.6,5.2-1.6c2.9,0,5.3,1.3,5.3,5.4
			v7c0,0.4,0.2,0.6,0.6,0.6h1.2v4.7h-9.6v-11c0-0.7-0.2-1-0.9-1c-0.4,0-1,0.3-1.5,0.6v6.7h1.3v4.7H79.4v-4.7h1.1
			c0.6,0,0.7-0.2,0.7-0.8V32.2z"/>
		<path style="fill:#FFFFFF;" d="M111.8,26.7v-1.6H110v-4.7h9.6v18.4c0,0.4,0.2,0.6,0.7,0.6h1.1v4.7c-1.2,0.1-2.7,0.3-4.1,0.3
			c-1.8,0-3.5-0.2-4.6-1.3c-1.3,0.8-3,1.3-5,1.3c-2.8,0-6.4-1.4-6.4-8.9c0-6.6,3.4-9.2,8.2-9.2C110.2,26.4,111,26.5,111.8,26.7z
			 M111.8,38.4V32c-0.3-0.1-0.5-0.1-0.8-0.1c-1.6,0-1.9,0.3-1.9,3.6c0,2.5,0.5,3.3,1.5,3.3C110.9,38.8,111.3,38.7,111.8,38.4z"/>
	</g>
	<path style="fill:#FFFFFF;" d="M282.5,37.5L282.5,37.5c-1,2.6-2.5,4.8-3.6,4.5c-1.1-0.2-1-3.2-0.6-6.5c1.5-12.2,4.7-16,4.7-16
		s-3.2-3.8-5.5-0.6c-1.2,1.6-2,5.3-2.6,9.2c-0.2-0.1-0.4-0.2-0.6-0.3c-4-1.2-7.7,2.1-8.7,7.3c-0.2,1-0.2,1.9-0.2,2.7
		c-1,2.4-2.7,4.3-3.8,4c-1.1-0.3-0.9-3.2-0.1-6.5c1.2-5,0.7-7.8-0.8-8.2c-1.8-0.4-4.9,1.5-7.3,5.7c0.7-4.4,1.5-5,1.5-5
		s-2.2-2.5-4.6-0.9c-1.9,1.2-2.1,5-2.1,10.9c-0.9,2.3-2.3,4.2-3.4,4c-1.1-0.2-1.2-3.2-0.6-6.5c0.8-4.2,2.2-7.1,2.2-7.1
		c-1.5-1.5-3.5-1.6-4.8,0.4c-0.4-0.5-0.9-0.8-1.5-1c-4-1.2-7.7,2.1-8.7,7.3c-0.2,0.9-0.2,1.7-0.2,2.5c-1,2.5-2.7,4.8-3.8,4.6
		c-1.1-0.2-0.9-3.9,1.7-10.6c1.2-3.1,1-3.5-4.6-3.1c-3.3,0.3-4.6-1.3-4.6-1.3s-0.1,0-0.3,0.1c-0.9,1.2-0.6,3.1,0.7,4.3
		c-0.3,1.8-0.8,3.9-1.5,5.7c0,0,0,0,0,0h0c-0.2,0.5-0.4,1-0.6,1.5c-0.1,0.3-0.3,0.5-0.5,0.8c0,0,0,0,0,0.1c-0.8,1.5-1.8,2.6-2.5,2.5
		c-1.1-0.2,0-3.9,2.6-10.6c1.2-3.1,1-3.5-4.6-3.1c-3.4,0.2-4.7-1.3-4.7-1.3s-0.1,0-0.3,0.1c-0.9,1.2-0.5,3.2,0.9,4.4
		c0,0.1-0.1,0.2-0.1,0.3c-0.8,5.1-3.8,10.8-7.6,10.2c-1.4-0.2-2.3-1.4-2.8-3c8.8-4.5,10.8-10.7,4.5-11.9c-4.6-0.8-8.4,2.6-9.4,7.8
		c-0.2,0.9-0.2,1.8-0.1,2.6c-0.9,2.4-2.4,4.6-3.4,4.2c-1-0.4-0.7-6.4-0.1-9.9c1.7-9.6,4.4-12.7,4.4-12.7s-3.2-3.8-5.6-0.6
		c-1.5,2.2-2.7,8.2-3.3,13.5c-0.2,1.8-0.2,3.7-0.1,5.5c-0.9,2.4-2.4,4.5-3.4,4.1c-1-0.4-0.7-6.4-0.1-9.9c1.7-9.6,4.4-12.7,4.4-12.7
		s-3.2-3.8-5.6-0.6c-1.5,2.2-2.7,8.2-3.3,13.5c-0.2,1.8-0.2,3.7-0.1,5.4c-1,2.7-3.6,5.2-6.8,4.5c-1.1-0.2-2-1.4-2.6-2.8
		c9.1-4.5,10.6-10.9,4.2-12.1c-4.6-0.8-8.4,2.6-9.4,7.7c-0.2,0.9-0.2,1.7-0.1,2.4c-0.9,2.5-2.4,4.8-3.5,4.3c-1-0.4-0.7-6.1-0.1-9.6
		c0.4-2.4,0.7-4.2,1.2-5.8c1.7,0.3,3.3,0.4,4.3-0.3c2.1-1.4,0.8-4.2,0.8-4.2c-1.6,0.6-2.6,1.2-4.1,1.4c0.7-1.7,1.3-2.4,1.3-2.4
		s-2.2-2.4-4.9,0.1c-0.6,0.5-1,1.3-1.4,2.3l-0.5,0c-2.4-0.3-3.2,1.7-2,2.8c0,0,0.5-0.2,1.7-0.2c-0.4,1.8-0.7,3.9-0.9,6.2
		c-0.5,4.9,0,10.7,2.4,11.7c2.2,1,4.8-1.3,6.2-4.3c1,2.6,3.3,4.3,5.1,4.6c4.4,0.8,7.7-1.7,9.3-4.2c0.4,2,1,3.4,2.1,3.9
		c2.1,0.9,4.5-1,6-3.8c0.4,1.9,1,3.3,2.1,3.8c2.1,0.9,4.7-1.2,6.2-4.1c0.9,2.5,3,4,5.1,4.4c5.6,1.1,10.1-4.1,11.7-11.6v-0.1
		c0.4,0.1,0.9,0.1,1.5,0l0.3,0c-2.2,6.4-2.3,11,0.3,11.7c2.5,0.6,4.7-1.5,6.2-4.4c0.1-0.1,0.2-0.2,0.2-0.4c1.2-2.2,2.1-4.7,2.7-6.9
		c0.5,0.1,1,0.1,1.6,0.1l0.3-0.1c-2.2,6.4-1.5,11,1.3,11.7c2.4,0.6,4.8-1.4,6.3-4.1c0.6,2.3,1.9,3.7,3.8,3.6
		c2.6-0.2,3.9-2.8,4.7-4.9c0.1,2.7,0.8,4.6,2.6,5.1c2.2,0.6,4.2-0.8,5.6-3.1c0,0.4,0,0.7,0,1.1c0,1.2,0.1,1.7,0.1,1.7
		c2.6,1,3.7,0,4.5-6.8c2.2-5.3,3.6-6.7,4.3-6.5c0.7,0.1,1,1.4-0.1,5.7c-1.3,4.9,0.2,8,2.7,8.3c2,0.3,4.5-1.5,6.1-4.1
		c0.6,2.3,1.9,3.7,3.8,3.5c2.6-0.2,3.9-2.8,4.6-4.9c0.1,2.7,0.9,4.6,2.7,5.1c2.8,0.7,5.3-1.8,6.6-5.2
		C283.8,37.7,283.2,37.3,282.5,37.5z M167.4,34.7c0.6-2.5,2.2-6.1,3.6-5.7c1.3,0.4,0.6,6.3-3.6,9.3
		C167.2,37.1,167.2,35.8,167.4,34.7z M198.2,34.7c0.7-2.5,2.2-6.1,3.6-5.7c1.3,0.4,0.4,5.7-3.8,8.6C197.9,36.6,198,35.6,198.2,34.7z
		 M240.3,32.1c-0.2,1.3-0.4,2.5-0.5,3.6c-1.2,4.2-2.7,5.8-3.6,5.6c-1.2-0.3-1-3.8-0.3-6.6c0.6-2.5,1.9-5.1,3.7-5
		c0.5,0,0.8,0.2,1.2,0.5C240.6,30.7,240.4,31.4,240.3,32.1z M274.1,36c-1.2,4-2.7,5.6-3.6,5.3c-1.2-0.3-1-3.8-0.3-6.6
		c0.6-2.5,1.9-5.1,3.7-5c0.3,0,0.5,0.1,0.7,0.1C274.3,32,274.2,34.1,274.1,36z"/>
	<g>
		<polygon style="fill:#FFFFFF;" points="128,21.5 125.6,26.4 138.3,26.6 140.5,22 140.9,45.3 147.4,42.8 147.8,23.1 140.6,21.7 		
			"/>
		<polygon style="fill:#FFFFFF;" points="148.3,23.5 148.3,26.6 149.9,25.9 		"/>
		<g>
			<path style="fill:#FFFFFF;" d="M140.1,24.7l-1.1,4.2L128,27.4l0.6,17.3l12,0.7L140.1,24.7z"/>
		</g>
		<path style="fill:#FFFFFF;" d="M141.7,5.8c0-1.7,0.5-3.2,1.4-4.2c-1.7,0.5-4.6,1.6-6.2,3.8c-1.6,2.2-1.1,15.4-1.1,15.4l3.2,0.2
			c0,0-0.3-10.1,0.3-11.1c0.7-1.1,2.2-0.8,3.4-0.4C142.1,8.4,141.7,7.1,141.7,5.8z"/>
		<path style="fill:#FFFFFF;" d="M146.8,0c-2.4,0-4.3,2.6-4.3,5.8c0,3.2,1.9,5.8,4.3,5.8c2.4,0,4.3-2.6,4.3-5.8
			C151.1,2.6,149.2,0,146.8,0z M146.6,11.1c-2,0-3.7-2.4-3.7-5.4c0-3,1.7-5.4,3.7-5.4c2,0,3.7,2.4,3.7,5.4
			C150.3,8.7,148.6,11.1,146.6,11.1z"/>
		<path style="fill:#FFFFFF;" d="M148.4,7.3c-0.5,0-1-0.4-1.1-0.8l1.1-0.3l-1.2-0.2c0.1-0.5,0.6-1,1.2-1c0.4,0,0.7,0.2,0.9,0.4
			c-0.2-0.8-1-1.5-1.8-1.5c-1.1,0-1.9,0.9-1.9,2.1s0.9,2.1,1.9,2.1c0.7,0,1.4-0.5,1.7-1.1C148.9,7.1,148.7,7.3,148.4,7.3z"/>
		<path style="fill:#FFFFFF;" d="M146.5,0.7c0.9,0,1.5,0.7,1.5,0.7S147.5,1,146.6,1c-0.9,0-1.6,0.6-1.6,0.6S145.5,0.7,146.5,0.7z"/>
		<path style="fill:#FFFFFF;" d="M145.5,10.6c0,0,0.7,0.3,1.1,0.3c0.4,0,1-0.2,1-0.2s-0.5,0.1-1,0.1
			C146.1,10.8,145.5,10.6,145.5,10.6z"/>
	</g>
</g>
</svg>
