<svg enable-background="new 0 0 242 237" viewBox="0 0 242 237" xmlns="http://www.w3.org/2000/svg"><g fill="#333233"><path d="m231.206 84.668c-5.314-6.731-12.753-10.628-21.964-11.336-1.771-10.274-5.314-19.484-10.274-27.987 19.839-11.691 22.318-29.404 22.318-30.112.354-2.48-1.417-4.96-3.897-5.314-24.444-7.794-51.722-2.48-59.161-1.063-4.605-2.479-17.712-8.856-37.905-8.856-19.839 0-33.3 6.022-37.906 8.857-7.439-1.771-34.363-7.085-58.807 1.417-2.48.354-4.251 2.48-3.897 4.96 0 .709 2.834 18.422 22.318 30.112-4.96 8.502-8.502 17.713-10.274 27.987-9.211.709-17.004 4.605-21.964 11.336-4.959 6.73-7.793 15.941-7.793 27.277 0 49.242 47.471 121.866 113.717 125.054h3.543 1.063 1.063 3.543c66.6-3.188 114.071-75.812 114.071-125.054 0-10.982-2.834-20.547-7.794-27.278m-37.551-46.762c-1.771-2.48-3.543-4.605-5.668-6.731 6.377-2.126 13.462-4.605 20.547-7.794-2.834 4.606-7.44 10.274-14.879 14.525m-121.512-21.61c6.022 1.063 9.919 1.771 9.919 2.126 1.417.354 2.48 0 3.543-.709 0 0 12.753-8.148 34.717-8.148 21.61 0 34.363 8.148 34.717 8.148 1.063.709 2.48 1.063 3.543.709 0 0 3.897-1.063 9.919-2.126 8.502-1.417 21.256-2.48 34.009-.354-8.148 3.188-15.587 6.022-22.673 8.148-3.543 1.063-7.085 2.126-10.274 3.188-.354 0-.354 0-.709 0-21.256 6.022-38.614 11.336-48.534 30.466-9.916-19.484-27.275-24.444-48.531-30.466-.354 0-.354 0-.709 0-3.188-1.063-6.731-2.126-10.274-3.188-7.085-2.126-14.525-4.605-22.673-8.148 12.755-1.772 25.508-.709 34.01.354m-39.677 7.085c7.085 3.188 14.17 5.668 20.547 7.794-2.126 2.126-3.897 4.251-5.668 6.731-7.793-4.251-12.045-9.919-14.879-14.525m30.467 10.982c1.771.709 3.897 1.063 5.668 1.771 23.735 6.731 39.677 11.336 47.117 34.363-4.96 2.126-9.211 7.085-14.17 12.399-.354.354-.354.354-.709.709-.709-13.108-11.336-23.381-24.444-23.381-13.462 0-24.444 10.982-24.444 24.444s10.982 24.444 24.444 24.444h.354c14.17 0 23.735-11.336 31.529-20.193 4.251-4.96 8.856-10.274 11.691-10.274 2.834 0 7.794 5.314 11.691 10.274 7.794 8.857 17.359 20.193 31.529 20.193h.354c13.462 0 24.444-10.982 24.444-24.444s-10.982-24.444-24.444-24.444c-13.108 0-23.735 10.274-24.444 23.381-.354-.354-.354-.354-.709-.709-4.96-5.668-9.211-10.628-14.17-12.399 7.439-23.027 23.381-27.632 47.117-34.363 1.771-.354 3.897-1.063 5.668-1.771 13.462 12.753 22.318 30.112 23.381 49.951v.354c0 21.256-17.004 38.614-38.26 38.614-9.565 0-18.067-2.48-24.444-6.731 0-1.063 0-1.771-.709-2.48l-13.816-22.318c-.709-1.417-2.126-2.126-3.897-2.126-1.417 0-3.188.709-3.897 2.126l-13.816 22.318c-.354.709-.709 1.771-.709 2.48-6.377 4.251-14.879 6.731-24.444 6.731-20.901 0-38.26-17.359-38.26-38.614v-.354c2.835-19.839 11.337-37.552 24.799-49.951m29.049 50.305c0 8.502-6.731 15.233-15.233 15.233-8.502 0-15.233-6.731-15.233-15.233s6.731-15.233 15.233-15.233 15.233 6.731 15.233 15.233m57.036 0c0-8.502 6.731-15.233 15.233-15.233s15.233 6.731 15.233 15.233-6.731 15.233-15.233 15.233c-8.502 0-15.233-6.731-15.233-15.233m-19.839 32.238-1.063 2.834-7.794 21.61-7.794-21.61-1.063-2.834 6.731-11.336 1.771-3.188 1.771 2.834zm-117.968-4.96c0-9.211 2.126-16.65 6.022-21.61 3.188-4.251 7.794-6.731 13.816-7.439 0 2.126-.354 4.251-.354 6.377 0 43.928 10.628 89.628 32.946 118.323-31.883-24.445-52.43-65.539-52.43-95.651m29.403 2.126c7.085 8.857 17.004 15.233 28.341 17.713.709 14.17 5.314 66.601 24.444 92.108-30.466-16.651-48.179-63.413-52.785-109.821m79.709 114.071c-31.175 0-41.094-65.184-42.511-95.65 10.628 0 19.839-2.48 27.632-7.085l10.982 27.987c.709 1.771 2.48 6.022 4.251 6.022s3.543-4.251 4.251-6.022l10.628-27.987c7.439 4.605 17.004 7.085 27.278 7.085-1.417 30.467-10.982 95.65-42.511 95.65m26.924-4.605c19.13-25.861 23.735-77.937 24.444-92.108 11.336-2.126 21.61-8.502 28.341-17.713-4.252 46.763-21.965 93.525-52.785 109.821m30.112-15.942c22.673-29.049 33.3-74.749 33.3-118.677 0-2.126 0-4.251-.354-6.377 6.022.709 10.628 3.188 13.816 7.439 3.897 4.96 6.022 12.399 6.022 21.61-.354 30.467-20.901 71.561-52.784 96.005"/><path d="m66.475 84.668c0 5.668 4.605 10.628 10.628 10.628 5.668 0 10.628-4.605 10.628-10.628 0-5.668-4.605-10.628-10.628-10.628-6.022.355-10.628 4.96-10.628 10.628m17.005-1.771c0 2.834-2.48 5.314-5.314 5.314s-5.314-2.48-5.314-5.314 2.48-5.314 5.314-5.314c3.188.354 5.314 2.48 5.314 5.314"/><path d="m153.978 84.668c0 5.668 4.605 10.628 10.628 10.628 5.668 0 10.628-4.605 10.628-10.628 0-5.668-4.605-10.628-10.628-10.628-6.023.355-10.628 4.96-10.628 10.628m17.004-1.771c0 2.834-2.48 5.314-5.314 5.314s-5.314-2.48-5.314-5.314 2.48-5.314 5.314-5.314c3.189.354 5.314 2.48 5.314 5.314"/></g></svg>