<?xml version="1.0" encoding="utf-8"?>
<!-- Generator: Adobe Illustrator 23.1.1, SVG Export Plug-In . SVG Version: 6.00 Build 0)  -->
<svg version="1.1" id="Layer_1" xmlns="http://www.w3.org/2000/svg" xmlns:xlink="http://www.w3.org/1999/xlink" x="0px" y="0px"
	 viewBox="0 0 400 117" style="enable-background:new 0 0 400 117;" xml:space="preserve">
<style type="text/css">
	.st0{fill:#333233;}
</style>
<g>
	<g>
		<polygon class="st0" points="9.204,57.513 9.204,70.611 31.504,70.611 31.504,78.752 9.204,78.752 9.204,101.761 0,101.761 
			0,49.372 32.92,49.372 32.92,57.513 		"/>
		<polygon class="st0" points="51.681,78.752 51.681,101.761 42.124,101.761 42.124,49.372 51.681,49.372 51.681,70.611 
			75.044,70.611 75.044,49.372 84.248,49.372 84.248,101.761 75.044,101.761 75.044,78.752 		"/>
		<g>
			<path class="st0" d="M137.345,62.823c-2.832-3.54-7.788-6.372-13.451-6.372c-6.018,0-9.558,2.832-9.558,7.08
				c0,3.894,2.478,5.31,8.496,6.726l6.372,1.416c9.912,2.124,16.991,5.31,16.991,14.867s-7.788,16.283-20.885,16.283
				c-11.327,0-19.115-5.664-22.655-10.619l7.788-5.664c2.478,3.894,8.142,8.142,15.575,8.142c7.08,0,10.619-2.832,10.619-7.08
				s-3.54-5.664-8.85-6.726l-7.08-1.416c-8.496-1.77-15.575-5.31-15.575-14.867c0-9.204,8.85-15.575,19.823-15.575
				s17.345,5.31,20.177,8.85L137.345,62.823z"/>
			<path class="st0" d="M175.575,88.664v-4.602c-1.416,0.354-2.478,0.708-4.956,1.416l-3.54,0.708
				c-4.248,0.708-6.018,1.77-6.018,4.956c0,2.832,2.124,4.956,6.372,4.956C172.389,96.097,175.575,93.619,175.575,88.664
				 M184.071,93.265c0,2.478,0.354,3.186,2.478,3.186h0.354v5.664c-0.354,0-1.77,0.354-4.248,0.354c-3.54,0-5.664-1.062-6.372-3.894
				l0,0c-1.416,1.77-4.248,3.894-10.973,3.894c-7.08,0-13.097-3.54-13.097-11.681c0-2.832,0.708-4.956,2.124-6.372
				c2.124-2.832,6.018-4.248,10.973-4.956l8.142-1.416c1.77,0,2.124-0.354,2.124-1.77V75.92c0-3.186-2.124-4.602-6.372-4.602
				c-4.956,0-7.434,2.124-7.434,6.372l-8.142-0.708c0-8.85,7.08-12.743,15.929-12.743c8.496,0,14.513,2.832,14.513,10.619V93.265z"
				/>
		</g>
		<rect x="195.752" y="49.372" class="st0" width="8.85" height="52.389"/>
		<polygon class="st0" points="244.602,65.301 244.602,72.027 225.133,93.973 244.602,93.973 244.602,101.761 213.451,101.761 
			213.451,95.035 233.274,72.735 214.159,72.735 214.159,65.301 		"/>
		<path class="st0" d="M271.858,95.035c5.664,0,9.204-4.248,9.204-11.681c0-7.434-3.54-11.681-9.204-11.681
			c-5.664,0-9.204,4.602-9.204,11.681C262.655,90.434,266.195,95.035,271.858,95.035 M263.009,97.867v3.894h-8.85V49.372h8.85
			v19.823c2.124-2.478,6.018-4.956,10.619-4.956c9.912,0,16.283,8.142,16.283,19.469c0,10.973-6.372,19.115-16.283,19.115
			C268.673,102.469,265.133,100.699,263.009,97.867"/>
		<path class="st0" d="M296.991,64.947h8.85v19.469c0,2.478,0,5.31,1.062,7.08c0.708,1.77,2.478,3.186,5.664,3.186
			c5.31,0,7.788-4.248,7.788-10.265V64.947h8.85v36.46h-8.85v-4.248c-1.77,3.186-5.664,5.664-10.973,5.664
			c-3.54,0-6.726-1.062-8.85-3.54c-2.478-2.478-3.186-5.31-3.186-13.097V64.947H296.991z"/>
		<path class="st0" d="M347.965,64.947v5.31c0.708-1.77,3.54-6.372,10.619-6.372c0.354,0,0.708,0,1.416,0v8.85
			c-0.708,0-1.77,0-2.478,0c-4.602,0-7.434,1.77-8.496,4.956c-0.708,1.77-1.062,3.894-1.062,7.08v16.637h-8.85v-36.46H347.965z"/>
		<path class="st0" d="M382.301,71.673c-6.018,0-9.204,4.248-9.204,11.327c0,7.434,3.54,11.327,9.204,11.327
			c6.018,0,9.204-4.248,9.204-11.327C391.504,75.92,388.319,71.673,382.301,71.673 M374.159,103.531
			c0.354,3.54,1.77,6.726,8.142,6.726c6.726,0,8.85-2.832,8.85-9.558v-3.54l0,0c-1.062,1.77-4.248,4.602-10.619,4.602
			c-9.912,0-16.283-7.08-16.283-18.407c0-11.681,6.018-19.469,15.929-19.469c4.956,0,8.85,2.478,10.973,4.956v-3.894H400v34.69
			c0,3.894-0.354,6.372-1.062,8.85c-2.478,6.018-7.788,8.496-16.991,8.496c-10.973,0-16.283-4.956-16.637-12.743L374.159,103.531z"
			/>
	</g>
</g>
</svg>
