<svg xmlns="http://www.w3.org/2000/svg" viewBox="0 0 716 208" xml:space="preserve">
  <g fill="#fff">
    <path d="M44.5 204.6v-24.8c0-.3.2-.5.5-.5h9.8c.3 0 .5.2.5.5v3.3c0 .3-.2.5-.5.5h-5.9v5.9h4.6c.2 0 .5.2.5.4v3.3c0 .2-.2.5-.5.5h-4.6v11c0 .3-.2.5-.4.5H45c-.3-.2-.5-.3-.5-.6z"/>
    <path d="M57.7 204.6v-24.8c0-.3.2-.5.5-.5h7.4c2 0 3.8 1.7 3.8 3.8v8.2c0 1.6-1 2.9-2.4 3.5l2.6 9.8c.1.3 0 .5-.3.5h-3.7c-.2 0-.4-.2-.4-.5l-2.5-9.5h-.6v9.5c0 .3-.2.5-.4.5h-3.4c-.4-.1-.6-.2-.6-.5zM64 191c.5 0 .9-.4.9-.9v-5.7c0-.5-.4-.9-.9-.9h-2v7.6h2z"/>
    <path d="M72.6 201.4v-18.5c0-2.1 1.7-3.8 3.8-3.8h4.1c2.1 0 3.8 1.6 3.8 3.8v18.5c0 2.1-1.7 3.8-3.8 3.8h-4.1c-2.1 0-3.8-1.7-3.8-3.8zm6.4-.2c.5 0 .9-.4.9-.9v-16c0-.5-.4-.9-.9-.9h-1.1c-.5 0-1 .4-1 .9v16c0 .5.4.9 1 .9H79z"/>
    <path d="M88 204.6v-24.8c0-.3.2-.5.5-.5h2.6c.2 0 .4.2.5.5l4 11.7v-11.7c0-.3.2-.5.4-.5h3.5c.2 0 .4.2.4.5v24.8c0 .3-.2.5-.4.5H97c-.3 0-.4-.2-.5-.5l-4.1-11.3v11.3c0 .3-.2.5-.4.5h-3.4c-.4-.1-.6-.2-.6-.5z"/>
    <path d="M106.3 204.6v-21.1H103c-.3 0-.5-.2-.5-.4v-3.3c0-.3.2-.5.5-.5h10.9c.2 0 .5.2.5.5v3.3c0 .2-.2.4-.5.4h-3.3v21.1c0 .3-.2.5-.4.5h-3.5c-.3-.1-.4-.2-.4-.5z"/>
    <path d="M117 204.6v-24.8c0-.3.2-.5.5-.5h9.8c.3 0 .5.2.5.5v3.3c0 .3-.2.5-.5.5h-5.9v5.9h4.6c.2 0 .5.2.5.4v3.3c0 .2-.2.5-.5.5h-4.6v7.3h6.1c.2 0 .4.2.4.5v3.2c0 .3-.2.5-.4.5h-10c-.3-.2-.5-.3-.5-.6z"/>
    <path d="M130.8 204.6v-24.8c0-.3.2-.5.5-.5h9.8c.3 0 .5.2.5.5v3.3c0 .3-.2.5-.5.5h-5.9v5.9h4.6c.2 0 .5.2.5.4v3.3c0 .2-.2.5-.5.5h-4.6v7.3h6.1c.2 0 .4.2.4.5v3.2c0 .3-.2.5-.4.5h-10c-.4-.2-.5-.3-.5-.6z"/>
    <path d="M144.5 204.6v-24.8c0-.3.2-.5.5-.5h7.4c2 0 3.8 1.7 3.8 3.8v8.2c0 1.6-1 2.9-2.4 3.5l2.6 9.8c.1.3 0 .5-.3.5h-3.7c-.2 0-.4-.2-.4-.5l-2.5-9.5h-.6v9.5c0 .3-.2.5-.4.5h-3.4c-.4-.1-.6-.2-.6-.5zm6.3-13.6c.5 0 .9-.4.9-.9v-5.7c0-.5-.4-.9-.9-.9h-2v7.6h2z"/>
    <path d="M159 201.4v-3.6c0-.3.2-.5.5-.5h3.4c.3 0 .5.2.5.5v2.4c0 .5.4.9.9.9h.9c.5 0 .9-.4.9-.9v-5.5c0-.5-.4-.9-.9-.9h-2.4c-2.1 0-3.8-1.7-3.8-3.8v-7.1c0-2.1 1.7-3.8 3.8-3.8h3.9c2 0 3.8 1.6 3.8 3.8v2.4c0 .3-.2.5-.5.5h-3.4c-.2 0-.5-.2-.5-.5v-1c0-.5-.4-.9-.9-.9h-.8c-.5 0-.9.4-.9.9v4.5c0 .5.4.9.9.9h2.5c2.1 0 3.8 1.6 3.8 3.8v8c0 2.1-1.7 3.8-3.8 3.8h-4c-2.2-.1-3.9-1.8-3.9-3.9z"/>
    <path d="M183.4 201.4v-18.5c0-2.1 1.7-3.8 3.8-3.8h3.9c2.1 0 3.8 1.6 3.8 3.8v2.4c0 .3-.2.5-.4.5H191c-.3 0-.5-.2-.5-.5v-1c0-.5-.4-.9-.9-.9h-.9c-.5 0-1 .4-1 .9v16c0 .5.4.9 1 .9h1c.5 0 .9-.4.9-.9v-2.8c0-.3.2-.5.5-.5h3.4c.3 0 .5.2.5.5v4c0 2.1-1.7 3.8-3.8 3.8h-4.1c-2-.1-3.7-1.8-3.7-3.9z"/>
    <path d="M197.9 201.4v-18.5c0-2.1 1.7-3.8 3.8-3.8h4.1c2.1 0 3.8 1.6 3.8 3.8v18.5c0 2.1-1.7 3.8-3.8 3.8h-4.1c-2.1 0-3.8-1.7-3.8-3.8zm6.3-.2c.5 0 .9-.4.9-.9v-16c0-.5-.4-.9-.9-.9h-1.1c-.5 0-1 .4-1 .9v16c0 .5.4.9 1 .9h1.1z"/>
    <path d="M213.3 204.6v-24.8c0-.3.2-.5.5-.5h2.6c.2 0 .4.2.5.5l4 11.7v-11.7c0-.3.2-.5.4-.5h3.5c.2 0 .4.2.4.5v24.8c0 .3-.2.5-.4.5h-2.5c-.2 0-.4-.2-.5-.5l-4.1-11.3v11.3c0 .3-.2.5-.4.5h-3.4c-.5-.1-.6-.2-.6-.5z"/>
    <path d="M229 204.6v-24.8c0-.3.2-.5.5-.5h9.8c.3 0 .5.2.5.5v3.3c0 .3-.2.5-.5.5h-5.9v5.9h4.6c.2 0 .5.2.5.4v3.3c0 .2-.2.5-.5.5h-4.6v11c0 .3-.2.5-.4.5h-3.4c-.4-.2-.6-.3-.6-.6z"/>
    <path d="M242.2 204.6v-24.8c0-.3.2-.5.5-.5h9.8c.3 0 .5.2.5.5v3.3c0 .3-.2.5-.5.5h-5.9v5.9h4.6c.2 0 .5.2.5.4v3.3c0 .2-.2.5-.5.5h-4.6v7.3h6.1c.2 0 .4.2.4.5v3.2c0 .3-.2.5-.4.5h-10c-.3-.2-.5-.3-.5-.6z"/>
    <path d="M255.9 204.6v-24.8c0-.3.2-.5.5-.5h7.4c2 0 3.8 1.7 3.8 3.8v8.2c0 1.6-1 2.9-2.4 3.5l2.6 9.8c.1.3 0 .5-.3.5h-3.7c-.2 0-.4-.2-.4-.5l-2.5-9.5h-.6v9.5c0 .3-.2.5-.4.5h-3.4c-.4-.1-.6-.2-.6-.5zm6.3-13.6c.5 0 .9-.4.9-.9v-5.7c0-.5-.4-.9-.9-.9h-2v7.6h2z"/>
    <path d="M271 204.6v-24.8c0-.3.2-.5.5-.5h9.8c.3 0 .5.2.5.5v3.3c0 .3-.2.5-.5.5h-5.9v5.9h4.6c.2 0 .5.2.5.4v3.3c0 .2-.2.5-.5.5h-4.6v7.3h6.1c.2 0 .4.2.4.5v3.2c0 .3-.2.5-.4.5h-10c-.4-.2-.5-.3-.5-.6z"/>
    <path d="M284.7 204.6v-24.8c0-.3.2-.5.5-.5h2.6c.2 0 .4.2.5.5l4 11.7v-11.7c0-.3.2-.5.4-.5h3.5c.2 0 .4.2.4.5v24.8c0 .3-.2.5-.4.5h-2.5c-.2 0-.4-.2-.5-.5l-4.1-11.3v11.3c0 .3-.2.5-.4.5h-3.4c-.4-.1-.6-.2-.6-.5z"/>
    <path d="M300.3 201.4v-18.5c0-2.1 1.7-3.8 3.8-3.8h3.9c2.1 0 3.8 1.6 3.8 3.8v2.4c0 .3-.2.5-.4.5H308c-.3 0-.5-.2-.5-.5v-1c0-.5-.4-.9-.9-.9h-.9c-.5 0-1 .4-1 .9v16c0 .5.4.9 1 .9h1c.5 0 .9-.4.9-.9v-2.8c0-.3.2-.5.5-.5h3.4c.3 0 .5.2.5.5v4c0 2.1-1.7 3.8-3.8 3.8H304c-2-.1-3.7-1.8-3.7-3.9z"/>
    <path d="M315.2 204.6v-24.8c0-.3.2-.5.5-.5h9.8c.3 0 .5.2.5.5v3.3c0 .3-.2.5-.5.5h-5.9v5.9h4.6c.2 0 .5.2.5.4v3.3c0 .2-.2.5-.5.5h-4.6v7.3h6.1c.2 0 .4.2.4.5v3.2c0 .3-.2.5-.4.5h-10c-.3-.2-.5-.3-.5-.6z"/>
    <path d="M359.3 201.4V199c0-.3.2-.5.5-.5h3.4c.2 0 .4.2.4.5v1c0 .5.4.9 1 .9h.6c.5 0 .9-.4.9-.9v-4.8h-3.4c-2 0-3.8-1.6-3.8-3.8v-8.6c0-2.1 1.7-3.8 3.8-3.8h4c2 0 3.8 1.6 3.8 3.8v18.5c0 2.1-1.7 3.8-3.8 3.8H363c-2 .1-3.7-1.6-3.7-3.7zm6.8-10.3v-7c0-.5-.4-.9-.9-.9h-1c-.5 0-1 .4-1 .9v6.1c0 .5.4.9 1 .9h1.9z"/>
    <path d="M383.3 201.4v-3.6c0-.3.2-.5.5-.5h3.4c.3 0 .5.2.5.5v2.4c0 .5.4.9.9.9h.9c.5 0 .9-.4.9-.9v-5.5c0-.5-.4-.9-.9-.9h-2.4c-2.1 0-3.8-1.7-3.8-3.8v-7.1c0-2.1 1.7-3.8 3.8-3.8h3.9c2 0 3.8 1.6 3.8 3.8v2.4c0 .3-.2.5-.5.5h-3.4c-.2 0-.5-.2-.5-.5v-1c0-.5-.4-.9-.9-.9h-.8c-.5 0-.9.4-.9.9v4.5c0 .5.4.9.9.9h2.5c2.1 0 3.8 1.6 3.8 3.8v8c0 2.1-1.7 3.8-3.8 3.8h-4c-2.2-.1-3.9-1.8-3.9-3.9z"/>
    <path d="M398.3 204.6v-24.8c0-.3.2-.5.5-.5h9.8c.3 0 .5.2.5.5v3.3c0 .3-.2.5-.5.5h-5.9v5.9h4.6c.2 0 .5.2.5.4v3.3c0 .2-.2.5-.5.5h-4.6v7.3h6.1c.2 0 .4.2.4.5v3.2c0 .3-.2.5-.4.5h-10c-.3-.2-.5-.3-.5-.6z"/>
    <path d="M412 204.6v-24.8c0-.3.2-.5.5-.5h7.4c2 0 3.8 1.7 3.8 3.8v8.2c0 2.1-1.7 3.8-3.8 3.8h-3.5v9.5c0 .3-.2.5-.4.5h-3.4c-.4-.1-.6-.2-.6-.5zm6.3-13.6c.5 0 .9-.4.9-.9v-5.7c0-.5-.4-.9-.9-.9h-2v7.6h2z"/>
    <path d="M429.3 204.6v-21.1H426c-.3 0-.5-.2-.5-.4v-3.3c0-.3.2-.5.5-.5h11c.2 0 .5.2.5.5v3.3c0 .2-.2.4-.5.4h-3.3v21.1c0 .3-.2.5-.4.5h-3.5c-.3-.1-.5-.2-.5-.5z"/>
    <path d="M440.1 204.6v-24.8c0-.3.2-.5.5-.5h9.8c.3 0 .5.2.5.5v3.3c0 .3-.2.5-.5.5h-5.9v5.9h4.6c.2 0 .5.2.5.4v3.3c0 .2-.2.5-.5.5h-4.6v7.3h6.1c.2 0 .4.2.4.5v3.2c0 .3-.2.5-.4.5h-10c-.3-.2-.5-.3-.5-.6z"/>
    <path d="M453.8 204.6v-24.8c0-.3.2-.5.5-.5h3.3c.2 0 .5.2.6.5l3.8 9.7 3.8-9.7c.1-.3.3-.5.5-.5h3.3c.2 0 .4.2.4.5v24.8c0 .3-.2.5-.4.5h-3.5c-.2 0-.4-.2-.4-.5v-13.9l-3.8 9.8-3.8-9.8v13.9c0 .3-.2.5-.4.5h-3.4c-.3-.1-.5-.2-.5-.5z"/>
    <path d="M474 204.6v-24.8c0-.3.2-.5.5-.5h6.7c2 0 3.8 1.7 3.8 3.8v6.9c0 .6-.1 1.1-.4 1.6.6.7 1 1.6 1 2.5v7.1c0 2.1-1.7 3.8-3.8 3.8h-7.4c-.2 0-.4-.1-.4-.4zm5.8-14.5c.5 0 .8-.4.8-.9v-4.8c0-.5-.4-.9-.9-.9h-1.3v6.6h1.4zm.5 10.9c.5 0 .9-.4.9-1v-5.1c0-.5-.3-.9-.8-.9h-2.1v7h2z"/>
    <path d="M488.8 204.6v-24.8c0-.3.2-.5.5-.5h9.8c.3 0 .5.2.5.5v3.3c0 .3-.2.5-.5.5h-5.9v5.9h4.6c.2 0 .5.2.5.4v3.3c0 .2-.2.5-.5.5h-4.6v7.3h6.1c.2 0 .4.2.4.5v3.2c0 .3-.2.5-.4.5h-10c-.3-.2-.5-.3-.5-.6z"/>
    <path d="M502.5 204.6v-24.8c0-.3.2-.5.5-.5h7.4c2 0 3.8 1.7 3.8 3.8v8.2c0 1.6-1 2.9-2.4 3.5l2.6 9.8c.1.3 0 .5-.3.5h-3.7c-.2 0-.4-.2-.4-.5l-2.5-9.5h-.6v9.5c0 .3-.2.5-.4.5H503c-.3-.1-.5-.2-.5-.5zm6.3-13.6c.5 0 .9-.4.9-.9v-5.7c0-.5-.4-.9-.9-.9h-2v7.6h2z"/>
    <path d="M525.8 204.6v-3.7s7.3-13.2 7.3-15.5v-1.2c0-.5-.4-.9-.9-.9h-.7c-.5 0-.9.4-.9.9v.7c0 .3-.2.5-.5.5h-3.4c-.2 0-.5-.2-.5-.5v-2c0-2.1 1.7-3.8 3.8-3.8h3.7c2.1 0 3.8 1.6 3.8 3.8v2.5c0 2.3-7.1 15.5-7.1 15.5h6.7c.2 0 .4.2.4.5v3.2c0 .3-.2.5-.4.5h-10.7c-.4-.1-.6-.2-.6-.5z"/>
    <path d="M539.7 201.4v-18.5c0-2.1 1.7-3.8 3.8-3.8h4c2 0 3.8 1.6 3.8 3.8v18.5c0 2.1-1.7 3.8-3.8 3.8h-4c-2.1 0-3.8-1.7-3.8-3.8zm6.3-.2c.5 0 .9-.4.9-.9v-16c0-.5-.4-.9-.9-.9h-1c-.5 0-1 .4-1 .9v16c0 .5.4.9 1 .9h1z"/>
    <path d="M553.5 204.6v-3.7s7.3-13.2 7.3-15.5v-1.2c0-.5-.4-.9-.9-.9h-.7c-.5 0-.9.4-.9.9v.7c0 .3-.2.5-.5.5h-3.4c-.2 0-.5-.2-.5-.5v-2c0-2.1 1.7-3.8 3.8-3.8h3.7c2.1 0 3.8 1.6 3.8 3.8v2.5c0 2.3-7.1 15.5-7.1 15.5h6.7c.2 0 .4.2.4.5v3.2c0 .3-.2.5-.4.5H554c-.2-.1-.5-.2-.5-.5z"/>
    <path d="M566.9 204.6v-3.7s7.3-13.2 7.3-15.5v-1.2c0-.5-.4-.9-.9-.9h-.7c-.5 0-.9.4-.9.9v.7c0 .3-.2.5-.5.5h-3.4c-.2 0-.5-.2-.5-.5v-2c0-2.1 1.7-3.8 3.8-3.8h3.7c2.1 0 3.8 1.6 3.8 3.8v2.5c0 2.3-7.1 15.5-7.1 15.5h6.7c.2 0 .4.2.4.5v3.2c0 .3-.2.5-.4.5h-10.7c-.4-.1-.6-.2-.6-.5z"/>
    <path d="M611.4 201.4v-21.7c0-.3.2-.5.5-.5h3.4c.3 0 .4.2.4.5v20.5c0 .5.4.9 1 .9h1c.5 0 .9-.4.9-.9v-20.5c0-.3.2-.5.5-.5h3.4c.3 0 .5.2.5.5v21.7c0 2.1-1.7 3.8-3.8 3.8h-4.1c-2 0-3.7-1.7-3.7-3.8z"/>
    <path d="M629.1 204.6v-21.1h-3.3c-.3 0-.5-.2-.5-.4v-3.3c0-.3.2-.5.5-.5h10.9c.2 0 .5.2.5.5v3.3c0 .2-.2.4-.5.4h-3.3v21.1c0 .3-.2.5-.4.5h-3.5c-.3-.1-.4-.2-.4-.5z"/>
    <path d="M639.9 204.6v-24.8c0-.3.2-.5.5-.5h7.4c2 0 3.8 1.7 3.8 3.8v8.2c0 1.6-1 2.9-2.4 3.5l2.6 9.8c.1.3 0 .5-.3.5h-3.7c-.2 0-.4-.2-.4-.5l-2.5-9.5h-.6v9.5c0 .3-.2.5-.4.5h-3.4c-.5-.1-.6-.2-.6-.5zm6.2-13.6c.5 0 .9-.4.9-.9v-5.7c0-.5-.4-.9-.9-.9h-2v7.6h2z"/>
    <path d="M654.9 204.6v-24.8c0-.3.2-.5.5-.5h9.8c.3 0 .5.2.5.5v3.3c0 .3-.2.5-.5.5h-5.9v5.9h4.6c.2 0 .5.2.5.4v3.3c0 .2-.2.5-.5.5h-4.6v7.3h6.1c.2 0 .4.2.4.5v3.2c0 .3-.2.5-.4.5h-10c-.3-.2-.5-.3-.5-.6z"/>
    <path d="M668.4 201.4v-18.5c0-2.1 1.7-3.8 3.8-3.8h3.9c2.1 0 3.8 1.6 3.8 3.8v2.4c0 .3-.2.5-.4.5H676c-.3 0-.5-.2-.5-.5v-1c0-.5-.4-.9-.9-.9h-.9c-.5 0-1 .4-1 .9v16c0 .5.4.9 1 .9h1c.5 0 .9-.4.9-.9v-2.8c0-.3.2-.5.5-.5h3.4c.3 0 .5.2.5.5v4c0 2.1-1.7 3.8-3.8 3.8h-4.1c-1.9-.1-3.7-1.8-3.7-3.9z"/>
    <path d="M683.4 204.6v-24.8c0-.3.2-.5.5-.5h3.4c.3 0 .4.2.4.5v9.6h3.2v-9.6c0-.3.2-.5.4-.5h3.5c.2 0 .4.2.4.5v24.8c0 .3-.2.5-.4.5h-3.5c-.2 0-.4-.2-.4-.5v-11h-3.2v11c0 .3-.2.5-.4.5h-3.4c-.3-.1-.5-.2-.5-.5z"/>
    <path d="M701.7 204.6v-21.1h-3.3c-.3 0-.5-.2-.5-.4v-3.3c0-.3.2-.5.5-.5h10.9c.2 0 .5.2.5.5v3.3c0 .2-.2.4-.5.4H706v21.1c0 .3-.2.5-.4.5h-3.5c-.3-.1-.4-.2-.4-.5z"/>
  </g>
  <g fill="#e84667">
    <path d="M1.9 114.5V3.4c0-1.3.8-2.1 2.1-2.1h43.7c1.1 0 2.1.8 2.1 2.1V18c0 1.3-1 2.1-2.1 2.1H21.3v26.6H42c1.1 0 2.1.8 2.1 1.9v14.6c0 1.1-1 2.1-2.1 2.1H21.3v49.3c0 1.3-.8 2.1-1.9 2.1H4c-1.3-.1-2.1-.9-2.1-2.2z"/>
    <path d="M73.8 114.5V3.4c0-1.3.8-2.1 2.1-2.1h33c9.1 0 16.8 7.5 16.8 16.8V55c0 7.2-4.5 13.1-10.6 15.7l11.5 43.9c.3 1.3 0 2.1-1.1 2.1H109c-1.1 0-1.6-1-1.9-2.1L95.9 71.8h-2.7v42.7c0 1.3-.8 2.1-1.9 2.1H75.9c-1.3 0-2.1-.8-2.1-2.1zM102 53.9c2.4 0 4.2-1.9 4.2-4.2V24.1c0-2.2-1.8-4.2-4.2-4.2h-8.8v33.9h8.8z"/>
    <path d="M153.2 100.4V17.5c0-9.4 7.7-16.8 16.8-16.8h18.4c9.3 0 17 7.4 17 16.8v82.9c0 9.4-7.7 17-17 17H170c-9.1 0-16.8-7.5-16.8-17zm28.5-1.1c2.4 0 4.2-1.9 4.2-4.2V23.4c0-2.4-1.8-4.2-4.2-4.2h-4.8c-2.4 0-4.3 1.8-4.3 4.2v71.7c0 2.2 1.9 4.2 4.3 4.2h4.8z"/>
    <path d="M235 114.5V3.4c0-1.3.8-2.1 2.1-2.1h11.7c1.1 0 1.8 1 2.1 2.1l17.8 52.2V3.4c0-1.3.8-2.1 1.9-2.1h15.5c1.1 0 1.9.8 1.9 2.1v111.1c0 1.3-.8 2.1-1.9 2.1h-11.2c-1.1 0-1.8-.8-2.2-2.1l-18.3-50.4v50.4c0 1.3-.8 2.1-1.9 2.1h-15.4c-1.3 0-2.1-.8-2.1-2.1z"/>
    <path d="M329.6 114.5V19.9h-14.7c-1.1 0-2.1-.8-2.1-1.9V3.4c0-1.3 1-2.1 2.1-2.1h49c1.1 0 2.1.8 2.1 2.1V18c0 1.1-1 1.9-2.1 1.9H349v94.6c0 1.3-.8 2.1-1.9 2.1h-15.5c-1.2 0-2-.8-2-2.1z"/>
    <path d="M390.8 114.5V3.4c0-1.3.8-2.1 2.1-2.1h43.7c1.1 0 2.1.8 2.1 2.1V18c0 1.3-1 2.1-2.1 2.1h-26.4v26.6h20.7c1.1 0 2.1.8 2.1 1.9v14.6c0 1.1-1 2.1-2.1 2.1h-20.7V98h27.4c1.1 0 1.9.8 1.9 2.1v14.4c0 1.3-.8 2.1-1.9 2.1h-44.7c-1.3 0-2.1-.8-2.1-2.1z"/>
    <path d="M465 114.5V3.4c0-1.3.8-2.1 2.1-2.1h43.7c1.1 0 2.1.8 2.1 2.1V18c0 1.3-1 2.1-2.1 2.1h-26.4v26.6h20.7c1.1 0 2.1.8 2.1 1.9v14.6c0 1.1-1 2.1-2.1 2.1h-20.7V98h27.4c1.1 0 1.9.8 1.9 2.1v14.4c0 1.3-.8 2.1-1.9 2.1h-44.7c-1.3 0-2.1-.8-2.1-2.1z"/>
    <path d="M539.3 114.5V3.4c0-1.3.8-2.1 2.1-2.1h33c9.1 0 16.8 7.5 16.8 16.8V55c0 7.2-4.5 13.1-10.6 15.7l11.5 43.9c.3 1.3 0 2.1-1.1 2.1h-16.5c-1.1 0-1.6-1-1.9-2.1l-11.2-42.7h-2.7v42.7c0 1.3-.8 2.1-1.9 2.1h-15.4c-1.3-.1-2.1-.9-2.1-2.2zm28.2-60.6c2.4 0 4.2-1.9 4.2-4.2V24.1c0-2.2-1.8-4.2-4.2-4.2h-8.8v33.9h8.8z"/>
    <path d="M617.1 100.4V84.3c0-1.3 1-2.1 2.1-2.1h15.4c1.3 0 2.1.8 2.1 2.1v10.9c0 2.2 1.9 4.2 4.2 4.2h4.2c2.2 0 4.2-1.9 4.2-4.2V70.5c0-2.2-1.9-4.2-4.2-4.2h-10.9c-9.3 0-17-7.5-17-16.8v-32c0-9.4 7.7-16.8 17-16.8h17.4c9.1 0 16.8 7.4 16.8 16.8v10.6c0 1.3-.8 2.1-2.1 2.1h-15.4c-1.1 0-2.1-.8-2.1-2.1v-4.6c0-2.4-1.8-4.2-4.2-4.2H641c-2.2 0-4.2 1.8-4.2 4.2v20.2c0 2.2 1.9 4.2 4.2 4.2h11.2c9.3 0 16.8 7.4 16.8 16.8v35.9c0 9.4-7.5 17-16.8 17h-18.1c-9.3-.2-17-7.7-17-17.2z"/>
  </g>
  <g fill="#f19599">
    <path d="M9.3 121.9V10.8c0-1.3.8-2.1 2.1-2.1H55c1.1 0 2.1.8 2.1 2.1v14.6c0 1.3-1 2.1-2.1 2.1H28.6V54h20.7c1.1 0 2.1.8 2.1 1.9v14.6c0 1.1-1 2.1-2.1 2.1H28.6v49.3c0 1.3-.8 2.1-1.9 2.1H11.3c-1.2 0-2-.8-2-2.1z"/>
    <path d="M81.1 121.9V10.8c0-1.3.8-2.1 2.1-2.1h33c9.1 0 16.8 7.5 16.8 16.8v36.8c0 7.2-4.5 13.1-10.6 15.7l11.5 43.9c.3 1.3 0 2.1-1.1 2.1h-16.5c-1.1 0-1.6-1-1.9-2.1l-11.2-42.7h-2.7v42.7c0 1.3-.8 2.1-1.9 2.1H83.2c-1.3 0-2.1-.8-2.1-2.1zm28.2-60.7c2.4 0 4.2-1.9 4.2-4.2V31.4c0-2.2-1.8-4.2-4.2-4.2h-8.8v33.9h8.8z"/>
    <path d="M160.5 107.8V24.9c0-9.4 7.7-16.8 16.8-16.8h18.4c9.3 0 17 7.4 17 16.8v82.9c0 9.4-7.7 17-17 17h-18.4c-9.1 0-16.8-7.6-16.8-17zm28.5-1.1c2.4 0 4.2-1.9 4.2-4.2V30.8c0-2.4-1.8-4.2-4.2-4.2h-4.8c-2.4 0-4.3 1.8-4.3 4.2v71.7c0 2.2 1.9 4.2 4.3 4.2h4.8z"/>
    <path d="M242.3 121.9V10.8c0-1.3.8-2.1 2.1-2.1h11.7c1.1 0 1.8 1 2.1 2.1L276 63V10.8c0-1.3.8-2.1 1.9-2.1h15.5c1.1 0 1.9.8 1.9 2.1v111.1c0 1.3-.8 2.1-1.9 2.1h-11.2c-1.1 0-1.8-.8-2.2-2.1l-18.3-50.4v50.4c0 1.3-.8 2.1-1.9 2.1h-15.4c-1.3 0-2.1-.8-2.1-2.1z"/>
    <path d="M337 121.9V27.3h-14.7c-1.1 0-2.1-.8-2.1-1.9V10.8c0-1.3 1-2.1 2.1-2.1h49c1.1 0 2.1.8 2.1 2.1v14.6c0 1.1-1 1.9-2.1 1.9h-14.9v94.6c0 1.3-.8 2.1-1.9 2.1H339c-1.2 0-2-.8-2-2.1z"/>
    <path d="M398.1 121.9V10.8c0-1.3.8-2.1 2.1-2.1h43.7c1.1 0 2.1.8 2.1 2.1v14.6c0 1.3-1 2.1-2.1 2.1h-26.4V54h20.7c1.1 0 2.1.8 2.1 1.9v14.6c0 1.1-1 2.1-2.1 2.1h-20.7v32.8h27.4c1.1 0 1.9.8 1.9 2.1v14.4c0 1.3-.8 2.1-1.9 2.1h-44.7c-1.3 0-2.1-.8-2.1-2.1z"/>
    <path d="M472.4 121.9V10.8c0-1.3.8-2.1 2.1-2.1h43.7c1.1 0 2.1.8 2.1 2.1v14.6c0 1.3-1 2.1-2.1 2.1h-26.4V54h20.7c1.1 0 2.1.8 2.1 1.9v14.6c0 1.1-1 2.1-2.1 2.1h-20.7v32.8h27.4c1.1 0 1.9.8 1.9 2.1v14.4c0 1.3-.8 2.1-1.9 2.1h-44.7c-1.3 0-2.1-.8-2.1-2.1z"/>
    <path d="M546.7 121.9V10.8c0-1.3.8-2.1 2.1-2.1h33c9.1 0 16.8 7.5 16.8 16.8v36.8c0 7.2-4.5 13.1-10.6 15.7l11.5 43.9c.3 1.3 0 2.1-1.1 2.1h-16.5c-1.1 0-1.6-1-1.9-2.1l-11.2-42.7H566v42.7c0 1.3-.8 2.1-1.9 2.1h-15.4c-1.2 0-2-.8-2-2.1zm28.1-60.7c2.4 0 4.2-1.9 4.2-4.2V31.4c0-2.2-1.8-4.2-4.2-4.2H566v33.9h8.8z"/>
    <path d="M624.5 107.8V91.6c0-1.3 1-2.1 2.1-2.1H642c1.3 0 2.1.8 2.1 2.1v10.9c0 2.2 1.9 4.2 4.2 4.2h4.2c2.2 0 4.2-1.9 4.2-4.2V77.9c0-2.2-1.9-4.2-4.2-4.2h-10.9c-9.3 0-17-7.5-17-16.8v-32c0-9.4 7.7-16.8 17-16.8H659c9.1 0 16.8 7.4 16.8 16.8v10.6c0 1.3-.8 2.1-2.1 2.1h-15.4c-1.1 0-2.1-.8-2.1-2.1v-4.6c0-2.4-1.8-4.2-4.2-4.2h-3.7c-2.2 0-4.2 1.8-4.2 4.2V51c0 2.2 1.9 4.2 4.2 4.2h11.2c9.3 0 16.8 7.4 16.8 16.8v35.9c0 9.4-7.5 17-16.8 17h-18.1c-9.2-.1-16.9-7.7-16.9-17.1z"/>
  </g>
  <g fill="#fad0b1">
    <path d="M16.6 129.2V18.1c0-1.3.8-2.1 2.1-2.1h43.7c1.1 0 2.1.8 2.1 2.1v14.6c0 1.3-1 2.1-2.1 2.1H36v26.6h20.7c1.1 0 2.1.8 2.1 1.9v14.6c0 1.1-1 2.1-2.1 2.1H36v49.3c0 1.3-.8 2.1-1.9 2.1H18.7c-1.3-.1-2.1-.9-2.1-2.2z"/>
    <path d="M88.5 129.2V18.1c0-1.3.8-2.1 2.1-2.1h33c9.1 0 16.8 7.5 16.8 16.8v36.8c0 7.2-4.5 13.1-10.6 15.7l11.5 43.9c.3 1.3 0 2.1-1.1 2.1h-16.5c-1.1 0-1.6-1-1.9-2.1l-11.2-42.7h-2.7v42.7c0 1.3-.8 2.1-1.9 2.1H90.6c-1.3 0-2.1-.8-2.1-2.1zm28.2-60.6c2.4 0 4.2-1.9 4.2-4.2V38.8c0-2.2-1.8-4.2-4.2-4.2h-8.8v33.9h8.8z"/>
    <path d="M167.9 115.2v-83c0-9.4 7.7-16.8 16.8-16.8h18.4c9.3 0 17 7.4 17 16.8v82.9c0 9.4-7.7 17-17 17h-18.4c-9.1 0-16.8-7.5-16.8-16.9zm28.5-1.2c2.4 0 4.2-1.9 4.2-4.2V38.1c0-2.4-1.8-4.2-4.2-4.2h-4.8c-2.4 0-4.3 1.8-4.3 4.2v71.7c0 2.2 1.9 4.2 4.3 4.2h4.8z"/>
    <path d="M249.7 129.2V18.1c0-1.3.8-2.1 2.1-2.1h11.7c1.1 0 1.8 1 2.1 2.1l17.8 52.2V18.1c0-1.3.8-2.1 1.9-2.1h15.5c1.1 0 1.9.8 1.9 2.1v111.1c0 1.3-.8 2.1-1.9 2.1h-11.2c-1.1 0-1.8-.8-2.2-2.1l-18.3-50.4v50.4c0 1.3-.8 2.1-1.9 2.1h-15.4c-1.3 0-2.1-.8-2.1-2.1z"/>
    <path d="M344.3 129.2V34.6h-14.7c-1.1 0-2.1-.8-2.1-1.9V18.1c0-1.3 1-2.1 2.1-2.1h49c1.1 0 2.1.8 2.1 2.1v14.6c0 1.1-1 1.9-2.1 1.9h-14.9v94.6c0 1.3-.8 2.1-1.9 2.1h-15.5c-1.2 0-2-.8-2-2.1z"/>
    <path d="M405.5 129.2V18.1c0-1.3.8-2.1 2.1-2.1h43.7c1.1 0 2.1.8 2.1 2.1v14.6c0 1.3-1 2.1-2.1 2.1h-26.4v26.6h20.7c1.1 0 2.1.8 2.1 1.9v14.6c0 1.1-1 2.1-2.1 2.1h-20.7v32.8h27.4c1.1 0 1.9.8 1.9 2.1v14.4c0 1.3-.8 2.1-1.9 2.1h-44.7c-1.3-.1-2.1-.9-2.1-2.2z"/>
    <path d="M479.7 129.2V18.1c0-1.3.8-2.1 2.1-2.1h43.7c1.1 0 2.1.8 2.1 2.1v14.6c0 1.3-1 2.1-2.1 2.1h-26.4v26.6h20.7c1.1 0 2.1.8 2.1 1.9v14.6c0 1.1-1 2.1-2.1 2.1h-20.7v32.8h27.4c1.1 0 1.9.8 1.9 2.1v14.4c0 1.3-.8 2.1-1.9 2.1h-44.7c-1.3-.1-2.1-.9-2.1-2.2z"/>
    <path d="M554 129.2V18.1c0-1.3.8-2.1 2.1-2.1h33c9.1 0 16.8 7.5 16.8 16.8v36.8c0 7.2-4.5 13.1-10.6 15.7l11.5 43.9c.3 1.3 0 2.1-1.1 2.1h-16.5c-1.1 0-1.6-1-1.9-2.1l-11.2-42.7h-2.7v42.7c0 1.3-.8 2.1-1.9 2.1h-15.4c-1.3 0-2.1-.8-2.1-2.1zm28.2-60.6c2.4 0 4.2-1.9 4.2-4.2V38.8c0-2.2-1.8-4.2-4.2-4.2h-8.8v33.9h8.8z"/>
    <path d="M631.8 115.2V99c0-1.3 1-2.1 2.1-2.1h15.4c1.3 0 2.1.8 2.1 2.1v10.9c0 2.2 1.9 4.2 4.2 4.2h4.2c2.2 0 4.2-1.9 4.2-4.2V85.2c0-2.2-1.9-4.2-4.2-4.2h-10.9c-9.3 0-17-7.5-17-16.8v-32c0-9.4 7.7-16.8 17-16.8h17.4c9.1 0 16.8 7.4 16.8 16.8v10.6c0 1.3-.8 2.1-2.1 2.1h-15.4c-1.1 0-2.1-.8-2.1-2.1v-4.6c0-2.4-1.8-4.2-4.2-4.2h-3.7c-2.2 0-4.2 1.8-4.2 4.2v20.2c0 2.2 1.9 4.2 4.2 4.2h11.2c9.3 0 16.8 7.4 16.8 16.8v35.9c0 9.4-7.5 17-16.8 17h-18.1c-9.2-.2-16.9-7.7-16.9-17.1z"/>
  </g>
  <g fill="#cdc6aa">
    <path d="M24 136.6V25.5c0-1.3.8-2.1 2.1-2.1h43.7c1.1 0 2.1.8 2.1 2.1v14.6c0 1.3-1 2.1-2.1 2.1H43.3v26.6H64c1.1 0 2.1.8 2.1 1.9v14.6c0 1.1-1 2.1-2.1 2.1H43.3v49.3c0 1.3-.8 2.1-1.9 2.1H26c-1.2-.1-2-.9-2-2.2z"/>
    <path d="M95.8 136.6V25.5c0-1.3.8-2.1 2.1-2.1h33c9.1 0 16.8 7.5 16.8 16.8V77c0 7.2-4.5 13.1-10.6 15.7l11.5 43.9c.3 1.3 0 2.1-1.1 2.1H131c-1.1 0-1.6-1-1.9-2.1l-11.2-42.7h-2.7v42.7c0 1.3-.8 2.1-1.9 2.1H97.9c-1.3 0-2.1-.8-2.1-2.1zM124 75.9c2.4 0 4.2-1.9 4.2-4.2V46.1c0-2.2-1.8-4.2-4.2-4.2h-8.8v33.9h8.8z"/>
    <path d="M175.2 122.5V39.6c0-9.4 7.7-16.8 16.8-16.8h18.4c9.3 0 17 7.4 17 16.8v82.9c0 9.4-7.7 17-17 17H192c-9.1 0-16.8-7.6-16.8-17zm28.5-1.1c2.4 0 4.2-1.9 4.2-4.2V45.5c0-2.4-1.8-4.2-4.2-4.2h-4.8c-2.4 0-4.3 1.8-4.3 4.2v71.7c0 2.2 1.9 4.2 4.3 4.2h4.8z"/>
    <path d="M257 136.6V25.5c0-1.3.8-2.1 2.1-2.1h11.7c1.1 0 1.8 1 2.1 2.1l17.8 52.2V25.5c0-1.3.8-2.1 1.9-2.1h15.5c1.1 0 1.9.8 1.9 2.1v111.1c0 1.3-.8 2.1-1.9 2.1h-11.2c-1.1 0-1.8-.8-2.2-2.1l-18.3-50.4v50.4c0 1.3-.8 2.1-1.9 2.1h-15.4c-1.3 0-2.1-.8-2.1-2.1z"/>
    <path d="M351.7 136.6V42H337c-1.1 0-2.1-.8-2.1-1.9V25.5c0-1.3 1-2.1 2.1-2.1h49c1.1 0 2.1.8 2.1 2.1v14.6c0 1.1-1 1.9-2.1 1.9h-15v94.6c0 1.3-.8 2.1-1.9 2.1h-15.5c-1.1 0-1.9-.8-1.9-2.1z"/>
    <path d="M412.8 136.6V25.5c0-1.3.8-2.1 2.1-2.1h43.7c1.1 0 2.1.8 2.1 2.1v14.6c0 1.3-1 2.1-2.1 2.1h-26.4v26.6h20.7c1.1 0 2.1.8 2.1 1.9v14.6c0 1.1-1 2.1-2.1 2.1h-20.7v32.8h27.4c1.1 0 1.9.8 1.9 2.1v14.4c0 1.3-.8 2.1-1.9 2.1h-44.7c-1.3-.1-2.1-.9-2.1-2.2z"/>
    <path d="M487.1 136.6V25.5c0-1.3.8-2.1 2.1-2.1h43.7c1.1 0 2.1.8 2.1 2.1v14.6c0 1.3-1 2.1-2.1 2.1h-26.4v26.6h20.7c1.1 0 2.1.8 2.1 1.9v14.6c0 1.1-1 2.1-2.1 2.1h-20.7v32.8h27.4c1.1 0 1.9.8 1.9 2.1v14.4c0 1.3-.8 2.1-1.9 2.1h-44.7c-1.3-.1-2.1-.9-2.1-2.2z"/>
    <path d="M561.4 136.6V25.5c0-1.3.8-2.1 2.1-2.1h33c9.1 0 16.8 7.5 16.8 16.8V77c0 7.2-4.5 13.1-10.6 15.7l11.5 43.9c.3 1.3 0 2.1-1.1 2.1h-16.5c-1.1 0-1.6-1-1.9-2.1l-11.2-42.7h-2.7v42.7c0 1.3-.8 2.1-1.9 2.1h-15.4c-1.3 0-2.1-.8-2.1-2.1zm28.2-60.7c2.4 0 4.2-1.9 4.2-4.2V46.1c0-2.2-1.8-4.2-4.2-4.2h-8.8v33.9h8.8z"/>
    <path d="M639.2 122.5v-16.2c0-1.3 1-2.1 2.1-2.1h15.4c1.3 0 2.1.8 2.1 2.1v10.9c0 2.2 1.9 4.2 4.2 4.2h4.2c2.2 0 4.2-1.9 4.2-4.2V92.6c0-2.2-1.9-4.2-4.2-4.2h-10.9c-9.3 0-17-7.5-17-16.8v-32c0-9.4 7.7-16.8 17-16.8h17.4c9.1 0 16.8 7.4 16.8 16.8v10.6c0 1.3-.8 2.1-2.1 2.1H673c-1.1 0-2.1-.8-2.1-2.1v-4.6c0-2.4-1.8-4.2-4.2-4.2H663c-2.2 0-4.2 1.8-4.2 4.2v20.2c0 2.2 1.9 4.2 4.2 4.2h11.2c9.3 0 16.8 7.4 16.8 16.8v35.9c0 9.4-7.5 17-16.8 17h-18.1c-9.2-.2-16.9-7.8-16.9-17.2z"/>
  </g>
  <g fill="#83ae9b">
    <path d="M31.3 143.9V32.8c0-1.3.8-2.1 2.1-2.1h43.7c1.1 0 2.1.8 2.1 2.1v14.6c0 1.3-1 2.1-2.1 2.1H50.7v26.6h20.7c1.1 0 2.1.8 2.1 1.9v14.6c0 1.1-1 2.1-2.1 2.1H50.7V144c0 1.3-.8 2.1-1.9 2.1H33.4c-1.3-.1-2.1-.9-2.1-2.2z"/>
    <path d="M103.2 143.9V32.8c0-1.3.8-2.1 2.1-2.1h33c9.1 0 16.8 7.5 16.8 16.8v36.8c0 7.2-4.5 13.1-10.6 15.7l11.5 43.9c.3 1.3 0 2.1-1.1 2.1h-16.5c-1.1 0-1.6-1-1.9-2.1l-11.2-42.7h-2.7v42.7c0 1.3-.8 2.1-1.9 2.1h-15.4c-1.3 0-2.1-.8-2.1-2.1zm28.2-60.6c2.4 0 4.2-1.9 4.2-4.2V53.5c0-2.2-1.8-4.2-4.2-4.2h-8.8v33.9h8.8z"/>
    <path d="M182.6 129.9v-83c0-9.4 7.7-16.8 16.8-16.8h18.4c9.3 0 17 7.4 17 16.8v82.9c0 9.4-7.7 17-17 17h-18.4c-9.1 0-16.8-7.5-16.8-16.9zm28.5-1.2c2.4 0 4.2-1.9 4.2-4.2V52.8c0-2.4-1.8-4.2-4.2-4.2h-4.8c-2.4 0-4.3 1.8-4.3 4.2v71.7c0 2.2 1.9 4.2 4.3 4.2h4.8z"/>
    <path d="M264.4 143.9V32.8c0-1.3.8-2.1 2.1-2.1h11.7c1.1 0 1.8 1 2.1 2.1L298 85V32.8c0-1.3.8-2.1 1.9-2.1h15.5c1.1 0 1.9.8 1.9 2.1v111.1c0 1.3-.8 2.1-1.9 2.1h-11.2c-1.1 0-1.8-.8-2.2-2.1l-18.3-50.4v50.4c0 1.3-.8 2.1-1.9 2.1h-15.4c-1.2 0-2-.8-2-2.1z"/>
    <path d="M359 143.9V49.3h-14.7c-1.1 0-2.1-.8-2.1-1.9V32.8c0-1.3 1-2.1 2.1-2.1h49c1.1 0 2.1.8 2.1 2.1v14.6c0 1.1-1 1.9-2.1 1.9h-14.9v94.6c0 1.3-.8 2.1-1.9 2.1H361c-1.2 0-2-.8-2-2.1z"/>
    <path d="M420.2 143.9V32.8c0-1.3.8-2.1 2.1-2.1H466c1.1 0 2.1.8 2.1 2.1v14.6c0 1.3-1 2.1-2.1 2.1h-26.4v26.6h20.7c1.1 0 2.1.8 2.1 1.9v14.6c0 1.1-1 2.1-2.1 2.1h-20.7v32.8H467c1.1 0 1.9.8 1.9 2.1V144c0 1.3-.8 2.1-1.9 2.1h-44.7c-1.3-.1-2.1-.9-2.1-2.2z"/>
    <path d="M494.4 143.9V32.8c0-1.3.8-2.1 2.1-2.1h43.7c1.1 0 2.1.8 2.1 2.1v14.6c0 1.3-1 2.1-2.1 2.1h-26.4v26.6h20.7c1.1 0 2.1.8 2.1 1.9v14.6c0 1.1-1 2.1-2.1 2.1h-20.7v32.8h27.4c1.1 0 1.9.8 1.9 2.1V144c0 1.3-.8 2.1-1.9 2.1h-44.7c-1.3-.1-2.1-.9-2.1-2.2z"/>
    <path d="M568.7 143.9V32.8c0-1.3.8-2.1 2.1-2.1h33c9.1 0 16.8 7.5 16.8 16.8v36.8c0 7.2-4.5 13.1-10.6 15.7l11.5 43.9c.3 1.3 0 2.1-1.1 2.1h-16.5c-1.1 0-1.6-1-1.9-2.1l-11.2-42.7h-2.7v42.7c0 1.3-.8 2.1-1.9 2.1h-15.4c-1.3 0-2.1-.8-2.1-2.1zm28.2-60.6c2.4 0 4.2-1.9 4.2-4.2V53.5c0-2.2-1.8-4.2-4.2-4.2h-8.8v33.9h8.8z"/>
    <path d="M646.5 129.9v-16.2c0-1.3 1-2.1 2.1-2.1H664c1.3 0 2.1.8 2.1 2.1v10.9c0 2.2 1.9 4.2 4.2 4.2h4.2c2.2 0 4.2-1.9 4.2-4.2V99.9c0-2.2-1.9-4.2-4.2-4.2h-10.9c-9.3 0-17-7.5-17-16.8v-32c0-9.4 7.7-16.8 17-16.8H681c9.1 0 16.8 7.4 16.8 16.8v10.6c0 1.3-.8 2.1-2.1 2.1h-15.4c-1.1 0-2.1-.8-2.1-2.1v-4.6c0-2.4-1.8-4.2-4.2-4.2h-3.7c-2.2 0-4.2 1.8-4.2 4.2V73c0 2.2 1.9 4.2 4.2 4.2h11.2c9.3 0 16.8 7.4 16.8 16.8v35.9c0 9.4-7.5 17-16.8 17h-18.1c-9.2-.1-16.9-7.6-16.9-17z"/>
  </g>
  <g fill="#575756">
    <path d="M38.7 151.3V40.2c0-1.3.8-2.1 2.1-2.1h43.7c1.1 0 2.1.8 2.1 2.1v14.6c0 1.3-1 2.1-2.1 2.1H58v26.6h20.7c1.1 0 2.1.8 2.1 1.9V100c0 1.1-1 2.1-2.1 2.1H58v49.3c0 1.3-.8 2.1-1.9 2.1H40.7c-1.2-.1-2-.9-2-2.2z"/>
    <path d="M110.5 151.3V40.2c0-1.3.8-2.1 2.1-2.1h33c9.1 0 16.8 7.5 16.8 16.8v36.8c0 7.2-4.5 13.1-10.6 15.7l11.5 43.9c.3 1.3 0 2.1-1.1 2.1h-16.5c-1.1 0-1.6-1-1.9-2.1l-11.2-42.7h-2.7v42.7c0 1.3-.8 2.1-1.9 2.1h-15.4c-1.3 0-2.1-.8-2.1-2.1zm28.2-60.7c2.4 0 4.2-1.9 4.2-4.2V60.8c0-2.2-1.8-4.2-4.2-4.2h-8.8v33.9h8.8z"/>
    <path d="M189.9 137.2V54.3c0-9.4 7.7-16.8 16.8-16.8h18.4c9.3 0 17 7.4 17 16.8v82.9c0 9.4-7.7 17-17 17h-18.4c-9.1 0-16.8-7.6-16.8-17zm28.5-1.1c2.4 0 4.2-1.9 4.2-4.2V60.2c0-2.4-1.8-4.2-4.2-4.2h-4.8c-2.4 0-4.3 1.8-4.3 4.2v71.7c0 2.2 1.9 4.2 4.3 4.2h4.8z"/>
    <path d="M271.7 151.3V40.2c0-1.3.8-2.1 2.1-2.1h11.7c1.1 0 1.8 1 2.1 2.1l17.8 52.2V40.2c0-1.3.8-2.1 1.9-2.1h15.5c1.1 0 1.9.8 1.9 2.1v111.1c0 1.3-.8 2.1-1.9 2.1h-11.2c-1.1 0-1.8-.8-2.2-2.1l-18.3-50.4v50.4c0 1.3-.8 2.1-1.9 2.1h-15.4c-1.3 0-2.1-.8-2.1-2.1z"/>
    <path d="M366.4 151.3V56.7h-14.7c-1.1 0-2.1-.8-2.1-1.9V40.2c0-1.3 1-2.1 2.1-2.1h49c1.1 0 2.1.8 2.1 2.1v14.6c0 1.1-1 1.9-2.1 1.9h-14.9v94.6c0 1.3-.8 2.1-1.9 2.1h-15.5c-1.2 0-2-.8-2-2.1z"/>
    <path d="M427.5 151.3V40.2c0-1.3.8-2.1 2.1-2.1h43.7c1.1 0 2.1.8 2.1 2.1v14.6c0 1.3-1 2.1-2.1 2.1h-26.4v26.6h20.7c1.1 0 2.1.8 2.1 1.9V100c0 1.1-1 2.1-2.1 2.1h-20.7v32.8h27.4c1.1 0 1.9.8 1.9 2.1v14.4c0 1.3-.8 2.1-1.9 2.1h-44.7c-1.3-.1-2.1-.9-2.1-2.2z"/>
    <path d="M501.8 151.3V40.2c0-1.3.8-2.1 2.1-2.1h43.7c1.1 0 2.1.8 2.1 2.1v14.6c0 1.3-1 2.1-2.1 2.1h-26.4v26.6h20.7c1.1 0 2.1.8 2.1 1.9V100c0 1.1-1 2.1-2.1 2.1h-20.7v32.8h27.4c1.1 0 1.9.8 1.9 2.1v14.4c0 1.3-.8 2.1-1.9 2.1h-44.7c-1.3-.1-2.1-.9-2.1-2.2z"/>
    <path d="M576.1 151.3V40.2c0-1.3.8-2.1 2.1-2.1h33c9.1 0 16.8 7.5 16.8 16.8v36.8c0 7.2-4.5 13.1-10.6 15.7l11.5 43.9c.3 1.3 0 2.1-1.1 2.1h-16.5c-1.1 0-1.6-1-1.9-2.1l-11.2-42.7h-2.7v42.7c0 1.3-.8 2.1-1.9 2.1h-15.4c-1.3 0-2.1-.8-2.1-2.1zm28.2-60.7c2.4 0 4.2-1.9 4.2-4.2V60.8c0-2.2-1.8-4.2-4.2-4.2h-8.8v33.9h8.8z"/>
    <path d="M653.9 137.2V121c0-1.3 1-2.1 2.1-2.1h15.4c1.3 0 2.1.8 2.1 2.1v10.9c0 2.2 1.9 4.2 4.2 4.2h4.2c2.2 0 4.2-1.9 4.2-4.2v-24.7c0-2.2-1.9-4.2-4.2-4.2H671c-9.3 0-17-7.5-17-16.8v-32c0-9.4 7.7-16.8 17-16.8h17.4c9.1 0 16.8 7.4 16.8 16.8v10.6c0 1.3-.8 2.1-2.1 2.1h-15.4c-1.1 0-2.1-.8-2.1-2.1v-4.6c0-2.4-1.8-4.2-4.2-4.2h-3.7c-2.2 0-4.2 1.8-4.2 4.2v20.2c0 2.2 1.9 4.2 4.2 4.2h11.2c9.3 0 16.8 7.4 16.8 16.8v35.9c0 9.4-7.5 17-16.8 17h-18.1c-9.2-.1-16.9-7.7-16.9-17.1z"/>
  </g>
  <g fill="#fff">
    <path d="M45.3 158V46.9c0-1.3.8-2.1 2.1-2.1h43.7c1.1 0 2.1.8 2.1 2.1v14.6c0 1.3-1 2.1-2.1 2.1H64.7v26.6h20.7c1.1 0 2.1.8 2.1 1.9v14.6c0 1.1-1 2.1-2.1 2.1H64.7V158c0 1.3-.8 2.1-1.9 2.1H47.4c-1.3-.1-2.1-.9-2.1-2.1z"/>
    <path d="M117.2 158V46.9c0-1.3.8-2.1 2.1-2.1h33c9.1 0 16.8 7.5 16.8 16.8v36.8c0 7.2-4.5 13.1-10.6 15.7L170 158c.3 1.3 0 2.1-1.1 2.1h-16.5c-1.1 0-1.6-1-1.9-2.1l-11.2-42.7h-2.7V158c0 1.3-.8 2.1-1.9 2.1h-15.4c-1.3-.1-2.1-.9-2.1-2.1zm28.2-60.7c2.4 0 4.2-1.9 4.2-4.2V67.5c0-2.2-1.8-4.2-4.2-4.2h-8.8v33.9h8.8z"/>
    <path d="M196.6 143.9v-83c0-9.4 7.7-16.8 16.8-16.8h18.4c9.3 0 17 7.4 17 16.8v82.9c0 9.4-7.7 17-17 17h-18.4c-9.1 0-16.8-7.5-16.8-16.9zm28.5-1.1c2.4 0 4.2-1.9 4.2-4.2V66.9c0-2.4-1.8-4.2-4.2-4.2h-4.8c-2.4 0-4.3 1.8-4.3 4.2v71.7c0 2.2 1.9 4.2 4.3 4.2h4.8z"/>
    <path d="M278.4 158V46.9c0-1.3.8-2.1 2.1-2.1h11.7c1.1 0 1.8 1 2.1 2.1L312 99V46.9c0-1.3.8-2.1 1.9-2.1h15.5c1.1 0 1.9.8 1.9 2.1V158c0 1.3-.8 2.1-1.9 2.1h-11.2c-1.1 0-1.8-.8-2.2-2.1l-18.3-50.4V158c0 1.3-.8 2.1-1.9 2.1h-15.4c-1.2-.1-2-.9-2-2.1z"/>
    <path d="M373 158V63.3h-14.7c-1.1 0-2.1-.8-2.1-1.9V46.9c0-1.3 1-2.1 2.1-2.1h49c1.1 0 2.1.8 2.1 2.1v14.6c0 1.1-1 1.9-2.1 1.9h-14.9V158c0 1.3-.8 2.1-1.9 2.1H375c-1.2-.1-2-.9-2-2.1z"/>
    <path d="M434.2 158V46.9c0-1.3.8-2.1 2.1-2.1H480c1.1 0 2.1.8 2.1 2.1v14.6c0 1.3-1 2.1-2.1 2.1h-26.4v26.6h20.7c1.1 0 2.1.8 2.1 1.9v14.6c0 1.1-1 2.1-2.1 2.1h-20.7v32.8H481c1.1 0 1.9.8 1.9 2.1V158c0 1.3-.8 2.1-1.9 2.1h-44.7c-1.3-.1-2.1-.9-2.1-2.1z"/>
    <path d="M508.5 158V46.9c0-1.3.8-2.1 2.1-2.1h43.7c1.1 0 2.1.8 2.1 2.1v14.6c0 1.3-1 2.1-2.1 2.1h-26.4v26.6h20.7c1.1 0 2.1.8 2.1 1.9v14.6c0 1.1-1 2.1-2.1 2.1h-20.7v32.8h27.4c1.1 0 1.9.8 1.9 2.1V158c0 1.3-.8 2.1-1.9 2.1h-44.7c-1.3-.1-2.1-.9-2.1-2.1z"/>
    <path d="M582.7 158V46.9c0-1.3.8-2.1 2.1-2.1h33c9.1 0 16.8 7.5 16.8 16.8v36.8c0 7.2-4.5 13.1-10.6 15.7l11.5 43.9c.3 1.3 0 2.1-1.1 2.1H618c-1.1 0-1.6-1-1.9-2.1l-11.2-42.7h-2.7V158c0 1.3-.8 2.1-1.9 2.1h-15.4c-1.4-.1-2.2-.9-2.2-2.1zm28.2-60.7c2.4 0 4.2-1.9 4.2-4.2V67.5c0-2.2-1.8-4.2-4.2-4.2h-8.8v33.9h8.8z"/>
    <path d="M660.5 143.9v-16.2c0-1.3 1-2.1 2.1-2.1H678c1.3 0 2.1.8 2.1 2.1v10.9c0 2.2 1.9 4.2 4.2 4.2h4.2c2.2 0 4.2-1.9 4.2-4.2v-24.7c0-2.2-1.9-4.2-4.2-4.2h-10.9c-9.3 0-17-7.5-17-16.8v-32c0-9.4 7.7-16.8 17-16.8H695c9.1 0 16.8 7.4 16.8 16.8v10.6c0 1.3-.8 2.1-2.1 2.1h-15.4c-1.1 0-2.1-.8-2.1-2.1v-4.6c0-2.4-1.8-4.2-4.2-4.2h-3.7c-2.2 0-4.2 1.8-4.2 4.2V87c0 2.2 1.9 4.2 4.2 4.2h11.2c9.3 0 16.8 7.4 16.8 16.8v35.9c0 9.4-7.5 17-16.8 17h-18.1c-9.2-.1-16.9-7.6-16.9-17z"/>
  </g>
</svg>