<svg fill="none" height="114" viewBox="0 0 868 114" width="868" xmlns="http://www.w3.org/2000/svg"><path d="m848.5 31.2c0 17.2-13.9 31.1-31.1 31.1s-31.1-13.9-31.1-31.1" fill="#fed500"/><path d="m750.2 81 12.1-3.4 13.2 29.2-10.7 7z" fill="#0aa1e2"/><path d="m786.3 31.1c0-17.2 13.9-31.1 31.1-31.1s31.1 13.9 31.1 31.1" fill="#015bbb"/><path d="m863.2 67.8c-2-.3-4.2-.3-4.2-.3l-7.9 6-11.4 5.8v6.9l-5 4-25.2-3.4-9 5.2s0 0-1.9 0 0-3.8 0-3.8l9.7-5.5 26.2 3.1 1.8-2.4v-3l-12.1-3.1s-12.1-5-16.3-6.7-10.9-3.9-14.3-4.2-7.6.8-11.5 2.2-8.4 6.7-8.4 6.7l-7 3.6 10.1 24.1 10.7-4.2 37.9 8.1 30.8-16.5 11.8-21.6c0 .1-2.8-.7-4.8-1z" fill="#cca17d"/><path d="m640.2 0h-.1l-69.2 69.3v-38.8l-40.7-30.5h-21l.1.0999985 47.9 35.9000015v65.7.1-.1l101.8-101.6000015.1-.0999985z" fill="#005478"/><path d="m304.5 42.2v58.7h11v-37.2l33.2 37.6h6.1v-58.6h-11v37l-32.9-37.2-.3-.3z" fill="#005478"/><path d="m397.5 52c-11.1 0-19.1 8.3-19.1 19.7 0 11.5 8 19.8 19.1 19.8s19.1-8.3 19.1-19.8c.1-11.2-8.2-19.7-19.1-19.7zm-.1 49.8c-17.1 0-30.4-13.2-30.4-30s13.4-30 30.4-30c17.1 0 30.5 13.2 30.5 30s-13.4 30-30.5 30z" fill="#005478"/><path d="m471.2 42.3-14.9 37.8-13.1-36.7-.2-.7h-11.9l21.6 57.9.3.7h6l15.1-39.2 15.3 39.2h6l21.7-58.6h-11.9l-13.2 37.4-14.6-37.2-.3-.6z" fill="#005478"/><g fill="#0aa1e3"><path d="m23.4 101.8c-10.4 0-18.8-4.7-23.000002-13l-.399998-.8 8-6 .6 1c3.5 5.8 8.5 8.7 14.8 8.7 5.7 0 9.4-2.7 9.4-6.8 0-3.7-2.9-5.2-8.1-7.4l-6.7-3c-6.7-2.9-14.3-7.4-14.3-16.5 0-9.4 8.2-16.2 19.5-16.2 9 0 16.2 3.9 19.8 10.8l.4.8-7.7 6.1-.6-.9c-2.8-4.4-6.8-6.6-11.8-6.6-3.8 0-8.2 1.5-8.2 5.8 0 3.5 2.8 4.9 7.7 7.1l6.6 2.9c7.6 3.4 14.6 7.8 14.6 16.9.1 10-8.4 17.1-20.6 17.1z"/><path d="m96.3 42.7v23.2h-28.2v-23.2h-11.1v58.2h11.1v-24.9h28.2v24.9h11v-58.2z"/><path d="m146.8 59.7 8.3 18.9h-16.6zm-3-17.4-27.3 58.6h11.9l5.7-12.5h25.3l5.7 12.5h11.9l-27.3-58.6z"/><path d="m197.2 67.9h13.2c5.9 0 9.4-2.8 9.4-7.5s-3.6-7.7-9.4-7.7h-13.2zm36.8 33h-12.7l-15.3-22.9h-8.8v22.9h-11v-58.2h24.4c12.1 0 20.6 7.2 20.6 17.6 0 8.1-5 14.3-13.2 16.7z"/><path d="m246.4 42.7v58.2h42.6v-10.1h-31.6v-14.9h28.4v-9.8h-28.4v-13.3h31.2v-10.1z"/></g></svg>