<?xml version="1.0" encoding="utf-8"?>
<!-- Generator: Adobe Illustrator 22.1.0, SVG Export Plug-In . SVG Version: 6.00 Build 0)  -->
<svg version="1.1" xmlns="http://www.w3.org/2000/svg" xmlns:xlink="http://www.w3.org/1999/xlink" x="0px" y="0px"
	 viewBox="0 0 610.9 184.1" style="enable-background:new 0 0 610.9 184.1;" xml:space="preserve">
<style type="text/css">
	.st0{fill:#FFFFFF;}
	.st1{filter:url(#Adobe_OpacityMaskFilter);}
	.st2{clip-path:url(#SVGID_2_);fill:url(#SVGID_4_);}
	.st3{clip-path:url(#SVGID_2_);mask:url(#SVGID_3_);fill:url(#SVGID_5_);}
	.st4{filter:url(#Adobe_OpacityMaskFilter_1_);}
	.st5{clip-path:url(#SVGID_2_);fill:url(#SVGID_7_);}
	.st6{clip-path:url(#SVGID_2_);mask:url(#SVGID_6_);fill:url(#SVGID_8_);}
	.st7{filter:url(#Adobe_OpacityMaskFilter_2_);}
	.st8{clip-path:url(#SVGID_2_);fill:url(#SVGID_10_);}
	.st9{clip-path:url(#SVGID_2_);mask:url(#SVGID_9_);fill:url(#SVGID_11_);}
	.st10{filter:url(#Adobe_OpacityMaskFilter_3_);}
	.st11{clip-path:url(#SVGID_2_);fill:url(#SVGID_13_);}
	.st12{clip-path:url(#SVGID_2_);mask:url(#SVGID_12_);fill:url(#SVGID_14_);}
	.st13{filter:url(#Adobe_OpacityMaskFilter_4_);}
	.st14{clip-path:url(#SVGID_2_);fill:url(#SVGID_16_);}
	.st15{clip-path:url(#SVGID_2_);mask:url(#SVGID_15_);fill:url(#SVGID_17_);}
	.st16{filter:url(#Adobe_OpacityMaskFilter_5_);}
	.st17{clip-path:url(#SVGID_2_);fill:url(#SVGID_19_);}
	.st18{clip-path:url(#SVGID_2_);mask:url(#SVGID_18_);fill:url(#SVGID_20_);}
	.st19{filter:url(#Adobe_OpacityMaskFilter_6_);}
	.st20{clip-path:url(#SVGID_2_);fill:url(#SVGID_22_);}
	.st21{clip-path:url(#SVGID_2_);mask:url(#SVGID_21_);fill:url(#SVGID_23_);}
	.st22{filter:url(#Adobe_OpacityMaskFilter_7_);}
	.st23{clip-path:url(#SVGID_2_);fill:url(#SVGID_25_);}
	.st24{clip-path:url(#SVGID_2_);mask:url(#SVGID_24_);fill:url(#SVGID_26_);}
	.st25{filter:url(#Adobe_OpacityMaskFilter_8_);}
	.st26{clip-path:url(#SVGID_2_);fill:url(#SVGID_28_);}
	.st27{clip-path:url(#SVGID_2_);mask:url(#SVGID_27_);fill:url(#SVGID_29_);}
	.st28{filter:url(#Adobe_OpacityMaskFilter_9_);}
	.st29{clip-path:url(#SVGID_2_);fill:url(#SVGID_31_);}
	.st30{clip-path:url(#SVGID_2_);mask:url(#SVGID_30_);fill:url(#SVGID_32_);}
	.st31{filter:url(#Adobe_OpacityMaskFilter_10_);}
	.st32{clip-path:url(#SVGID_2_);fill:url(#SVGID_34_);}
	.st33{clip-path:url(#SVGID_2_);mask:url(#SVGID_33_);fill:url(#SVGID_35_);}
	.st34{filter:url(#Adobe_OpacityMaskFilter_11_);}
	.st35{clip-path:url(#SVGID_2_);fill:url(#SVGID_37_);}
	.st36{clip-path:url(#SVGID_2_);mask:url(#SVGID_36_);fill:url(#SVGID_38_);}
	.st37{filter:url(#Adobe_OpacityMaskFilter_12_);}
	.st38{clip-path:url(#SVGID_2_);fill:url(#SVGID_40_);}
	.st39{clip-path:url(#SVGID_2_);mask:url(#SVGID_39_);fill:url(#SVGID_41_);}
	.st40{filter:url(#Adobe_OpacityMaskFilter_13_);}
	.st41{clip-path:url(#SVGID_2_);fill:url(#SVGID_43_);}
	.st42{clip-path:url(#SVGID_2_);mask:url(#SVGID_42_);fill:url(#SVGID_44_);}
	.st43{filter:url(#Adobe_OpacityMaskFilter_14_);}
	.st44{clip-path:url(#SVGID_2_);fill:url(#SVGID_46_);}
	.st45{clip-path:url(#SVGID_2_);mask:url(#SVGID_45_);fill:url(#SVGID_47_);}
	.st46{filter:url(#Adobe_OpacityMaskFilter_15_);}
	.st47{clip-path:url(#SVGID_2_);fill:url(#SVGID_49_);}
	.st48{clip-path:url(#SVGID_2_);mask:url(#SVGID_48_);fill:url(#SVGID_50_);}
	.st49{filter:url(#Adobe_OpacityMaskFilter_16_);}
	.st50{clip-path:url(#SVGID_2_);fill:url(#SVGID_52_);}
	.st51{clip-path:url(#SVGID_2_);mask:url(#SVGID_51_);fill:url(#SVGID_53_);}
	.st52{clip-path:url(#SVGID_2_);fill:url(#SVGID_54_);}
	.st53{clip-path:url(#SVGID_2_);fill:url(#SVGID_55_);}
	.st54{clip-path:url(#SVGID_2_);fill:url(#SVGID_56_);}
	.st55{clip-path:url(#SVGID_2_);fill:url(#SVGID_57_);}
	.st56{filter:url(#Adobe_OpacityMaskFilter_17_);}
	.st57{clip-path:url(#SVGID_2_);fill:url(#SVGID_59_);}
	.st58{clip-path:url(#SVGID_2_);mask:url(#SVGID_58_);fill:url(#SVGID_60_);}
	.st59{clip-path:url(#SVGID_2_);fill:url(#SVGID_61_);}
</style>
<g id="Background">
</g>
<g id="Logos">
	<g>
		<g>
			<path class="st0" d="M179.9,114.4h16.2c0.7,6.7,4.7,10,12,10c3.1,0,5.8-0.6,8-1.7c2.2-1.2,3.3-3,3.3-5.5c0-2.4-0.9-4.1-2.7-5.2
				c-1.8-1.1-4.2-1.9-7.2-2.6l-11.4-2.5c-11.1-2.4-16.6-8.7-16.6-18.9c0-2.9,0.6-5.5,1.7-8c1.2-2.4,2.8-4.6,5-6.4
				c2.2-1.8,4.9-3.2,8-4.3c3.2-1,6.8-1.6,10.8-1.6c7.5,0,13.7,1.8,18.5,5.4c4.8,3.6,7.4,9.1,7.7,16.5h-16.2c-0.2-3.1-1.2-5.5-3-7
				c-1.8-1.5-4.2-2.3-7-2.3c-2.8,0-5.1,0.6-6.8,1.9c-1.8,1.3-2.6,3-2.6,5.3c0,2.3,0.6,3.9,1.9,5c1.3,1.1,3,1.9,5.1,2.4l13.1,2.8
				c2.4,0.5,4.7,1.2,6.9,2.2c2.2,1,4.1,2.2,5.7,3.7c1.6,1.5,2.8,3.3,3.7,5.4c0.9,2.1,1.4,4.6,1.4,7.4c0,2.9-0.6,5.6-1.8,8
				c-1.2,2.5-3,4.7-5.3,6.5c-2.3,1.9-5.2,3.3-8.6,4.4c-3.4,1.1-7.3,1.6-11.7,1.6c-8.8,0-15.6-2-20.5-5.9
				C182.8,127.3,180.2,121.7,179.9,114.4z"/>
			<path class="st0" d="M248.5,63.1V48.7h16.7v14.4H248.5z M248.8,135.5V69.3H265v66.1H248.8z"/>
			<path class="st0" d="M282.2,157.5V69.3h16.2v8.9c2.1-3.3,4.7-5.9,7.9-7.7c3.2-1.9,7-2.8,11.4-2.8c4.4,0,8.2,0.9,11.5,2.7
				c3.3,1.8,6,4.3,8.2,7.4c2.2,3.1,3.7,6.8,4.8,11c1,4.2,1.6,8.8,1.6,13.5c0,4.9-0.5,9.4-1.6,13.6c-1,4.2-2.6,7.8-4.8,11
				c-2.2,3.1-4.9,5.6-8.2,7.4c-3.3,1.8-7.1,2.7-11.5,2.7c-4.4,0-8.2-0.9-11.4-2.8c-3.2-1.9-5.9-4.4-7.9-7.7v31H282.2z M298.4,107.3
				c0,5.2,1.2,9.3,3.5,12.5c2.4,3.1,6.1,4.7,11.3,4.7c4.2,0,7.6-1.2,10-3.5c2.4-2.3,3.6-5.4,3.6-9.3V93c0-3.9-1.2-7-3.6-9.3
				c-2.4-2.3-5.7-3.4-10-3.4c-5.2,0-9,1.6-11.3,4.7c-2.4,3.1-3.5,7.3-3.5,12.5V107.3z"/>
			<path class="st0" d="M355.1,102.4c0-4.8,0.5-9.3,1.6-13.5c1.1-4.2,2.7-7.9,4.8-11c2.2-3.1,4.9-5.6,8.2-7.4
				c3.3-1.8,7.1-2.7,11.5-2.7c4.4,0,8.2,0.9,11.4,2.8c3.2,1.9,5.9,4.4,7.9,7.7v-8.9h16.2v65.1c0,4.5-0.8,8.4-2.5,11.7
				c-1.6,3.3-3.9,6-6.6,8.2c-2.8,2.2-6,3.8-9.5,4.8c-3.6,1.1-7.3,1.6-11.2,1.6c-3.9,0-7.5-0.4-10.9-1.1c-3.4-0.7-6.4-1.9-9-3.5
				c-2.6-1.6-4.7-3.8-6.3-6.4c-1.6-2.6-2.7-5.9-3.3-9.7h16.2c0.5,2.6,1.7,4.6,3.5,6c1.8,1.4,4.7,2.2,8.5,2.2c1.9,0,3.8-0.2,5.6-0.6
				c1.8-0.4,3.4-1.1,4.8-2.2c1.4-1.1,2.5-2.6,3.3-4.5c0.8-1.9,1.2-4.3,1.2-7.3v-7.1c-2.1,3.3-4.7,5.9-7.8,7.7
				c-3.1,1.9-6.9,2.8-11.3,2.8c-4.4,0-8.2-0.9-11.5-2.7c-3.3-1.8-6-4.3-8.2-7.4c-2.2-3.1-3.8-6.8-4.9-11
				C355.6,111.7,355.1,107.2,355.1,102.4z M371.9,111.7c0,3.7,1.2,6.8,3.7,9.2c2.5,2.4,5.8,3.6,10,3.6c5.2,0,9-1.6,11.4-4.7
				c2.4-3.1,3.6-7.3,3.6-12.4v-9.9c0-5.2-1.2-9.3-3.6-12.5c-2.4-3.1-6.2-4.7-11.4-4.7c-4.2,0-7.6,1.2-10,3.5
				c-2.4,2.4-3.7,5.4-3.7,9.1V111.7z"/>
			<path class="st0" d="M430.2,116.6c0-5.4,1.9-10,5.6-13.9c3.7-3.9,9.1-6.1,16.1-6.8l18.3-1.5v-4.3c0-3.5-0.9-6-2.8-7.5
				c-1.9-1.5-4.4-2.3-7.6-2.3c-3.3,0-6,0.8-8,2.4c-2.1,1.6-3.1,3.9-3.1,6.9h-16.2c0.1-3.6,0.9-6.8,2.3-9.5c1.5-2.7,3.4-5,5.9-6.8
				c2.4-1.8,5.4-3.2,8.7-4.2c3.4-1,7.1-1.4,11-1.4c7.9,0,14.2,1.9,18.8,5.8c4.6,3.8,6.9,9.5,6.9,16.9v32.4h11.2v12.6h-25.5
				l-0.1-10.3h-0.6c-1.9,3.6-4.4,6.5-7.6,8.6c-3.1,2.1-7.3,3.2-12.4,3.2c-3,0-5.8-0.5-8.3-1.5c-2.5-1-4.7-2.4-6.6-4.2
				c-1.9-1.8-3.4-3.9-4.4-6.4C430.7,122.4,430.2,119.7,430.2,116.6z M447,118.5c0,2,0.9,3.5,2.7,4.5c1.8,1,4.2,1.5,7,1.5
				c4.1,0,7.4-1.5,9.8-4.4c2.4-2.9,3.6-6.5,3.6-10.6v-2.6l-19.4,1.7c-2.4,0.3-3.6,1.7-3.7,4.3V118.5z"/>
			<path class="st0" d="M497.7,81.9V69.3h13.1V48.7h16.2v20.7h16.5v12.5h-16.5v41h16.5v12.6h-32.7V81.9H497.7z"/>
			<path class="st0" d="M551.5,102.3c0-5.2,0.7-9.9,2.2-14.2c1.4-4.2,3.4-7.9,6-10.9c2.6-3,5.7-5.4,9.4-7c3.7-1.6,7.7-2.5,12.2-2.5
				c4.5,0,8.6,0.8,12.2,2.4c3.7,1.6,6.8,3.8,9.4,6.6c2.6,2.8,4.6,6.2,6,10c1.4,3.9,2.1,8.1,2.1,12.6v8.2h-42.6v4.4
				c0,4,1.3,7,3.9,9.2c2.6,2.2,5.7,3.3,9.2,3.3c3.6,0,6.5-0.9,8.7-2.8c2.2-1.9,3.6-4.5,4-7.9h16.2c-1.1,7.3-4.2,13.1-9.3,17.1
				c-5.1,4.1-11.7,6.1-19.8,6.1c-4.7,0-8.9-0.8-12.6-2.5c-3.7-1.7-6.8-4.1-9.4-7.1c-2.6-3-4.5-6.7-5.9-11
				C552.2,112.2,551.5,107.5,551.5,102.3z M568.4,95h26v-2.3c0-3.6-1.2-6.6-3.7-8.9c-2.5-2.3-5.6-3.4-9.3-3.4
				c-3.7,0-6.8,1.1-9.3,3.4c-2.5,2.3-3.7,5.2-3.7,8.9V95z"/>
		</g>
		<g>
			<g>
				<g>
					<defs>
						<path id="SVGID_1_" d="M62.5,184.1c-29.6,0-54.3-20.8-60.2-48.6l91.1-66.2c18.3,10.7,30.7,30.5,30.7,53.3
							C124.1,156.5,96.5,184.1,62.5,184.1z"/>
					</defs>
					<clipPath id="SVGID_2_">
						<use xlink:href="#SVGID_1_"  style="overflow:visible;"/>
					</clipPath>
					<defs>
						<filter id="Adobe_OpacityMaskFilter" filterUnits="userSpaceOnUse" x="-2.1" y="114.6" width="45.6" height="41.2">
							<feColorMatrix  type="matrix" values="1 0 0 0 0  0 1 0 0 0  0 0 1 0 0  0 0 0 1 0"/>
						</filter>
					</defs>
					<mask maskUnits="userSpaceOnUse" x="-2.1" y="114.6" width="45.6" height="41.2" id="SVGID_3_">
						<g class="st1">
							
								<linearGradient id="SVGID_4_" gradientUnits="userSpaceOnUse" x1="10892.7012" y1="4416.1465" x2="11088.5039" y2="4416.1465" gradientTransform="matrix(0.1667 -9.626102e-02 6.545054e-02 0.1134 -2100.7671 692.5378)">
								<stop  offset="0.93" style="stop-color:#FFFFFF"/>
								<stop  offset="0.9561" style="stop-color:#FDFDFD"/>
								<stop  offset="0.9655" style="stop-color:#F6F6F6"/>
								<stop  offset="0.9722" style="stop-color:#EBEBEB"/>
								<stop  offset="0.9776" style="stop-color:#DADADA"/>
								<stop  offset="0.9822" style="stop-color:#C4C4C4"/>
								<stop  offset="0.9863" style="stop-color:#A8A8A8"/>
								<stop  offset="0.9901" style="stop-color:#888888"/>
								<stop  offset="0.9935" style="stop-color:#626262"/>
								<stop  offset="0.9967" style="stop-color:#373737"/>
								<stop  offset="0.9995" style="stop-color:#090909"/>
								<stop  offset="1" style="stop-color:#000000"/>
							</linearGradient>
							<polygon class="st2" points="30.6,114.6 14.3,124 -2.1,133.4 10.9,155.8 43.5,137 							"/>
						</g>
					</mask>
					
						<linearGradient id="SVGID_5_" gradientUnits="userSpaceOnUse" x1="10990.6016" y1="4514.8291" x2="10990.6016" y2="4317.4648" gradientTransform="matrix(0.1667 -9.626102e-02 6.545054e-02 0.1134 -2100.7671 692.5378)">
						<stop  offset="0.7" style="stop-color:#FFFFFF;stop-opacity:0"/>
						<stop  offset="1" style="stop-color:#FFFFFF;stop-opacity:0.6"/>
					</linearGradient>
					<polygon class="st3" points="30.6,114.6 14.3,124 -2.1,133.4 10.9,155.8 43.5,137 					"/>
					<defs>
						<filter id="Adobe_OpacityMaskFilter_1_" filterUnits="userSpaceOnUse" x="-8.2" y="111.5" width="68.2" height="68.8">
							<feColorMatrix  type="matrix" values="1 0 0 0 0  0 1 0 0 0  0 0 1 0 0  0 0 0 1 0"/>
						</filter>
					</defs>
					<mask maskUnits="userSpaceOnUse" x="-8.2" y="111.5" width="68.2" height="68.8" id="SVGID_6_">
						<g class="st4">
							
								<linearGradient id="SVGID_7_" gradientUnits="userSpaceOnUse" x1="7892.2202" y1="4356.9966" x2="8088.0234" y2="4356.9966" gradientTransform="matrix(0.1853 -0.1501 0.1616 0.1995 -2158.9607 475.8897)">
								<stop  offset="0.9" style="stop-color:#FFFFFF"/>
								<stop  offset="0.9373" style="stop-color:#FDFDFD"/>
								<stop  offset="0.9507" style="stop-color:#F6F6F6"/>
								<stop  offset="0.9603" style="stop-color:#EBEBEB"/>
								<stop  offset="0.968" style="stop-color:#DADADA"/>
								<stop  offset="0.9746" style="stop-color:#C4C4C4"/>
								<stop  offset="0.9805" style="stop-color:#A8A8A8"/>
								<stop  offset="0.9858" style="stop-color:#888888"/>
								<stop  offset="0.9907" style="stop-color:#626262"/>
								<stop  offset="0.9952" style="stop-color:#373737"/>
								<stop  offset="0.9993" style="stop-color:#090909"/>
								<stop  offset="1" style="stop-color:#000000"/>
							</linearGradient>
							<polygon class="st5" points="28.1,111.5 9.9,126.2 -8.2,140.9 23.7,180.3 60,150.9 							"/>
						</g>
					</mask>
					
						<linearGradient id="SVGID_8_" gradientUnits="userSpaceOnUse" x1="7990.1216" y1="4455.6787" x2="7990.1216" y2="4258.3149" gradientTransform="matrix(0.1853 -0.1501 0.1616 0.1995 -2158.9607 475.8897)">
						<stop  offset="0.7" style="stop-color:#FFFFFF;stop-opacity:0"/>
						<stop  offset="1" style="stop-color:#FFFFFF;stop-opacity:0.7"/>
					</linearGradient>
					<polygon class="st6" points="28.1,111.5 9.9,126.2 -8.2,140.9 23.7,180.3 60,150.9 					"/>
					<defs>
						<filter id="Adobe_OpacityMaskFilter_2_" filterUnits="userSpaceOnUse" x="-7.9" y="75.4" width="154.6" height="136.3">
							<feColorMatrix  type="matrix" values="1 0 0 0 0  0 1 0 0 0  0 0 1 0 0  0 0 0 1 0"/>
						</filter>
					</defs>
					<mask maskUnits="userSpaceOnUse" x="-7.9" y="75.4" width="154.6" height="136.3" id="SVGID_9_">
						<g class="st7">
							
								<linearGradient id="SVGID_10_" gradientUnits="userSpaceOnUse" x1="1451.7354" y1="1775.2441" x2="1647.5382" y2="1775.2441" gradientTransform="matrix(0.5875 -0.2994 0.2006 0.3938 -1197.1738 -91.5982)">
								<stop  offset="0" style="stop-color:#FFFFFF"/>
								<stop  offset="0.1557" style="stop-color:#C2C2C2"/>
								<stop  offset="0.3239" style="stop-color:#888888"/>
								<stop  offset="0.4866" style="stop-color:#575757"/>
								<stop  offset="0.6395" style="stop-color:#313131"/>
								<stop  offset="0.7804" style="stop-color:#161616"/>
								<stop  offset="0.905" style="stop-color:#060606"/>
								<stop  offset="1" style="stop-color:#000000"/>
							</linearGradient>
							<polygon class="st8" points="107.2,75.4 49.7,104.7 -7.9,134 31.7,211.7 146.8,153.1 							"/>
						</g>
					</mask>
					
						<linearGradient id="SVGID_11_" gradientUnits="userSpaceOnUse" x1="1549.6376" y1="1873.9253" x2="1549.6376" y2="1676.5612" gradientTransform="matrix(0.5875 -0.2994 0.2006 0.3938 -1197.1738 -91.5982)">
						<stop  offset="0.5" style="stop-color:#FFFFFF;stop-opacity:0.4"/>
						<stop  offset="0.9293" style="stop-color:#FFFFFF;stop-opacity:5.653599e-02"/>
						<stop  offset="1" style="stop-color:#FFFFFF;stop-opacity:0"/>
					</linearGradient>
					<polygon class="st9" points="107.2,75.4 49.7,104.7 -7.9,134 31.7,211.7 146.8,153.1 					"/>
					<defs>
						<filter id="Adobe_OpacityMaskFilter_3_" filterUnits="userSpaceOnUse" x="-10" y="75.5" width="153.9" height="133.6">
							<feColorMatrix  type="matrix" values="1 0 0 0 0  0 1 0 0 0  0 0 1 0 0  0 0 0 1 0"/>
						</filter>
					</defs>
					<mask maskUnits="userSpaceOnUse" x="-10" y="75.5" width="153.9" height="133.6" id="SVGID_12_">
						<g class="st10">
							
								<linearGradient id="SVGID_13_" gradientUnits="userSpaceOnUse" x1="1464.1503" y1="1564.0718" x2="1659.953" y2="1564.0718" gradientTransform="matrix(0.5976 -0.2787 0.1868 0.4005 -1158.7408 -48.833)">
								<stop  offset="0" style="stop-color:#FFFFFF"/>
								<stop  offset="6.285286e-02" style="stop-color:#DADADA"/>
								<stop  offset="0.1601" style="stop-color:#A7A7A7"/>
								<stop  offset="0.2621" style="stop-color:#7B7B7B"/>
								<stop  offset="0.3668" style="stop-color:#555555"/>
								<stop  offset="0.475" style="stop-color:#363636"/>
								<stop  offset="0.5878" style="stop-color:#1E1E1E"/>
								<stop  offset="0.7072" style="stop-color:#0D0D0D"/>
								<stop  offset="0.8376" style="stop-color:#030303"/>
								<stop  offset="1" style="stop-color:#000000"/>
							</linearGradient>
							<polygon class="st11" points="107,75.5 48.5,102.8 -10,130.1 26.8,209.1 143.8,154.6 							"/>
						</g>
					</mask>
					
						<linearGradient id="SVGID_14_" gradientUnits="userSpaceOnUse" x1="1562.0525" y1="1662.7529" x2="1562.0525" y2="1465.3888" gradientTransform="matrix(0.5976 -0.2787 0.1868 0.4005 -1158.7408 -48.833)">
						<stop  offset="0.85" style="stop-color:#FFFFFF;stop-opacity:0.2"/>
						<stop  offset="0.9788" style="stop-color:#FFFFFF;stop-opacity:2.826799e-02"/>
						<stop  offset="1" style="stop-color:#FFFFFF;stop-opacity:0"/>
					</linearGradient>
					<polygon class="st12" points="107,75.5 48.5,102.8 -10,130.1 26.8,209.1 143.8,154.6 					"/>
					<defs>
						<filter id="Adobe_OpacityMaskFilter_4_" filterUnits="userSpaceOnUse" x="-9.8" y="103.4" width="154.4" height="92.2">
							<feColorMatrix  type="matrix" values="1 0 0 0 0  0 1 0 0 0  0 0 1 0 0  0 0 0 1 0"/>
						</filter>
					</defs>
					<mask maskUnits="userSpaceOnUse" x="-9.8" y="103.4" width="154.4" height="92.2" id="SVGID_15_">
						<g class="st13">
							
								<linearGradient id="SVGID_16_" gradientUnits="userSpaceOnUse" x1="-848.6976" y1="4526.2944" x2="-652.8948" y2="4526.2944" gradientTransform="matrix(-4.124537e-02 -0.3924 0.7414 -7.792029e-02 -3319.2261 207.5568)">
								<stop  offset="0.3166" style="stop-color:#FFFFFF"/>
								<stop  offset="0.5712" style="stop-color:#FDFDFD"/>
								<stop  offset="0.663" style="stop-color:#F6F6F6"/>
								<stop  offset="0.7284" style="stop-color:#EBEBEB"/>
								<stop  offset="0.7813" style="stop-color:#DADADA"/>
								<stop  offset="0.8266" style="stop-color:#C4C4C4"/>
								<stop  offset="0.8667" style="stop-color:#A8A8A8"/>
								<stop  offset="0.903" style="stop-color:#888888"/>
								<stop  offset="0.9364" style="stop-color:#626262"/>
								<stop  offset="0.9674" style="stop-color:#373737"/>
								<stop  offset="0.995" style="stop-color:#090909"/>
								<stop  offset="1" style="stop-color:#000000"/>
							</linearGradient>
							<polygon class="st14" points="-9.8,118.8 -5.8,157.2 -1.7,195.6 144.6,180.2 136.5,103.4 							"/>
						</g>
					</mask>
					
						<linearGradient id="SVGID_17_" gradientUnits="userSpaceOnUse" x1="-750.7965" y1="4624.9766" x2="-750.7965" y2="4427.6123" gradientTransform="matrix(-4.124537e-02 -0.3924 0.7414 -7.792029e-02 -3319.2261 207.5568)">
						<stop  offset="0" style="stop-color:#FFFFFF;stop-opacity:0"/>
						<stop  offset="1" style="stop-color:#FFFFFF;stop-opacity:0.2"/>
					</linearGradient>
					<polygon class="st15" points="-9.8,118.8 -5.8,157.2 -1.7,195.6 144.6,180.2 136.5,103.4 30.6,114.5 					"/>
					<defs>
						<filter id="Adobe_OpacityMaskFilter_5_" filterUnits="userSpaceOnUse" x="-45.5" y="77.4" width="119.4" height="160.9">
							<feColorMatrix  type="matrix" values="1 0 0 0 0  0 1 0 0 0  0 0 1 0 0  0 0 0 1 0"/>
						</filter>
					</defs>
					<mask maskUnits="userSpaceOnUse" x="-45.5" y="77.4" width="119.4" height="160.9" id="SVGID_18_">
						<g class="st16">
							
								<linearGradient id="SVGID_19_" gradientUnits="userSpaceOnUse" x1="5333.3633" y1="1340.3932" x2="5529.166" y2="1340.3932" gradientTransform="matrix(0.3041 -0.1354 0.3032 0.681 -2043.9866 -19.509)">
								<stop  offset="0.3166" style="stop-color:#FFFFFF"/>
								<stop  offset="0.5712" style="stop-color:#FDFDFD"/>
								<stop  offset="0.663" style="stop-color:#F6F6F6"/>
								<stop  offset="0.7284" style="stop-color:#EBEBEB"/>
								<stop  offset="0.7813" style="stop-color:#DADADA"/>
								<stop  offset="0.8266" style="stop-color:#C4C4C4"/>
								<stop  offset="0.8667" style="stop-color:#A8A8A8"/>
								<stop  offset="0.903" style="stop-color:#888888"/>
								<stop  offset="0.9364" style="stop-color:#626262"/>
								<stop  offset="0.9674" style="stop-color:#373737"/>
								<stop  offset="0.995" style="stop-color:#090909"/>
								<stop  offset="1" style="stop-color:#000000"/>
							</linearGradient>
							<polygon class="st17" points="14.1,77.4 -15.7,90.7 -45.5,103.9 14.3,238.3 73.9,211.8 							"/>
						</g>
					</mask>
					
						<linearGradient id="SVGID_20_" gradientUnits="userSpaceOnUse" x1="5431.2646" y1="1439.0757" x2="5431.2646" y2="1241.7114" gradientTransform="matrix(0.3041 -0.1354 0.3032 0.681 -2043.9866 -19.509)">
						<stop  offset="0" style="stop-color:#FFFFFF;stop-opacity:0"/>
						<stop  offset="1" style="stop-color:#FFFFFF;stop-opacity:0.7"/>
					</linearGradient>
					<polygon class="st18" points="14.1,77.4 -15.7,90.7 -45.5,103.9 14.3,238.3 73.9,211.8 30.6,114.5 					"/>
					<defs>
						<filter id="Adobe_OpacityMaskFilter_6_" filterUnits="userSpaceOnUse" x="-46.2" y="79.4" width="130" height="160">
							<feColorMatrix  type="matrix" values="1 0 0 0 0  0 1 0 0 0  0 0 1 0 0  0 0 0 1 0"/>
						</filter>
					</defs>
					<mask maskUnits="userSpaceOnUse" x="-46.2" y="79.4" width="130" height="160" id="SVGID_21_">
						<g class="st19">
							
								<linearGradient id="SVGID_22_" gradientUnits="userSpaceOnUse" x1="5240.7158" y1="1705.5002" x2="5436.5186" y2="1705.5002" gradientTransform="matrix(0.2883 -0.1665 0.3727 0.6456 -2156.0056 -53.0513)">
								<stop  offset="0.3166" style="stop-color:#FFFFFF"/>
								<stop  offset="0.5712" style="stop-color:#FDFDFD"/>
								<stop  offset="0.663" style="stop-color:#F6F6F6"/>
								<stop  offset="0.7284" style="stop-color:#EBEBEB"/>
								<stop  offset="0.7813" style="stop-color:#DADADA"/>
								<stop  offset="0.8266" style="stop-color:#C4C4C4"/>
								<stop  offset="0.8667" style="stop-color:#A8A8A8"/>
								<stop  offset="0.903" style="stop-color:#888888"/>
								<stop  offset="0.9364" style="stop-color:#626262"/>
								<stop  offset="0.9674" style="stop-color:#373737"/>
								<stop  offset="0.995" style="stop-color:#090909"/>
								<stop  offset="1" style="stop-color:#000000"/>
							</linearGradient>
							<polygon class="st20" points="10.3,79.4 -18,95.7 -46.2,111.9 27.4,239.4 83.8,206.8 							"/>
						</g>
					</mask>
					
						<linearGradient id="SVGID_23_" gradientUnits="userSpaceOnUse" x1="5338.6167" y1="1804.1827" x2="5338.6167" y2="1606.8185" gradientTransform="matrix(0.2883 -0.1665 0.3727 0.6456 -2156.0056 -53.0513)">
						<stop  offset="0" style="stop-color:#FFFFFF;stop-opacity:0"/>
						<stop  offset="1" style="stop-color:#FFFFFF;stop-opacity:0.7"/>
					</linearGradient>
					<polygon class="st21" points="10.3,79.4 -18,95.7 -46.2,111.9 27.4,239.4 83.8,206.8 30.6,114.5 					"/>
					<defs>
						<filter id="Adobe_OpacityMaskFilter_7_" filterUnits="userSpaceOnUse" x="-46" y="81.7" width="139.2" height="157.3">
							<feColorMatrix  type="matrix" values="1 0 0 0 0  0 1 0 0 0  0 0 1 0 0  0 0 0 1 0"/>
						</filter>
					</defs>
					<mask maskUnits="userSpaceOnUse" x="-46" y="81.7" width="139.2" height="157.3" id="SVGID_24_">
						<g class="st22">
							
								<linearGradient id="SVGID_25_" gradientUnits="userSpaceOnUse" x1="5063.1177" y1="2064.2825" x2="5258.9204" y2="2064.2825" gradientTransform="matrix(0.2693 -0.1957 0.4382 0.6031 -2270.9172 -74.7006)">
								<stop  offset="0.3166" style="stop-color:#FFFFFF"/>
								<stop  offset="0.5712" style="stop-color:#FDFDFD"/>
								<stop  offset="0.663" style="stop-color:#F6F6F6"/>
								<stop  offset="0.7284" style="stop-color:#EBEBEB"/>
								<stop  offset="0.7813" style="stop-color:#DADADA"/>
								<stop  offset="0.8266" style="stop-color:#C4C4C4"/>
								<stop  offset="0.8667" style="stop-color:#A8A8A8"/>
								<stop  offset="0.903" style="stop-color:#888888"/>
								<stop  offset="0.9364" style="stop-color:#626262"/>
								<stop  offset="0.9674" style="stop-color:#373737"/>
								<stop  offset="0.995" style="stop-color:#090909"/>
								<stop  offset="1" style="stop-color:#000000"/>
							</linearGradient>
							<polygon class="st23" points="6.7,81.7 -19.7,100.8 -46,120 40.4,239 93.2,200.7 							"/>
						</g>
					</mask>
					
						<linearGradient id="SVGID_26_" gradientUnits="userSpaceOnUse" x1="5161.0186" y1="2162.9648" x2="5161.0186" y2="1965.6006" gradientTransform="matrix(0.2693 -0.1957 0.4382 0.6031 -2270.9172 -74.7006)">
						<stop  offset="0" style="stop-color:#FFFFFF;stop-opacity:0"/>
						<stop  offset="1" style="stop-color:#FFFFFF;stop-opacity:0.7"/>
					</linearGradient>
					<polygon class="st24" points="6.7,81.7 -19.7,100.8 -46,120 40.4,239 93.2,200.7 30.6,114.5 					"/>
					<defs>
						<filter id="Adobe_OpacityMaskFilter_8_" filterUnits="userSpaceOnUse" x="-45" y="84.3" width="146.9" height="153">
							<feColorMatrix  type="matrix" values="1 0 0 0 0  0 1 0 0 0  0 0 1 0 0  0 0 0 1 0"/>
						</filter>
					</defs>
					<mask maskUnits="userSpaceOnUse" x="-45" y="84.3" width="146.9" height="153" id="SVGID_27_">
						<g class="st25">
							
								<linearGradient id="SVGID_28_" gradientUnits="userSpaceOnUse" x1="4802.5146" y1="2412.8086" x2="4998.3174" y2="2412.8086" gradientTransform="matrix(0.2474 -0.2228 0.4988 0.554 -2387.4624 -84.2198)">
								<stop  offset="0.3166" style="stop-color:#FFFFFF"/>
								<stop  offset="0.5712" style="stop-color:#FDFDFD"/>
								<stop  offset="0.663" style="stop-color:#F6F6F6"/>
								<stop  offset="0.7284" style="stop-color:#EBEBEB"/>
								<stop  offset="0.7813" style="stop-color:#DADADA"/>
								<stop  offset="0.8266" style="stop-color:#C4C4C4"/>
								<stop  offset="0.8667" style="stop-color:#A8A8A8"/>
								<stop  offset="0.903" style="stop-color:#888888"/>
								<stop  offset="0.9364" style="stop-color:#626262"/>
								<stop  offset="0.9674" style="stop-color:#373737"/>
								<stop  offset="0.995" style="stop-color:#090909"/>
								<stop  offset="1" style="stop-color:#000000"/>
							</linearGradient>
							<polygon class="st26" points="3.4,84.3 -20.8,106.2 -45,128 53.4,237.3 101.8,193.7 							"/>
						</g>
					</mask>
					
						<linearGradient id="SVGID_29_" gradientUnits="userSpaceOnUse" x1="4900.4155" y1="2511.491" x2="4900.4155" y2="2314.127" gradientTransform="matrix(0.2474 -0.2228 0.4988 0.554 -2387.4624 -84.2198)">
						<stop  offset="0" style="stop-color:#FFFFFF;stop-opacity:0"/>
						<stop  offset="1" style="stop-color:#FFFFFF;stop-opacity:0.7"/>
					</linearGradient>
					<polygon class="st27" points="3.4,84.3 -20.8,106.2 -45,128 53.4,237.3 101.8,193.7 30.6,114.5 					"/>
					<defs>
						<filter id="Adobe_OpacityMaskFilter_9_" filterUnits="userSpaceOnUse" x="-43.2" y="87.3" width="153" height="146.9">
							<feColorMatrix  type="matrix" values="1 0 0 0 0  0 1 0 0 0  0 0 1 0 0  0 0 0 1 0"/>
						</filter>
					</defs>
					<mask maskUnits="userSpaceOnUse" x="-43.2" y="87.3" width="153" height="146.9" id="SVGID_30_">
						<g class="st28">
							
								<linearGradient id="SVGID_31_" gradientUnits="userSpaceOnUse" x1="4461.7622" y1="2747.2605" x2="4657.5649" y2="2747.2605" gradientTransform="matrix(0.2228 -0.2474 0.554 0.4988 -2504.364 -81.5046)">
								<stop  offset="0.3166" style="stop-color:#FFFFFF"/>
								<stop  offset="0.5712" style="stop-color:#FDFDFD"/>
								<stop  offset="0.663" style="stop-color:#F6F6F6"/>
								<stop  offset="0.7284" style="stop-color:#EBEBEB"/>
								<stop  offset="0.7813" style="stop-color:#DADADA"/>
								<stop  offset="0.8266" style="stop-color:#C4C4C4"/>
								<stop  offset="0.8667" style="stop-color:#A8A8A8"/>
								<stop  offset="0.903" style="stop-color:#888888"/>
								<stop  offset="0.9364" style="stop-color:#626262"/>
								<stop  offset="0.9674" style="stop-color:#373737"/>
								<stop  offset="0.995" style="stop-color:#090909"/>
								<stop  offset="1" style="stop-color:#000000"/>
							</linearGradient>
							<polygon class="st29" points="0.4,87.3 -21.4,111.6 -43.2,135.8 66.1,234.2 109.7,185.8 							"/>
						</g>
					</mask>
					
						<linearGradient id="SVGID_32_" gradientUnits="userSpaceOnUse" x1="4559.6631" y1="2845.9429" x2="4559.6631" y2="2648.5789" gradientTransform="matrix(0.2228 -0.2474 0.554 0.4988 -2504.364 -81.5046)">
						<stop  offset="0" style="stop-color:#FFFFFF;stop-opacity:0"/>
						<stop  offset="1" style="stop-color:#FFFFFF;stop-opacity:0.7"/>
					</linearGradient>
					<polygon class="st30" points="0.4,87.3 -21.4,111.6 -43.2,135.8 66.1,234.2 109.7,185.8 30.6,114.5 					"/>
					<defs>
						<filter id="Adobe_OpacityMaskFilter_10_" filterUnits="userSpaceOnUse" x="-40.6" y="90.7" width="157.3" height="139.2">
							<feColorMatrix  type="matrix" values="1 0 0 0 0  0 1 0 0 0  0 0 1 0 0  0 0 0 1 0"/>
						</filter>
					</defs>
					<mask maskUnits="userSpaceOnUse" x="-40.6" y="90.7" width="157.3" height="139.2" id="SVGID_33_">
						<g class="st31">
							
								<linearGradient id="SVGID_34_" gradientUnits="userSpaceOnUse" x1="4044.5935" y1="3063.9739" x2="4240.3965" y2="3063.9739" gradientTransform="matrix(0.1957 -0.2693 0.6031 0.4382 -2620.3413 -66.5847)">
								<stop  offset="0.3166" style="stop-color:#FFFFFF"/>
								<stop  offset="0.5712" style="stop-color:#FDFDFD"/>
								<stop  offset="0.663" style="stop-color:#F6F6F6"/>
								<stop  offset="0.7284" style="stop-color:#EBEBEB"/>
								<stop  offset="0.7813" style="stop-color:#DADADA"/>
								<stop  offset="0.8266" style="stop-color:#C4C4C4"/>
								<stop  offset="0.8667" style="stop-color:#A8A8A8"/>
								<stop  offset="0.903" style="stop-color:#888888"/>
								<stop  offset="0.9364" style="stop-color:#626262"/>
								<stop  offset="0.9674" style="stop-color:#373737"/>
								<stop  offset="0.995" style="stop-color:#090909"/>
								<stop  offset="1" style="stop-color:#000000"/>
							</linearGradient>
							<polygon class="st32" points="-2.3,90.7 -21.4,117 -40.6,143.4 78.4,229.9 116.7,177.1 							"/>
						</g>
					</mask>
					
						<linearGradient id="SVGID_35_" gradientUnits="userSpaceOnUse" x1="4142.4946" y1="3162.6562" x2="4142.4946" y2="2965.292" gradientTransform="matrix(0.1957 -0.2693 0.6031 0.4382 -2620.3413 -66.5847)">
						<stop  offset="0" style="stop-color:#FFFFFF;stop-opacity:0"/>
						<stop  offset="1" style="stop-color:#FFFFFF;stop-opacity:0.7"/>
					</linearGradient>
					<polygon class="st33" points="-2.3,90.7 -21.4,117 -40.6,143.4 78.4,229.9 116.7,177.1 30.6,114.5 					"/>
					<defs>
						<filter id="Adobe_OpacityMaskFilter_11_" filterUnits="userSpaceOnUse" x="-37.2" y="94.2" width="160" height="130">
							<feColorMatrix  type="matrix" values="1 0 0 0 0  0 1 0 0 0  0 0 1 0 0  0 0 0 1 0"/>
						</filter>
					</defs>
					<mask maskUnits="userSpaceOnUse" x="-37.2" y="94.2" width="160" height="130" id="SVGID_36_">
						<g class="st34">
							
								<linearGradient id="SVGID_37_" gradientUnits="userSpaceOnUse" x1="3555.5791" y1="3359.4785" x2="3751.3821" y2="3359.4785" gradientTransform="matrix(0.1665 -0.2883 0.6456 0.3727 -2734.124 -39.6236)">
								<stop  offset="0.3166" style="stop-color:#FFFFFF"/>
								<stop  offset="0.5712" style="stop-color:#FDFDFD"/>
								<stop  offset="0.663" style="stop-color:#F6F6F6"/>
								<stop  offset="0.7284" style="stop-color:#EBEBEB"/>
								<stop  offset="0.7813" style="stop-color:#DADADA"/>
								<stop  offset="0.8266" style="stop-color:#C4C4C4"/>
								<stop  offset="0.8667" style="stop-color:#A8A8A8"/>
								<stop  offset="0.903" style="stop-color:#888888"/>
								<stop  offset="0.9364" style="stop-color:#626262"/>
								<stop  offset="0.9674" style="stop-color:#373737"/>
								<stop  offset="0.995" style="stop-color:#090909"/>
								<stop  offset="1" style="stop-color:#000000"/>
							</linearGradient>
							<polygon class="st35" points="-4.6,94.2 -20.9,122.4 -37.2,150.7 90.2,224.2 122.8,167.8 							"/>
						</g>
					</mask>
					
						<linearGradient id="SVGID_38_" gradientUnits="userSpaceOnUse" x1="3653.4805" y1="3458.1609" x2="3653.4805" y2="3260.7966" gradientTransform="matrix(0.1665 -0.2883 0.6456 0.3727 -2734.124 -39.6236)">
						<stop  offset="0" style="stop-color:#FFFFFF;stop-opacity:0"/>
						<stop  offset="1" style="stop-color:#FFFFFF;stop-opacity:0.7"/>
					</linearGradient>
					<polygon class="st36" points="-4.6,94.2 -20.9,122.4 -37.2,150.7 90.2,224.2 122.8,167.8 30.6,114.5 					"/>
					<defs>
						<filter id="Adobe_OpacityMaskFilter_12_" filterUnits="userSpaceOnUse" x="-33" y="98" width="160.9" height="119.4">
							<feColorMatrix  type="matrix" values="1 0 0 0 0  0 1 0 0 0  0 0 1 0 0  0 0 0 1 0"/>
						</filter>
					</defs>
					<mask maskUnits="userSpaceOnUse" x="-33" y="98" width="160.9" height="119.4" id="SVGID_39_">
						<g class="st37">
							
								<linearGradient id="SVGID_40_" gradientUnits="userSpaceOnUse" x1="3000.0771" y1="3630.5366" x2="3195.8801" y2="3630.5366" gradientTransform="matrix(0.1354 -0.3041 0.681 0.3032 -2844.4648 -0.9167)">
								<stop  offset="0.3166" style="stop-color:#FFFFFF"/>
								<stop  offset="0.5712" style="stop-color:#FDFDFD"/>
								<stop  offset="0.663" style="stop-color:#F6F6F6"/>
								<stop  offset="0.7284" style="stop-color:#EBEBEB"/>
								<stop  offset="0.7813" style="stop-color:#DADADA"/>
								<stop  offset="0.8266" style="stop-color:#C4C4C4"/>
								<stop  offset="0.8667" style="stop-color:#A8A8A8"/>
								<stop  offset="0.903" style="stop-color:#888888"/>
								<stop  offset="0.9364" style="stop-color:#626262"/>
								<stop  offset="0.9674" style="stop-color:#373737"/>
								<stop  offset="0.995" style="stop-color:#090909"/>
								<stop  offset="1" style="stop-color:#000000"/>
							</linearGradient>
							<polygon class="st38" points="-6.5,98 -19.8,127.8 -33,157.6 101.4,217.4 127.9,157.8 							"/>
						</g>
					</mask>
					
						<linearGradient id="SVGID_41_" gradientUnits="userSpaceOnUse" x1="3097.9783" y1="3729.219" x2="3097.9783" y2="3531.855" gradientTransform="matrix(0.1354 -0.3041 0.681 0.3032 -2844.4648 -0.9167)">
						<stop  offset="0" style="stop-color:#FFFFFF;stop-opacity:0"/>
						<stop  offset="1" style="stop-color:#FFFFFF;stop-opacity:0.7"/>
					</linearGradient>
					<polygon class="st39" points="-6.5,98 -19.8,127.8 -33,157.6 101.4,217.4 127.9,157.8 30.6,114.5 					"/>
					<defs>
						<filter id="Adobe_OpacityMaskFilter_13_" filterUnits="userSpaceOnUse" x="-28.2" y="102" width="160.1" height="107.5">
							<feColorMatrix  type="matrix" values="1 0 0 0 0  0 1 0 0 0  0 0 1 0 0  0 0 0 1 0"/>
						</filter>
					</defs>
					<mask maskUnits="userSpaceOnUse" x="-28.2" y="102" width="160.1" height="107.5" id="SVGID_42_">
						<g class="st40">
							
								<linearGradient id="SVGID_43_" gradientUnits="userSpaceOnUse" x1="2384.1736" y1="3874.179" x2="2579.9763" y2="3874.179" gradientTransform="matrix(0.1029 -0.3166 0.709 0.2304 -2950.1555 49.1119)">
								<stop  offset="0.3166" style="stop-color:#FFFFFF"/>
								<stop  offset="0.5712" style="stop-color:#FDFDFD"/>
								<stop  offset="0.663" style="stop-color:#F6F6F6"/>
								<stop  offset="0.7284" style="stop-color:#EBEBEB"/>
								<stop  offset="0.7813" style="stop-color:#DADADA"/>
								<stop  offset="0.8266" style="stop-color:#C4C4C4"/>
								<stop  offset="0.8667" style="stop-color:#A8A8A8"/>
								<stop  offset="0.903" style="stop-color:#888888"/>
								<stop  offset="0.9364" style="stop-color:#626262"/>
								<stop  offset="0.9674" style="stop-color:#373737"/>
								<stop  offset="0.995" style="stop-color:#090909"/>
								<stop  offset="1" style="stop-color:#000000"/>
							</linearGradient>
							<polygon class="st41" points="-8.1,102 -18.1,133 -28.2,164 111.7,209.4 131.9,147.4 							"/>
						</g>
					</mask>
					
						<linearGradient id="SVGID_44_" gradientUnits="userSpaceOnUse" x1="2482.0747" y1="3972.8613" x2="2482.0747" y2="3775.4971" gradientTransform="matrix(0.1029 -0.3166 0.709 0.2304 -2950.1555 49.1119)">
						<stop  offset="0" style="stop-color:#FFFFFF;stop-opacity:0"/>
						<stop  offset="1" style="stop-color:#FFFFFF;stop-opacity:0.3"/>
					</linearGradient>
					<polygon class="st42" points="-8.1,102 -18.1,133 -28.2,164 111.7,209.4 131.9,147.4 30.6,114.5 					"/>
					<defs>
						<filter id="Adobe_OpacityMaskFilter_14_" filterUnits="userSpaceOnUse" x="-22.7" y="106.1" width="157.5" height="94.3">
							<feColorMatrix  type="matrix" values="1 0 0 0 0  0 1 0 0 0  0 0 1 0 0  0 0 0 1 0"/>
						</filter>
					</defs>
					<mask maskUnits="userSpaceOnUse" x="-22.7" y="106.1" width="157.5" height="94.3" id="SVGID_45_">
						<g class="st43">
							
								<linearGradient id="SVGID_46_" gradientUnits="userSpaceOnUse" x1="1714.6162" y1="4087.7358" x2="1910.4191" y2="4087.7358" gradientTransform="matrix(6.921479e-02 -0.3256 0.7292 0.155 -3050.0376 109.9142)">
								<stop  offset="0.3166" style="stop-color:#FFFFFF"/>
								<stop  offset="0.5712" style="stop-color:#FDFDFD"/>
								<stop  offset="0.663" style="stop-color:#F6F6F6"/>
								<stop  offset="0.7284" style="stop-color:#EBEBEB"/>
								<stop  offset="0.7813" style="stop-color:#DADADA"/>
								<stop  offset="0.8266" style="stop-color:#C4C4C4"/>
								<stop  offset="0.8667" style="stop-color:#A8A8A8"/>
								<stop  offset="0.903" style="stop-color:#888888"/>
								<stop  offset="0.9364" style="stop-color:#626262"/>
								<stop  offset="0.9674" style="stop-color:#373737"/>
								<stop  offset="0.995" style="stop-color:#090909"/>
								<stop  offset="1" style="stop-color:#000000"/>
							</linearGradient>
							<polygon class="st44" points="-9.2,106.1 -15.9,138 -22.7,169.8 121.2,200.4 134.8,136.7 							"/>
						</g>
					</mask>
					
						<linearGradient id="SVGID_47_" gradientUnits="userSpaceOnUse" x1="1812.5173" y1="4186.418" x2="1812.5173" y2="3989.054" gradientTransform="matrix(6.921479e-02 -0.3256 0.7292 0.155 -3050.0376 109.9142)">
						<stop  offset="0" style="stop-color:#FFFFFF;stop-opacity:0"/>
						<stop  offset="1" style="stop-color:#FFFFFF;stop-opacity:0.3"/>
					</linearGradient>
					<polygon class="st45" points="-9.2,106.1 -15.9,138 -22.7,169.8 121.2,200.4 134.8,136.7 30.6,114.5 					"/>
					<defs>
						<filter id="Adobe_OpacityMaskFilter_15_" filterUnits="userSpaceOnUse" x="-16.6" y="110.3" width="153.1" height="80.2">
							<feColorMatrix  type="matrix" values="1 0 0 0 0  0 1 0 0 0  0 0 1 0 0  0 0 0 1 0"/>
						</filter>
					</defs>
					<mask maskUnits="userSpaceOnUse" x="-16.6" y="110.3" width="153.1" height="80.2" id="SVGID_48_">
						<g class="st46">
							
								<linearGradient id="SVGID_49_" gradientUnits="userSpaceOnUse" x1="998.741" y1="4268.8672" x2="1194.5438" y2="4268.8672" gradientTransform="matrix(3.479803e-02 -0.3311 0.7414 7.792069e-02 -3143.0171 180.8239)">
								<stop  offset="0.3166" style="stop-color:#FFFFFF"/>
								<stop  offset="0.5712" style="stop-color:#FDFDFD"/>
								<stop  offset="0.663" style="stop-color:#F6F6F6"/>
								<stop  offset="0.7284" style="stop-color:#EBEBEB"/>
								<stop  offset="0.7813" style="stop-color:#DADADA"/>
								<stop  offset="0.8266" style="stop-color:#C4C4C4"/>
								<stop  offset="0.8667" style="stop-color:#A8A8A8"/>
								<stop  offset="0.903" style="stop-color:#888888"/>
								<stop  offset="0.9364" style="stop-color:#626262"/>
								<stop  offset="0.9674" style="stop-color:#373737"/>
								<stop  offset="0.995" style="stop-color:#090909"/>
								<stop  offset="1" style="stop-color:#000000"/>
							</linearGradient>
							<polygon class="st47" points="-9.8,110.3 -13.2,142.7 -16.6,175.1 129.7,190.5 136.5,125.7 							"/>
						</g>
					</mask>
					
						<linearGradient id="SVGID_50_" gradientUnits="userSpaceOnUse" x1="1096.6422" y1="4367.5498" x2="1096.6422" y2="4170.1855" gradientTransform="matrix(3.479803e-02 -0.3311 0.7414 7.792069e-02 -3143.0171 180.8239)">
						<stop  offset="0" style="stop-color:#FFFFFF;stop-opacity:0"/>
						<stop  offset="1" style="stop-color:#FFFFFF;stop-opacity:0.3"/>
					</linearGradient>
					<polygon class="st48" points="-9.8,110.3 -13.2,142.7 -16.6,175.1 129.7,190.5 136.5,125.7 30.6,114.5 					"/>
					<defs>
						<filter id="Adobe_OpacityMaskFilter_16_" filterUnits="userSpaceOnUse" x="-10" y="114.5" width="147.1" height="72.7">
							<feColorMatrix  type="matrix" values="1 0 0 0 0  0 1 0 0 0  0 0 1 0 0  0 0 0 1 0"/>
						</filter>
					</defs>
					<mask maskUnits="userSpaceOnUse" x="-10" y="114.5" width="147.1" height="72.7" id="SVGID_51_">
						<g class="st49">
							
								<linearGradient id="SVGID_52_" gradientUnits="userSpaceOnUse" x1="221.9136" y1="4415.5894" x2="440.192" y2="4415.5894" gradientTransform="matrix(9.757846e-09 -0.3329 0.7454 9.501721e-10 -3228.0752 261.0642)">
								<stop  offset="0.3166" style="stop-color:#FFFFFF"/>
								<stop  offset="0.5712" style="stop-color:#FDFDFD"/>
								<stop  offset="0.663" style="stop-color:#F6F6F6"/>
								<stop  offset="0.7284" style="stop-color:#EBEBEB"/>
								<stop  offset="0.7813" style="stop-color:#DADADA"/>
								<stop  offset="0.8266" style="stop-color:#C4C4C4"/>
								<stop  offset="0.8667" style="stop-color:#A8A8A8"/>
								<stop  offset="0.903" style="stop-color:#888888"/>
								<stop  offset="0.9364" style="stop-color:#626262"/>
								<stop  offset="0.9674" style="stop-color:#373737"/>
								<stop  offset="0.995" style="stop-color:#090909"/>
								<stop  offset="1" style="stop-color:#000000"/>
							</linearGradient>
							<polygon class="st50" points="-10,114.5 -10,150.9 -10,187.2 137.1,187.2 137.1,114.5 							"/>
						</g>
					</mask>
					
						<linearGradient id="SVGID_53_" gradientUnits="userSpaceOnUse" x1="331.0525" y1="4514.2715" x2="331.0525" y2="4316.9072" gradientTransform="matrix(9.757846e-09 -0.3329 0.7454 9.501721e-10 -3228.0752 261.0642)">
						<stop  offset="0" style="stop-color:#FFFFFF;stop-opacity:0"/>
						<stop  offset="1" style="stop-color:#FFFFFF;stop-opacity:0.2"/>
					</linearGradient>
					<polygon class="st51" points="-10,114.5 -10,150.9 -10,187.2 137.1,187.2 137.1,114.5 30.6,114.5 					"/>
					
						<linearGradient id="SVGID_54_" gradientUnits="userSpaceOnUse" x1="229.6829" y1="1000.2701" x2="229.6829" y2="802.9059" gradientTransform="matrix(0.9511 -0.309 0.1691 0.5204 -334.8863 -254.9023)">
						<stop  offset="0" style="stop-color:#FFFFFF;stop-opacity:0.6"/>
						<stop  offset="1" style="stop-color:#FFFFFF;stop-opacity:0"/>
					</linearGradient>
					<polygon class="st52" points="112.4,61.7 19.3,91.9 -73.8,122.2 -40.4,224.9 145.8,164.4 					"/>
					
						<linearGradient id="SVGID_55_" gradientUnits="userSpaceOnUse" x1="134.7147" y1="1956.4628" x2="134.7147" y2="1759.0986" gradientTransform="matrix(0.809 -0.5878 0.5515 0.7591 -1048.8927 -1141.4413)">
						<stop  offset="0" style="stop-color:#FFFFFF;stop-opacity:0.5"/>
						<stop  offset="1" style="stop-color:#FFFFFF;stop-opacity:0"/>
					</linearGradient>
					<polygon class="st53" points="109.4,57.1 30.2,114.6 -49,172.2 59.9,322 218.3,206.9 					"/>
					
						<linearGradient id="SVGID_56_" gradientUnits="userSpaceOnUse" x1="195.2509" y1="1672.4232" x2="195.2509" y2="1475.059" gradientTransform="matrix(0.866 -0.5 0.4691 0.8125 -830.8632 -986.2952)">
						<stop  offset="0" style="stop-color:#FFFFFF;stop-opacity:0.5"/>
						<stop  offset="1" style="stop-color:#FFFFFF;stop-opacity:0"/>
					</linearGradient>
					<polygon class="st54" points="115,65.7 30.2,114.6 -54.6,163.6 38,323.9 207.6,226 					"/>
					
						<linearGradient id="SVGID_57_" gradientUnits="userSpaceOnUse" x1="227.5989" y1="1383.1952" x2="227.5989" y2="1185.8311" gradientTransform="matrix(0.9135 -0.4067 0.3816 0.8571 -630.2454 -809.2086)">
						<stop  offset="0" style="stop-color:#FFFFFF;stop-opacity:0.6"/>
						<stop  offset="1" style="stop-color:#FFFFFF;stop-opacity:0"/>
					</linearGradient>
					<polygon class="st55" points="119.6,74.8 30.2,114.6 -59.2,154.4 16.1,323.6 195,244 					"/>
					<defs>
						<filter id="Adobe_OpacityMaskFilter_17_" filterUnits="userSpaceOnUse" x="-65.6" y="94.3" width="230" height="221.8">
							<feColorMatrix  type="matrix" values="1 0 0 0 0  0 1 0 0 0  0 0 1 0 0  0 0 0 1 0"/>
						</filter>
					</defs>
					<mask maskUnits="userSpaceOnUse" x="-65.6" y="94.3" width="230" height="221.8" id="SVGID_58_">
						<g class="st56">
							
								<linearGradient id="SVGID_59_" gradientUnits="userSpaceOnUse" x1="107.0911" y1="702.7272" x2="302.894" y2="702.7272" gradientTransform="matrix(0.9781 -0.2079 0.1951 0.9177 -288.1342 -397.1091)">
								<stop  offset="0" style="stop-color:#000000"/>
								<stop  offset="1" style="stop-color:#FFFFFF"/>
							</linearGradient>
							<polygon class="st57" points="126,94.3 30.2,114.6 -65.6,135 -27.1,316.1 164.5,275.4 							"/>
						</g>
					</mask>
					
						<linearGradient id="SVGID_60_" gradientUnits="userSpaceOnUse" x1="204.9925" y1="801.4093" x2="204.9925" y2="604.0451" gradientTransform="matrix(0.9781 -0.2079 0.1951 0.9177 -288.1342 -397.1091)">
						<stop  offset="0" style="stop-color:#FFFFFF;stop-opacity:0.6"/>
						<stop  offset="1" style="stop-color:#FFFFFF;stop-opacity:0"/>
					</linearGradient>
					<polygon class="st58" points="126,94.3 30.2,114.6 -65.6,135 -27.1,316.1 164.5,275.4 					"/>
					
						<linearGradient id="SVGID_61_" gradientUnits="userSpaceOnUse" x1="233.0369" y1="1092.4106" x2="233.0369" y2="895.0464" gradientTransform="matrix(0.9511 -0.309 0.2899 0.8923 -450.924 -612.0303)">
						<stop  offset="0" style="stop-color:#FFFFFF;stop-opacity:0.6"/>
						<stop  offset="1" style="stop-color:#FFFFFF;stop-opacity:0"/>
					</linearGradient>
					<polygon class="st59" points="123.3,84.4 30.2,114.6 -62.9,144.9 -5.7,321 180.5,260.5 					"/>
				</g>
				<path class="st0" d="M61.6,0C27.6,0,0,27.6,0,61.6c0,11.2,3,21.7,8.3,30.8c5.4,9.3,13.1,17.1,22.4,22.5l61.8-44.9l29.3-21.3
					C115.8,20.8,91.1,0,61.6,0z"/>
			</g>
		</g>
	</g>
</g>
</svg>
