<svg viewBox="0 0 244 66" xmlns="http://www.w3.org/2000/svg"><g fill="#ea5139"><path d="m36.49 43.92q-2.33-2.06-9-4.86a36.15 36.15 0 0 1 -6.9-3.69c-5.14-3.59-7.73-8-7.73-13.33a13.63 13.63 0 0 1 2.89-8.85 14 14 0 0 1 1.06-1.19l-11 2.53a5.92 5.92 0 0 0 -4.45 7.11l9.09 39.32a6 6 0 0 0 7.12 4.45l4.5-1-.35-.08a44.09 44.09 0 0 1 -8.72-3.82l4.72-10.51a21 21 0 0 0 13.38 4.7c5.15 0 7.71-1.83 7.72-5.49a6.77 6.77 0 0 0 -2.33-5.29z"/><path d="m61.35 49.21-9.09-39.32a6 6 0 0 0 -7.12-4.45l-6.62 1.56c.76.12 1.52.26 2.26.43a36.15 36.15 0 0 1 8.55 3.07l-3.81 10.23c-2.88-2.47-6.91-3.73-12.05-3.73q-6.91 0-6.92 5.5a5 5 0 0 0 2.28 3.91q2.27 1.74 9.71 4.7a30.26 30.26 0 0 1 8.21 4.57 15.22 15.22 0 0 1 5.8 12.61 15.2 15.2 0 0 1 -3.15 9.74l7.5-1.73a5.92 5.92 0 0 0 4.45-7.09z"/><path d="m215.84 24.36a12.54 12.54 0 0 1 23.63-5.86l-4.6 1.5a7.81 7.81 0 1 0 -.51 9.39l-2.74.45-3.33-3.33 7.16-1.17 7.17-1.17-1.17 7.17-1.17 7.16-3.28-3.32.32-2a12.54 12.54 0 0 1 -21.43-8.85zm-145 3.74a8 8 0 0 0 .83 3.9 7.74 7.74 0 0 0 2.33 2.71 9.84 9.84 0 0 0 3.36 1.54 16 16 0 0 0 8.33-.06 9.47 9.47 0 0 0 3.19-1.62 7 7 0 0 0 2-2.5 7.55 7.55 0 0 0 .6-3.07 5.87 5.87 0 0 0 -.89-3.36 7 7 0 0 0 -2.06-2.12 8.49 8.49 0 0 0 -2.43-1.14c-.8-.25-1.43-.42-1.88-.51l-3.74-1a14.66 14.66 0 0 1 -2.23-.75 2.51 2.51 0 0 1 -1.06-.83 2.19 2.19 0 0 1 -.28-1.16 2.32 2.32 0 0 1 .35-1.31 3.13 3.13 0 0 1 .85-.85 3.69 3.69 0 0 1 1.2-.48 6.48 6.48 0 0 1 1.31-.14 9.2 9.2 0 0 1 1.81.17 4.22 4.22 0 0 1 1.51.59 2.75 2.75 0 0 1 1 1.13 4.21 4.21 0 0 1 .51 1.76h5.21a7.42 7.42 0 0 0 -.82-3.6 7 7 0 0 0 -2.16-2.4 8.93 8.93 0 0 0 -3.16-1.37 14.56 14.56 0 0 0 -3.66-.44 12.35 12.35 0 0 0 -3.29.44 9.4 9.4 0 0 0 -2.95 1.37 7.47 7.47 0 0 0 -2.13 2.34 6.46 6.46 0 0 0 -.78 3.25 6.25 6.25 0 0 0 .61 2.88 6.5 6.5 0 0 0 1.68 2 9.8 9.8 0 0 0 2.34 1.3 25.11 25.11 0 0 0 2.67.82q1.33.39 2.64.69a18.42 18.42 0 0 1 2.33.72 5 5 0 0 1 1.64 1 2.1 2.1 0 0 1 .65 1.61 2.44 2.44 0 0 1 -.48 1.54 3.46 3.46 0 0 1 -1.2.93 5.64 5.64 0 0 1 -1.54.48 14.34 14.34 0 0 1 -1.54.1 8.73 8.73 0 0 1 -2.06-.24 6.22 6.22 0 0 1 -1.75-.79 4 4 0 0 1 -1.16-1.41 4.41 4.41 0 0 1 -.44-2.08zm59.76-10.33 3.08 9h-6.34zm-11.85 18.15v-24.18h-7.57l-5.49 16.83-5.69-16.83h-7.6v24.47h5l.1-17.21 6 17.17h4.15l6.07-17.34v17.38h10.34l1.94-5.44h9.15l1.85 5.44h5.59l-9.15-24.47h-5.52zm22.12-7.82a8.13 8.13 0 0 0 .83 3.9 7.74 7.74 0 0 0 2.3 2.71 9.84 9.84 0 0 0 3.36 1.54 16 16 0 0 0 8.33-.06 9.47 9.47 0 0 0 3.19-1.62 6.78 6.78 0 0 0 1.95-2.5 7.39 7.39 0 0 0 .65-3.12 5.79 5.79 0 0 0 -.89-3.36 7 7 0 0 0 -2.06-2.12 8.49 8.49 0 0 0 -2.43-1.14 19 19 0 0 0 -1.88-.51l-3.74-1a14.66 14.66 0 0 1 -2.23-.75 2.51 2.51 0 0 1 -1.06-.83 2.19 2.19 0 0 1 -.27-1.16 2.32 2.32 0 0 1 .34-1.31 3 3 0 0 1 .86-.85 3.52 3.52 0 0 1 1.2-.48 6.31 6.31 0 0 1 1.3-.14 9.31 9.31 0 0 1 1.82.17 4.17 4.17 0 0 1 1.5.59 2.82 2.82 0 0 1 1 1.13 4.21 4.21 0 0 1 .48 1.81h5.21a7.31 7.31 0 0 0 -.82-3.6 7 7 0 0 0 -2.14-2.4 8.93 8.93 0 0 0 -3.16-1.37 14.56 14.56 0 0 0 -3.66-.44 12.41 12.41 0 0 0 -3.29.44 9.4 9.4 0 0 0 -2.95 1.37 7.32 7.32 0 0 0 -2.12 2.34 6.36 6.36 0 0 0 -.79 3.25 6.25 6.25 0 0 0 .61 2.88 6.5 6.5 0 0 0 1.68 2 9.93 9.93 0 0 0 2.33 1.3 26 26 0 0 0 2.68.82q1.33.39 2.64.69a18.42 18.42 0 0 1 2.33.72 5 5 0 0 1 1.64 1 2.1 2.1 0 0 1 .65 1.61 2.44 2.44 0 0 1 -.48 1.54 3.46 3.46 0 0 1 -1.2.93 5.64 5.64 0 0 1 -1.54.48 14.34 14.34 0 0 1 -1.54.1 8.73 8.73 0 0 1 -2.06-.24 6.22 6.22 0 0 1 -1.75-.79 4 4 0 0 1 -1.16-1.41 4.41 4.41 0 0 1 -.45-2.08zm21.52 8.11h5.38v-10.55h9.9v10.55h5.38v-24.47h-5.38v9.39h-9.9v-9.39h-5.38zm23.12 0h5.38v-24.47h-5.38zm7.84 0h5l.07-16.38 10.18 16.38h5.4v-24.47h-5l-.07 16.42-10.23-16.42h-5.35z"/></g><g fill="#919193"><path d="m84.67 47.22a4.17 4.17 0 0 0 -1-1.11 4.59 4.59 0 0 0 -1.32-.68 5 5 0 0 0 -1.51-.23 5.15 5.15 0 0 0 -2.47.55 4.89 4.89 0 0 0 -1.7 1.45 6.2 6.2 0 0 0 -1 2 8.62 8.62 0 0 0 -.32 2.33 8.71 8.71 0 0 0 .32 2.32 6.16 6.16 0 0 0 1 2 4.89 4.89 0 0 0 1.7 1.45 5.15 5.15 0 0 0 2.47.55 4.46 4.46 0 0 0 1.83-.36 4.53 4.53 0 0 0 1.4-1 5.09 5.09 0 0 0 1-1.47 6.33 6.33 0 0 0 .47-1.82h1.38a8.11 8.11 0 0 1 -.63 2.42 6.07 6.07 0 0 1 -1.29 1.92 5.28 5.28 0 0 1 -1.82 1.15 6.35 6.35 0 0 1 -2.32.41 6.85 6.85 0 0 1 -3-.62 6.3 6.3 0 0 1 -2.14-1.65 7 7 0 0 1 -1.28-2.4 9.73 9.73 0 0 1 0-5.72 7.06 7.06 0 0 1 1.28-2.41 6.2 6.2 0 0 1 2.14-1.66 6.85 6.85 0 0 1 3-.62 6.6 6.6 0 0 1 2 .31 5.64 5.64 0 0 1 1.78.9 5.09 5.09 0 0 1 1.36 1.47 4.84 4.84 0 0 1 .68 2h-1.42a4.69 4.69 0 0 0 -.59-1.48z"/><path d="m92.26 48.71a7.24 7.24 0 0 1 1.28-2.41 6.2 6.2 0 0 1 2.14-1.66 6.9 6.9 0 0 1 3-.62 6.81 6.81 0 0 1 3 .62 6.26 6.26 0 0 1 2.13 1.66 7.24 7.24 0 0 1 1.28 2.41 9.95 9.95 0 0 1 0 5.72 7.19 7.19 0 0 1 -1.28 2.4 6.36 6.36 0 0 1 -2.13 1.65 6.81 6.81 0 0 1 -3 .62 6.9 6.9 0 0 1 -3-.62 6.3 6.3 0 0 1 -2.14-1.65 7.19 7.19 0 0 1 -1.28-2.4 9.95 9.95 0 0 1 0-5.72zm1.27 5.18a6.18 6.18 0 0 0 1 2 4.86 4.86 0 0 0 1.69 1.45 5.19 5.19 0 0 0 2.48.55 5.08 5.08 0 0 0 2.46-.55 5 5 0 0 0 1.69-1.45 6.36 6.36 0 0 0 1-2 8.7 8.7 0 0 0 .31-2.32 8.62 8.62 0 0 0 -.31-2.33 6.41 6.41 0 0 0 -1-2 5 5 0 0 0 -1.69-1.45 5.08 5.08 0 0 0 -2.46-.55 5.19 5.19 0 0 0 -2.48.55 4.86 4.86 0 0 0 -1.69 1.45 6.22 6.22 0 0 0 -1 2 8.62 8.62 0 0 0 -.31 2.33 8.7 8.7 0 0 0 .31 2.32z"/><path d="m112.82 44.33 8.44 12.25v-12.25h1.38v14.48h-1.54l-8.4-12.25v12.25h-1.38v-14.48z"/><path d="m138.42 44.33v1.17h-7.81v5.24h6.94v1.18h-6.94v6.89h-1.38v-14.48z"/><path d="m153.78 44.33v1.17h-8.62v5.24h8.08v1.18h-8.08v5.72h8.72v1.17h-10.1v-14.48z"/><path d="m166.1 44.33a6.21 6.21 0 0 1 1.69.22 4 4 0 0 1 1.4.68 3.29 3.29 0 0 1 1 1.18 3.86 3.86 0 0 1 .35 1.69 4.07 4.07 0 0 1 -.71 2.39 3.23 3.23 0 0 1 -2.11 1.3 3.34 3.34 0 0 1 1.18.38 2.32 2.32 0 0 1 .76.7 2.8 2.8 0 0 1 .42 1 7.49 7.49 0 0 1 .18 1.21v.89s0 .71.08 1.07a6.24 6.24 0 0 0 .19 1 1.89 1.89 0 0 0 .36.74h-1.52a1.57 1.57 0 0 1 -.2-.49 4.09 4.09 0 0 1 -.1-.61c0-.21 0-.42 0-.62s0-.38 0-.53c0-.51-.07-1-.13-1.53a4.07 4.07 0 0 0 -.39-1.36 2.32 2.32 0 0 0 -.85-1 2.49 2.49 0 0 0 -1.53-.33h-5.24v6.43h-1.38v-14.41zm-.1 6.88a3.58 3.58 0 0 0 1.19-.2 3 3 0 0 0 1-.56 2.7 2.7 0 0 0 .68-.88 2.64 2.64 0 0 0 .25-1.19 2.84 2.84 0 0 0 -.77-2.11 3.21 3.21 0 0 0 -2.35-.77h-5.16v5.71z"/><path d="m186.65 44.33v1.17h-8.65v5.24h8.07v1.18h-8.07v5.72h8.72v1.17h-10.1v-14.48z"/><path d="m193.86 44.33 8.44 12.25v-12.25h1.38v14.48h-1.55l-8.44-12.25v12.25h-1.38v-14.48z"/><path d="m220.26 47.22a4 4 0 0 0 -1-1.11 4.59 4.59 0 0 0 -1.32-.68 5 5 0 0 0 -1.51-.23 5.19 5.19 0 0 0 -2.48.55 4.86 4.86 0 0 0 -1.69 1.45 6.22 6.22 0 0 0 -1 2 8.62 8.62 0 0 0 -.31 2.33 8.7 8.7 0 0 0 .31 2.32 6.18 6.18 0 0 0 1 2 4.86 4.86 0 0 0 1.69 1.45 5.19 5.19 0 0 0 2.48.55 4.24 4.24 0 0 0 3.22-1.36 5.12 5.12 0 0 0 1-1.47 6 6 0 0 0 .46-1.82h1.38a7.55 7.55 0 0 1 -.63 2.42 5.88 5.88 0 0 1 -1.25 1.83 5.37 5.37 0 0 1 -1.82 1.15 6.38 6.38 0 0 1 -2.32.41 6.9 6.9 0 0 1 -3-.62 6.4 6.4 0 0 1 -2.14-1.65 7.17 7.17 0 0 1 -1.27-2.4 9.73 9.73 0 0 1 0-5.72 7.22 7.22 0 0 1 1.27-2.41 6.3 6.3 0 0 1 2.14-1.66 6.9 6.9 0 0 1 3-.62 6.6 6.6 0 0 1 2 .31 5.74 5.74 0 0 1 1.78.9 5.23 5.23 0 0 1 1.34 1.47 4.84 4.84 0 0 1 .68 2h-1.38a4.48 4.48 0 0 0 -.63-1.39z"/><path d="m238.21 44.33v1.17h-8.62v5.24h8.07v1.18h-8.07v5.72h8.72v1.17h-10.1v-14.48z"/></g></svg>