<svg xmlns="http://www.w3.org/2000/svg" width="1037.467" height="161.64"><g fill="#004450"><path d="M234.148 1.068h-20.015l-72.356 125.326-24.705-42.79-24.703 42.786L20.015 1.068H0l92.37 159.99 24.702-42.787 14.697 25.455 10.008 17.334 10.007-17.334L234.148 1.068M181.633 161.068l72.979-126.401 72.977 126.401h20.015L254.612 0l-92.993 161.068h20.014M504.3 161.068l72.979-126.401 72.977 126.401h20.015L577.279 0l-92.994 161.068H504.3M474.808 104.506c-9.233 23.548-32.144 40.229-58.967 40.229-34.977 0-63.333-28.355-63.333-63.333 0-34.978 28.356-63.334 63.333-63.334 14.699 0 28.218 5.021 38.964 13.423l10.392-13.026C451.6 7.788 434.472 1.401 415.841 1.401c-44.182 0-80 35.818-80 80.001 0 44.182 35.818 80 80 80 33.879 0 62.818-21.07 74.483-50.81l-15.516-6.086M767.455 31.466l7.072-25.082h4.806l7.071 25.082 7.98-25.082h5.756L789.079 41.24h-5.303l-6.665-23.885h-.363l-6.664 23.885h-5.304L753.72 6.384h5.756l7.979 25.082M807.892 26.03h13.828c0-2.226-.636-3.94-1.905-5.135-1.268-1.198-2.834-1.795-4.692-1.795-1.859 0-3.528.623-5.01 1.87-1.481 1.246-2.221 2.934-2.221 5.06zm18.904 4.39h-18.904c.12 1.928.921 3.483 2.403 4.662 1.481 1.18 3.173 1.77 5.077 1.77 3.021 0 5.319-1.047 6.89-3.142l2.903 3.49c-2.601 2.96-5.985 4.44-10.156 4.44-3.385 0-6.264-1.24-8.636-3.716-2.373-2.476-3.558-5.801-3.558-9.973 0-4.172 1.208-7.488 3.628-9.948 2.416-2.46 5.265-3.691 8.544-3.691 3.28 0 6.068 1.09 8.364 3.267 2.297 2.177 3.445 5.178 3.445 9.001v3.84M837.359 28.025c0 2.527.696 4.597 2.085 6.209 1.39 1.613 3.083 2.419 5.077 2.419 1.995 0 3.732-.798 5.214-2.394 1.481-1.596 2.221-3.665 2.221-6.208 0-2.544-.725-4.654-2.177-6.334-1.45-1.678-3.188-2.517-5.212-2.517-2.026 0-3.734.839-5.123 2.517-1.39 1.68-2.085 3.783-2.085 6.308zm7.933-13.713c3.233 0 5.999 1.23 8.296 3.69 2.297 2.46 3.445 5.735 3.445 9.825 0 4.088-1.141 7.412-3.422 9.972-2.282 2.561-4.943 3.84-7.979 3.84-3.037 0-5.765-1.463-8.184-4.389v3.99h-5.076V4.239h5.076v15.11c1.996-3.357 4.61-5.037 7.844-5.037M775.493 87.876l-5.757-14.361-5.757 14.361zm-13.69 5.435l-3.174 7.929h-5.712l13.963-34.856h5.712l13.963 34.856h-5.712l-3.174-7.929h-15.866M800.925 101.64c-3.356 0-6.242-1.255-8.658-3.766-2.419-2.51-3.627-5.792-3.627-9.849 0-4.055 1.26-7.355 3.785-9.898 2.522-2.543 5.598-3.815 9.226-3.815 3.626 0 6.693 1.38 9.201 4.139l-2.99 4.039c-2.086-1.995-4.189-2.992-6.303-2.992-2.115 0-3.951.774-5.507 2.32-1.557 1.545-2.335 3.54-2.335 5.983 0 2.444.771 4.513 2.312 6.209 1.54 1.695 3.438 2.543 5.69 2.543 2.25 0 4.374-1.13 6.369-3.391l2.99 3.59c-2.93 3.258-6.315 4.887-10.153 4.887M827.037 101.64c-3.356 0-6.242-1.255-8.658-3.766-2.419-2.51-3.627-5.792-3.627-9.849 0-4.055 1.26-7.355 3.785-9.898 2.522-2.543 5.598-3.815 9.226-3.815 3.626 0 6.693 1.38 9.201 4.139l-2.99 4.039c-2.086-1.995-4.189-2.992-6.303-2.992-2.115 0-3.951.774-5.507 2.32-1.557 1.545-2.335 3.54-2.335 5.983 0 2.444.771 4.513 2.312 6.209 1.54 1.695 3.438 2.543 5.69 2.543 2.25 0 4.374-1.13 6.369-3.391l2.99 3.59c-2.93 3.258-6.315 4.887-10.153 4.887M845.987 86.03h13.826c0-2.226-.636-3.939-1.905-5.135-1.268-1.197-2.833-1.795-4.69-1.795-1.86 0-3.53.623-5.01 1.87-1.483 1.246-2.221 2.934-2.221 5.06zm18.902 4.39h-18.902c.12 1.928.92 3.483 2.402 4.662 1.48 1.18 3.172 1.77 5.076 1.77 3.023 0 5.319-1.047 6.891-3.142l2.903 3.49c-2.6 2.96-5.984 4.44-10.155 4.44-3.385 0-6.265-1.24-8.637-3.716-2.372-2.476-3.559-5.801-3.559-9.974 0-4.17 1.208-7.487 3.628-9.947 2.416-2.46 5.265-3.69 8.544-3.69 3.28 0 6.068 1.089 8.364 3.266 2.297 2.178 3.445 5.178 3.445 9v3.84M887.647 93.311c0 2.527-.831 4.547-2.494 6.06-1.661 1.513-3.793 2.268-6.392 2.268-1.753 0-3.574-.348-5.462-1.047-1.89-.698-3.559-1.679-5.01-2.942l2.448-4.339c2.812 2.328 5.532 3.491 8.16 3.491 1.15 0 2.055-.29 2.72-.872.664-.582.998-1.322.998-2.22 0-1.329-1.603-2.526-4.806-3.59a5.313 5.313 0 0 0-.544-.2c-5.017-1.496-7.525-3.989-7.525-7.479 0-2.46.87-4.43 2.607-5.91 1.737-1.478 3.996-2.219 6.777-2.219 2.78 0 5.41.898 7.888 2.693l-1.903 4.14c-1.965-1.43-4.097-2.145-6.392-2.145-1.21 0-2.193.242-2.946.723-.758.482-1.135 1.206-1.135 2.17 0 .864.393 1.495 1.179 1.894.544.299 1.306.582 2.29.848.982.266 1.85.532 2.607.797.753.267 1.487.566 2.197.898.71.333 1.475.799 2.29 1.396 1.633 1.197 2.448 3.06 2.448 5.585M910.585 93.311c0 2.527-.83 4.547-2.493 6.06-1.661 1.513-3.793 2.268-6.392 2.268-1.753 0-3.575-.348-5.463-1.047-1.889-.698-3.558-1.679-5.009-2.942l2.448-4.339c2.812 2.328 5.532 3.491 8.16 3.491 1.15 0 2.055-.29 2.72-.872.665-.582.999-1.322.999-2.22 0-1.329-1.604-2.526-4.807-3.59a5.313 5.313 0 0 0-.544-.2c-5.017-1.496-7.525-3.989-7.525-7.479 0-2.46.869-4.43 2.606-5.91 1.738-1.478 3.996-2.219 6.778-2.219 2.78 0 5.409.898 7.888 2.693l-1.903 4.14c-1.965-1.43-4.097-2.145-6.392-2.145-1.21 0-2.193.242-2.947.723-.757.482-1.134 1.206-1.134 2.17 0 .864.393 1.495 1.178 1.894.544.299 1.307.582 2.291.848.981.266 1.85.532 2.607.797.753.267 1.486.566 2.197.898.71.333 1.475.799 2.29 1.396 1.633 1.197 2.447 3.06 2.447 5.585M921.42 101.24h-5.077V74.71h5.077zm-4.759-31.815c-.636-.698-.952-1.528-.952-2.493 0-.964.316-1.795.952-2.493.634-.699 1.39-1.047 2.267-1.047.876 0 1.63.348 2.265 1.047.636.698.954 1.53.954 2.493 0 .965-.318 1.795-.954 2.493-.634.699-1.389 1.048-2.265 1.048-.877 0-1.633-.35-2.267-1.048M933.75 88.025c0 2.527.695 4.597 2.085 6.209 1.39 1.613 3.084 2.419 5.078 2.419 1.995 0 3.732-.798 5.214-2.394 1.481-1.596 2.221-3.665 2.221-6.208 0-2.544-.725-4.654-2.177-6.333-1.45-1.68-3.188-2.519-5.212-2.519-2.026 0-3.734.84-5.124 2.519-1.39 1.679-2.084 3.781-2.084 6.307zm7.934-13.713c3.233 0 5.999 1.23 8.296 3.69 2.297 2.46 3.445 5.735 3.445 9.824 0 4.09-1.141 7.413-3.424 9.973-2.28 2.561-4.941 3.84-7.977 3.84-3.037 0-5.765-1.463-8.184-4.389v3.99h-5.076V64.239h5.076v15.11c1.995-3.357 4.61-5.037 7.844-5.037M964.304 101.24h-5.077V74.71h5.077zm-4.759-31.815c-.636-.698-.952-1.528-.952-2.493 0-.964.316-1.795.952-2.493.634-.699 1.39-1.047 2.267-1.047.876 0 1.632.348 2.265 1.047.636.698.954 1.53.954 2.493 0 .965-.318 1.795-.954 2.493-.633.699-1.389 1.048-2.265 1.048-.877 0-1.633-.35-2.267-1.048M976.724 101.24h-5.076V64.239h5.076v37.001M989.145 101.24h-5.077V74.71h5.077zm-4.758-31.815c-.636-.698-.952-1.528-.952-2.493 0-.964.316-1.795.952-2.493.633-.699 1.389-1.047 2.266-1.047.876 0 1.631.348 2.266 1.047.636.698.953 1.53.953 2.493 0 .965-.317 1.795-.953 2.493-.635.699-1.39 1.048-2.266 1.048-.877 0-1.633-.35-2.266-1.048M1002.745 79.2v13.463c0 1.264.302 2.27.907 3.018.604.748 1.45 1.121 2.539 1.121 1.086 0 2.13-.581 3.128-1.745l2.085 3.94c-1.784 1.762-3.756 2.642-5.916 2.642-2.161 0-4.005-.822-5.53-2.468-1.527-1.646-2.291-3.865-2.291-6.657V79.199h-3.036v-4.488h3.036v-8.327h5.078v8.327h6.347v4.488h-6.347M1018.476 111.812c-2.207 0-4.201-.88-5.984-2.643l2.312-4.538c1.057 1.098 2.152 1.646 3.287 1.646 1.132 0 2.054-.449 2.765-1.346.71-.898 1.065-1.879 1.065-2.943 0-.466-3.25-9.557-9.748-27.277h5.44l7.21 19.548 7.208-19.548h5.44l-11.696 31.516c-.696 1.728-1.694 3.092-2.994 4.089-1.298.997-2.734 1.496-4.305 1.496M772.033 155.904c1.844 0 3.431-.34 4.76-1.021 1.33-.682 2.72-1.771 4.171-3.267l3.445 3.89c-3.353 4.089-7.426 6.134-12.217 6.134-4.79 0-8.764-1.696-11.921-5.086-3.16-3.392-4.739-7.68-4.739-12.867 0-5.186 1.61-9.507 4.828-12.965 3.219-3.457 7.284-5.186 12.196-5.186 4.91 0 9.012 1.995 12.307 5.984l-3.4 4.09c-1.512-1.597-2.939-2.71-4.284-3.342-1.346-.631-2.924-.948-4.736-.948-3.206 0-5.894 1.14-8.07 3.416-2.177 2.277-3.264 5.187-3.264 8.726 0 3.542 1.079 6.5 3.24 8.876 2.16 2.378 4.722 3.566 7.684 3.566M793.748 146.03h13.827c0-2.226-.635-3.94-1.906-5.135-1.268-1.198-2.833-1.795-4.69-1.795-1.86 0-3.53.623-5.01 1.87-1.481 1.246-2.221 2.934-2.221 5.06zm18.904 4.39h-18.904c.12 1.928.92 3.482 2.403 4.661 1.48 1.181 3.173 1.771 5.076 1.771 3.022 0 5.32-1.047 6.89-3.141l2.903 3.49c-2.6 2.959-5.984 4.439-10.155 4.439-3.385 0-6.264-1.239-8.637-3.716-2.372-2.476-3.559-5.801-3.559-9.974 0-4.17 1.21-7.488 3.628-9.947 2.418-2.46 5.266-3.691 8.544-3.691 3.28 0 6.068 1.09 8.366 3.267 2.296 2.177 3.445 5.178 3.445 9.001v3.84M830.876 139.948c-2.51 0-4.397.897-5.667 2.692-1.269 1.795-1.905 4.205-1.905 7.23v11.37h-5.077v-26.53h5.077v5.337c.816-1.662 1.927-3.024 3.332-4.09 1.407-1.062 2.895-1.612 4.467-1.645l.045 5.636h-.272M842.481 139.199v13.465c0 1.262.3 2.268.907 3.016.604.748 1.45 1.122 2.539 1.122 1.086 0 2.129-.58 3.128-1.745l2.085 3.939c-1.784 1.763-3.756 2.644-5.917 2.644-2.162 0-4.004-.824-5.53-2.47-1.526-1.645-2.29-3.863-2.29-6.657V139.2h-3.036v-4.488h3.036v-8.327h5.078v8.327h6.347v4.488h-6.347M860.25 161.24h-5.077v-26.53h5.078zm-4.758-31.815c-.636-.698-.952-1.528-.952-2.493 0-.964.316-1.795.952-2.493.633-.699 1.39-1.047 2.267-1.047.876 0 1.63.348 2.265 1.047.636.698.953 1.53.953 2.493 0 .965-.317 1.795-.953 2.493-.635.699-1.39 1.048-2.265 1.048-.878 0-1.634-.35-2.267-1.048M873.85 132.517v2.194h6.347v4.488h-6.346v22.041h-5.078v-22.041h-3.037v-4.488h3.037v-2.044c0-2.793.763-5.012 2.29-6.658 1.525-1.645 3.369-2.468 5.53-2.468 2.16 0 4.132.882 5.916 2.643l-2.085 3.94c-.997-1.164-2.04-1.745-3.128-1.745s-1.935.373-2.539 1.12c-.605.75-.906 1.755-.906 3.018M890.168 161.24h-5.076v-26.53h5.076zm-4.759-31.815c-.634-.698-.952-1.528-.952-2.493 0-.964.318-1.795.952-2.493.635-.699 1.39-1.047 2.267-1.047s1.632.348 2.267 1.047c.634.698.952 1.53.952 2.493 0 .965-.318 1.795-.952 2.493-.635.699-1.39 1.048-2.267 1.048s-1.632-.35-2.267-1.048M908.212 161.64c-3.356 0-6.243-1.255-8.659-3.765-2.418-2.511-3.626-5.792-3.626-9.85 0-4.054 1.26-7.354 3.785-9.899 2.521-2.542 5.597-3.814 9.225-3.814 3.626 0 6.694 1.38 9.202 4.138l-2.991 4.04c-2.087-1.994-4.188-2.991-6.303-2.991-2.116 0-3.952.773-5.508 2.318-1.557 1.547-2.334 3.54-2.334 5.984s.772 4.512 2.313 6.208c1.54 1.696 3.437 2.545 5.688 2.545 2.252 0 4.376-1.131 6.37-3.392l2.991 3.59c-2.93 3.259-6.316 4.888-10.153 4.888M937.904 151.367v-2.244h-5.71c-3.658 0-5.486 1.264-5.486 3.79 0 1.296.453 2.286 1.359 2.967.908.681 2.169 1.021 3.785 1.021 1.617 0 3.03-.499 4.24-1.496 1.208-.997 1.812-2.344 1.812-4.038zm5.079 9.873h-4.624v-3.54c-1.995 2.626-4.67 3.94-8.026 3.94-2.508 0-4.585-.781-6.232-2.344-1.648-1.563-2.472-3.65-2.472-6.259 0-2.609.876-4.562 2.631-5.86 1.752-1.296 4.125-1.944 7.117-1.944h6.572v-.997c0-3.524-1.782-5.287-5.348-5.287-2.237 0-4.564.899-6.982 2.694l-2.267-3.491c2.932-2.56 6.257-3.84 9.975-3.84 2.84 0 5.16.79 6.957 2.37 1.799 1.578 2.699 4.063 2.699 7.454v17.104M956.039 139.199v13.465c0 1.262.3 2.268.905 3.016.605.748 1.45 1.122 2.54 1.122 1.087 0 2.13-.58 3.127-1.745l2.086 3.939c-1.784 1.763-3.756 2.644-5.917 2.644s-4.004-.824-5.53-2.47c-1.527-1.645-2.29-3.863-2.29-6.657V139.2h-3.036v-4.488h3.036v-8.327h5.079v8.327h6.346v4.488h-6.346M972.268 146.03h13.827c0-2.226-.636-3.94-1.906-5.135-1.268-1.198-2.833-1.795-4.69-1.795-1.86 0-3.53.623-5.01 1.87-1.482 1.246-2.221 2.934-2.221 5.06zm18.903 4.39h-18.903c.12 1.928.92 3.482 2.401 4.661 1.482 1.181 3.174 1.771 5.078 1.771 3.022 0 5.318-1.047 6.89-3.141l2.903 3.49c-2.6 2.959-5.984 4.439-10.155 4.439-3.385 0-6.265-1.239-8.637-3.716-2.372-2.476-3.559-5.801-3.559-9.974 0-4.17 1.208-7.488 3.628-9.947 2.416-2.46 5.266-3.691 8.544-3.691 3.28 0 6.068 1.09 8.364 3.267 2.298 2.177 3.446 5.178 3.446 9.001v3.84M713.175 161.068h-4v-160h4v160"/></g></svg>