<svg class="logo__graphic" width="120" xmlns="http://www.w3.org/2000/svg" xmlns:xlink="http://www.w3.org/1999/xlink" x="0px" y="0px"
	 viewBox="0 0 154.4 358.3" style="enable-background:new 0 0 154.4 358.3;" xml:space="preserve">
<g>
	<path class="logo__letter logo__letter1" d="M44.9,0.6h1l3.5,0.6l5.4,0.1c0.1,0,0.3,2.1,0.7,6.4v0.8l0.1,4.3l-0.1,2.9l0.1,2.9l-0.1,2.8l0.5,3l-0.5,2.8l0.3,2.8
		c0,1.2-0.2,3.3-0.5,6.3l-0.2,5c0,0.2-0.6,0.4-1.7,0.6c-0.3,0.2-1.5,0.4-3.6,0.4c-1.5-0.4-3-0.5-4.6-0.5c-0.8,0-1.8-0.1-3.3-0.4
		v-0.1c0.2-1.7,0.4-2.8,0.4-3.2V38c0-1.2,0.1-2.9,0.2-4.9l-0.1-2.8c0-1.2,0.1-3.1,0.3-5.7c-0.3-1.8-0.4-2.9-0.4-3.2V19
		c-0.2,0-0.5,0.7-0.9,2.1c-0.9,2.2-1.6,4.3-2.1,6.4c-0.4,2.1-0.8,3.8-1.2,5l-1.6,3.5c-0.6,1.9-1.1,3.3-1.5,4.1
		c-0.4,0.9-0.7,1.4-0.8,1.4c-2,0.2-4.1,0.4-6.1,0.5c-2.1-0.3-3.1-0.5-3.1-0.6c-0.6-1.8-1.3-3.7-2.1-5.7c-0.4-1.9-0.8-3.1-1.2-3.7
		c-0.8-1.4-1.2-2.4-1.3-3.2c-0.3-0.8-0.7-2.5-1.3-5.1c-0.9-3.3-1.5-5-1.5-5c-0.2,0.1-0.3,0.4-0.3,1l-0.1,1.8l0.3,2.8
		c0,1.5-0.1,3.4-0.4,5.7c0.1,2.1,0.3,4,0.5,5.7l-0.1,3c0.5,1.7,0.7,2.6,0.7,2.8l-2.7,0.5l-2.6-0.2c-2.5,0.3-4.3,0.5-5.3,0.5
		l-2.4-1.1C5,40.1,4.9,38,4.9,35.1v-1.7c0-0.5-0.1-1.6-0.4-3.3l0.4-2.9l-0.4-2.9l0.1-2.8l-0.2-2.9l0.3-9.2l0.4-2.3L4.7,4.2
		c0.5-2,0.8-3,0.9-3c2.9-0.4,5.7-0.6,8.6-0.6l2.9,0.5l3.1-0.4C22,1.2,23,1.5,23,1.6c0.9,1.9,1.3,3,1.3,3.5c0.3,1.3,0.6,2.2,0.9,2.7
		c0.6,1.1,0.9,2,0.9,2.7c0.2,1.5,0.4,2.3,0.6,2.5c0.8,1.6,1.2,2.7,1.2,3.2c0.2,1.1,0.6,1.9,1,2.5c0.6,1.1,1,2,1.1,2.8l0.4,1.2h0.1
		c1.1-2.5,1.9-5,2.5-7.4l1-3.4c0.3-1.9,0.8-3.8,1.5-5.8c0.7-1.6,1.1-3,1.1-4.2l0.1-0.7C40.5,0.8,43.3,0.6,44.9,0.6z"/>
	<path class="logo__letter logo__letter2" d="M88.3,0.6c1.9,0.4,2.9,0.7,2.9,0.8l2.5,5.3c0.5,1.9,0.9,3.3,1.4,4.1c0.4,0.7,0.9,2.2,1.6,4.2c1.1,2,2.1,4,2.9,6.1l2.8,7.3
		c0.4,1.8,1,3.3,1.7,4.7c0.2,0.3,0.5,1.5,1,3.4c1,1.8,1.5,3.1,1.5,4l0.3,1.4c-1.3,0.3-3.1,0.5-5.5,0.5l-0.1,0.1L92,41.8
		c-0.1-0.2-0.4-1.3-0.9-3.4L90,35.7l-2.6,0.5L84.8,36l-5.2,0.3l-2.5-0.6c-0.6,2.3-1.1,4.3-1.8,6.1l-0.1,0.1
		c-2.4,0.2-5.2,0.3-8.4,0.3h-1.6h-1.8l-2.9-0.6v-0.1c0.9-2.3,2-5.4,3.4-9.4c1.1-2.4,1.9-4.7,2.4-6.8c0.8-1.6,1.7-3.7,2.7-6.4
		c0.4-0.9,1-2.5,1.7-4.7L73.4,9l1.8-5.4l1.5-2.4c2.5-0.3,4.4-0.5,5.7-0.5l2.9,0.2L88.3,0.6z M83.6,15.5C83,16.9,82.4,18.4,82,20
		c-0.8,1.8-1.2,2.9-1.2,3.2l-0.3,2.2h0.1l2.8,0.1l3.5-0.2c-0.6-1.4-1-2.8-1.2-4.1c0-0.4-0.5-1.7-1.4-4L83.6,15.5L83.6,15.5z"/>
	<path class="logo__letter logo__letter3" d="M144.4,0.6c2,0,3.4,0.2,4.1,0.5c0.6,0.1,0.9,0.3,0.9,0.5c0.2,2,0.3,4,0.3,5.9v2.6c0.2,1.5,0.3,4.6,0.5,9.1v1l-0.2,4.9v1.1
		L150,30l0.1,0.1v0.1c-0.4,1.7-0.5,4-0.5,6.8v1.4c-0.2,2.2-0.3,3.4-0.4,3.4c-1.9,0.3-3.6,0.5-5.1,0.5l-0.5-0.1h-1.6
		c-1.6,0-3.7-0.2-6.4-0.6c-0.7-1.6-1.4-2.8-2.3-3.8c-0.4-0.4-1-1.6-1.7-3.5c-1.8-2.9-3.2-5.3-4.3-7.3c-1-1.4-1.9-2.9-2.7-4.3
		l-0.2-0.1v0.1l0.1,2.5l-0.3,2.8c0.4,4.3,0.6,7,0.6,8.2l-0.4,2.8l0.6,2.7c-1.6,0.5-3.3,0.8-5.2,0.8l-5.4-0.1
		c-1.5-0.4-2.3-0.6-2.4-0.7c-0.2-2-0.4-3.9-0.6-5.6l0.1-2.9l0.1-0.1l-0.1-0.2v-1.4l0.2-4l0.1-0.1l-0.1-0.2v-2.1
		c0-0.4-0.1-1.5-0.4-3.4l0.3-9.1c0.2,0,0.3-3.1,0.4-9.4c0,0,0.1-0.5,0.1-1.6l5.3-0.6l6,0.4l2.1,0.4c0.9,1.6,2,3.2,3.3,4.9
		c1.6,3.5,2.5,5.5,2.8,5.8c1.3,1.6,2.8,4,4.4,7.2c0.6,1.7,1,2.5,1.1,2.5c0.1-0.1,0.3-1,0.5-2.7v-0.4l-0.4-2.9v-2.5l-0.1-3.4l0.1-2.7
		V7.2l-0.4-5.7c0-0.1,0.8-0.3,2.4-0.8l2.6,0.2L144.4,0.6z"/>
	<path class="logo__letter logo__letter3" d="M37.2,70.6c1.5,0,3.3,0.3,5.4,0.9l0.1,0.1v0.1c0,1.8,0.2,3.5,0.5,5.2c-0.2,1.8-0.4,3.8-0.4,6.1v1.9l0.4,3.2l-0.2,2.7
		l0.1,2.8c-0.4,1.7-0.5,2.7-0.5,2.9v2.3l0.1,0.4l-1.8,6c-0.9,1.3-2.2,2.9-3.8,4.7l-2.1,1.8c-1.7,0.5-4.6,1.2-8.7,1.9l-3.8,0.1h-1
		c-2,0-4.5-0.4-7.4-1.2c-1.9-0.7-3.1-1.3-3.4-1.7c-0.9-0.5-1.7-1.1-2.4-1.9c-1-1-1.6-1.7-1.6-2.2c-1.5-3.1-2.2-5.1-2.2-6L4.1,99
		L4,95.9l0.1-2.1l-0.4-3.1L4,88l-0.5-2.8L4,77L4.1,77v-0.1l-0.4-2.8c0.3-1.5,0.5-2.4,0.6-2.5c2.6-0.6,4.4-0.8,5.5-0.8
		c3.2,0,5.9,0.2,8.2,0.7v5.1l-0.3,3.7l0.5,5.7l-0.1,0.6v1.8c0,0.4-0.1,1.5-0.4,3.5c0.3,3.3,0.5,5.4,0.5,6.1c1.4,1.7,2.2,2.5,2.2,2.5
		l3,0.2c2.2-0.2,3.3-0.3,3.3-0.4l1.9-2.3l0.1-4.1v-1.8c0-0.6,0.1-1.6,0.4-3.1v-0.2l-0.4-8.6l0.2-3l-0.3-2.8c0.2-1.9,0.4-2.9,0.5-2.9
		c1.5-0.4,2.3-0.6,2.5-0.6H34L37.2,70.6z"/>
	<path class="logo__letter" d="M81.6,70.6l2.7,0.2l2.8-0.2l5.5,0.5l2.8-0.4l2.7,0.6l0.6,2.7L98,82.1c0,0.2,0,0.3-0.1,0.3l-2.7,0.1C93,82.2,91,82,89.3,82
		c-1.7,0-3.7,0.2-6,0.5l0.1,3.4l0.2-0.1h2.6l5.4,0.1l3.6-0.1h0.2h1.7l0.1,0.1V86c0,1.7,0.2,4,0.5,6.8l0.1,1.1
		c-0.4,1.8-0.6,2.7-0.8,2.7l-0.4,0.1h-1.2c-1.7,0-3,0-3.8-0.1l-2.8,0.3c-1.9,0-3.8-0.1-5.8-0.4v3.8h0.1c2.1,0,3.9,0.1,5.5,0.4
		l2.7-0.1l2.7,0.2l5.3-0.5c0.1,1,0.2,2.1,0.2,3.4v1.8c0,0.4,0.1,1.5,0.4,3.4c-0.4,1.8-0.7,2.7-0.8,2.8l-2.7,0.6l-8.5-0.2l-3.7,0.1
		h-1.4l-3.7,0.2c-4.4-0.2-6.6-0.3-6.6-0.5c-1.5-0.3-2.2-0.5-2.2-0.6c-0.2-2.5-0.3-4.7-0.3-6.7v-0.1c0-2.2,0.1-4.7,0.4-7.4l-0.3-2.8
		l0.1-2.8L70,88.5c0.3-4.4,0.5-7.1,0.5-8.1L70.2,77c0-2.3,0.2-4.3,0.5-5.8l2.4-0.4l2.5,0.1h0.5C77.9,70.8,79.7,70.7,81.6,70.6z"/>
	<path class="logo__letter" d="M137.1,70.6c1.8,0.4,2.7,0.7,2.7,0.8v2.4l-0.2,4.2v1.8l-0.1,0.1l0.1,0.1V80c0,1.9,0.1,3.8,0.4,5.7l-0.2,2.8l0.1,2.5
		l0.1,0.3c-0.3,2.7-0.5,4.6-0.5,5.8l0.3,2.8l2.7,0.2l2.7-0.1l2.7,0.4l5.4-0.7l0.5,3.1l-0.2,3l0.2,2.9c-0.4,1.9-0.7,2.8-0.8,2.8
		l-0.4,0.1c-1.2,0-2.9,0.1-5,0.4l-5.3,0.3l-2.7-0.4c-2.1,0.2-3.9,0.3-5.4,0.3c-1,0-3-0.2-6-0.6l-2.1-0.1l-0.1-0.2l0.1-2.6l-0.5-2.9
		l0.5-2.8c0-4.7-0.1-8.6-0.2-11.6l0.1-4.8v-0.2c0-1.5-0.1-3.7-0.2-6.6c0-2,0.1-3.9,0.4-5.6l-0.1-2.7c0-0.1,1.1-0.2,3.2-0.4l2.3-0.4
		l2.8,0.2L137.1,70.6z"/>
	<path class="logo__letter" d="M44.9,174.6h1l3.5,0.6l5.4,0.1c0.1,0,0.3,2.1,0.7,6.4v0.8l0.1,4.3l-0.1,2.9l0.1,2.9l-0.1,2.8l0.5,3l-0.5,2.8l0.3,2.8
		c0,1.2-0.2,3.3-0.5,6.3l-0.2,5c0,0.2-0.6,0.4-1.7,0.6c-0.3,0.2-1.5,0.4-3.6,0.4c-1.5-0.4-3-0.5-4.6-0.5c-0.8,0-1.8-0.1-3.3-0.4
		v-0.1c0.2-1.7,0.4-2.8,0.4-3.2V212c0-1.2,0.1-2.9,0.2-4.9l-0.1-2.8c0-1.2,0.1-3.1,0.3-5.7c-0.3-1.8-0.4-2.9-0.4-3.2V193
		c-0.2,0-0.5,0.7-0.9,2.1c-0.9,2.2-1.6,4.3-2.1,6.4c-0.4,2.1-0.8,3.8-1.2,5l-1.6,3.5c-0.6,1.9-1.1,3.3-1.5,4.1
		c-0.4,0.9-0.7,1.4-0.8,1.4c-2,0.2-4.1,0.4-6.1,0.5c-2.1-0.3-3.1-0.5-3.1-0.6c-0.6-1.8-1.3-3.7-2.1-5.7c-0.4-1.9-0.8-3.1-1.2-3.7
		c-0.8-1.4-1.2-2.4-1.3-3.2c-0.3-0.8-0.7-2.5-1.3-5.1c-0.9-3.3-1.5-5-1.5-5c-0.2,0.1-0.3,0.4-0.3,1l-0.1,1.8l0.3,2.8
		c0,1.5-0.1,3.4-0.4,5.7c0.1,2.1,0.3,4,0.5,5.7l-0.1,3c0.5,1.7,0.7,2.6,0.7,2.8l-2.7,0.5l-2.6-0.2c-2.5,0.3-4.3,0.5-5.3,0.5
		l-2.4-1.1c-0.2-1.2-0.4-3.2-0.4-6.2v-1.7c0-0.5-0.1-1.6-0.4-3.3l0.4-2.9l-0.4-2.9l0.1-2.8l-0.2-2.9l0.3-9.2l0.4-2.3l-0.4-2.9
		c0.5-2,0.8-3,0.9-3c2.9-0.4,5.7-0.6,8.6-0.6l2.9,0.5l3.1-0.4c1.9,0.5,2.8,0.8,2.8,0.9c0.9,1.9,1.3,3,1.3,3.5
		c0.3,1.3,0.6,2.2,0.9,2.7c0.6,1.1,0.9,2,0.9,2.7c0.2,1.5,0.4,2.3,0.6,2.5c0.8,1.6,1.2,2.7,1.2,3.2c0.2,1.1,0.6,1.9,1,2.5
		c0.6,1.1,1,2,1.1,2.8l0.4,1.2h0.1c1.1-2.5,1.9-5,2.5-7.4l1-3.4c0.3-1.9,0.8-3.8,1.5-5.8c0.7-1.6,1.1-3,1.1-4.2l0.1-0.7
		C40.5,174.8,43.3,174.6,44.9,174.6z"/>
	<path class="logo__letter" d="M93.9,174.6c1.9,0.4,2.9,0.7,2.9,0.8l2.5,5.3c0.5,1.9,0.9,3.3,1.4,4.1c0.4,0.7,0.9,2.2,1.6,4.2c1.1,2,2.1,4,2.9,6.1
		l2.8,7.3c0.4,1.8,1,3.3,1.7,4.7c0.2,0.3,0.5,1.5,1,3.4c1,1.8,1.5,3.1,1.5,4l0.3,1.4c-1.3,0.3-3.1,0.5-5.5,0.5l-0.1,0.1l-9.1-0.5
		c-0.1-0.2-0.4-1.3-0.9-3.4l-1.1-2.7l-2.6,0.5l-2.6-0.2l-5.2,0.3l-2.5-0.6c-0.6,2.3-1.1,4.3-1.8,6.1l-0.1,0.1
		c-2.4,0.2-5.2,0.3-8.4,0.3h-1.6h-1.8l-2.9-0.6v-0.1c0.9-2.3,2-5.4,3.4-9.4c1.1-2.4,1.9-4.7,2.4-6.8c0.8-1.6,1.7-3.7,2.7-6.4
		c0.4-0.9,1-2.5,1.7-4.7l2.7-5.2l1.8-5.4l1.5-2.4c2.5-0.3,4.4-0.5,5.7-0.5l2.9,0.2L93.9,174.6z M89.3,189.5
		c-0.7,1.4-1.2,2.9-1.7,4.5c-0.8,1.8-1.2,2.9-1.2,3.2l-0.3,2.2h0.1l2.8,0.1l3.5-0.2c-0.6-1.4-1-2.8-1.2-4.1c0-0.4-0.5-1.7-1.4-4
		L89.3,189.5L89.3,189.5z"/>
	<path class="logo__letter" d="M144.9,174.6l3.1,0.4l2.4-0.1c1.9,0.3,2.9,0.5,2.9,0.5l0.2,2.4l-0.1,5.4c-0.1,2.4-0.2,3.6-0.4,3.6l-2.3-0.4l-3.3,0.2h-2.8
		l-1.5,0.1c0.4,2.4,0.5,4.4,0.5,5.8l-0.2,2.9c0.1,3.6,0.2,6.6,0.3,9.1v1.2c0,1.1-0.2,2.5-0.6,4.1l0.2,2.9l-0.3,2.9
		c-1.8,0.2-3.5,0.4-5.2,0.8c-1.8-0.3-2.9-0.4-3.4-0.4h-1.9c-1.8-0.2-2.7-0.4-2.7-0.5v-0.3v-0.9c0-1.2-0.1-2.7-0.3-4.5l0.2-2.9
		l-0.2-2.9l0.3-2.9l-0.6-2.9l0.2-2.9l-0.1-2.9c0.1-2.3,0.2-4.2,0.4-5.7l-7.4-0.4l-2.3,0.2v-0.1l-0.8-2.6c0.1-2.2,0.2-4.1,0.2-5.7
		c0.3-1.9,0.5-2.9,0.6-2.9l2.6-0.6l5.4,0.2l0.1,0.1h0.1l2.8-0.2l2.8,0.2L144.9,174.6z"/>
	<path class="logo__letter" d="M37.2,244.6c1.5,0,3.3,0.3,5.4,0.9l0.1,0.1v0.1c0,1.8,0.2,3.5,0.5,5.2c-0.2,1.8-0.4,3.8-0.4,6.1v1.9l0.4,3.2l-0.2,2.7
		l0.1,2.8c-0.4,1.7-0.5,2.7-0.5,2.9v2.3l0.1,0.4l-1.8,6c-0.9,1.3-2.2,2.9-3.8,4.7l-2.1,1.8c-1.7,0.5-4.6,1.2-8.7,1.9l-3.8,0.1h-1
		c-2,0-4.5-0.4-7.4-1.2c-1.9-0.7-3.1-1.3-3.4-1.7c-0.9-0.5-1.7-1.1-2.4-1.9c-1-1-1.6-1.7-1.6-2.2c-1.5-3.1-2.2-5.1-2.2-6L4.1,273
		L4,269.9l0.1-2.1l-0.4-3.1L4,262l-0.5-2.8L4,251l0.1-0.1v-0.1l-0.4-2.8c0.3-1.5,0.5-2.4,0.6-2.5c2.6-0.5,4.4-0.8,5.5-0.8
		c3.2,0,5.9,0.2,8.2,0.7v5.1l-0.3,3.7l0.5,5.7l-0.1,0.6v1.8c0,0.4-0.1,1.5-0.4,3.5c0.3,3.3,0.5,5.4,0.5,6.1c1.4,1.7,2.2,2.5,2.2,2.5
		l3,0.2c2.2-0.2,3.3-0.3,3.3-0.4l1.9-2.3l0.1-4.1v-1.8c0-0.6,0.1-1.6,0.4-3.1v-0.2l-0.4-8.6l0.2-3l-0.3-2.8c0.2-1.9,0.4-2.9,0.5-2.9
		c1.5-0.4,2.3-0.6,2.5-0.6H34L37.2,244.6z"/>
	<path class="logo__letter" d="M73.5,244.6c2.2,0.1,4.1,0.3,5.8,0.5l0.1-0.1l2.8-0.2l3,0.2l2.9-0.4c1.8,0.4,2.8,0.6,2.8,0.6l0.7,2.3l-0.3,3.1v1.8
		c-0.3,1.9-0.5,2.8-0.8,2.8c-0.6,1.3-1.1,2.1-1.5,2.4c-1.6,1.7-3.4,3.7-5.4,6.3c-0.5,0.8-1.8,2.3-4,4.7c-0.3,0.4-1.4,1.5-3.3,3.3
		l-1.5,1.8v0.1l2.8,0.4l2.7-0.4c1.8,0.1,3.6,0.3,5.5,0.5c1.9-0.4,3.7-0.5,5.4-0.5c0.4,2.4,0.6,4.4,0.8,5.9l-0.8,5.6
		c-2.4,0.5-4.3,0.7-5.8,0.7h-1.9l-5.1-0.2h-0.5l-3.2,0.2l-2.8-0.4c-2.1,0.3-4,0.5-5.6,0.5l-3.4-0.2h-2c-1.7-0.3-2.6-0.5-2.6-0.6
		c-0.2-1.7-0.6-3.5-0.9-5.7c0.2-2.2,0.4-4.1,0.6-6c1.1-1.3,3-3.6,5.7-6.7c1.7-1.6,2.8-2.7,3.1-3.4c0.4-0.5,1.2-1.6,2.4-3.4
		c0.9-1.1,1.8-2.1,2.7-2.9l1-0.9l-2.7-0.5c-4.5,0.1-7.4,0.3-8.8,0.5c-1.8-0.1-2.7-0.2-2.7-0.3l-0.5-2.5c0.1-1.6,0.2-3.7,0.2-6.3
		l-0.1-1.9c0.2-0.1,1.7-0.3,4.6-0.6c0,0,0.5-0.1,1.4-0.2c1.9,0,3.8,0.1,5.8,0.3L73.5,244.6z"/>
	<path class="logo__letter" d="M129.1,243.4h2.1c2.3,0.4,3.9,0.7,4.8,0.8c1,0,2.2,0.3,3.7,0.8c0.4,0,1.2,0.5,2.4,1.5c2.2,1.5,3.4,2.3,3.6,2.7
		c1.4,1.4,2.4,2.7,3,3.8c0.2,0.2,0.8,1.6,1.8,4.1c0.6,1.3,0.9,2,0.9,2.2v2.4l0.4,6.6c-0.4,2.3-0.8,4.4-1.3,6.2
		c-0.9,2-1.6,3.2-2.1,3.8c-0.2,0.6-1,1.4-2.4,2.7l-3.2,2.8c-1.7,0.6-3.5,1.5-5.4,2.5c-1.8,0.5-3,0.7-3.7,0.7H129
		c-0.5,0-1.6,0.2-3.5,0.5c-2.1-0.4-5.2-1.1-9.1-2.2l-5.1-3.7c-1.4-1.5-2.1-2.4-2.1-2.5c-1.8-3.4-2.7-5.1-2.7-5.3l-0.9-5.8l0.2-3
		l-0.1-3.2l0.1-2.7c0.9-2.4,1.4-3.7,1.4-3.9c0.3-1.5,0.6-2.3,0.9-2.5c0.9-1.5,1.5-2.3,1.9-2.4c1-0.6,2.1-1.6,3.4-2.9
		c0.4-0.6,0.9-0.9,1.6-1.2c1-0.6,2.2-1.1,3.7-1.5l4.1-1.1h2.1L129.1,243.4z M128.6,256.5l-2.8-0.2c-1.5,0.9-2.4,1.5-2.6,1.7
		c-1.1,1.5-1.7,2.4-1.7,2.7c-0.5,1.1-0.8,1.8-0.8,2.2l-0.1,2.4c0.1,2.2,0.2,3.3,0.4,3.3c0.5,1.5,0.9,2.4,1.2,2.8
		c0.7,1.2,1.3,1.8,1.7,1.8c1.3,0.6,2,0.9,2.4,0.9l2.4,0.2c2.2-0.1,3.3-0.3,3.3-0.5c1.5-0.5,2.2-0.8,2.2-1c1-1.6,1.5-2.5,1.5-2.7
		c0.5-1.3,0.9-2.9,1.3-5c-0.2-2.1-0.4-3.4-0.7-4c-0.3-1.1-0.7-1.8-1.1-2.2c-0.8-1-1.5-1.6-2-1.8l-1.7-0.9L128.6,256.5z"/>
	<path class="logo__letter" d="M32,314.6l10.1,0.3l2.1,0.2c-0.2,2-0.4,3-0.5,3.1c-1,1.7-1.5,2.8-1.5,3.2c-0.3,1.8-1.1,4.5-2.5,8.3
		c-0.5,0.9-1.1,2.5-1.7,4.7c-0.9,1.7-1.4,2.8-1.4,3.2c-0.3,1.8-0.5,2.7-0.8,2.7c-0.9,1.6-1.4,2.7-1.4,3.2c-0.8,3-1.5,4.9-2.1,5.7
		c-0.4,0.5-0.8,1.7-1.2,3.7c-0.9,1.8-1.5,2.7-1.7,2.7l-2.6,0.6l-3.1-0.1l-3,0.2c-2.4,0-4.1-0.2-5.1-0.5c-0.7-0.1-1-0.3-1-0.5
		c-1.5-3.4-2.5-6.1-3.1-8.1c-0.8-1.4-1.8-4.1-3-8c-0.7-1.4-1.5-3.1-2.2-5.3c-0.9-3.7-1.7-6.4-2.5-8.1c-0.6-1.6-1.1-3.4-1.7-5.5
		c-0.6-1.5-1.2-3.1-1.7-5l0.2-0.1c1.8-0.2,3.8-0.3,5.8-0.3l1.4,0.1h1.2l3.8-0.2c1.9,0.3,2.9,0.5,2.9,0.6l1.7,5.5
		c0.2,2,0.4,3.2,0.6,3.7c1.1,2.5,1.9,5.3,2.4,8.4c0.2,1.4,0.5,2.6,0.9,3.7c0.8,2.4,1.3,3.6,1.4,3.7c1.7-6.5,2.6-10.1,2.6-11.1
		c0.7-1.8,1.1-2.8,1.1-3c0.2-2,0.3-3.3,0.5-3.7c1.5-4.6,2.2-7,2.2-7.1L32,314.6z"/>
	<path class="logo__letter" d="M77.1,314.6c4.1,0.1,6.2,0.2,6.2,0.4c1.5,0.3,2.2,0.5,2.2,0.6l0.1,3.2l-0.3,7.1v0.7l0.2,3.2c-0.2,2-0.2,3.7-0.2,5
		c0,2.3,0.1,6.1,0.4,11.3v0.8l-0.4,3l0.3,2.9c-0.2,1.9-0.3,2.8-0.4,2.8c-1.7,0.4-2.6,0.7-2.8,0.7h-2l-3.4,0.2
		c-1.9,0-3.6-0.3-5.1-0.8l-0.4-2.9l0.3-2.9c-0.1-2.1-0.3-4-0.5-5.7l0.3-2.9l-0.1-2.9l0.1-2.8l-0.1-2.9l0.2-5.7l-0.2-2.9v-0.7
		c0-2.6,0.2-5.3,0.5-8C74.6,314.8,76.3,314.6,77.1,314.6z"/>
	<path class="logo__letter" d="M134.8,313.4h5.5c2.5,0.2,4.1,0.5,4.7,0.6c1.2,0.3,2.2,0.6,3,1.1c2.7,1.3,4.1,2,4.1,2.2l1.7,2v0.2c-0.9,1.4-2,2.9-3.3,4.4
		c-1.4,1.1-2.5,2.3-3.4,3.5l-1.9,2.4h-0.1c-0.8-1.5-1.3-2.3-1.4-2.3c-1.2-0.4-2.1-0.6-2.7-0.7c-1.5,0-3.3,0.1-5.5,0.4l-2.4,1l-1.8,2
		l-0.9,2.5l0.1,2.9l-0.1,2.7c0.9,1.5,1.8,3.1,2.9,4.7c1.8,0.7,2.8,1,3,1c2,0.2,3.7,0.3,5,0.5c1.5-0.9,2.4-1.5,2.5-1.7l1.4-1.9
		c1.8,1.7,2.8,2.8,3.1,3.5c0.2,0.4,1.2,1.5,2.9,3.3c1,1.2,1.9,2.4,2.8,3.6c-1.1,1.5-1.8,2.3-2.1,2.7c-1.7,1.2-2.6,1.8-2.9,1.8
		c-1.4,0.6-3.1,1.1-5.3,1.6h-1.9l-3.8,0.1l-0.1,0.1h-0.1l-3-0.3l-2.6,0.1h-0.3c-1.7-0.4-2.8-0.7-3.3-1l-5.3-2.6
		c-1.5-1.2-2.3-1.9-2.5-2.2c-1.1-1.3-1.9-2.6-2.5-3.7l-2.1-3.5c-0.4-1.8-0.6-3.2-0.6-4.4c0-0.8-0.1-2.3-0.4-4.4c0-2.9,0.4-6,1.2-9.3
		c0.7-1.7,1.6-3.2,2.5-4.7c0.1-0.2,0.9-1.1,2.5-2.7c1.5-1.3,2.4-2,2.7-2.1c1-0.4,2.6-1.2,4.8-2.2
		C132.6,313.8,134.6,313.4,134.8,313.4z"/>
</g>
</svg>
