<?xml version="1.0" encoding="utf-8"?>
<!-- Generator: Adobe Illustrator 23.0.1, SVG Export Plug-In . SVG Version: 6.00 Build 0)  -->
<svg version="1.1" id="Ebene_1" xmlns="http://www.w3.org/2000/svg" xmlns:xlink="http://www.w3.org/1999/xlink" x="0px" y="0px"
	 viewBox="0 0 152.2 114.8" style="enable-background:new 0 0 152.2 114.8;" xml:space="preserve">
<style type="text/css">
	.st0{fill:#EFEFEF;}
</style>
<path class="st0" d="M42.7,1.1h1l3.5,0.6l5.4,0.1c0.1,0,0.3,2.1,0.7,6.4V9l0.1,4.3l-0.1,2.9l0.1,2.9l-0.1,2.8l0.5,3l-0.5,2.8
	l0.3,2.8c0,1.2-0.2,3.3-0.5,6.3l-0.2,5c0,0.2-0.6,0.4-1.7,0.6c-0.3,0.2-1.5,0.4-3.6,0.4c-1.5-0.4-3-0.5-4.6-0.5
	c-0.8,0-1.8-0.1-3.3-0.4v-0.1c0.2-1.7,0.4-2.8,0.4-3.2v-0.1c0-1.2,0.1-2.9,0.2-4.9l-0.1-2.8c0-1.2,0.1-3.1,0.3-5.7
	c-0.3-1.8-0.4-2.9-0.4-3.2v-2.4c-0.2,0-0.5,0.7-0.9,2.1c-0.9,2.2-1.6,4.3-2.1,6.4c-0.4,2.1-0.8,3.8-1.2,5l-1.6,3.5
	c-0.6,1.9-1.1,3.3-1.5,4.1C32.4,41.5,32.1,42,32,42c-2,0.2-4.1,0.4-6.1,0.5c-2.1-0.3-3.1-0.5-3.1-0.6c-0.6-1.8-1.3-3.7-2.1-5.7
	c-0.4-1.9-0.8-3.1-1.2-3.7c-0.8-1.4-1.2-2.4-1.3-3.2c-0.3-0.8-0.7-2.5-1.3-5.1c-0.9-3.3-1.5-5-1.5-5c-0.2,0.1-0.3,0.4-0.3,1L15,22
	l0.3,2.8c0,1.5-0.1,3.4-0.4,5.7c0.1,2.1,0.3,4,0.5,5.7l-0.1,3c0.5,1.7,0.7,2.6,0.7,2.8l-2.7,0.5l-2.6-0.2c-2.5,0.3-4.3,0.5-5.3,0.5
	L3,41.7c-0.2-1.2-0.4-3.2-0.4-6.2v-1.7c0-0.5-0.1-1.6-0.4-3.3l0.4-2.9l-0.4-2.9l0.1-2.8L2.1,19l0.3-9.2l0.4-2.3L2.4,4.6
	c0.5-2,0.8-3,0.9-3C6.2,1.2,9,1,11.9,1l2.9,0.5l3.1-0.4c1.9,0.5,2.8,0.8,2.8,0.9C21.6,3.9,22,5,22,5.5c0.3,1.3,0.6,2.2,0.9,2.7
	c0.6,1.1,0.9,2,0.9,2.7c0.2,1.5,0.4,2.3,0.6,2.5c0.8,1.6,1.2,2.7,1.2,3.2c0.2,1.1,0.6,1.9,1,2.5c0.6,1.1,1,2,1.1,2.8l0.4,1.2h0.1
	c1.1-2.5,1.9-5,2.5-7.4l1-3.4c0.3-1.9,0.8-3.8,1.5-5.8c0.7-1.6,1.1-3,1.1-4.2l0.1-0.7C38.3,1.3,41.1,1.1,42.7,1.1L42.7,1.1z
	 M91.7,1.1c1.9,0.4,2.9,0.7,2.9,0.8l2.5,5.3c0.5,1.9,0.9,3.3,1.4,4.1c0.4,0.7,0.9,2.2,1.6,4.2c1.1,2,2.1,4,2.9,6.1l2.8,7.3
	c0.4,1.8,1,3.3,1.7,4.7c0.2,0.3,0.5,1.5,1,3.4c1,1.8,1.5,3.1,1.5,4l0.3,1.4c-1.3,0.3-3.1,0.5-5.5,0.5l-0.1,0.1l-9.1-0.5
	c-0.1-0.2-0.4-1.3-0.9-3.4l-1.1-2.7L91,36.9l-2.6-0.2L83.2,37l-2.5-0.6c-0.6,2.3-1.1,4.3-1.8,6.1l-0.1,0.1c-2.4,0.2-5.2,0.3-8.4,0.3
	H67l-2.9-0.6v-0.1c0.9-2.3,2-5.4,3.4-9.4c1.1-2.4,1.9-4.7,2.4-6.8c0.8-1.6,1.7-3.7,2.7-6.4c0.4-0.9,1-2.5,1.7-4.7L77,9.7l1.8-5.4
	l1.5-2.4c2.5-0.3,4.4-0.5,5.7-0.5l2.9,0.2L91.7,1.1L91.7,1.1z M87.1,16c-0.7,1.4-1.2,2.9-1.7,4.5c-0.8,1.8-1.2,2.9-1.2,3.2l-0.3,2.2
	H84l2.8,0.1l3.5-0.2c-0.6-1.4-1-2.8-1.2-4.1c0-0.4-0.5-1.7-1.4-4C87.7,17.7,87.1,16,87.1,16z M142.7,1.1l3.1,0.4l2.4-0.1
	c1.9,0.3,2.9,0.5,2.9,0.5l0.2,2.4l-0.1,5.4c-0.1,2.4-0.2,3.6-0.4,3.6l-2.3-0.4l-3.3,0.2h-2.8l-1.5,0.1c0.4,2.4,0.5,4.4,0.5,5.8
	l-0.2,2.9c0.1,3.6,0.2,6.6,0.3,9.1v1.2c0,1.1-0.2,2.5-0.6,4.1l0.2,2.9l-0.3,2.9c-1.8,0.2-3.5,0.4-5.2,0.8c-1.8-0.3-2.9-0.4-3.4-0.4
	h-1.9c-1.8-0.2-2.7-0.4-2.7-0.5v-1.2c0-1.2-0.1-2.7-0.3-4.5l0.2-2.9l-0.2-2.9l0.3-2.9l-0.6-2.9l0.2-2.9l-0.1-2.9
	c0.1-2.3,0.2-4.2,0.4-5.7l-7.4-0.4l-2.3,0.2v-0.1l-0.8-2.6c0.1-2.2,0.2-4.1,0.2-5.7c0.3-1.9,0.5-2.9,0.6-2.9l2.6-0.6l5.4,0.2
	l0.1,0.1h0.1l2.8-0.2l2.8,0.2L142.7,1.1L142.7,1.1z M35,71.1c1.5,0,3.3,0.3,5.4,0.9l0.1,0.1v0.1c0,1.8,0.2,3.5,0.5,5.2
	c-0.2,1.8-0.4,3.8-0.4,6.1v1.9l0.4,3.2l-0.2,2.7l0.1,2.8c-0.4,1.7-0.5,2.7-0.5,2.9v2.3l0.1,0.4l-1.8,6c-0.9,1.3-2.2,2.9-3.8,4.7
	l-2.1,1.8c-1.7,0.5-4.6,1.2-8.7,1.9l-3.8,0.1h-1c-2,0-4.5-0.4-7.4-1.2c-1.9-0.7-3.1-1.3-3.4-1.7c-0.9-0.5-1.7-1.1-2.4-1.9
	c-1-1-1.6-1.7-1.6-2.2c-1.5-3.1-2.2-5.1-2.2-6l-0.4-1.7l-0.1-3.1l0.1-2.1l-0.4-3.1l0.3-2.7l-0.5-2.8l0.5-8.2l0.1-0.1v-0.1l-0.4-2.8
	C1.8,73,2,72.1,2.1,72c2.6-0.5,4.4-0.8,5.5-0.8c3.2,0,5.9,0.2,8.2,0.7V77l-0.3,3.7l0.5,5.7L15.9,87v1.8c0,0.4-0.1,1.5-0.4,3.5
	c0.3,3.3,0.5,5.4,0.5,6.1c1.4,1.7,2.2,2.5,2.2,2.5l3,0.2c2.2-0.2,3.3-0.3,3.3-0.4l1.9-2.3l0.1-4.1v-1.8c0-0.6,0.1-1.6,0.4-3.1v-0.2
	l-0.4-8.6l0.2-3l-0.3-2.8c0.2-1.9,0.4-2.9,0.5-2.9c1.5-0.4,2.3-0.6,2.5-0.6h2.4L35,71.1L35,71.1z M71.3,71.1
	c2.2,0.1,4.1,0.3,5.8,0.5l0.1-0.1l2.8-0.2l3,0.2l2.9-0.4c1.8,0.4,2.8,0.6,2.8,0.6l0.7,2.3l-0.3,3.1v1.8c-0.3,1.9-0.5,2.8-0.8,2.8
	c-0.6,1.3-1.1,2.1-1.5,2.4c-1.6,1.7-3.4,3.7-5.4,6.3c-0.5,0.8-1.8,2.3-4,4.7c-0.3,0.4-1.4,1.5-3.3,3.3l-1.5,1.8v0.1l2.8,0.4l2.7-0.4
	c1.8,0.1,3.6,0.3,5.5,0.5c1.9-0.4,3.7-0.5,5.4-0.5c0.4,2.4,0.6,4.4,0.8,5.9l-0.8,5.6c-2.4,0.5-4.3,0.7-5.8,0.7h-1.9l-5.1-0.2h-0.5
	l-3.2,0.2l-2.8-0.4c-2.1,0.3-4,0.5-5.6,0.5l-3.4-0.2h-2c-1.7-0.3-2.6-0.5-2.6-0.6c-0.2-1.7-0.6-3.5-0.9-5.7c0.2-2.2,0.4-4.1,0.6-6
	c1.1-1.3,3-3.6,5.7-6.7c1.7-1.6,2.8-2.7,3.1-3.4c0.4-0.5,1.2-1.6,2.4-3.4c0.9-1.1,1.8-2.1,2.7-2.9l1-0.9L68,82.3
	c-4.5,0.1-7.4,0.3-8.8,0.5c-1.8-0.1-2.7-0.2-2.7-0.3L56,80c0.1-1.6,0.2-3.7,0.2-6.3l-0.1-1.9c0.2-0.1,1.7-0.3,4.6-0.6
	c0,0,0.5-0.1,1.4-0.2c1.9,0,3.8,0.1,5.8,0.3L71.3,71.1L71.3,71.1z M126.9,69.9h2.1c2.3,0.4,3.9,0.7,4.8,0.8c1,0,2.2,0.3,3.7,0.8
	c0.4,0,1.2,0.5,2.4,1.5c2.2,1.5,3.4,2.3,3.6,2.7c1.4,1.4,2.4,2.7,3,3.8c0.2,0.2,0.8,1.6,1.8,4.1c0.6,1.3,0.9,2,0.9,2.2v2.4l0.4,6.6
	c-0.4,2.3-0.8,4.4-1.3,6.2c-0.9,2-1.6,3.2-2.1,3.8c-0.2,0.6-1,1.4-2.4,2.7l-3.2,2.8c-1.7,0.6-3.5,1.5-5.4,2.5
	c-1.8,0.5-3,0.7-3.7,0.7h-4.7c-0.5,0-1.6,0.2-3.5,0.5c-2.1-0.4-5.2-1.1-9.1-2.2l-5.1-3.7c-1.4-1.5-2.1-2.4-2.1-2.5
	c-1.8-3.4-2.7-5.1-2.7-5.3l-0.9-5.8l0.2-3l-0.1-3.2l0.1-2.7c0.9-2.4,1.4-3.7,1.4-3.9c0.3-1.5,0.6-2.3,0.9-2.5
	c0.9-1.5,1.5-2.3,1.9-2.4c1-0.6,2.1-1.6,3.4-2.9c0.4-0.6,0.9-0.9,1.6-1.2c1-0.6,2.2-1.1,3.7-1.5l4.1-1.1h2.1L126.9,69.9L126.9,69.9z
	 M126.4,83l-2.8-0.2c-1.5,0.9-2.4,1.5-2.6,1.7c-1.1,1.5-1.7,2.4-1.7,2.7c-0.5,1.1-0.8,1.8-0.8,2.2l-0.1,2.4c0.1,2.2,0.2,3.3,0.4,3.3
	c0.5,1.5,0.9,2.4,1.2,2.8c0.7,1.2,1.3,1.8,1.7,1.8c1.3,0.6,2,0.9,2.4,0.9l2.4,0.2c2.2-0.1,3.3-0.3,3.3-0.5c1.5-0.5,2.2-0.8,2.2-1
	c1-1.6,1.5-2.5,1.5-2.7c0.5-1.3,0.9-2.9,1.3-5c-0.2-2.1-0.4-3.4-0.7-4c-0.3-1.1-0.7-1.8-1.1-2.2c-0.8-1-1.5-1.6-2-1.8l-1.7-0.9
	L126.4,83L126.4,83z"/>
</svg>
