<svg xmlns="http://www.w3.org/2000/svg" width="556.4" height="378.9" viewBox="0 0 556.4 378.9">
    <path d="m81 198.3 93.6-26.1 6.6-8.4 7.2 4.5 294.9-81.9 0 181.2-402.6 111.3 0-180.9z" fill="#FED91C"/>
    <path d="m351.3 299.1c1.8-0.3 3.6-0.6 5.4-0.6 1.8 0 3.6-0.3 5.7-0.9 7.5-1.8 13.8-5.1 18.6-9.6 4.8-4.5 8.4-9.6 11.1-15.9 2.7-6 4.2-12.9 5.1-20.4 0.9-7.5 1.2-15.3 1.2-23.4 0-8.1-0.3-16.2-0.6-24.6-0.3-8.1-0.6-16.2-0.9-24-0.3-7.8-0.6-15-0.9-22.2-0.3-6.9-0.6-13.5-0.6-19.5 0-18.6 1.5-34.2 4.8-46.5 3.3-12.3 9.6-21.6 19.2-27.6 1.5-0.6 2.4-1.2 3.3-1.5 1.8-0.6 4.5-0.6 7.5-0.3 3 0.3 6.3 0.9 9.3 2.1 3 1.2 5.7 2.7 7.8 4.8 2.1 2.1 3.3 4.8 3.3 7.8 0 1.8-0.3 3.6-0.6 5.7-0.3 2.1-0.9 4.2-1.5 6-1.2 4.8-2.4 10.5-3.6 16.8-1.2 6.3-2.4 12.9-3.3 20.1-0.9 6.9-1.8 14.4-2.7 21.6-0.6 7.5-0.9 14.4-0.9 21.3 0 9.9 0.3 20.4 0.6 31.5 0.3 11.1 0.6 21.6 0.6 31.5 0 12-1.8 22.8-5.7 32.4-3.9 9.6-9 18-15.9 25.2-6.9 7.2-14.7 13.2-24 18-9.3 4.8-19.2 8.7-30 11.4-3.6 0.9-8.4 1.5-14.4 2.1-6 0.6-12 0.3-18-0.3-6-0.9-11.1-2.4-15.3-4.8-4.2-2.4-6.3-6-6.3-10.8 0-2.4 0.6-5.1 2.1-7.5 1.5-2.7 3.3-5.1 5.4-7.5 2.1-2.4 4.5-4.2 7.2-6 2.7-1.8 5.1-2.7 7.5-3.6 3-0.6 5.4-0.6 7.5 0.6 2.1 1.2 3.6 2.7 5.1 4.5 1.5 2.1 2.7 4.2 3.6 6.9 0.9 2.4 2.1 4.8 3 6.9zm165.3-106.2c-0.9-3-3.6-5.7-8.1-8.4-4.2-2.7-9-5.1-13.8-8.1-5.1-2.7-9.6-5.7-14.1-8.7-4.5-3-7.2-6.6-8.7-10.2-1.5-3.9-1.8-8.1-0.9-12.3 0.9-4.2 2.7-8.4 5.7-12 3-3.9 6.6-7.2 11.4-10.2 4.8-3 10.2-5.4 16.5-6.9 10.2-2.7 19.2-3 27.3-1.2 7.8 1.8 13.2 5.4 15.6 11.4 0.9 2.1 1.2 4.5 0.9 6.6-0.3 2.1-0.9 4.2-2.1 6-0.9 1.8-2.4 3.3-3.9 4.5-1.5 1.2-3 2.1-4.5 2.4-3.3 0.9-6.3 0.6-8.7-1.2-2.4-1.5-4.8-3.3-6.9-5.4-2.1-2.1-4.2-3.9-6-5.4-1.8-1.8-4.2-2.1-6.6-1.5-3 0.6-5.1 2.1-6.6 3.9-1.5 1.8-1.8 3.9-1.2 5.4 1.5 3.6 4.8 7.2 9.9 10.5 5.1 3.3 10.8 6.6 16.8 9.6 6 3 11.7 6.3 16.8 9.3 5.1 3 8.4 6 9.6 9.3 1.5 4.2 1.8 9 0.9 13.8-0.9 4.8-3 9.6-6.6 14.1-3.3 4.5-8.1 9-14.1 12.9-6 3.9-13.2 7.2-21.6 9.6-4.8 1.2-9.6 2.4-14.4 2.7-12 1.5-21.9 0.3-29.7-4.2-7.8-4.5-12.6-10.5-14.7-18.6-0.9-2.7-1.2-5.4-0.9-8.4 0.3-3 0.9-6 2.1-8.7 1.2-2.7 3-5.4 5.4-7.5 2.4-2.1 5.1-3.9 8.1-5.1 1.8-0.9 4.2-1.2 7.2-0.9 3 0.3 5.7 0.9 8.7 2.1 1.5 0.6 3.3 1.2 4.8 2.7 1.8 1.2 3 2.7 3.9 4.8 0.9 3 1.2 5.7 0 7.8-0.9 2.1-2.1 3.9-3.6 5.1-1.5 1.5-2.7 2.7-3.9 3.9-1.2 1.2-1.8 2.1-1.2 3.3 0.9 2.1 2.7 3.6 5.4 4.2 2.7 0.6 7.2 0 13.2-1.5 5.7-1.5 9.3-3.9 11.1-7.5 1.8-3.6 2.1-7.2 0.9-10.8zM162 30c1.8 5.7 2.7 11.1 2.1 16.5-0.6 5.4-1.8 10.2-3.9 14.7-2.1 4.5-4.5 8.1-7.5 11.1-3 3-6 5.1-9 5.7-2.4 0.6-5.1 0.9-8.4 0.6-3.3-0.3-6.3-0.9-9.6-1.8-3.3-0.9-6-2.1-8.7-3.6-2.7-1.5-4.8-3.3-6-5.1-1.2-2.1-1.8-4.2-1.2-6.6 0.6-2.4 2.4-4.8 5.7-7.8 3-3 5.7-6.6 7.8-10.5 2.1-3.9 2.4-8.1 0.9-12.3-2.4-7.2-8.7-9.3-19.2-6.6-8.7 2.4-16.2 6.3-22.8 12-6.6 5.7-12 12.3-16.5 20.1-4.5 7.8-8.1 15.9-10.5 25.2-2.4 9-4.2 18.3-5.1 27.3-0.9 9.3-0.9 18 0 26.7 0.9 8.7 2.4 16.5 4.8 23.4 2.1 6 5.4 11.1 9.6 15.3 4.2 4.2 9.3 7.5 15.3 9.9 5.7 2.4 12 3.6 18.9 3.9 6.9 0.3 14.1-0.6 21.6-2.7 8.4-2.4 15.9-5.1 23.1-8.7 7.2-3.6 13.5-7.5 18.9-12 3-2.4 6-4.8 8.7-7.2 3-2.4 5.1-3.3 6.6-3.3 2.1 0.3 3.3 0.9 3.9 1.8 0.6 0.9 0.9 2.4 1.2 4.8-0.6 5.7-3.6 11.7-9 18-9 10.2-18.3 17.7-28.5 22.8-9.9 5.1-20.4 9.3-31.5 12.3-14.4 3.9-27.6 5.7-39.6 5.7-11.7-0.3-22.2-2.4-31.5-6.3-9.3-3.9-16.8-9.9-23.1-17.4-6.3-7.5-11.4-16.8-15-27.6-3.3-9.6-4.8-19.8-4.5-30.9 0.3-11.1 2.1-22.2 5.1-33.3 3.3-11.1 7.8-22.2 13.8-32.7 6-10.8 13.2-20.7 21.6-29.7 8.4-9 18-17.1 28.5-23.7 10.5-6.9 22.2-12 34.5-15.3 6.6-1.8 12.9-2.7 18.9-2.7 6 0 11.4 0.9 16.5 3.3 5.1 2.1 9.6 5.4 13.2 9.9 3.9 4.5 6.9 10.2 9.6 17.4zm74.7 105.6c-0.9-3.3-3.9-6.3-8.1-9.6-4.5-3-9.3-6.3-14.1-9.6-5.1-3.3-9.9-6.6-14.4-10.2-4.5-3.6-7.5-7.5-9-11.4-1.5-4.2-1.8-9-0.9-13.8 0.9-4.8 2.7-9.6 5.4-13.8 2.7-4.5 6.6-8.4 11.4-12 4.8-3.6 10.2-6 16.2-7.8 5.1-1.5 10.2-2.1 15-2.1 4.8 0 9 0.9 12.9 2.1 3.9 1.5 7.2 3.3 10.2 5.4 3 2.4 4.8 5.1 6 8.4 1.8 4.8 1.5 9.3-0.9 12.9-2.4 3.6-5.4 6-9 7.2-5.1 1.5-8.7 1.2-11.4-0.3-2.7-1.5-4.8-3.3-6.3-5.4-1.5-2.1-3-4.2-4.5-6-1.2-1.8-3.3-2.4-5.7-1.8-3 0.9-5.1 2.1-6.9 3.9-1.5 1.8-2.1 3.6-1.5 5.7 1.5 3.9 4.8 7.8 10.2 11.7 5.4 3.9 11.1 7.5 17.1 11.4 6 3.6 11.7 7.2 17.1 10.8 5.4 3.6 8.4 7.2 9.6 10.5 1.5 4.5 1.8 9.6 0.9 14.7-0.9 5.1-3 10.2-6.6 15.3-3.6 5.1-8.1 9.6-14.1 13.8-6 4.2-13.2 7.8-21.3 10.2-2.4 0.6-4.8 1.2-7.2 1.8-2.4 0.6-4.8 0.9-7.2 1.2-12 1.8-21.9 0.3-29.7-4.2-7.8-4.8-12.6-11.4-14.7-20.1-0.9-2.7-1.2-5.7-1.2-9.3 0-3.3 0.6-6.6 1.5-9.9 0.9-3.3 2.7-6 4.8-8.7 2.1-2.4 4.8-4.5 7.8-5.7 1.8-0.9 4.5-0.9 7.5-0.3 3.3 0.6 6.3 1.5 9 3 1.8 0.3 3.6 1.2 5.1 2.7 1.5 1.2 2.7 3 3.6 5.4 0.6 1.8 0.6 3.3 0.6 4.5 0 1.2-0.3 2.4-0.9 3.3-0.6 0.9-1.2 1.8-2.1 2.7-0.9 0.9-1.5 1.5-2.1 2.4-1.5 1.8-2.4 3.3-3 4.2-0.6 0.9-0.6 2.4-0.3 3.9 0.9 2.4 2.7 3.9 5.4 4.8 2.7 0.6 7.2 0.3 13.8-1.5 5.4-1.5 9.3-4.2 11.1-8.1 1.8-3.9 2.1-7.8 0.9-12zm88.5-24c-0.9-3.3-3.6-6.3-8.1-9-4.2-2.7-9-5.7-14.1-8.4-5.1-3-9.9-6-14.4-9.3-4.5-3.3-7.5-7.2-8.7-11.1-1.5-4.2-1.8-8.7-0.9-13.2 0.9-4.5 3-9 6.3-12.9 3-3.9 7.2-7.5 12-10.8 4.8-3.3 10.5-5.7 16.8-7.2 10.2-2.7 19.2-3.3 27-1.8 7.8 1.5 12.9 5.7 15.3 12 0.9 2.7 1.2 5.1 0.9 7.2-0.3 2.4-0.9 4.5-2.1 6.3-0.9 1.8-2.4 3.3-3.9 4.8-1.5 1.2-3 2.1-4.5 2.4-3.6 0.9-6.6 0.6-9.3-0.9-2.4-1.5-4.8-3.3-6.6-5.7-2.1-2.1-3.9-4.2-5.7-6-1.8-1.8-3.9-2.4-6.3-1.5-3 0.9-5.1 2.1-6.9 4.2-1.5 1.8-2.1 3.9-1.5 5.7 1.5 3.9 4.8 7.5 9.9 11.1 5.1 3.6 10.8 6.9 16.8 10.2 6 3.3 11.4 6.6 16.5 9.9 5.1 3.3 8.1 6.6 9.6 9.9 1.5 4.5 2.1 9.6 1.2 14.7-0.6 5.1-2.7 10.5-5.7 15.3-3.3 5.1-7.5 9.6-13.2 14.1-5.7 4.2-12.9 7.8-21.3 10.5-4.8 1.5-9.3 2.4-14.1 3-10.2 1.5-19.2 0.6-27-2.4-7.8-3-13.5-7.8-16.8-13.8-1.8-3-3-6-3.9-9-0.9-2.7-1.2-5.7-1.5-8.7 0-3 0.3-6.3 1.2-9 0.9-3 2.1-5.4 4.2-7.8 1.8-2.4 4.5-4.2 8.1-5.4 1.8-0.9 4.2-1.2 7.2-1.2 3 0 6 0.9 8.7 2.1 1.8 0.6 3.3 1.5 5.1 3 1.5 1.5 3 3.6 3.9 5.7 1.2 3.3 1.5 6 0.6 7.5-0.9 1.5-2.1 3.3-3.6 4.8-1.2 1.8-2.1 3.3-2.7 4.2-0.6 0.9-0.6 2.4-0.3 3.9 0.9 2.4 2.7 3.9 6 5.1 3 0.9 7.8 0.6 14.1-1.2 5.4-1.5 9.3-4.2 11.4-8.7 2.1-4.2 2.4-8.4 0.9-12.3zm-137.7 120.6c1.2-0.3 2.4-0.6 3.6-0.6 1.2 0 2.1 0 3 0 0.9 0 1.8 0.3 2.1 0.3 0.6 0.3 0.9 0.3 0.9 0.9 0 0.9 0 1.8 0 2.7-0.3 0.9-0.3 1.8-0.6 2.7-0.6 1.8-1.2 3.3-1.5 5.4-0.6 1.8-1.2 3.9-1.5 5.7-0.6 2.1-0.9 4.2-1.2 6.3-0.3 2.1-0.6 4.5-0.6 7.2 0 1.2 0 2.7 0 3.9 0 1.5 0.3 2.7 0.3 4.2 0.3-0.6 0.6-1.5 0.9-2.4 0.3-0.9 0.6-1.8 1.2-2.7 1.8-4.8 3.9-9.3 6-13.8 2.4-4.5 4.5-8.7 6.9-12.3 2.4-3.6 4.5-6.6 6.6-9 2.1-2.4 4.2-3.9 6-4.2 0.3 0 0.9-0.3 1.5-0.3 0.6 0 1.5 0 2.1 0 0.6 0 1.2 0.3 1.8 0.6 0.6 0.3 0.9 0.6 0.9 1.2 0 0.3 0 0.9-0.3 1.5-0.3 1.5-0.9 3-1.5 5.1-0.6 1.8-1.5 3.9-2.1 6-0.9 2.4-1.8 5.1-2.7 7.8-0.9 2.7-1.8 5.4-2.7 7.8-0.9 2.4-1.5 4.8-1.8 6.9-0.3 2.1-0.6 3.6-0.3 4.8 0 0.9 0.6 1.5 0.9 1.8 0.6 0.3 1.2 0.3 2.1 0 0.6-0.3 1.2-0.6 2.1-1.2 0.9-0.6 1.5-1.5 2.4-2.7 0.9-0.9 1.5-2.1 2.4-3 0.6-1.2 1.5-2.1 2.1-3 0.6-0.9 0.9-1.2 1.5-1.2 0.6 0 0.9 0.3 0.9 0.6 0 0.3 0 0.6 0 1.2 0 0.3 0 0.9-0.3 1.2-0.6 1.8-1.5 3.6-2.4 5.1-1.2 1.8-2.4 3.3-3.6 4.8-1.2 1.5-2.7 2.7-4.2 3.6-1.5 0.9-3 1.8-4.5 2.1-2.1 0.6-3.6 0.6-4.8 0-1.2-0.6-1.8-1.5-2.1-3.3-0.3-2.7-0.6-5.4-0.3-8.7 0.3-3 0.6-6 1.2-9l2.1-8.1c-0.9 1.2-1.8 2.4-2.7 3.9-0.9 1.8-2.1 3.9-3.3 6.3-1.2 2.7-2.7 5.7-4.2 9.3-0.9 1.8-1.8 3.6-2.4 5.4-0.6 1.8-1.2 3.3-2.1 4.8-0.9 1.5-1.5 2.7-2.7 3.6-0.9 0.9-2.4 1.8-3.9 2.1-0.9 0.3-1.8 0-2.4-0.6-0.9-0.6-1.2-1.5-1.5-2.7 0-0.6 0-0.9 0-1.2 0-0.3 0.6-1.2 1.2-2.1-0.3-2.1-0.9-4.2-0.9-6.3-0.3-2.1-0.3-3.9-0.6-5.7 0-2.1 0-3.9 0-5.4 0-1.8 0.3-3.3 0.6-4.8-1.2 2.1-2.4 5.1-3.3 9-1.2 3.9-2.4 7.8-3.6 11.4-1.2 3.6-2.7 6.9-4.5 9.6-1.8 3-3.9 5.4-6.3 7.5-2.4 2.1-5.4 3.6-8.7 4.5-3.9 0.9-6.6 0.9-8.4 0-1.8-1.2-3-2.7-3.3-5.1-0.3-1.8 0-3.3 0.9-4.8 0.9-1.5 2.1-2.4 3.3-3.3 1.2-0.9 2.4-1.2 3.6-1.5 1.2 0 2.1 0.3 2.4 1.2 0.3 0.3 0.3 0.9 0.3 1.2 0 0.3-0.3 0.9-0.3 1.2 0 0.6-0.3 0.9-0.3 1.5 0 0.6 0 0.9 0 1.5 0.3 0.9 0.6 1.5 0.9 2.4 0.3 0.6 1.2 0.9 2.1 0.6 1.2-0.3 2.7-1.2 3.6-2.1 1.2-1.2 2.1-2.4 3-4.2 0.9-1.5 1.8-3.6 2.7-5.7 0.9-2.1 1.5-4.5 2.1-6.9 0.6-2.4 1.5-4.8 2.1-7.5 0.6-2.7 1.5-5.1 2.1-7.8 0.9-3.3 2.1-6.3 3-9.3 1.2-3 2.4-5.4 3.9-7.8-0.6 0-1.2 0.3-1.8 0.3-0.6 0-1.2 0.3-1.5 0.3-2.4 0.6-5.1 1.5-7.5 2.7-2.4 1.2-4.5 2.7-6.6 4.2-1.8 1.8-3.3 3.6-4.2 5.7-0.9 2.1-1.5 4.2-0.9 6.6 0 0.6 0.3 0.9 0.3 1.2 0.3 0.3 0.3 0.6 0.6 0.6 0.3 0.3 0.3 0.3 0.6 0.6 0.3 0.3 0.3 0.3 0.3 0.6 0 0.9 0 1.5-0.3 2.1-0.3 0.6-0.9 1.2-1.5 1.8-0.6 0.6-1.2 0.9-1.8 1.5-0.6 0.3-1.2 0.6-1.8 0.9-1.2 0.3-2.1 0-3-0.6-0.9-0.6-1.5-1.8-1.8-3.6-0.3-2.4-0.3-4.8 0.6-7.2 0.6-2.4 1.8-4.5 3.3-6.6 1.5-2.1 3.6-4.2 5.7-6 2.4-1.8 4.8-3.6 7.8-5.1 2.7-1.5 5.7-3 9-4.2 3.3-1.2 6.3-2.4 9.6-3zm58.2 23.1c0 1.2-0.3 2.4-1.2 4.2-0.9 1.8-2.1 3.3-3.6 4.8-1.5 1.5-3 3-4.5 4.2-1.5 1.2-3 2.1-4.5 2.4-2.1 0.6-3.3 0.6-4.2 0-0.9-0.6-1.5-1.8-1.5-3.6 0-0.9-0.3-2.1-0.3-3.3 0-1.5 0-3 0.3-4.8 0.3-1.8 0.3-3.6 0.9-5.4 0.3-1.8 0.9-3.6 1.5-5.1 0.6-1.5 1.2-3 2.1-4.2 0.9-1.2 1.8-2.1 3-2.7 1.2-0.3 2.1-0.6 3-0.6 0.9 0 1.5 0.3 1.8 0.6 0.3 0.3 0.6 0.9 0.6 1.2 0 0.9 0 1.8 0 2.4 0 0.6-0.3 1.5-0.6 2.4-0.3 0.9-0.6 1.8-0.9 2.7-0.3 0.9-0.6 2.1-0.9 3.6-0.3 1.2-0.6 2.4-0.9 3.9-0.3 1.5-0.6 3-0.6 4.5 0 0.6 0.6 0.9 1.2 0.9 0.9-0.3 2.1-1.2 3.3-2.7 1.2-1.5 2.7-3.3 3.9-5.4 0-0.3 0.3-0.3 0.3-0.6 0.3-0.3 0.3-0.3 0.3-0.3 0.3 0 0.6 0 0.9 0.3 0.3 0.3 0.6 0.6 0.6 0.9zm-7.8-18.9c-1.2 0.3-2.1 0.3-3-0.3-0.9-0.3-1.5-1.2-1.8-2.7 0-1.2 0-2.4 0-3.3 0.3-1.2 0.6-2.1 0.9-3 0.3-0.9 0.9-1.5 1.5-2.1 0.6-0.6 1.2-0.9 1.8-1.2 0.6 0 1.2-0.3 2.1-0.3 0.9 0 1.5 0 2.4 0.3 0.6 0 1.5 0.3 1.8 0.6 0.6 0.3 0.9 0.6 0.9 1.2 0 0.6-0.3 1.2-0.9 2.4-0.6 0.6-0.9 1.5-1.5 2.4-0.3 0.9-0.9 1.8-1.2 2.7-0.3 0.9-0.6 1.5-1.2 2.1-0.3 0.6-0.9 0.9-1.2 1.2l-0.9 0.3zm40.5 10.5c0 1.2-0.6 2.4-1.5 3.9-0.9 1.5-2.1 3.3-3.6 4.8-1.5 1.5-3 3-4.8 4.2-1.8 1.2-3.3 2.1-4.5 2.4-1.8 0.6-3.3 0.6-4.8 0-1.2-0.6-2.1-1.5-2.4-3-0.3-1.2 0-2.7 0.3-4.2 0.3-1.8 0.9-3.3 1.5-4.8 0.6-1.5 0.9-3 1.5-4.5 0.6-1.5 0.6-2.4 0.6-3-0.6 0-1.2 0.3-2.1 0.9-1.5 0.9-2.4 2.1-3.6 3.9-0.9 1.8-1.8 3.6-2.4 5.7-0.6 2.1-0.9 3.9-1.2 6-0.3 2.1-0.6 3.6-0.6 4.8 0 0.6-0.3 1.2-0.9 1.5-0.6 0.3-1.5 0.9-2.7 1.2-0.3 0-0.9 0-1.8 0-0.9 0-1.5-0.9-2.1-1.8-0.3-0.3-0.3-0.9-0.6-1.5 0-0.6-0.3-1.2-0.3-2.1l0 0c0-1.5 0-3.3 0-5.1 0.3-1.8 0.3-3.6 0.9-5.4 0.3-1.8 0.9-3.6 1.2-5.4 0.6-1.8 0.9-3.3 1.5-4.8 0.6-1.5 1.2-2.4 1.8-3.3 0.6-0.9 1.2-1.5 2.1-1.5 0.6 0 1.2-0.3 1.8-0.3 0.6 0 1.2 0 1.8 0 0.6 0 1.2 0.3 1.5 0.3 0.3 0.3 0.6 0.6 0.6 0.9 0 0.3 0 0.6-0.3 0.9-0.3 0.6-0.3 0.9-0.6 1.5-0.3 0.6-0.6 1.2-0.6 1.8-0.3 0.6-0.3 1.2-0.6 1.8 0.6-1.2 1.5-2.1 2.4-3.3 0.9-0.9 1.8-2.1 2.7-2.7 0.9-0.9 1.8-1.5 2.7-2.1 0.9-0.6 1.8-0.9 2.7-1.2 0.6-0.3 1.5-0.3 2.1-0.3 0.6 0 1.2 0 1.8 0.3 0.6 0.3 1.2 0.6 1.5 0.9 0.3 0.3 0.6 0.9 0.9 1.5 0 1.2 0 2.4-0.6 4.2-0.6 1.8-1.2 3.6-1.8 5.4-0.6 1.8-1.2 3.6-1.8 5.4-0.6 1.8-0.6 3-0.6 3.9 0 0.9 0.6 0.9 1.2 0.9 0.9-0.3 1.8-0.9 3-2.1 1.2-1.2 2.4-2.7 3.3-4.5l1.5-2.7c0 0 0-0.3 0.3-0.3 0-0.3 0.3-0.3 0.6-0.3 0.6-0.3 0.9 0 1.2 0.6 0.3 0.6 0.6 0.9 0.6 1.5zm12.3-1.2c0-0.9-0.6-1.5-1.5-2.4-0.9-0.6-2.1-1.5-3-2.1-1.2-0.9-2.1-1.5-3-2.4-0.9-0.9-1.5-1.8-1.8-3 0-0.9 0-1.8 0.3-3 0.3-0.9 0.6-1.8 1.2-2.7 0.6-0.9 1.5-1.8 2.4-2.7 0.9-0.9 2.1-1.5 3-2.1 0-0.3-0.3-0.3-0.3-0.6 0-0.3 0-0.3 0-0.6-0.3-1.2 0-2.7 0.3-3.9 0.3-1.2 0.9-2.4 1.8-3.6 0.9-1.2 1.8-2.1 3-3 1.2-0.9 2.4-1.5 3.9-2.1 0.9-0.3 1.5-0.3 2.1-0.6 2.1-0.3 3.9-0.6 6-0.3 1.8 0.3 3.9 0.6 6 1.5l-0.6 2.7-0.6 3.3c-0.9 0-1.8 0-2.7 0-0.9 0-2.1-0.3-3.3-0.3-1.2 0-2.1-0.3-3-0.3-0.9 0-1.5 0-2.1 0-1.5 0-2.7 0.9-3.6 2.1-1.2 1.2-1.8 2.7-1.8 4.8 2.1-0.3 3.6 0 5.1 0.3 1.5 0.6 2.1 1.5 2.4 3 0 0.9 0 1.5-0.3 2.4-0.3 0.6-0.6 1.2-1.2 1.8-0.6 0.6-0.9 0.9-1.5 1.2-0.6 0.3-0.9 0.6-1.5 0.6-0.9 0.3-2.1 0-3.3-0.6-1.2-0.6-2.1-1.8-3-3-0.3 0.3-0.6 0.6-0.9 0.9-0.3 0.3-0.3 0.6-0.3 1.2 0 0.6 0.3 1.2 0.9 2.1 0.6 0.6 1.2 1.2 2.1 1.8 0.9 0.6 1.8 1.2 2.7 1.8 0.9 0.6 1.8 1.2 2.7 1.8 0.9 0.6 1.5 1.2 2.1 1.8 0.6 0.6 0.9 1.2 0.9 1.8 0.3 1.2 0 2.4-0.3 3.9-0.3 1.2-1.2 2.7-2.1 3.9-0.9 1.2-2.4 2.4-3.9 3.6-1.5 1.2-3.6 2.1-5.7 2.7-1.2 0.3-2.4 0.6-3.6 0.9-3 0.3-5.4 0-7.2-1.2-1.8-1.2-2.7-3-2.7-5.1 0-0.6 0-1.5 0.3-2.4 0.3-0.9 0.6-1.8 0.9-2.4 0.3-0.9 0.9-1.5 1.8-2.1 0.6-0.6 1.5-1.2 2.4-1.5 0.6-0.3 1.2-0.3 1.8-0.3 0.6 0 1.2 0.3 1.8 0.6 0.3 0.3 0.6 0.3 1.2 0.9 0.3 0.3 0.6 0.6 0.6 1.2 0 0.9 0 1.5-0.3 2.1-0.3 0.6-0.6 0.9-1.2 1.5-0.3 0.3-0.9 0.6-1.2 0.9-0.3 0.3-0.6 0.6-0.6 0.9 0 0.6 0.6 0.9 1.2 1.2 0.6 0.3 1.8 0 3.3-0.3 1.5-0.3 2.4-1.2 3-2.1 0.6-0.9 0.9-2.1 0.6-3zm32.7 0.9c-1.8 0.3-3.3 0.3-4.2 0-1.2-0.6-2.1-1.2-2.7-2.4-0.6-1.2-1.2-2.4-1.8-3.6-0.6-1.5-0.9-2.7-1.5-4.2-0.3 0.9-0.6 2.1-0.6 3-0.3 0.9-0.3 1.8-0.6 2.7 0 0.6-0.3 1.2-0.3 2.4 0 0.9-0.3 1.8-0.6 2.7-0.3 0.9-0.6 1.8-1.2 2.4-0.6 0.6-1.2 1.2-2.1 1.5-0.6 0-0.9 0-1.5 0-0.6-0.3-1.2-0.6-1.5-0.9-0.6-0.3-0.9-0.9-1.2-1.5-0.3-0.6-0.6-1.2-0.6-1.5-0.3-1.5-0.3-3 0.3-4.5 0.3-1.5 0.6-3.3 0.9-4.8 0.3-1.8 0.6-3.6 1.2-6 0.3-2.4 0.9-4.8 1.2-7.2 0.6-2.7 0.9-5.1 1.5-7.8 0.6-2.7 1.2-5.1 2.1-7.2 0.9-2.1 1.5-4.2 2.4-5.7 0.9-1.5 2.1-2.7 3-3.3 0.6-0.3 1.5-0.6 2.4-0.6 0.9 0 1.8 0 2.4 0.3 0.9 0.3 1.5 0.6 1.8 1.2 0.6 0.6 0.9 1.2 0.9 1.8 0 0.9-0.3 2.1-1.2 3.3-0.6 1.2-1.5 2.4-2.1 4.2-0.9 1.8-1.5 3.6-2.1 5.4-0.6 2.1-1.2 4.2-1.8 6.3-0.6 2.1-1.2 4.2-1.5 6 1.2-0.3 2.4-1.2 3-2.1 0.9-0.9 1.5-2.1 2.1-3.3 0.6-1.2 1.5-2.1 2.1-3.3 0.6-0.9 1.8-1.8 3-2.1 1.2-0.3 2.1-0.6 3-0.6 0.9 0 1.5 0.3 2.1 0.9 0.6 0.6 0.6 0.9 0.9 1.5 0.3 2.1-0.3 4.2-2.1 6.6-1.8 2.1-4.5 4.2-7.8 6.6 0.3 0.9 0.6 1.8 1.2 2.4 0.3 0.9 0.9 1.5 1.2 2.1 0.6 0.6 0.9 1.2 1.5 1.5 0.6 0.3 1.2 0.3 1.8 0.3 0.6 0 1.2-0.3 1.8-0.6 0.6-0.3 1.2-0.9 2.1-1.5 0.9-0.9 1.5-1.5 2.1-2.4 0.6-0.9 1.2-1.5 1.5-2.4 0.6-0.6 0.9-1.2 1.2-1.8 0.3-0.6 0.6-0.9 0.9-0.9 0.3 0 0.9 0 1.2 0 0.6 0 0.6 0.3 0.6 0.9 0 0.9-0.3 2.4-1.2 3.9-0.9 1.5-2.1 3.3-3.3 5.1-1.5 1.8-3 3.3-4.5 4.5-1.8 1.5-3.3 2.4-5.1 2.7z" fill="#302F2F"/>
</svg>